<?xml version="1.0" encoding="utf-8" standalone="no"?>
<!DOCTYPE svg PUBLIC "-//W3C//DTD SVG 1.1//EN"
  "http://www.w3.org/Graphics/SVG/1.1/DTD/svg11.dtd">
<!-- Created with matplotlib (http://matplotlib.org/) -->
<svg height="420pt" version="1.1" viewBox="0 0 562 420" width="562pt" xmlns="http://www.w3.org/2000/svg" xmlns:xlink="http://www.w3.org/1999/xlink">
 <defs>
  <style type="text/css">
*{stroke-linecap:butt;stroke-linejoin:round;stroke-miterlimit:100000;}
  </style>
 </defs>
 <g id="figure_1">
  <g id="patch_1">
   <path d="M 0 420.48 
L 562.179826 420.48 
L 562.179826 0 
L 0 0 
z
" style="fill:#ffffff;"/>
  </g>
  <g id="axes_1">
   <g id="patch_2">
    <path d="M 7.2 413.28 
L 554.979826 413.28 
L 554.979826 7.2 
L 7.2 7.2 
z
" style="fill:#ffffff;"/>
   </g>
   <g id="line2d_1">
    <path clip-path="url(#p198b55e230)" d="M 17.734227 210.275748 
L 20.734352 217.879465 
L 22.676569 222.428281 
L 24.881073 227.2176 
L 27.470767 232.316517 
L 29.830795 236.45089 
L 33.134567 241.394848 
L 35.269374 244.056719 
L 37.40418 246.296343 
L 39.487896 248.074369 
L 41.21252 249.242005 
L 44.112962 250.590421 
L 46.003633 251.059804 
L 48.221455 251.207195 
L 50.439277 250.930266 
L 51.879317 250.529715 
L 53.701812 249.78141 
L 55.930751 248.512986 
L 58.159689 246.874457 
L 61.747362 243.515545 
L 64.109935 240.85959 
L 68.158472 235.592721 
L 69.987717 232.954897 
L 75.504218 224.240795 
L 82.477936 212.20757 
L 90.150205 198.81833 
L 93.902523 192.620086 
L 99.012321 184.924461 
L 101.373417 181.752657 
L 104.15947 178.387966 
L 107.220296 175.224022 
L 110.938151 172.22269 
L 113.642337 170.676057 
L 114.838931 170.173591 
L 117.047161 169.551738 
L 119.255391 169.339055 
L 122.244052 169.726215 
L 123.840588 170.259433 
L 125.530228 171.075837 
L 127.790457 172.577861 
L 130.186542 174.686524 
L 132.582627 177.328096 
L 134.687118 180.086278 
L 136.816258 183.289877 
L 139.590829 188.078055 
L 141.23559 191.237308 
L 143.161871 195.232976 
L 145.088153 199.538729 
L 148.223099 207.180927 
L 152.295396 218.202005 
L 155.212914 226.78635 
L 159.470525 240.20822 
L 163.967617 255.331226 
L 171.187266 280.964946 
L 181.418964 317.981025 
L 186.96075 337.189683 
L 192.79247 355.919764 
L 195.0657 362.664909 
L 198.385543 371.839615 
L 201.229373 378.984528 
L 203.280718 383.688911 
L 205.050272 387.423721 
L 206.819826 390.843889 
L 209.16881 394.874811 
L 211.445208 398.20171 
L 213.660062 400.867884 
L 215.853304 402.933491 
L 218.560955 404.669795 
L 221.183568 405.470769 
L 223.906758 405.364491 
L 226.116933 404.565111 
L 227.913831 403.440238 
L 229.710728 401.88781 
L 231.349982 400.098481 
L 232.989236 397.953949 
L 234.095582 396.306611 
L 236.985748 391.248942 
L 238.576629 388.004657 
L 240.16751 384.43861 
L 241.883299 380.237558 
L 243.78655 375.154943 
L 245.6898 369.638594 
L 249.162619 358.497241 
L 252.467162 346.674263 
L 256.065306 332.550802 
L 257.70912 325.698129 
L 260.738184 312.470841 
L 265.318033 291.167451 
L 270.999233 263.006101 
L 277.755904 227.899546 
L 289.052164 168.46453 
L 294.875397 139.040981 
L 300.668462 111.573163 
L 304.827397 93.346159 
L 306.978545 84.496644 
L 309.324775 75.339105 
L 313.641158 59.952955 
L 315.751636 53.167187 
L 318.552947 44.953325 
L 320.263035 40.399565 
L 321.973123 36.204762 
L 323.871772 31.976438 
L 326.476724 26.923991 
L 328.802677 23.156843 
L 331.128631 20.10037 
L 333.743641 17.518436 
L 336.044978 15.995494 
L 336.735798 15.674932 
L 338.41499 15.157597 
L 340.094181 15.009231 
L 341.691217 15.207371 
L 343.288253 15.732521 
L 344.917485 16.600645 
L 347.659256 18.804026 
L 349.938318 21.325294 
L 352.895624 25.494099 
L 355.341861 29.674226 
L 357.01761 32.901941 
L 358.693358 36.412621 
L 360.892611 41.428999 
L 363.648944 48.330066 
L 368.86961 63.064845 
L 373.722931 78.384967 
L 377.310547 90.483146 
L 383.264336 111.53401 
L 397.981711 164.423694 
L 402.574732 179.903634 
L 407.000668 193.867493 
L 410.447503 203.942631 
L 414.707303 215.269715 
L 417.196786 221.255548 
L 419.10122 225.497719 
L 422.55101 232.403143 
L 425.384361 237.294897 
L 427.185794 240.028939 
L 429.467731 243.065516 
L 431.933128 245.805174 
L 434.695372 248.204597 
L 436.532537 249.409422 
L 438.369703 250.304396 
L 441.873801 251.16603 
L 443.531228 251.195575 
L 445.370185 250.952252 
L 447.209142 250.426214 
L 448.957891 249.671972 
L 452.20409 247.645913 
L 453.565629 246.56611 
L 456.783748 243.512536 
L 459.493733 240.438155 
L 461.357258 238.083701 
L 466.550718 230.643347 
L 469.029044 226.720302 
L 475.875204 215.084831 
L 485.579975 198.147464 
L 487.801189 194.454906 
L 492.072122 187.774606 
L 495.113237 183.456615 
L 498.762436 178.879194 
L 501.89474 175.564241 
L 504.038823 173.661824 
L 506.92033 171.616634 
L 509.806293 170.19838 
L 511.694273 169.631433 
L 513.582252 169.361739 
L 515.007937 169.360406 
L 516.74856 169.600072 
L 520.201184 170.878656 
L 523.390861 173.028637 
L 526.552151 176.089346 
L 530.63509 181.411579 
L 533.123158 185.402044 
L 535.16304 189.086788 
L 538.606197 196.125547 
L 541.856465 203.672986 
L 544.445599 210.275748 
L 544.445599 210.275748 
" style="fill:none;stroke:#0000ff;stroke-linecap:square;"/>
   </g>
   <g id="patch_3">
    <path d="M 7.2 210.275748 
L 554.979826 210.275748 
" style="fill:none;stroke:#000000;stroke-linecap:square;stroke-linejoin:miter;stroke-width:0.8;"/>
   </g>
   <g id="patch_4">
    <path d="M 281.089913 413.28 
L 281.089913 7.2 
" style="fill:none;stroke:#000000;stroke-linecap:square;stroke-linejoin:miter;stroke-width:0.8;"/>
   </g>
   <g id="matplotlib.axis_1">
    <g id="xtick_1">
     <g id="line2d_2">
      <defs>
       <path d="M 0 0 
L 0 -4 
" id="m34fbcea474" style="stroke:#000000;stroke-width:0.5;"/>
      </defs>
      <g>
       <use style="stroke:#000000;stroke-width:0.5;" x="17.7342274299" xlink:href="#m34fbcea474" y="210.275748322"/>
      </g>
     </g>
     <g id="text_1">
      <!-- $-2 \, \pi$ -->
      <defs>
       <path d="M 4.984375 0 
L 4.984375 2.6875 
Q 4.984375 2.9375 5.171875 3.21875 
L 20.703125 20.40625 
Q 24.21875 24.21875 26.40625 26.796875 
Q 28.609375 29.390625 30.75 32.765625 
Q 32.90625 36.140625 34.15625 39.625 
Q 35.40625 43.109375 35.40625 47.015625 
Q 35.40625 51.125 33.890625 54.859375 
Q 32.375 58.59375 29.375 60.84375 
Q 26.375 63.09375 22.125 63.09375 
Q 17.78125 63.09375 14.3125 60.46875 
Q 10.84375 57.859375 9.421875 53.71875 
Q 9.8125 53.8125 10.5 53.8125 
Q 12.75 53.8125 14.328125 52.296875 
Q 15.921875 50.78125 15.921875 48.390625 
Q 15.921875 46.09375 14.328125 44.5 
Q 12.75 42.921875 10.5 42.921875 
Q 8.15625 42.921875 6.5625 44.546875 
Q 4.984375 46.1875 4.984375 48.390625 
Q 4.984375 52.15625 6.390625 55.4375 
Q 7.8125 58.734375 10.46875 61.296875 
Q 13.140625 63.875 16.484375 65.234375 
Q 19.828125 66.609375 23.578125 66.609375 
Q 29.296875 66.609375 34.21875 64.1875 
Q 39.15625 61.765625 42.03125 57.34375 
Q 44.921875 52.9375 44.921875 47.015625 
Q 44.921875 42.671875 43.015625 38.765625 
Q 41.109375 34.859375 38.125 31.65625 
Q 35.15625 28.46875 30.515625 24.40625 
Q 25.875 20.359375 24.421875 19 
L 13.09375 8.109375 
L 22.703125 8.109375 
Q 29.78125 8.109375 34.546875 8.21875 
Q 39.3125 8.34375 39.59375 8.59375 
Q 40.765625 9.859375 42 17.828125 
L 44.921875 17.828125 
L 42.09375 0 
z
" id="Cmr10-32"/>
       <path d="M 10.203125 23 
Q 9.375 23 8.828125 23.625 
Q 8.296875 24.265625 8.296875 25 
Q 8.296875 25.734375 8.828125 26.359375 
Q 9.375 27 10.203125 27 
L 67.578125 27 
Q 68.359375 27 68.875 26.359375 
Q 69.390625 25.734375 69.390625 25 
Q 69.390625 24.265625 68.875 23.625 
Q 68.359375 23 67.578125 23 
z
" id="Cmsy10-a1"/>
       <path d="M 10.109375 1.703125 
Q 10.109375 2.25 10.5 3.328125 
Q 13.28125 9.125 15.6875 14.71875 
Q 18.109375 20.3125 20.03125 25.609375 
Q 21.96875 30.90625 23.578125 36.921875 
L 17.1875 36.921875 
Q 13.53125 36.921875 10.34375 34.625 
Q 7.171875 32.328125 5.078125 28.8125 
Q 4.890625 28.421875 4.5 28.421875 
L 3.328125 28.421875 
Q 2.390625 28.421875 2.390625 29.390625 
Q 2.390625 29.59375 2.59375 29.984375 
Q 5.859375 35.546875 9.59375 39.328125 
Q 13.328125 43.109375 18.015625 43.109375 
L 54.296875 43.109375 
Q 55.328125 43.109375 56.046875 42.421875 
Q 56.78125 41.75 56.78125 40.578125 
Q 56.78125 39.109375 55.734375 38.015625 
Q 54.6875 36.921875 53.21875 36.921875 
L 40.484375 36.921875 
Q 38.875 29.046875 38.71875 21.578125 
Q 38.71875 11.96875 42.09375 4.203125 
Q 42.390625 3.609375 42.390625 2.984375 
Q 42.390625 1.90625 41.75 0.96875 
Q 41.109375 0.046875 40.109375 -0.53125 
Q 39.109375 -1.125 37.984375 -1.125 
Q 35.359375 -1.125 34.375 3.171875 
Q 33.40625 7.46875 33.40625 11.53125 
Q 33.40625 17.234375 34.375 22.53125 
Q 35.359375 27.828125 37.5 36.921875 
L 26.609375 36.921875 
Q 18.703125 4.890625 17.09375 1.609375 
Q 15.671875 -1.125 13.1875 -1.125 
Q 11.96875 -1.125 11.03125 -0.3125 
Q 10.109375 0.484375 10.109375 1.703125 
" id="Cmmi10-bc"/>
      </defs>
      <g transform="translate(7.73422742987 221.874185822)scale(0.1 -0.1)">
       <use transform="translate(0.0 0.390625)" xlink:href="#Cmsy10-a1"/>
       <use transform="translate(77.685546875 0.390625)" xlink:href="#Cmr10-32"/>
       <use transform="translate(142.318000977 0.390625)" xlink:href="#Cmmi10-bc"/>
      </g>
     </g>
    </g>
    <g id="xtick_2">
     <g id="line2d_3">
      <g>
       <use style="stroke:#000000;stroke-width:0.5;" x="83.5731488666" xlink:href="#m34fbcea474" y="210.275748322"/>
      </g>
     </g>
     <g id="text_2">
      <!-- $-\frac{3}{2} \, \pi$ -->
      <defs>
       <path d="M 9.515625 7.71875 
Q 11.859375 4.296875 15.8125 2.640625 
Q 19.78125 0.984375 24.3125 0.984375 
Q 30.125 0.984375 32.5625 5.9375 
Q 35.015625 10.890625 35.015625 17.1875 
Q 35.015625 20.015625 34.5 22.84375 
Q 33.984375 25.6875 32.765625 28.125 
Q 31.546875 30.5625 29.421875 32.03125 
Q 27.296875 33.5 24.21875 33.5 
L 17.578125 33.5 
Q 16.703125 33.5 16.703125 34.421875 
L 16.703125 35.296875 
Q 16.703125 36.078125 17.578125 36.078125 
L 23.09375 36.53125 
Q 26.609375 36.53125 28.921875 39.15625 
Q 31.25 41.796875 32.328125 45.578125 
Q 33.40625 49.359375 33.40625 52.78125 
Q 33.40625 57.5625 31.15625 60.640625 
Q 28.90625 63.71875 24.3125 63.71875 
Q 20.515625 63.71875 17.046875 62.28125 
Q 13.578125 60.84375 11.53125 57.90625 
Q 11.71875 57.953125 11.859375 57.984375 
Q 12.015625 58.015625 12.203125 58.015625 
Q 14.453125 58.015625 15.96875 56.453125 
Q 17.484375 54.890625 17.484375 52.6875 
Q 17.484375 50.53125 15.96875 48.96875 
Q 14.453125 47.40625 12.203125 47.40625 
Q 10.015625 47.40625 8.453125 48.96875 
Q 6.890625 50.53125 6.890625 52.6875 
Q 6.890625 56.984375 9.46875 60.15625 
Q 12.0625 63.328125 16.140625 64.96875 
Q 20.21875 66.609375 24.3125 66.609375 
Q 27.34375 66.609375 30.703125 65.703125 
Q 34.078125 64.796875 36.8125 63.109375 
Q 39.546875 61.421875 41.28125 58.78125 
Q 43.015625 56.15625 43.015625 52.78125 
Q 43.015625 48.578125 41.140625 45.015625 
Q 39.265625 41.453125 35.984375 38.859375 
Q 32.71875 36.28125 28.8125 35.015625 
Q 33.15625 34.1875 37.0625 31.734375 
Q 40.96875 29.296875 43.328125 25.484375 
Q 45.703125 21.6875 45.703125 17.28125 
Q 45.703125 11.765625 42.671875 7.296875 
Q 39.65625 2.828125 34.71875 0.3125 
Q 29.78125 -2.203125 24.3125 -2.203125 
Q 19.625 -2.203125 14.90625 -0.40625 
Q 10.203125 1.375 7.203125 4.9375 
Q 4.203125 8.5 4.203125 13.484375 
Q 4.203125 15.96875 5.859375 17.625 
Q 7.515625 19.28125 10.015625 19.28125 
Q 11.625 19.28125 12.96875 18.53125 
Q 14.3125 17.78125 15.0625 16.40625 
Q 15.828125 15.046875 15.828125 13.484375 
Q 15.828125 11.03125 14.109375 9.375 
Q 12.40625 7.71875 10.015625 7.71875 
z
" id="Cmr10-33"/>
      </defs>
      <g transform="translate(73.7231488666 222.875748322)scale(0.1 -0.1)">
       <use transform="translate(0.0 0.33125)" xlink:href="#Cmsy10-a1"/>
       <use transform="translate(77.685546875 39.3734375)scale(0.7)" xlink:href="#Cmr10-33"/>
       <use transform="translate(77.685546875 -40.0453125)scale(0.7)" xlink:href="#Cmr10-32"/>
       <use transform="translate(139.818000977 0.33125)" xlink:href="#Cmmi10-bc"/>
       <path d="M 77.685547 12.83125 
L 77.685547 19.08125 
L 112.685547 19.08125 
L 112.685547 12.83125 
L 77.685547 12.83125 
z
"/>
      </g>
     </g>
    </g>
    <g id="xtick_3">
     <g id="line2d_4">
      <g>
       <use style="stroke:#000000;stroke-width:0.5;" x="149.412070303" xlink:href="#m34fbcea474" y="210.275748322"/>
      </g>
     </g>
     <g id="text_3">
      <!-- $-\pi$ -->
      <g transform="translate(142.662070303 221.874185822)scale(0.1 -0.1)">
       <use transform="translate(0.0 0.890625)" xlink:href="#Cmsy10-a1"/>
       <use transform="translate(77.685546875 0.890625)" xlink:href="#Cmmi10-bc"/>
      </g>
     </g>
    </g>
    <g id="xtick_4">
     <g id="line2d_5">
      <g>
       <use style="stroke:#000000;stroke-width:0.5;" x="215.25099174" xlink:href="#m34fbcea474" y="210.275748322"/>
      </g>
     </g>
     <g id="text_4">
      <!-- $-\frac{1}{2} \, \pi$ -->
      <defs>
       <path d="M 9.28125 0 
L 9.28125 3.515625 
Q 21.78125 3.515625 21.78125 6.6875 
L 21.78125 59.1875 
Q 16.609375 56.6875 8.6875 56.6875 
L 8.6875 60.203125 
Q 20.953125 60.203125 27.203125 66.609375 
L 28.609375 66.609375 
Q 28.953125 66.609375 29.265625 66.328125 
Q 29.59375 66.0625 29.59375 65.71875 
L 29.59375 6.6875 
Q 29.59375 3.515625 42.09375 3.515625 
L 42.09375 0 
z
" id="Cmr10-31"/>
      </defs>
      <g transform="translate(205.40099174 222.775748322)scale(0.1 -0.1)">
       <use transform="translate(0.0 0.8734375)" xlink:href="#Cmsy10-a1"/>
       <use transform="translate(77.685546875 38.3734375)scale(0.7)" xlink:href="#Cmr10-31"/>
       <use transform="translate(77.685546875 -39.503125)scale(0.7)" xlink:href="#Cmr10-32"/>
       <use transform="translate(139.818000977 0.8734375)" xlink:href="#Cmmi10-bc"/>
       <path d="M 77.685547 13.373437 
L 77.685547 19.623437 
L 112.685547 19.623437 
L 112.685547 13.373437 
L 77.685547 13.373437 
z
"/>
      </g>
     </g>
    </g>
    <g id="xtick_5">
     <g id="line2d_6">
      <g>
       <use style="stroke:#000000;stroke-width:0.5;" x="281.089913177" xlink:href="#m34fbcea474" y="210.275748322"/>
      </g>
     </g>
    </g>
    <g id="xtick_6">
     <g id="line2d_7">
      <g>
       <use style="stroke:#000000;stroke-width:0.5;" x="346.928834613" xlink:href="#m34fbcea474" y="210.275748322"/>
      </g>
     </g>
     <g id="text_5">
      <!-- $\frac{1}{2} \, \pi$ -->
      <g transform="translate(340.928834613 222.775748322)scale(0.1 -0.1)">
       <use transform="translate(0.0 38.3734375)scale(0.7)" xlink:href="#Cmr10-31"/>
       <use transform="translate(0.0 -39.503125)scale(0.7)" xlink:href="#Cmr10-32"/>
       <use transform="translate(62.1324541016 0.8734375)" xlink:href="#Cmmi10-bc"/>
       <path d="M 0 13.373437 
L 0 19.623437 
L 35 19.623437 
L 35 13.373437 
L 0 13.373437 
z
"/>
      </g>
     </g>
    </g>
    <g id="xtick_7">
     <g id="line2d_8">
      <g>
       <use style="stroke:#000000;stroke-width:0.5;" x="412.76775605" xlink:href="#m34fbcea474" y="210.275748322"/>
      </g>
     </g>
     <g id="text_6">
      <!-- $\pi$ -->
      <g transform="translate(409.91775605 221.874185822)scale(0.1 -0.1)">
       <use transform="translate(0.0 0.890625)" xlink:href="#Cmmi10-bc"/>
      </g>
     </g>
    </g>
    <g id="xtick_8">
     <g id="line2d_9">
      <g>
       <use style="stroke:#000000;stroke-width:0.5;" x="478.606677487" xlink:href="#m34fbcea474" y="210.275748322"/>
      </g>
     </g>
     <g id="text_7">
      <!-- $\frac{3}{2} \, \pi$ -->
      <g transform="translate(472.606677487 222.875748322)scale(0.1 -0.1)">
       <use transform="translate(0.0 39.3734375)scale(0.7)" xlink:href="#Cmr10-33"/>
       <use transform="translate(0.0 -40.0453125)scale(0.7)" xlink:href="#Cmr10-32"/>
       <use transform="translate(62.1324541016 0.33125)" xlink:href="#Cmmi10-bc"/>
       <path d="M 0 12.83125 
L 0 19.08125 
L 35 19.08125 
L 35 12.83125 
L 0 12.83125 
z
"/>
      </g>
     </g>
    </g>
    <g id="xtick_9">
     <g id="line2d_10">
      <g>
       <use style="stroke:#000000;stroke-width:0.5;" x="544.445598924" xlink:href="#m34fbcea474" y="210.275748322"/>
      </g>
     </g>
     <g id="text_8">
      <!-- $2 \, \pi$ -->
      <g transform="translate(538.345598924 221.874185822)scale(0.1 -0.1)">
       <use transform="translate(0.0 0.390625)" xlink:href="#Cmr10-32"/>
       <use transform="translate(64.6324541016 0.390625)" xlink:href="#Cmmi10-bc"/>
      </g>
     </g>
    </g>
    <g id="xtick_10">
     <g id="line2d_11">
      <defs>
       <path d="M 0 0 
L 0 -2 
" id="m71904e3d6b" style="stroke:#000000;stroke-width:0.5;"/>
      </defs>
      <g>
       <use style="stroke:#000000;stroke-width:0.5;" x="34.193957789" xlink:href="#m71904e3d6b" y="210.275748322"/>
      </g>
     </g>
    </g>
    <g id="xtick_11">
     <g id="line2d_12">
      <g>
       <use style="stroke:#000000;stroke-width:0.5;" x="50.6536881482" xlink:href="#m71904e3d6b" y="210.275748322"/>
      </g>
     </g>
    </g>
    <g id="xtick_12">
     <g id="line2d_13">
      <g>
       <use style="stroke:#000000;stroke-width:0.5;" x="67.1134185074" xlink:href="#m71904e3d6b" y="210.275748322"/>
      </g>
     </g>
    </g>
    <g id="xtick_13">
     <g id="line2d_14">
      <g>
       <use style="stroke:#000000;stroke-width:0.5;" x="100.032879226" xlink:href="#m71904e3d6b" y="210.275748322"/>
      </g>
     </g>
    </g>
    <g id="xtick_14">
     <g id="line2d_15">
      <g>
       <use style="stroke:#000000;stroke-width:0.5;" x="116.492609585" xlink:href="#m71904e3d6b" y="210.275748322"/>
      </g>
     </g>
    </g>
    <g id="xtick_15">
     <g id="line2d_16">
      <g>
       <use style="stroke:#000000;stroke-width:0.5;" x="132.952339944" xlink:href="#m71904e3d6b" y="210.275748322"/>
      </g>
     </g>
    </g>
    <g id="xtick_16">
     <g id="line2d_17">
      <g>
       <use style="stroke:#000000;stroke-width:0.5;" x="165.871800662" xlink:href="#m71904e3d6b" y="210.275748322"/>
      </g>
     </g>
    </g>
    <g id="xtick_17">
     <g id="line2d_18">
      <g>
       <use style="stroke:#000000;stroke-width:0.5;" x="182.331531022" xlink:href="#m71904e3d6b" y="210.275748322"/>
      </g>
     </g>
    </g>
    <g id="xtick_18">
     <g id="line2d_19">
      <g>
       <use style="stroke:#000000;stroke-width:0.5;" x="198.791261381" xlink:href="#m71904e3d6b" y="210.275748322"/>
      </g>
     </g>
    </g>
    <g id="xtick_19">
     <g id="line2d_20">
      <g>
       <use style="stroke:#000000;stroke-width:0.5;" x="231.710722099" xlink:href="#m71904e3d6b" y="210.275748322"/>
      </g>
     </g>
    </g>
    <g id="xtick_20">
     <g id="line2d_21">
      <g>
       <use style="stroke:#000000;stroke-width:0.5;" x="248.170452458" xlink:href="#m71904e3d6b" y="210.275748322"/>
      </g>
     </g>
    </g>
    <g id="xtick_21">
     <g id="line2d_22">
      <g>
       <use style="stroke:#000000;stroke-width:0.5;" x="264.630182818" xlink:href="#m71904e3d6b" y="210.275748322"/>
      </g>
     </g>
    </g>
    <g id="xtick_22">
     <g id="line2d_23">
      <g>
       <use style="stroke:#000000;stroke-width:0.5;" x="297.549643536" xlink:href="#m71904e3d6b" y="210.275748322"/>
      </g>
     </g>
    </g>
    <g id="xtick_23">
     <g id="line2d_24">
      <g>
       <use style="stroke:#000000;stroke-width:0.5;" x="314.009373895" xlink:href="#m71904e3d6b" y="210.275748322"/>
      </g>
     </g>
    </g>
    <g id="xtick_24">
     <g id="line2d_25">
      <g>
       <use style="stroke:#000000;stroke-width:0.5;" x="330.469104254" xlink:href="#m71904e3d6b" y="210.275748322"/>
      </g>
     </g>
    </g>
    <g id="xtick_25">
     <g id="line2d_26">
      <g>
       <use style="stroke:#000000;stroke-width:0.5;" x="363.388564973" xlink:href="#m71904e3d6b" y="210.275748322"/>
      </g>
     </g>
    </g>
    <g id="xtick_26">
     <g id="line2d_27">
      <g>
       <use style="stroke:#000000;stroke-width:0.5;" x="379.848295332" xlink:href="#m71904e3d6b" y="210.275748322"/>
      </g>
     </g>
    </g>
    <g id="xtick_27">
     <g id="line2d_28">
      <g>
       <use style="stroke:#000000;stroke-width:0.5;" x="396.308025691" xlink:href="#m71904e3d6b" y="210.275748322"/>
      </g>
     </g>
    </g>
    <g id="xtick_28">
     <g id="line2d_29">
      <g>
       <use style="stroke:#000000;stroke-width:0.5;" x="429.227486409" xlink:href="#m71904e3d6b" y="210.275748322"/>
      </g>
     </g>
    </g>
    <g id="xtick_29">
     <g id="line2d_30">
      <g>
       <use style="stroke:#000000;stroke-width:0.5;" x="445.687216768" xlink:href="#m71904e3d6b" y="210.275748322"/>
      </g>
     </g>
    </g>
    <g id="xtick_30">
     <g id="line2d_31">
      <g>
       <use style="stroke:#000000;stroke-width:0.5;" x="462.146947128" xlink:href="#m71904e3d6b" y="210.275748322"/>
      </g>
     </g>
    </g>
    <g id="xtick_31">
     <g id="line2d_32">
      <g>
       <use style="stroke:#000000;stroke-width:0.5;" x="495.066407846" xlink:href="#m71904e3d6b" y="210.275748322"/>
      </g>
     </g>
    </g>
    <g id="xtick_32">
     <g id="line2d_33">
      <g>
       <use style="stroke:#000000;stroke-width:0.5;" x="511.526138205" xlink:href="#m71904e3d6b" y="210.275748322"/>
      </g>
     </g>
    </g>
    <g id="xtick_33">
     <g id="line2d_34">
      <g>
       <use style="stroke:#000000;stroke-width:0.5;" x="527.985868564" xlink:href="#m71904e3d6b" y="210.275748322"/>
      </g>
     </g>
    </g>
   </g>
   <g id="matplotlib.axis_2">
    <g id="ytick_1">
     <g id="line2d_35">
      <defs>
       <path d="M 0 0 
L 4 0 
" id="mc484026da2" style="stroke:#000000;stroke-width:0.5;"/>
      </defs>
      <g>
       <use style="stroke:#000000;stroke-width:0.5;" x="281.089913177" xlink:href="#mc484026da2" y="321.21270925"/>
      </g>
     </g>
     <g id="text_9">
      <!-- $-0.5$ -->
      <defs>
       <path d="M 25 -2.203125 
Q 12.75 -2.203125 8.328125 7.875 
Q 3.90625 17.96875 3.90625 31.890625 
Q 3.90625 40.578125 5.484375 48.234375 
Q 7.078125 55.90625 11.78125 61.25 
Q 16.5 66.609375 25 66.609375 
Q 31.59375 66.609375 35.78125 63.375 
Q 39.984375 60.15625 42.1875 55.046875 
Q 44.390625 49.953125 45.1875 44.109375 
Q 46 38.28125 46 31.890625 
Q 46 23.296875 44.40625 15.796875 
Q 42.828125 8.296875 38.1875 3.046875 
Q 33.546875 -2.203125 25 -2.203125 
M 25 0.390625 
Q 30.5625 0.390625 33.296875 6.09375 
Q 36.03125 11.8125 36.671875 18.75 
Q 37.3125 25.6875 37.3125 33.5 
Q 37.3125 41.015625 36.671875 47.359375 
Q 36.03125 53.71875 33.3125 58.859375 
Q 30.609375 64.015625 25 64.015625 
Q 19.34375 64.015625 16.609375 58.828125 
Q 13.875 53.65625 13.234375 47.328125 
Q 12.59375 41.015625 12.59375 33.5 
Q 12.59375 27.9375 12.859375 23 
Q 13.140625 18.0625 14.3125 12.8125 
Q 15.484375 7.5625 18.09375 3.96875 
Q 20.703125 0.390625 25 0.390625 
" id="Cmr10-30"/>
       <path d="M 8.6875 11.375 
Q 9.71875 8.453125 11.84375 6.046875 
Q 13.96875 3.65625 16.875 2.3125 
Q 19.78125 0.984375 22.90625 0.984375 
Q 30.125 0.984375 32.859375 6.59375 
Q 35.59375 12.203125 35.59375 20.21875 
Q 35.59375 23.6875 35.46875 26.046875 
Q 35.359375 28.421875 34.8125 30.609375 
Q 33.890625 34.125 31.5625 36.765625 
Q 29.25 39.40625 25.875 39.40625 
Q 22.515625 39.40625 20.09375 38.375 
Q 17.671875 37.359375 16.15625 35.984375 
Q 14.65625 34.625 13.484375 33.109375 
Q 12.3125 31.59375 12.015625 31.5 
L 10.890625 31.5 
Q 10.640625 31.5 10.265625 31.8125 
Q 9.90625 32.125 9.90625 32.421875 
L 9.90625 65.828125 
Q 9.90625 66.0625 10.21875 66.328125 
Q 10.546875 66.609375 10.890625 66.609375 
L 11.1875 66.609375 
Q 17.921875 63.375 25.484375 63.375 
Q 32.90625 63.375 39.796875 66.609375 
L 40.09375 66.609375 
Q 40.4375 66.609375 40.71875 66.359375 
Q 41.015625 66.109375 41.015625 65.828125 
L 41.015625 64.890625 
Q 41.015625 64.40625 40.828125 64.40625 
Q 37.40625 59.859375 32.25 57.3125 
Q 27.09375 54.78125 21.578125 54.78125 
Q 17.578125 54.78125 13.375 55.90625 
L 13.375 37.015625 
Q 16.703125 39.703125 19.3125 40.84375 
Q 21.921875 42 25.984375 42 
Q 31.5 42 35.859375 38.8125 
Q 40.234375 35.640625 42.578125 30.53125 
Q 44.921875 25.4375 44.921875 20.125 
Q 44.921875 14.109375 41.96875 8.984375 
Q 39.015625 3.859375 33.9375 0.828125 
Q 28.859375 -2.203125 22.90625 -2.203125 
Q 17.96875 -2.203125 13.84375 0.328125 
Q 9.71875 2.875 7.34375 7.171875 
Q 4.984375 11.46875 4.984375 16.3125 
Q 4.984375 18.5625 6.4375 19.96875 
Q 7.90625 21.390625 10.109375 21.390625 
Q 12.3125 21.390625 13.796875 19.9375 
Q 15.28125 18.5 15.28125 16.3125 
Q 15.28125 14.15625 13.796875 12.671875 
Q 12.3125 11.1875 10.109375 11.1875 
Q 9.765625 11.1875 9.328125 11.25 
Q 8.890625 11.328125 8.6875 11.375 
" id="Cmr10-35"/>
       <path d="M 8.40625 5.515625 
Q 8.40625 7.765625 10.0625 9.375 
Q 11.71875 10.984375 13.921875 10.984375 
Q 15.28125 10.984375 16.59375 10.25 
Q 17.921875 9.515625 18.65625 8.203125 
Q 19.390625 6.890625 19.390625 5.515625 
Q 19.390625 3.328125 17.765625 1.65625 
Q 16.15625 0 13.921875 0 
Q 11.71875 0 10.0625 1.65625 
Q 8.40625 3.328125 8.40625 5.515625 
" id="Cmmi10-3a"/>
      </defs>
      <g transform="translate(254.789913177 323.97208425)scale(0.1 -0.1)">
       <use transform="translate(0.0 0.390625)" xlink:href="#Cmsy10-a1"/>
       <use transform="translate(77.685546875 0.390625)" xlink:href="#Cmr10-30"/>
       <use transform="translate(127.685546875 0.390625)" xlink:href="#Cmmi10-3a"/>
       <use transform="translate(172.9296875 0.390625)" xlink:href="#Cmr10-35"/>
      </g>
     </g>
    </g>
    <g id="ytick_2">
     <g id="line2d_36">
      <g>
       <use style="stroke:#000000;stroke-width:0.5;" x="281.089913177" xlink:href="#mc484026da2" y="210.275748322"/>
      </g>
     </g>
    </g>
    <g id="ytick_3">
     <g id="line2d_37">
      <g>
       <use style="stroke:#000000;stroke-width:0.5;" x="281.089913177" xlink:href="#mc484026da2" y="99.3387873932"/>
      </g>
     </g>
     <g id="text_10">
      <!-- $0.5$ -->
      <g transform="translate(262.489913177 102.098162393)scale(0.1 -0.1)">
       <use transform="translate(0.0 0.390625)" xlink:href="#Cmr10-30"/>
       <use transform="translate(50.0 0.390625)" xlink:href="#Cmmi10-3a"/>
       <use transform="translate(95.244140625 0.390625)" xlink:href="#Cmr10-35"/>
      </g>
     </g>
    </g>
    <g id="ytick_4">
     <g id="line2d_38">
      <defs>
       <path d="M 0 0 
L 2 0 
" id="m519003d21d" style="stroke:#000000;stroke-width:0.5;"/>
      </defs>
      <g>
       <use style="stroke:#000000;stroke-width:0.5;" x="281.089913177" xlink:href="#m519003d21d" y="409.962277993"/>
      </g>
     </g>
    </g>
    <g id="ytick_5">
     <g id="line2d_39">
      <g>
       <use style="stroke:#000000;stroke-width:0.5;" x="281.089913177" xlink:href="#m519003d21d" y="387.774885807"/>
      </g>
     </g>
    </g>
    <g id="ytick_6">
     <g id="line2d_40">
      <g>
       <use style="stroke:#000000;stroke-width:0.5;" x="281.089913177" xlink:href="#m519003d21d" y="365.587493622"/>
      </g>
     </g>
    </g>
    <g id="ytick_7">
     <g id="line2d_41">
      <g>
       <use style="stroke:#000000;stroke-width:0.5;" x="281.089913177" xlink:href="#m519003d21d" y="343.400101436"/>
      </g>
     </g>
    </g>
    <g id="ytick_8">
     <g id="line2d_42">
      <g>
       <use style="stroke:#000000;stroke-width:0.5;" x="281.089913177" xlink:href="#m519003d21d" y="299.025317064"/>
      </g>
     </g>
    </g>
    <g id="ytick_9">
     <g id="line2d_43">
      <g>
       <use style="stroke:#000000;stroke-width:0.5;" x="281.089913177" xlink:href="#m519003d21d" y="276.837924879"/>
      </g>
     </g>
    </g>
    <g id="ytick_10">
     <g id="line2d_44">
      <g>
       <use style="stroke:#000000;stroke-width:0.5;" x="281.089913177" xlink:href="#m519003d21d" y="254.650532693"/>
      </g>
     </g>
    </g>
    <g id="ytick_11">
     <g id="line2d_45">
      <g>
       <use style="stroke:#000000;stroke-width:0.5;" x="281.089913177" xlink:href="#m519003d21d" y="232.463140507"/>
      </g>
     </g>
    </g>
    <g id="ytick_12">
     <g id="line2d_46">
      <g>
       <use style="stroke:#000000;stroke-width:0.5;" x="281.089913177" xlink:href="#m519003d21d" y="188.088356136"/>
      </g>
     </g>
    </g>
    <g id="ytick_13">
     <g id="line2d_47">
      <g>
       <use style="stroke:#000000;stroke-width:0.5;" x="281.089913177" xlink:href="#m519003d21d" y="165.90096395"/>
      </g>
     </g>
    </g>
    <g id="ytick_14">
     <g id="line2d_48">
      <g>
       <use style="stroke:#000000;stroke-width:0.5;" x="281.089913177" xlink:href="#m519003d21d" y="143.713571765"/>
      </g>
     </g>
    </g>
    <g id="ytick_15">
     <g id="line2d_49">
      <g>
       <use style="stroke:#000000;stroke-width:0.5;" x="281.089913177" xlink:href="#m519003d21d" y="121.526179579"/>
      </g>
     </g>
    </g>
    <g id="ytick_16">
     <g id="line2d_50">
      <g>
       <use style="stroke:#000000;stroke-width:0.5;" x="281.089913177" xlink:href="#m519003d21d" y="77.1513952076"/>
      </g>
     </g>
    </g>
    <g id="ytick_17">
     <g id="line2d_51">
      <g>
       <use style="stroke:#000000;stroke-width:0.5;" x="281.089913177" xlink:href="#m519003d21d" y="54.9640030219"/>
      </g>
     </g>
    </g>
    <g id="ytick_18">
     <g id="line2d_52">
      <g>
       <use style="stroke:#000000;stroke-width:0.5;" x="281.089913177" xlink:href="#m519003d21d" y="32.7766108362"/>
      </g>
     </g>
    </g>
    <g id="ytick_19">
     <g id="line2d_53">
      <g>
       <use style="stroke:#000000;stroke-width:0.5;" x="281.089913177" xlink:href="#m519003d21d" y="10.5892186505"/>
      </g>
     </g>
    </g>
   </g>
  </g>
 </g>
 <defs>
  <clipPath id="p198b55e230">
   <rect height="406.08" width="547.779826353" x="7.2" y="7.2"/>
  </clipPath>
 </defs>
</svg>
