<?xml version="1.0" encoding="utf-8" standalone="no"?>
<!DOCTYPE svg PUBLIC "-//W3C//DTD SVG 1.1//EN"
  "http://www.w3.org/Graphics/SVG/1.1/DTD/svg11.dtd">
<!-- Created with matplotlib (http://matplotlib.org/) -->
<svg height="421pt" version="1.1" viewBox="0 0 421 421" width="421pt" xmlns="http://www.w3.org/2000/svg" xmlns:xlink="http://www.w3.org/1999/xlink">
 <defs>
  <style type="text/css">
*{stroke-linecap:butt;stroke-linejoin:round;stroke-miterlimit:100000;}
  </style>
 </defs>
 <g id="figure_1">
  <g id="patch_1">
   <path d="M 0 421.158125 
L 421.450312 421.158125 
L 421.450312 0 
L 0 0 
z
" style="fill:#ffffff;"/>
  </g>
  <g id="axes_1">
   <g id="patch_2">
    <path d="M 21.170313 400.28 
L 414.250312 400.28 
L 414.250312 7.2 
L 21.170313 7.2 
z
" style="fill:#ffffff;"/>
   </g>
   <g id="LineCollection_1">
    <path clip-path="url(#p1173dcf123)" d="M 57.152982 392.720769 
L 56.934837 390.184115 
L 56.632744 389.001989 
L 56.272715 387.64746 
L 55.170277 385.110805 
L 54.096089 383.293456 
L 53.62355 382.574151 
L 51.563282 380.037496 
L 51.559435 380.033423 
L 49.02278 377.798303 
L 48.571025 377.500842 
L 46.486126 376.265855 
L 43.949471 375.333791 
L 41.412816 374.990745 
L 38.876162 375.210446 
L 36.339507 375.923862 
L 33.802853 377.02399 
L 32.906259 377.500842 
L 31.266198 378.470453 
L 28.781013 380.037496 
L 28.729543 380.075234 
" style="fill:none;stroke:#0000ff;"/>
    <path clip-path="url(#p1173dcf123)" d="M 246.12739 392.720769 
L 245.906681 390.184115 
L 245.25082 387.64746 
L 244.166026 385.110805 
L 242.599121 382.574151 
L 241.808531 381.538933 
L 240.486365 380.037496 
L 239.271877 378.851405 
L 236.735222 376.948732 
L 234.198568 375.726298 
L 231.661913 375.089243 
L 229.125258 375.033608 
L 226.588604 375.511312 
L 224.051949 376.433575 
L 221.515294 377.696649 
L 217.744542 380.037496 
L 216.441985 380.980163 
L 213.905331 382.608271 
L 211.368676 384.084829 
L 208.832021 384.797493 
L 206.295367 384.554462 
L 203.758712 383.221021 
L 203.100209 382.574151 
L 201.222057 381.081864 
L 200.32375 380.037496 
L 198.685403 378.399404 
L 197.991648 377.500842 
L 195.869604 374.964187 
L 192.089576 369.890878 
L 190.332472 367.354223 
L 187.138875 362.280914 
L 185.720015 359.744259 
L 184.444612 357.207605 
L 183.363604 354.67095 
L 182.463922 352.134295 
L 181.836501 349.597641 
L 181.499149 347.060986 
L 181.461442 344.524331 
L 181.724451 341.987677 
L 182.28071 339.451022 
L 183.465475 336.095546 
L 184.155836 334.377713 
L 186.00213 330.723491 
L 186.772425 329.304404 
L 189.913793 324.231094 
L 191.636181 321.69444 
L 193.612094 318.909042 
L 198.685403 312.55157 
L 199.720128 311.547821 
L 201.222057 309.874557 
L 202.356021 309.011167 
L 203.758712 307.713727 
L 206.295367 306.452904 
L 208.832021 306.150522 
L 209.75888 306.474512 
L 211.368676 306.900365 
L 213.905331 308.290692 
L 214.873468 309.011167 
L 216.441985 309.972014 
L 218.97864 311.707487 
L 223.125196 314.084476 
L 224.051949 314.529513 
L 226.588604 315.43302 
L 229.125258 315.901008 
L 231.661913 315.846505 
L 234.198568 315.222405 
L 236.735222 314.018815 
L 239.868388 311.547821 
L 242.147552 309.011167 
L 243.811642 306.474512 
L 245.020778 303.937858 
L 245.782993 301.401203 
L 246.113565 298.864548 
L 246.003113 296.327894 
L 245.45477 293.791239 
L 244.345186 290.996513 
L 243.027492 288.71793 
L 241.081566 286.181275 
L 239.271877 284.354571 
L 238.384835 283.644621 
L 236.735222 282.468977 
L 233.76891 281.107966 
L 231.661913 280.607254 
L 229.125258 280.55461 
L 226.294077 281.107966 
L 224.051949 281.941942 
L 220.760688 283.644621 
L 211.368676 289.590811 
L 208.832021 290.352041 
L 206.295367 290.092448 
L 203.758712 288.678433 
L 200.905125 286.181275 
L 198.50405 283.644621 
L 196.148748 280.857345 
L 191.075439 273.98206 
L 188.538784 270.094056 
L 186.00213 265.765107 
L 184.745964 263.351384 
L 183.465475 260.38647 
L 182.664188 258.278074 
L 181.96672 255.74142 
L 181.555625 253.204765 
L 181.442572 250.66811 
L 181.63077 248.131456 
L 182.114877 245.594801 
L 182.881153 243.058147 
L 183.880149 240.521492 
L 185.059357 237.984837 
L 187.89393 232.911528 
L 191.182585 227.838219 
L 194.907776 222.76491 
L 196.926705 220.228255 
L 199.095333 217.6916 
L 201.574927 215.154946 
L 203.758712 213.243267 
L 205.092862 212.618291 
L 206.295367 211.892328 
L 208.832021 211.613218 
L 211.647821 212.618291 
L 213.905331 213.789313 
L 216.441985 215.507009 
L 219.720774 217.6916 
L 221.515294 218.741671 
L 224.529374 220.228255 
L 226.588604 220.948349 
L 229.125258 221.40781 
L 231.661913 221.3543 
L 234.198568 220.741572 
L 236.735222 219.505693 
L 239.271877 217.646456 
L 241.808531 214.960271 
L 243.431906 212.618291 
L 244.765054 210.081637 
L 245.632266 207.544982 
L 246.072115 205.008327 
L 246.072115 202.471673 
L 245.632266 199.935018 
L 244.765054 197.398363 
L 243.431906 194.861709 
L 241.652933 192.325054 
L 239.217465 189.7884 
L 236.735222 187.974307 
L 234.198568 186.738428 
L 231.661913 186.1257 
L 229.125258 186.07219 
L 226.588604 186.531651 
L 224.051949 187.433849 
L 221.515294 188.738329 
L 218.97864 190.281402 
L 213.905331 193.690687 
L 211.368676 195.048319 
L 208.832021 195.866782 
L 206.295367 195.587672 
L 205.092862 194.861709 
L 203.758712 194.236733 
L 201.222057 192.066704 
L 198.685403 189.401576 
L 193.612094 183.06723 
L 188.538784 175.603962 
L 186.414235 172.031817 
L 185.059357 169.495163 
L 183.465475 165.865541 
L 182.881153 164.421853 
L 182.114877 161.885199 
L 181.63077 159.348544 
L 181.442572 156.81189 
L 181.555625 154.275235 
L 181.96672 151.73858 
L 182.664188 149.201926 
L 183.618043 146.665271 
L 184.745964 144.128616 
L 186.064939 141.591962 
L 189.085594 136.518653 
L 192.541963 131.445343 
L 194.416691 128.908689 
L 196.376058 126.372034 
L 198.685403 123.592603 
L 201.222057 120.912765 
L 203.847396 118.76207 
L 206.295367 117.387552 
L 208.832021 117.127959 
L 211.368676 117.889189 
L 212.772568 118.76207 
L 213.905331 119.320716 
L 220.760688 123.835379 
L 221.515294 124.265974 
L 224.051949 125.538058 
L 226.588604 126.473361 
L 229.125258 126.92539 
L 231.661913 126.872746 
L 234.198568 126.261642 
L 236.735222 125.011023 
L 239.271877 123.125429 
L 241.808531 120.433995 
L 243.027492 118.76207 
L 244.484102 116.225416 
L 245.45477 113.688761 
L 246.003113 111.152106 
L 246.113565 108.615452 
L 245.782993 106.078797 
L 245.020778 103.542142 
L 243.811642 101.005488 
L 241.808531 98.043437 
L 239.271877 95.366967 
L 236.608886 93.395524 
L 234.198568 92.257595 
L 231.661913 91.633495 
L 229.125258 91.578992 
L 226.588604 92.04698 
L 223.125196 93.395524 
L 221.515294 94.246607 
L 218.71423 95.932179 
L 213.905331 99.189308 
L 211.368676 100.579635 
L 208.832021 101.329478 
L 206.262329 101.005488 
L 203.758712 99.766273 
L 202.356021 98.468833 
L 201.222057 97.605443 
L 196.148748 91.892415 
L 189.913793 83.248906 
L 188.281194 80.712251 
L 185.384233 75.638942 
L 184.155836 73.102287 
L 183.11443 70.565632 
L 182.28071 68.028978 
L 181.724451 65.492323 
L 181.461442 62.955669 
L 181.499149 60.419014 
L 181.836501 57.882359 
L 182.463922 55.345705 
L 183.465475 52.58364 
L 184.444612 50.272395 
L 186.00213 47.23877 
L 188.677546 42.662432 
L 192.089576 37.589122 
L 193.919985 35.052468 
L 196.148748 32.126462 
L 198.685403 29.080596 
L 201.222057 26.398136 
L 203.758712 24.258979 
L 206.295367 22.925538 
L 208.832021 22.682507 
L 211.368676 23.395171 
L 213.948501 24.905849 
L 221.874649 29.979158 
L 224.051949 31.046425 
L 226.588604 31.968688 
L 229.125258 32.446392 
L 231.661913 32.390757 
L 234.198568 31.753702 
L 236.735222 30.531268 
L 237.52778 29.979158 
L 239.271877 28.628595 
L 240.486365 27.442504 
L 242.599121 24.905849 
L 244.345186 21.974729 
L 245.25082 19.83254 
L 245.906681 17.295885 
L 246.12739 14.759231 
L 246.12739 14.759231 
" style="fill:none;stroke:#0000ff;"/>
    <path clip-path="url(#p1173dcf123)" d="M 406.691082 380.075234 
L 404.154427 381.831412 
L 402.840108 382.574151 
L 401.617772 383.428161 
L 399.081118 384.549834 
L 396.544463 384.805329 
L 394.007809 384.029941 
L 392.072945 382.574151 
L 391.471154 382.207919 
L 389.256898 380.037496 
L 388.934499 379.765718 
L 386.967434 377.500842 
L 386.397845 376.910862 
L 384.883511 374.964187 
L 383.86119 373.738277 
L 382.91895 372.427532 
L 381.324536 370.292379 
L 381.051818 369.890878 
L 379.313372 367.354223 
L 378.787881 366.5722 
L 377.66393 364.817568 
L 376.251226 362.50029 
L 376.117978 362.280914 
L 374.69911 359.744259 
L 373.714572 357.756978 
L 373.431 357.207605 
L 372.327767 354.67095 
L 371.461967 352.134295 
L 371.177917 350.940946 
L 370.82813 349.597641 
L 370.472978 347.060986 
L 370.433282 344.524331 
L 370.710168 341.987677 
L 371.177917 339.961552 
L 371.285654 339.451022 
L 372.087977 336.914368 
L 373.134538 334.377713 
L 373.714572 333.210992 
L 374.36825 331.841058 
L 375.750193 329.304404 
L 376.251226 328.465088 
L 377.268202 326.767749 
L 378.787881 324.372708 
L 378.882141 324.231094 
L 380.616723 321.69444 
L 381.324536 320.657487 
L 382.449946 319.157785 
L 383.86119 317.218687 
L 384.365697 316.621131 
L 386.379943 314.084476 
L 386.397845 314.059657 
L 388.646372 311.547821 
L 388.934499 311.178169 
L 391.241545 309.011167 
L 391.471154 308.749163 
L 394.007809 306.952048 
L 395.666945 306.474512 
L 396.544463 306.140771 
L 399.081118 306.458663 
L 399.109926 306.474512 
L 401.617772 307.518684 
L 403.88644 309.011167 
L 404.154427 309.15629 
L 406.691082 310.839178 
" style="fill:none;stroke:#0000ff;"/>
    <path clip-path="url(#p1173dcf123)" d="M 28.729543 310.839178 
L 29.738152 311.547821 
L 31.266198 312.482637 
L 33.802853 313.93765 
L 34.116761 314.084476 
L 36.339507 315.028859 
L 38.876162 315.727766 
L 41.412816 315.942999 
L 43.949471 315.606931 
L 46.486126 314.693822 
L 47.536175 314.084476 
L 49.02278 313.134767 
L 50.87911 311.547821 
L 51.559435 310.879879 
L 53.143301 309.011167 
L 54.096089 307.645522 
L 54.831172 306.474512 
L 56.03623 303.937858 
L 56.632744 302.006748 
L 56.812585 301.401203 
L 57.139318 298.864548 
L 57.030148 296.327894 
L 56.632744 294.467882 
L 56.482379 293.791239 
L 55.48452 291.254584 
L 54.096089 288.745506 
L 54.07913 288.71793 
L 52.11225 286.181275 
L 51.559435 285.576268 
L 49.438394 283.644621 
L 49.02278 283.307582 
L 46.486126 281.770355 
L 44.724032 281.107966 
L 43.949471 280.838659 
L 41.412816 280.514051 
L 38.876162 280.721944 
L 37.425644 281.107966 
L 36.339507 281.420477 
L 33.802853 282.54597 
L 31.783685 283.644621 
L 31.266198 283.960831 
L 28.729543 285.614022 
" style="fill:none;stroke:#0000ff;"/>
    <path clip-path="url(#p1173dcf123)" d="M 406.691082 285.614022 
L 405.769304 286.181275 
L 404.154427 287.352372 
L 401.847525 288.71793 
L 401.617772 288.889391 
L 399.081118 290.087504 
L 396.544463 290.360412 
L 394.007809 289.532182 
L 392.994647 288.71793 
L 391.471154 287.746755 
L 389.946452 286.181275 
L 388.934499 285.299577 
L 387.543838 283.644621 
L 386.397845 282.430234 
L 385.392424 281.107966 
L 383.86119 279.245359 
L 383.383524 278.571311 
L 381.501986 276.034657 
L 381.324536 275.799239 
L 379.746727 273.498002 
L 378.787881 272.081933 
L 378.064571 270.961347 
L 376.494292 268.424693 
L 376.251226 268.001986 
L 375.040127 265.888038 
L 373.739337 263.351384 
L 373.714572 263.29486 
L 372.582431 260.814729 
L 371.654691 258.278074 
L 371.177917 256.476216 
L 370.96522 255.74142 
L 370.532434 253.204765 
L 370.413416 250.66811 
L 370.611544 248.131456 
L 371.121195 245.594801 
L 371.177917 245.416442 
L 371.863485 243.058147 
L 372.851514 240.521492 
L 373.714572 238.713059 
L 374.048136 237.984837 
L 375.390696 235.448183 
L 376.251226 233.978327 
L 376.878092 232.911528 
L 378.469413 230.374874 
L 378.787881 229.884349 
L 380.181435 227.838219 
L 381.324536 226.168778 
L 381.977345 225.301564 
L 383.84284 222.76491 
L 383.86119 222.738589 
L 385.891531 220.228255 
L 386.397845 219.545424 
L 388.103816 217.6916 
L 388.934499 216.666823 
L 390.608393 215.154946 
L 391.471154 214.223215 
L 393.864801 212.618291 
L 394.007809 212.494718 
L 396.544463 211.604218 
L 399.081118 211.897644 
L 400.500185 212.618291 
L 401.617772 213.058676 
L 404.154427 214.638032 
L 404.832112 215.154946 
L 406.691082 216.340856 
" style="fill:none;stroke:#0000ff;"/>
    <path clip-path="url(#p1173dcf123)" d="M 28.729543 216.340856 
L 30.728866 217.6916 
L 31.266198 218.011369 
L 33.802853 219.42674 
L 35.564457 220.228255 
L 36.339507 220.551552 
L 38.876162 221.237725 
L 41.412816 221.449036 
L 43.949471 221.119091 
L 46.470178 220.228255 
L 46.486126 220.222108 
L 49.02278 218.645732 
L 50.170135 217.6916 
L 51.559435 216.379994 
L 52.639235 215.154946 
L 54.096089 213.178717 
L 54.467808 212.618291 
L 55.773342 210.081637 
L 56.632744 207.636325 
L 56.663609 207.544982 
L 57.098349 205.008327 
L 57.098349 202.471673 
L 56.663609 199.935018 
L 56.632744 199.843675 
L 55.773342 197.398363 
L 54.467808 194.861709 
L 54.096089 194.301283 
L 52.639235 192.325054 
L 51.559435 191.100006 
L 50.170135 189.7884 
L 49.02278 188.834268 
L 46.486126 187.257892 
L 46.470178 187.251745 
L 43.949471 186.360909 
L 41.412816 186.030964 
L 38.876162 186.242275 
L 36.339507 186.928448 
L 35.564457 187.251745 
L 33.802853 188.05326 
L 31.266198 189.468631 
L 30.728866 189.7884 
L 28.729543 191.139144 
" style="fill:none;stroke:#0000ff;"/>
    <path clip-path="url(#p1173dcf123)" d="M 406.691082 191.139144 
L 404.832112 192.325054 
L 404.154427 192.841968 
L 401.617772 194.421324 
L 400.500185 194.861709 
L 399.081118 195.582356 
L 396.544463 195.875782 
L 394.007809 194.985282 
L 393.864801 194.861709 
L 391.471154 193.256785 
L 390.608393 192.325054 
L 388.934499 190.813177 
L 388.103816 189.7884 
L 386.397845 187.934576 
L 385.891531 187.251745 
L 383.86119 184.741411 
L 383.84284 184.71509 
L 381.977345 182.178436 
L 381.324536 181.311222 
L 380.181435 179.641781 
L 378.787881 177.595651 
L 378.469413 177.105126 
L 376.878092 174.568472 
L 376.251226 173.501673 
L 375.390696 172.031817 
L 374.048136 169.495163 
L 373.714572 168.766941 
L 372.851514 166.958508 
L 371.863485 164.421853 
L 371.177917 162.063558 
L 371.121195 161.885199 
L 370.611544 159.348544 
L 370.413416 156.81189 
L 370.532434 154.275235 
L 370.96522 151.73858 
L 371.177917 151.003784 
L 371.654691 149.201926 
L 372.582431 146.665271 
L 373.714572 144.18514 
L 373.739337 144.128616 
L 375.040127 141.591962 
L 376.251226 139.478014 
L 376.494292 139.055307 
L 378.064571 136.518653 
L 378.787881 135.398067 
L 379.746727 133.981998 
L 381.324536 131.680761 
L 381.501986 131.445343 
L 383.383524 128.908689 
L 383.86119 128.234641 
L 385.392424 126.372034 
L 386.397845 125.049766 
L 387.543838 123.835379 
L 388.934499 122.180423 
L 389.946452 121.298725 
L 391.471154 119.733245 
L 392.994647 118.76207 
L 394.007809 117.947818 
L 396.544463 117.119588 
L 399.081118 117.392496 
L 401.617772 118.590609 
L 401.847525 118.76207 
L 404.154427 120.127628 
L 405.769304 121.298725 
L 406.691082 121.865978 
" style="fill:none;stroke:#0000ff;"/>
    <path clip-path="url(#p1173dcf123)" d="M 28.729543 121.865978 
L 31.266198 123.519169 
L 31.783685 123.835379 
L 33.802853 124.93403 
L 36.339507 126.059523 
L 37.425644 126.372034 
L 38.876162 126.758056 
L 41.412816 126.965949 
L 43.949471 126.641341 
L 44.724032 126.372034 
L 46.486126 125.709645 
L 49.02278 124.172418 
L 49.438394 123.835379 
L 51.559435 121.903732 
L 52.11225 121.298725 
L 54.07913 118.76207 
L 54.096089 118.734494 
L 55.48452 116.225416 
L 56.482379 113.688761 
L 56.632744 113.012118 
L 57.030148 111.152106 
L 57.139318 108.615452 
L 56.812585 106.078797 
L 56.632744 105.473252 
L 56.03623 103.542142 
L 54.831172 101.005488 
L 54.096089 99.834478 
L 53.143301 98.468833 
L 51.559435 96.600121 
L 50.87911 95.932179 
L 49.02278 94.345233 
L 47.536175 93.395524 
L 46.486126 92.786178 
L 43.949471 91.873069 
L 41.412816 91.537001 
L 38.876162 91.752234 
L 36.339507 92.451141 
L 34.116761 93.395524 
L 33.802853 93.54235 
L 31.266198 94.997363 
L 29.738152 95.932179 
L 28.729543 96.640822 
" style="fill:none;stroke:#0000ff;"/>
    <path clip-path="url(#p1173dcf123)" d="M 406.691082 96.640822 
L 404.154427 98.32371 
L 403.88644 98.468833 
L 401.617772 99.961316 
L 399.109926 101.005488 
L 399.081118 101.021337 
L 396.544463 101.339229 
L 395.666945 101.005488 
L 394.007809 100.527952 
L 391.471154 98.730837 
L 391.241545 98.468833 
L 388.934499 96.301831 
L 388.646372 95.932179 
L 386.397845 93.420343 
L 386.379943 93.395524 
L 384.365697 90.858869 
L 383.86119 90.261313 
L 382.449946 88.322215 
L 381.324536 86.822513 
L 380.616723 85.78556 
L 378.882141 83.248906 
L 378.787881 83.107292 
L 377.268202 80.712251 
L 376.251226 79.014912 
L 375.750193 78.175596 
L 374.36825 75.638942 
L 373.714572 74.269008 
L 373.134538 73.102287 
L 372.087977 70.565632 
L 371.285654 68.028978 
L 371.177917 67.518448 
L 370.710168 65.492323 
L 370.433282 62.955669 
L 370.472978 60.419014 
L 370.82813 57.882359 
L 371.177917 56.539054 
L 371.461967 55.345705 
L 372.327767 52.80905 
L 373.431 50.272395 
L 373.714572 49.723022 
L 374.69911 47.735741 
L 376.117978 45.199086 
L 376.251226 44.97971 
L 377.66393 42.662432 
L 378.787881 40.9078 
L 379.313372 40.125777 
L 381.051818 37.589122 
L 381.324536 37.187621 
L 382.91895 35.052468 
L 383.86119 33.741723 
L 384.883511 32.515813 
L 386.397845 30.569138 
L 386.967434 29.979158 
L 388.934499 27.714282 
L 389.256898 27.442504 
L 391.471154 25.272081 
L 392.072945 24.905849 
L 394.007809 23.450059 
L 396.544463 22.674671 
L 399.081118 22.930166 
L 401.617772 24.051839 
L 402.840108 24.905849 
L 404.154427 25.648588 
L 406.691082 27.404766 
" style="fill:none;stroke:#0000ff;"/>
    <path clip-path="url(#p1173dcf123)" d="M 28.729543 27.404766 
L 28.781013 27.442504 
L 31.266198 29.009547 
L 32.906259 29.979158 
L 33.802853 30.45601 
L 36.339507 31.556138 
L 38.876162 32.269554 
L 41.412816 32.489255 
L 43.949471 32.146209 
L 46.486126 31.214145 
L 48.571025 29.979158 
L 49.02278 29.681697 
L 51.559435 27.446577 
L 51.563282 27.442504 
L 53.62355 24.905849 
L 54.096089 24.186544 
L 55.170277 22.369195 
L 56.272715 19.83254 
L 56.632744 18.478011 
L 56.934837 17.295885 
L 57.152982 14.759231 
" style="fill:none;stroke:#0000ff;"/>
    <path clip-path="url(#p1173dcf123)" d="M 86.963347 14.759231 
L 87.0726 16.453215 
L 87.12162 17.295885 
L 87.560123 19.83254 
L 88.277119 22.369195 
L 89.609254 25.656994 
L 90.414301 27.442504 
L 92.145909 30.66847 
L 94.791807 35.052468 
L 98.281872 40.125777 
L 100.153263 42.662432 
L 102.292527 45.417091 
L 104.829182 48.385132 
L 107.365837 50.95219 
L 109.902491 52.877238 
L 112.439146 54.041086 
L 114.9758 54.028971 
L 117.790385 52.80905 
L 120.04911 51.546963 
L 122.585764 49.812285 
L 125.745786 47.735741 
L 127.659073 46.652173 
L 130.895822 45.199086 
L 132.732383 44.63184 
L 135.269037 44.296892 
L 137.805692 44.485897 
L 140.342347 45.237428 
L 142.879001 46.650244 
L 145.415656 48.722334 
L 146.860994 50.272395 
L 148.749102 52.80905 
L 150.131287 55.345705 
L 151.062538 57.882359 
L 151.552892 60.419014 
L 151.6077 62.955669 
L 151.225407 65.492323 
L 150.412757 68.028978 
L 149.13191 70.565632 
L 147.396538 73.102287 
L 145.050143 75.638942 
L 142.879001 77.36076 
L 140.342347 78.755772 
L 137.805692 79.517362 
L 135.269037 79.709673 
L 132.732383 79.368867 
L 130.195728 78.571683 
L 127.659073 77.35878 
L 124.715384 75.638942 
L 120.04911 72.477266 
L 117.512455 70.983131 
L 116.259901 70.565632 
L 114.9758 70.007325 
L 112.439146 69.994252 
L 111.285104 70.565632 
L 109.902491 71.090426 
L 107.365837 73.103913 
L 104.829182 75.655717 
L 102.292527 78.587428 
L 97.219218 85.333766 
L 93.599752 90.858869 
L 90.730712 95.932179 
L 89.533282 98.468833 
L 88.497664 101.005488 
L 87.713927 103.542142 
L 87.204317 106.078797 
L 86.973595 108.615452 
L 87.0726 111.259025 
L 87.423764 113.688761 
L 88.072744 116.225416 
L 88.985667 118.76207 
L 91.396249 123.835379 
L 94.387061 128.908689 
L 97.219218 133.163696 
L 102.292527 139.92344 
L 107.365837 145.454023 
L 109.053929 146.665271 
L 109.902491 147.425215 
L 112.439146 148.511361 
L 114.9758 148.500055 
L 117.512455 147.546252 
L 118.83832 146.665271 
L 120.04911 146.020695 
L 125.122419 142.642059 
L 127.659073 141.129283 
L 130.195728 139.939846 
L 133.117368 139.055307 
L 135.269037 138.775507 
L 138.128011 139.055307 
L 140.342347 139.74803 
L 142.879001 141.1274 
L 143.49503 141.591962 
L 145.415656 143.210134 
L 146.302126 144.128616 
L 148.342552 146.665271 
L 149.823617 149.201926 
L 150.873259 151.73858 
L 151.470802 154.275235 
L 151.635129 156.81189 
L 151.361575 159.348544 
L 150.488965 162.269954 
L 149.490294 164.421853 
L 147.907807 166.958508 
L 145.415656 169.80162 
L 142.608028 172.031817 
L 140.342347 173.237442 
L 137.805692 174.013995 
L 135.269037 174.210085 
L 132.732383 173.862583 
L 130.195728 173.049736 
L 127.659073 171.870279 
L 123.738566 169.495163 
L 122.585764 168.670397 
L 117.512455 165.440443 
L 114.9758 164.544841 
L 112.439146 164.534225 
L 109.902491 165.554095 
L 107.365837 167.553245 
L 103.241185 172.031817 
L 102.292527 173.06579 
L 97.219218 179.826306 
L 93.990787 184.71509 
L 91.058222 189.7884 
L 89.609254 192.832707 
L 88.733987 194.861709 
L 87.884902 197.398363 
L 87.305092 199.935018 
L 87.00432 202.471673 
L 87.0726 205.539561 
L 87.305092 207.544982 
L 87.884902 210.081637 
L 88.733987 212.618291 
L 89.817005 215.154946 
L 91.058222 217.6916 
L 93.990787 222.76491 
L 97.219218 227.653694 
L 102.292527 234.41421 
L 103.241185 235.448183 
L 104.829182 237.362742 
L 105.514473 237.984837 
L 107.365837 239.926755 
L 108.232399 240.521492 
L 109.902491 241.925905 
L 112.439146 242.945775 
L 114.9758 242.935159 
L 117.512455 242.039557 
L 122.585764 238.809603 
L 125.122419 237.12798 
L 127.977333 235.448183 
L 130.195728 234.430264 
L 132.732383 233.617417 
L 135.269037 233.269915 
L 137.805692 233.466005 
L 140.342347 234.242558 
L 142.879001 235.607682 
L 145.720929 237.984837 
L 147.95231 240.584741 
L 149.490294 243.058147 
L 150.657906 245.594801 
L 151.361575 248.131456 
L 151.635129 250.66811 
L 151.470802 253.204765 
L 150.873259 255.74142 
L 149.823617 258.278074 
L 147.95231 261.350229 
L 145.415656 264.269866 
L 142.879001 266.3526 
L 140.342347 267.73197 
L 137.805692 268.518357 
L 135.269037 268.704493 
L 132.732383 268.370798 
L 130.195728 267.540154 
L 126.8223 265.888038 
L 122.585764 263.193926 
L 120.04911 261.459305 
L 118.83832 260.814729 
L 117.512455 259.933748 
L 114.9758 258.979945 
L 112.439146 258.968639 
L 109.902491 260.054785 
L 109.053929 260.814729 
L 107.365837 262.025977 
L 106.157192 263.351384 
L 104.829182 264.59564 
L 103.790576 265.888038 
L 101.652611 268.424693 
L 99.654267 270.961347 
L 96.059981 276.034657 
L 94.387061 278.571311 
L 91.396249 283.644621 
L 89.609254 287.343567 
L 88.985667 288.71793 
L 88.072744 291.254584 
L 87.423764 293.791239 
L 87.055468 296.327894 
L 86.973595 298.864548 
L 87.204317 301.401203 
L 87.713927 303.937858 
L 88.497664 306.474512 
L 89.609254 309.164345 
L 90.730712 311.547821 
L 92.145909 314.159244 
L 95.211563 319.157785 
L 98.742697 324.231094 
L 100.660543 326.767749 
L 102.677802 329.304404 
L 104.848203 331.841058 
L 107.368305 334.377713 
L 109.902491 336.389574 
L 111.285104 336.914368 
L 112.439146 337.485748 
L 114.9758 337.472675 
L 116.259901 336.914368 
L 117.512455 336.496869 
L 120.04911 335.002734 
L 120.875202 334.377713 
L 127.659073 330.12122 
L 130.195728 328.908317 
L 132.732383 328.111133 
L 135.269037 327.770327 
L 137.805692 327.962638 
L 140.342347 328.724228 
L 142.879001 330.11924 
L 145.415656 332.172011 
L 147.95231 335.123419 
L 149.13191 336.914368 
L 150.488965 339.677231 
L 151.225407 341.987677 
L 151.6077 344.524331 
L 151.552892 347.060986 
L 151.062538 349.597641 
L 150.131287 352.134295 
L 148.749102 354.67095 
L 146.860994 357.207605 
L 145.415656 358.757666 
L 142.879001 360.829756 
L 140.222685 362.280914 
L 137.805692 362.994103 
L 135.269037 363.183108 
L 132.732383 362.84816 
L 130.195728 362.046105 
L 127.659073 360.827827 
L 125.122419 359.345668 
L 120.04911 355.933037 
L 117.512455 354.473066 
L 114.9758 353.451029 
L 112.439146 353.438914 
L 109.831435 354.67095 
L 107.365837 356.52781 
L 106.775218 357.207605 
L 104.829182 359.094868 
L 104.324999 359.744259 
L 102.135636 362.280914 
L 98.281872 367.354223 
L 96.487135 369.890878 
L 93.214653 374.964187 
L 91.744191 377.500842 
L 90.414301 380.037496 
L 89.252257 382.574151 
L 88.277119 385.110805 
L 87.560123 387.64746 
L 87.0726 391.026785 
L 86.963347 392.720769 
L 86.963347 392.720769 
" style="fill:none;stroke:#0000ff;"/>
    <path clip-path="url(#p1173dcf123)" d="M 275.917704 14.759231 
L 276.072024 17.295885 
L 276.530604 19.83254 
L 277.321696 22.47185 
L 278.227691 24.905849 
L 279.858351 28.308317 
L 280.726326 29.979158 
L 283.781628 35.052468 
L 285.467748 37.589122 
L 287.468315 40.459517 
L 292.541624 46.94915 
L 293.32592 47.735741 
L 295.078278 49.720003 
L 295.766199 50.272395 
L 297.614933 52.034259 
L 299.012402 52.80905 
L 300.151588 53.613847 
L 302.688242 54.173207 
L 305.224897 53.631312 
L 306.66789 52.80905 
L 307.761552 52.31997 
L 315.371515 47.3534 
L 317.90817 46.005836 
L 320.444825 44.973659 
L 322.981479 44.4027 
L 325.518134 44.322701 
L 328.054788 44.789636 
L 330.591443 45.871123 
L 333.323135 47.735741 
L 335.877425 50.272395 
L 338.201407 53.623089 
L 339.107069 55.345705 
L 340.037124 57.882359 
L 340.537196 60.419014 
L 340.593091 62.955669 
L 340.203221 65.492323 
L 339.378652 68.028978 
L 338.137373 70.565632 
L 335.664752 73.952834 
L 333.128098 76.419848 
L 330.558484 78.175596 
L 328.054788 79.208311 
L 325.518134 79.683413 
L 322.981479 79.602015 
L 320.444825 79.021069 
L 317.90817 78.022387 
L 313.706067 75.638942 
L 307.761552 71.6624 
L 305.224897 70.436446 
L 302.688242 69.851677 
L 300.006855 70.565632 
L 297.614933 71.963583 
L 296.481463 73.102287 
L 295.078278 74.272143 
L 293.915707 75.638942 
L 292.541624 77.053867 
L 291.681611 78.175596 
L 289.619187 80.712251 
L 285.911236 85.78556 
L 284.191476 88.322215 
L 281.080305 93.395524 
L 279.718001 95.932179 
L 278.499803 98.468833 
L 277.321696 101.591581 
L 276.691449 103.542142 
L 276.158507 106.078797 
L 275.92737 108.615452 
L 276.004599 111.152106 
L 276.388001 113.688761 
L 277.321696 116.902946 
L 277.969557 118.76207 
L 279.858351 122.794399 
L 280.38156 123.835379 
L 282.395005 127.325135 
L 285.025246 131.445343 
L 288.671181 136.518653 
L 290.635695 139.055307 
L 292.718027 141.591962 
L 295.078278 144.181726 
L 297.956271 146.665271 
L 300.151588 148.112645 
L 302.688242 148.634661 
L 305.224897 148.128945 
L 307.910111 146.665271 
L 310.298206 145.187853 
L 312.834861 143.457852 
L 315.799442 141.591962 
L 317.90817 140.498247 
L 320.444825 139.471598 
L 322.981479 138.879708 
L 325.518134 138.800924 
L 328.054788 139.276497 
L 330.591443 140.366723 
L 333.128098 142.072556 
L 335.664752 144.52948 
L 337.30534 146.665271 
L 338.810204 149.201926 
L 339.844094 151.73858 
L 340.453479 154.275235 
L 340.621063 156.81189 
L 340.342088 159.348544 
L 339.624473 161.885199 
L 338.201407 164.900513 
L 336.852546 166.958508 
L 335.664752 168.437578 
L 334.665681 169.495163 
L 333.128098 170.903805 
L 330.591443 172.632005 
L 328.054788 173.698872 
L 325.518134 174.183308 
L 322.981479 174.100311 
L 320.444825 173.507951 
L 316.979231 172.031817 
L 315.371515 171.129196 
L 312.724463 169.495163 
L 310.298206 167.807839 
L 308.862926 166.958508 
L 307.761552 166.159954 
L 305.224897 164.893306 
L 302.670622 164.421853 
L 300.151588 164.908611 
L 297.614933 166.478979 
L 297.164304 166.958508 
L 295.078278 168.770207 
L 294.486338 169.495163 
L 292.187533 172.031817 
L 290.004969 174.673736 
L 286.35492 179.641781 
L 284.604467 182.178436 
L 281.442866 187.251745 
L 279.858351 190.176704 
L 278.785409 192.325054 
L 277.321696 196.108713 
L 276.870252 197.398363 
L 276.263895 199.935018 
L 275.956352 202.471673 
L 275.956352 205.008327 
L 276.263895 207.544982 
L 276.870252 210.081637 
L 277.725861 212.618291 
L 278.785409 215.154946 
L 281.442866 220.228255 
L 284.604467 225.301564 
L 286.35492 227.838219 
L 288.189253 230.374874 
L 290.097559 232.911528 
L 292.541624 235.923578 
L 295.078278 238.709793 
L 297.614933 241.001021 
L 300.151588 242.571389 
L 302.70643 243.058147 
L 305.224897 242.586694 
L 307.761552 241.320046 
L 308.862926 240.521492 
L 310.298206 239.672161 
L 312.834861 237.918392 
L 316.979231 235.448183 
L 317.90817 234.976701 
L 320.444825 233.972049 
L 322.981479 233.379689 
L 325.518134 233.296692 
L 328.054788 233.781128 
L 330.591443 234.847995 
L 333.128098 236.576195 
L 335.664752 239.042422 
L 336.852546 240.521492 
L 338.488588 243.058147 
L 339.624473 245.594801 
L 340.342088 248.131456 
L 340.621063 250.66811 
L 340.453479 253.204765 
L 339.844094 255.74142 
L 338.810204 258.278074 
L 337.30534 260.814729 
L 335.302537 263.351384 
L 332.46893 265.888038 
L 330.591443 267.113277 
L 328.054788 268.203503 
L 325.518134 268.679076 
L 322.981479 268.600292 
L 320.444825 268.008402 
L 317.90817 266.981753 
L 315.371515 265.640072 
L 307.761552 260.700016 
L 305.224897 259.351055 
L 302.688242 258.845339 
L 300.151588 259.367355 
L 297.614933 260.995034 
L 295.036799 263.351384 
L 292.541624 266.060769 
L 287.468315 272.526804 
L 283.375653 278.571311 
L 281.813366 281.107966 
L 279.858351 284.685601 
L 279.084002 286.181275 
L 277.969557 288.71793 
L 277.066694 291.254584 
L 276.388001 293.791239 
L 276.004599 296.327894 
L 275.92737 298.864548 
L 276.158507 301.401203 
L 276.691449 303.937858 
L 277.497034 306.474512 
L 278.499803 309.011167 
L 279.858351 311.802294 
L 282.395005 316.314867 
L 284.191476 319.157785 
L 285.911236 321.69444 
L 287.70318 324.231094 
L 290.004969 327.308632 
L 295.078278 333.207857 
L 296.481463 334.377713 
L 297.614933 335.516417 
L 300.151588 337.024706 
L 302.688242 337.628323 
L 305.434985 336.914368 
L 307.761552 335.8176 
L 313.706067 331.841058 
L 315.371515 330.841184 
L 318.268142 329.304404 
L 320.444825 328.458931 
L 322.981479 327.877985 
L 325.518134 327.796587 
L 328.054788 328.271689 
L 330.591443 329.319301 
L 333.128098 331.060152 
L 334.005489 331.841058 
L 336.376292 334.377713 
L 338.201407 337.03468 
L 339.378652 339.451022 
L 340.203221 341.987677 
L 340.593091 344.524331 
L 340.537196 347.060986 
L 340.037124 349.597641 
L 339.107069 352.134295 
L 337.73387 354.67095 
L 335.664752 357.452456 
L 333.128098 359.913331 
L 330.591443 361.608877 
L 328.054788 362.690364 
L 325.518134 363.157299 
L 322.981479 363.0773 
L 319.854308 362.280914 
L 317.90817 361.474164 
L 314.717649 359.744259 
L 307.761552 355.16003 
L 306.66789 354.67095 
L 305.224897 353.848688 
L 302.688242 353.306793 
L 300.151588 353.866153 
L 299.012402 354.67095 
L 297.614933 355.445741 
L 295.078278 357.759997 
L 290.004969 363.636866 
L 284.93166 370.665184 
L 282.191145 374.964187 
L 279.858351 379.171683 
L 279.39505 380.037496 
L 278.227691 382.574151 
L 277.280427 385.110805 
L 276.530604 387.64746 
L 276.072024 390.184115 
L 275.917704 392.720769 
L 275.917704 392.720769 
" style="fill:none;stroke:#0000ff;"/>
   </g>
   <g id="patch_3">
    <path d="M 21.170313 7.2 
L 414.250312 7.2 
" style="fill:none;stroke:#000000;stroke-linecap:square;stroke-linejoin:miter;stroke-width:0.8;"/>
   </g>
   <g id="patch_4">
    <path d="M 414.250312 400.28 
L 414.250312 7.2 
" style="fill:none;stroke:#000000;stroke-linecap:square;stroke-linejoin:miter;stroke-width:0.8;"/>
   </g>
   <g id="patch_5">
    <path d="M 21.170313 400.28 
L 414.250312 400.28 
" style="fill:none;stroke:#000000;stroke-linecap:square;stroke-linejoin:miter;stroke-width:0.8;"/>
   </g>
   <g id="patch_6">
    <path d="M 21.170313 400.28 
L 21.170313 7.2 
" style="fill:none;stroke:#000000;stroke-linecap:square;stroke-linejoin:miter;stroke-width:0.8;"/>
   </g>
   <g id="matplotlib.axis_1">
    <g id="xtick_1">
     <g id="line2d_1">
      <defs>
       <path d="M 0 0 
L 0 -4 
" id="m38cad4c567" style="stroke:#000000;stroke-width:0.5;"/>
      </defs>
      <g>
       <use style="stroke:#000000;stroke-width:0.5;" x="37.2469710657" xlink:href="#m38cad4c567" y="400.28"/>
      </g>
     </g>
     <g id="line2d_2">
      <defs>
       <path d="M 0 0 
L 0 4 
" id="mf1dd83196b" style="stroke:#000000;stroke-width:0.5;"/>
      </defs>
      <g>
       <use style="stroke:#000000;stroke-width:0.5;" x="37.2469710657" xlink:href="#mf1dd83196b" y="7.2"/>
      </g>
     </g>
     <g id="text_1">
      <!-- -6 -->
      <defs>
       <path d="M 33.015625 40.375 
Q 26.375 40.375 22.484375 35.828125 
Q 18.609375 31.296875 18.609375 23.390625 
Q 18.609375 15.53125 22.484375 10.953125 
Q 26.375 6.390625 33.015625 6.390625 
Q 39.65625 6.390625 43.53125 10.953125 
Q 47.40625 15.53125 47.40625 23.390625 
Q 47.40625 31.296875 43.53125 35.828125 
Q 39.65625 40.375 33.015625 40.375 
M 52.59375 71.296875 
L 52.59375 62.3125 
Q 48.875 64.0625 45.09375 64.984375 
Q 41.3125 65.921875 37.59375 65.921875 
Q 27.828125 65.921875 22.671875 59.328125 
Q 17.53125 52.734375 16.796875 39.40625 
Q 19.671875 43.65625 24.015625 45.921875 
Q 28.375 48.1875 33.59375 48.1875 
Q 44.578125 48.1875 50.953125 41.515625 
Q 57.328125 34.859375 57.328125 23.390625 
Q 57.328125 12.15625 50.6875 5.359375 
Q 44.046875 -1.421875 33.015625 -1.421875 
Q 20.359375 -1.421875 13.671875 8.265625 
Q 6.984375 17.96875 6.984375 36.375 
Q 6.984375 53.65625 15.1875 63.9375 
Q 23.390625 74.21875 37.203125 74.21875 
Q 40.921875 74.21875 44.703125 73.484375 
Q 48.484375 72.75 52.59375 71.296875 
" id="BitstreamVeraSans-Roman-36"/>
       <path d="M 4.890625 31.390625 
L 31.203125 31.390625 
L 31.203125 23.390625 
L 4.890625 23.390625 
z
" id="BitstreamVeraSans-Roman-2d"/>
      </defs>
      <g transform="translate(32.2618148157 411.8784375)scale(0.1 -0.1)">
       <use xlink:href="#BitstreamVeraSans-Roman-2d"/>
       <use x="36.083984375" xlink:href="#BitstreamVeraSans-Roman-36"/>
      </g>
     </g>
    </g>
    <g id="xtick_2">
     <g id="line2d_3">
      <g>
       <use style="stroke:#000000;stroke-width:0.5;" x="97.4014182105" xlink:href="#m38cad4c567" y="400.28"/>
      </g>
     </g>
     <g id="line2d_4">
      <g>
       <use style="stroke:#000000;stroke-width:0.5;" x="97.4014182105" xlink:href="#mf1dd83196b" y="7.2"/>
      </g>
     </g>
     <g id="text_2">
      <!-- -4 -->
      <defs>
       <path d="M 37.796875 64.3125 
L 12.890625 25.390625 
L 37.796875 25.390625 
z
M 35.203125 72.90625 
L 47.609375 72.90625 
L 47.609375 25.390625 
L 58.015625 25.390625 
L 58.015625 17.1875 
L 47.609375 17.1875 
L 47.609375 0 
L 37.796875 0 
L 37.796875 17.1875 
L 4.890625 17.1875 
L 4.890625 26.703125 
z
" id="BitstreamVeraSans-Roman-34"/>
      </defs>
      <g transform="translate(92.4162619605 411.8784375)scale(0.1 -0.1)">
       <use xlink:href="#BitstreamVeraSans-Roman-2d"/>
       <use x="36.083984375" xlink:href="#BitstreamVeraSans-Roman-34"/>
      </g>
     </g>
    </g>
    <g id="xtick_3">
     <g id="line2d_5">
      <g>
       <use style="stroke:#000000;stroke-width:0.5;" x="157.555865355" xlink:href="#m38cad4c567" y="400.28"/>
      </g>
     </g>
     <g id="line2d_6">
      <g>
       <use style="stroke:#000000;stroke-width:0.5;" x="157.555865355" xlink:href="#mf1dd83196b" y="7.2"/>
      </g>
     </g>
     <g id="text_3">
      <!-- -2 -->
      <defs>
       <path d="M 19.1875 8.296875 
L 53.609375 8.296875 
L 53.609375 0 
L 7.328125 0 
L 7.328125 8.296875 
Q 12.9375 14.109375 22.625 23.890625 
Q 32.328125 33.6875 34.8125 36.53125 
Q 39.546875 41.84375 41.421875 45.53125 
Q 43.3125 49.21875 43.3125 52.78125 
Q 43.3125 58.59375 39.234375 62.25 
Q 35.15625 65.921875 28.609375 65.921875 
Q 23.96875 65.921875 18.8125 64.3125 
Q 13.671875 62.703125 7.8125 59.421875 
L 7.8125 69.390625 
Q 13.765625 71.78125 18.9375 73 
Q 24.125 74.21875 28.421875 74.21875 
Q 39.75 74.21875 46.484375 68.546875 
Q 53.21875 62.890625 53.21875 53.421875 
Q 53.21875 48.921875 51.53125 44.890625 
Q 49.859375 40.875 45.40625 35.40625 
Q 44.1875 33.984375 37.640625 27.21875 
Q 31.109375 20.453125 19.1875 8.296875 
" id="BitstreamVeraSans-Roman-32"/>
      </defs>
      <g transform="translate(152.570709105 411.8784375)scale(0.1 -0.1)">
       <use xlink:href="#BitstreamVeraSans-Roman-2d"/>
       <use x="36.083984375" xlink:href="#BitstreamVeraSans-Roman-32"/>
      </g>
     </g>
    </g>
    <g id="xtick_4">
     <g id="line2d_7">
      <g>
       <use style="stroke:#000000;stroke-width:0.5;" x="217.7103125" xlink:href="#m38cad4c567" y="400.28"/>
      </g>
     </g>
     <g id="line2d_8">
      <g>
       <use style="stroke:#000000;stroke-width:0.5;" x="217.7103125" xlink:href="#mf1dd83196b" y="7.2"/>
      </g>
     </g>
     <g id="text_4">
      <!-- 0 -->
      <defs>
       <path d="M 31.78125 66.40625 
Q 24.171875 66.40625 20.328125 58.90625 
Q 16.5 51.421875 16.5 36.375 
Q 16.5 21.390625 20.328125 13.890625 
Q 24.171875 6.390625 31.78125 6.390625 
Q 39.453125 6.390625 43.28125 13.890625 
Q 47.125 21.390625 47.125 36.375 
Q 47.125 51.421875 43.28125 58.90625 
Q 39.453125 66.40625 31.78125 66.40625 
M 31.78125 74.21875 
Q 44.046875 74.21875 50.515625 64.515625 
Q 56.984375 54.828125 56.984375 36.375 
Q 56.984375 17.96875 50.515625 8.265625 
Q 44.046875 -1.421875 31.78125 -1.421875 
Q 19.53125 -1.421875 13.0625 8.265625 
Q 6.59375 17.96875 6.59375 36.375 
Q 6.59375 54.828125 13.0625 64.515625 
Q 19.53125 74.21875 31.78125 74.21875 
" id="BitstreamVeraSans-Roman-30"/>
      </defs>
      <g transform="translate(214.5290625 411.8784375)scale(0.1 -0.1)">
       <use xlink:href="#BitstreamVeraSans-Roman-30"/>
      </g>
     </g>
    </g>
    <g id="xtick_5">
     <g id="line2d_9">
      <g>
       <use style="stroke:#000000;stroke-width:0.5;" x="277.864759645" xlink:href="#m38cad4c567" y="400.28"/>
      </g>
     </g>
     <g id="line2d_10">
      <g>
       <use style="stroke:#000000;stroke-width:0.5;" x="277.864759645" xlink:href="#mf1dd83196b" y="7.2"/>
      </g>
     </g>
     <g id="text_5">
      <!-- 2 -->
      <g transform="translate(274.683509645 411.8784375)scale(0.1 -0.1)">
       <use xlink:href="#BitstreamVeraSans-Roman-32"/>
      </g>
     </g>
    </g>
    <g id="xtick_6">
     <g id="line2d_11">
      <g>
       <use style="stroke:#000000;stroke-width:0.5;" x="338.01920679" xlink:href="#m38cad4c567" y="400.28"/>
      </g>
     </g>
     <g id="line2d_12">
      <g>
       <use style="stroke:#000000;stroke-width:0.5;" x="338.01920679" xlink:href="#mf1dd83196b" y="7.2"/>
      </g>
     </g>
     <g id="text_6">
      <!-- 4 -->
      <g transform="translate(334.83795679 411.8784375)scale(0.1 -0.1)">
       <use xlink:href="#BitstreamVeraSans-Roman-34"/>
      </g>
     </g>
    </g>
    <g id="xtick_7">
     <g id="line2d_13">
      <g>
       <use style="stroke:#000000;stroke-width:0.5;" x="398.173653934" xlink:href="#m38cad4c567" y="400.28"/>
      </g>
     </g>
     <g id="line2d_14">
      <g>
       <use style="stroke:#000000;stroke-width:0.5;" x="398.173653934" xlink:href="#mf1dd83196b" y="7.2"/>
      </g>
     </g>
     <g id="text_7">
      <!-- 6 -->
      <g transform="translate(394.992403934 411.8784375)scale(0.1 -0.1)">
       <use xlink:href="#BitstreamVeraSans-Roman-36"/>
      </g>
     </g>
    </g>
    <g id="xtick_8">
     <g id="line2d_15">
      <defs>
       <path d="M 0 0 
L 0 -2 
" id="mcfaaa1172e" style="stroke:#000000;stroke-width:0.5;"/>
      </defs>
      <g>
       <use style="stroke:#000000;stroke-width:0.5;" x="22.2083592795" xlink:href="#mcfaaa1172e" y="400.28"/>
      </g>
     </g>
     <g id="line2d_16">
      <defs>
       <path d="M 0 0 
L 0 2 
" id="mb2ec1a16cf" style="stroke:#000000;stroke-width:0.5;"/>
      </defs>
      <g>
       <use style="stroke:#000000;stroke-width:0.5;" x="22.2083592795" xlink:href="#mb2ec1a16cf" y="7.2"/>
      </g>
     </g>
    </g>
    <g id="xtick_9">
     <g id="line2d_17">
      <g>
       <use style="stroke:#000000;stroke-width:0.5;" x="52.2855828519" xlink:href="#mcfaaa1172e" y="400.28"/>
      </g>
     </g>
     <g id="line2d_18">
      <g>
       <use style="stroke:#000000;stroke-width:0.5;" x="52.2855828519" xlink:href="#mb2ec1a16cf" y="7.2"/>
      </g>
     </g>
    </g>
    <g id="xtick_10">
     <g id="line2d_19">
      <g>
       <use style="stroke:#000000;stroke-width:0.5;" x="67.3241946381" xlink:href="#mcfaaa1172e" y="400.28"/>
      </g>
     </g>
     <g id="line2d_20">
      <g>
       <use style="stroke:#000000;stroke-width:0.5;" x="67.3241946381" xlink:href="#mb2ec1a16cf" y="7.2"/>
      </g>
     </g>
    </g>
    <g id="xtick_11">
     <g id="line2d_21">
      <g>
       <use style="stroke:#000000;stroke-width:0.5;" x="82.3628064243" xlink:href="#mcfaaa1172e" y="400.28"/>
      </g>
     </g>
     <g id="line2d_22">
      <g>
       <use style="stroke:#000000;stroke-width:0.5;" x="82.3628064243" xlink:href="#mb2ec1a16cf" y="7.2"/>
      </g>
     </g>
    </g>
    <g id="xtick_12">
     <g id="line2d_23">
      <g>
       <use style="stroke:#000000;stroke-width:0.5;" x="112.440029997" xlink:href="#mcfaaa1172e" y="400.28"/>
      </g>
     </g>
     <g id="line2d_24">
      <g>
       <use style="stroke:#000000;stroke-width:0.5;" x="112.440029997" xlink:href="#mb2ec1a16cf" y="7.2"/>
      </g>
     </g>
    </g>
    <g id="xtick_13">
     <g id="line2d_25">
      <g>
       <use style="stroke:#000000;stroke-width:0.5;" x="127.478641783" xlink:href="#mcfaaa1172e" y="400.28"/>
      </g>
     </g>
     <g id="line2d_26">
      <g>
       <use style="stroke:#000000;stroke-width:0.5;" x="127.478641783" xlink:href="#mb2ec1a16cf" y="7.2"/>
      </g>
     </g>
    </g>
    <g id="xtick_14">
     <g id="line2d_27">
      <g>
       <use style="stroke:#000000;stroke-width:0.5;" x="142.517253569" xlink:href="#mcfaaa1172e" y="400.28"/>
      </g>
     </g>
     <g id="line2d_28">
      <g>
       <use style="stroke:#000000;stroke-width:0.5;" x="142.517253569" xlink:href="#mb2ec1a16cf" y="7.2"/>
      </g>
     </g>
    </g>
    <g id="xtick_15">
     <g id="line2d_29">
      <g>
       <use style="stroke:#000000;stroke-width:0.5;" x="172.594477141" xlink:href="#mcfaaa1172e" y="400.28"/>
      </g>
     </g>
     <g id="line2d_30">
      <g>
       <use style="stroke:#000000;stroke-width:0.5;" x="172.594477141" xlink:href="#mb2ec1a16cf" y="7.2"/>
      </g>
     </g>
    </g>
    <g id="xtick_16">
     <g id="line2d_31">
      <g>
       <use style="stroke:#000000;stroke-width:0.5;" x="187.633088928" xlink:href="#mcfaaa1172e" y="400.28"/>
      </g>
     </g>
     <g id="line2d_32">
      <g>
       <use style="stroke:#000000;stroke-width:0.5;" x="187.633088928" xlink:href="#mb2ec1a16cf" y="7.2"/>
      </g>
     </g>
    </g>
    <g id="xtick_17">
     <g id="line2d_33">
      <g>
       <use style="stroke:#000000;stroke-width:0.5;" x="202.671700714" xlink:href="#mcfaaa1172e" y="400.28"/>
      </g>
     </g>
     <g id="line2d_34">
      <g>
       <use style="stroke:#000000;stroke-width:0.5;" x="202.671700714" xlink:href="#mb2ec1a16cf" y="7.2"/>
      </g>
     </g>
    </g>
    <g id="xtick_18">
     <g id="line2d_35">
      <g>
       <use style="stroke:#000000;stroke-width:0.5;" x="232.748924286" xlink:href="#mcfaaa1172e" y="400.28"/>
      </g>
     </g>
     <g id="line2d_36">
      <g>
       <use style="stroke:#000000;stroke-width:0.5;" x="232.748924286" xlink:href="#mb2ec1a16cf" y="7.2"/>
      </g>
     </g>
    </g>
    <g id="xtick_19">
     <g id="line2d_37">
      <g>
       <use style="stroke:#000000;stroke-width:0.5;" x="247.787536072" xlink:href="#mcfaaa1172e" y="400.28"/>
      </g>
     </g>
     <g id="line2d_38">
      <g>
       <use style="stroke:#000000;stroke-width:0.5;" x="247.787536072" xlink:href="#mb2ec1a16cf" y="7.2"/>
      </g>
     </g>
    </g>
    <g id="xtick_20">
     <g id="line2d_39">
      <g>
       <use style="stroke:#000000;stroke-width:0.5;" x="262.826147859" xlink:href="#mcfaaa1172e" y="400.28"/>
      </g>
     </g>
     <g id="line2d_40">
      <g>
       <use style="stroke:#000000;stroke-width:0.5;" x="262.826147859" xlink:href="#mb2ec1a16cf" y="7.2"/>
      </g>
     </g>
    </g>
    <g id="xtick_21">
     <g id="line2d_41">
      <g>
       <use style="stroke:#000000;stroke-width:0.5;" x="292.903371431" xlink:href="#mcfaaa1172e" y="400.28"/>
      </g>
     </g>
     <g id="line2d_42">
      <g>
       <use style="stroke:#000000;stroke-width:0.5;" x="292.903371431" xlink:href="#mb2ec1a16cf" y="7.2"/>
      </g>
     </g>
    </g>
    <g id="xtick_22">
     <g id="line2d_43">
      <g>
       <use style="stroke:#000000;stroke-width:0.5;" x="307.941983217" xlink:href="#mcfaaa1172e" y="400.28"/>
      </g>
     </g>
     <g id="line2d_44">
      <g>
       <use style="stroke:#000000;stroke-width:0.5;" x="307.941983217" xlink:href="#mb2ec1a16cf" y="7.2"/>
      </g>
     </g>
    </g>
    <g id="xtick_23">
     <g id="line2d_45">
      <g>
       <use style="stroke:#000000;stroke-width:0.5;" x="322.980595003" xlink:href="#mcfaaa1172e" y="400.28"/>
      </g>
     </g>
     <g id="line2d_46">
      <g>
       <use style="stroke:#000000;stroke-width:0.5;" x="322.980595003" xlink:href="#mb2ec1a16cf" y="7.2"/>
      </g>
     </g>
    </g>
    <g id="xtick_24">
     <g id="line2d_47">
      <g>
       <use style="stroke:#000000;stroke-width:0.5;" x="353.057818576" xlink:href="#mcfaaa1172e" y="400.28"/>
      </g>
     </g>
     <g id="line2d_48">
      <g>
       <use style="stroke:#000000;stroke-width:0.5;" x="353.057818576" xlink:href="#mb2ec1a16cf" y="7.2"/>
      </g>
     </g>
    </g>
    <g id="xtick_25">
     <g id="line2d_49">
      <g>
       <use style="stroke:#000000;stroke-width:0.5;" x="368.096430362" xlink:href="#mcfaaa1172e" y="400.28"/>
      </g>
     </g>
     <g id="line2d_50">
      <g>
       <use style="stroke:#000000;stroke-width:0.5;" x="368.096430362" xlink:href="#mb2ec1a16cf" y="7.2"/>
      </g>
     </g>
    </g>
    <g id="xtick_26">
     <g id="line2d_51">
      <g>
       <use style="stroke:#000000;stroke-width:0.5;" x="383.135042148" xlink:href="#mcfaaa1172e" y="400.28"/>
      </g>
     </g>
     <g id="line2d_52">
      <g>
       <use style="stroke:#000000;stroke-width:0.5;" x="383.135042148" xlink:href="#mb2ec1a16cf" y="7.2"/>
      </g>
     </g>
    </g>
    <g id="xtick_27">
     <g id="line2d_53">
      <g>
       <use style="stroke:#000000;stroke-width:0.5;" x="413.212265721" xlink:href="#mcfaaa1172e" y="400.28"/>
      </g>
     </g>
     <g id="line2d_54">
      <g>
       <use style="stroke:#000000;stroke-width:0.5;" x="413.212265721" xlink:href="#mb2ec1a16cf" y="7.2"/>
      </g>
     </g>
    </g>
   </g>
   <g id="matplotlib.axis_2">
    <g id="ytick_1">
     <g id="line2d_55">
      <defs>
       <path d="M 0 0 
L 4 0 
" id="mb4f68d528f" style="stroke:#000000;stroke-width:0.5;"/>
      </defs>
      <g>
       <use style="stroke:#000000;stroke-width:0.5;" x="21.1703125" xlink:href="#mb4f68d528f" y="384.203341434"/>
      </g>
     </g>
     <g id="line2d_56">
      <defs>
       <path d="M 0 0 
L -4 0 
" id="m2068f3b47f" style="stroke:#000000;stroke-width:0.5;"/>
      </defs>
      <g>
       <use style="stroke:#000000;stroke-width:0.5;" x="414.2503125" xlink:href="#m2068f3b47f" y="384.203341434"/>
      </g>
     </g>
     <g id="text_8">
      <!-- -6 -->
      <g transform="translate(7.2 386.962716434)scale(0.1 -0.1)">
       <use xlink:href="#BitstreamVeraSans-Roman-2d"/>
       <use x="36.083984375" xlink:href="#BitstreamVeraSans-Roman-36"/>
      </g>
     </g>
    </g>
    <g id="ytick_2">
     <g id="line2d_57">
      <g>
       <use style="stroke:#000000;stroke-width:0.5;" x="21.1703125" xlink:href="#mb4f68d528f" y="324.04889429"/>
      </g>
     </g>
     <g id="line2d_58">
      <g>
       <use style="stroke:#000000;stroke-width:0.5;" x="414.2503125" xlink:href="#m2068f3b47f" y="324.04889429"/>
      </g>
     </g>
     <g id="text_9">
      <!-- -4 -->
      <g transform="translate(7.2 326.80826929)scale(0.1 -0.1)">
       <use xlink:href="#BitstreamVeraSans-Roman-2d"/>
       <use x="36.083984375" xlink:href="#BitstreamVeraSans-Roman-34"/>
      </g>
     </g>
    </g>
    <g id="ytick_3">
     <g id="line2d_59">
      <g>
       <use style="stroke:#000000;stroke-width:0.5;" x="21.1703125" xlink:href="#mb4f68d528f" y="263.894447145"/>
      </g>
     </g>
     <g id="line2d_60">
      <g>
       <use style="stroke:#000000;stroke-width:0.5;" x="414.2503125" xlink:href="#m2068f3b47f" y="263.894447145"/>
      </g>
     </g>
     <g id="text_10">
      <!-- -2 -->
      <g transform="translate(7.2 266.653822145)scale(0.1 -0.1)">
       <use xlink:href="#BitstreamVeraSans-Roman-2d"/>
       <use x="36.083984375" xlink:href="#BitstreamVeraSans-Roman-32"/>
      </g>
     </g>
    </g>
    <g id="ytick_4">
     <g id="line2d_61">
      <g>
       <use style="stroke:#000000;stroke-width:0.5;" x="21.1703125" xlink:href="#mb4f68d528f" y="203.74"/>
      </g>
     </g>
     <g id="line2d_62">
      <g>
       <use style="stroke:#000000;stroke-width:0.5;" x="414.2503125" xlink:href="#m2068f3b47f" y="203.74"/>
      </g>
     </g>
     <g id="text_11">
      <!-- 0 -->
      <g transform="translate(10.8078125 206.499375)scale(0.1 -0.1)">
       <use xlink:href="#BitstreamVeraSans-Roman-30"/>
      </g>
     </g>
    </g>
    <g id="ytick_5">
     <g id="line2d_63">
      <g>
       <use style="stroke:#000000;stroke-width:0.5;" x="21.1703125" xlink:href="#mb4f68d528f" y="143.585552855"/>
      </g>
     </g>
     <g id="line2d_64">
      <g>
       <use style="stroke:#000000;stroke-width:0.5;" x="414.2503125" xlink:href="#m2068f3b47f" y="143.585552855"/>
      </g>
     </g>
     <g id="text_12">
      <!-- 2 -->
      <g transform="translate(10.8078125 146.344927855)scale(0.1 -0.1)">
       <use xlink:href="#BitstreamVeraSans-Roman-32"/>
      </g>
     </g>
    </g>
    <g id="ytick_6">
     <g id="line2d_65">
      <g>
       <use style="stroke:#000000;stroke-width:0.5;" x="21.1703125" xlink:href="#mb4f68d528f" y="83.4311057105"/>
      </g>
     </g>
     <g id="line2d_66">
      <g>
       <use style="stroke:#000000;stroke-width:0.5;" x="414.2503125" xlink:href="#m2068f3b47f" y="83.4311057105"/>
      </g>
     </g>
     <g id="text_13">
      <!-- 4 -->
      <g transform="translate(10.8078125 86.1904807105)scale(0.1 -0.1)">
       <use xlink:href="#BitstreamVeraSans-Roman-34"/>
      </g>
     </g>
    </g>
    <g id="ytick_7">
     <g id="line2d_67">
      <g>
       <use style="stroke:#000000;stroke-width:0.5;" x="21.1703125" xlink:href="#mb4f68d528f" y="23.2766585657"/>
      </g>
     </g>
     <g id="line2d_68">
      <g>
       <use style="stroke:#000000;stroke-width:0.5;" x="414.2503125" xlink:href="#m2068f3b47f" y="23.2766585657"/>
      </g>
     </g>
     <g id="text_14">
      <!-- 6 -->
      <g transform="translate(10.8078125 26.0360335657)scale(0.1 -0.1)">
       <use xlink:href="#BitstreamVeraSans-Roman-36"/>
      </g>
     </g>
    </g>
    <g id="ytick_8">
     <g id="line2d_69">
      <defs>
       <path d="M 0 0 
L 2 0 
" id="md6505ede3b" style="stroke:#000000;stroke-width:0.5;"/>
      </defs>
      <g>
       <use style="stroke:#000000;stroke-width:0.5;" x="21.1703125" xlink:href="#md6505ede3b" y="399.241953221"/>
      </g>
     </g>
     <g id="line2d_70">
      <defs>
       <path d="M 0 0 
L -2 0 
" id="m07a904c757" style="stroke:#000000;stroke-width:0.5;"/>
      </defs>
      <g>
       <use style="stroke:#000000;stroke-width:0.5;" x="414.2503125" xlink:href="#m07a904c757" y="399.241953221"/>
      </g>
     </g>
    </g>
    <g id="ytick_9">
     <g id="line2d_71">
      <g>
       <use style="stroke:#000000;stroke-width:0.5;" x="21.1703125" xlink:href="#md6505ede3b" y="369.164729648"/>
      </g>
     </g>
     <g id="line2d_72">
      <g>
       <use style="stroke:#000000;stroke-width:0.5;" x="414.2503125" xlink:href="#m07a904c757" y="369.164729648"/>
      </g>
     </g>
    </g>
    <g id="ytick_10">
     <g id="line2d_73">
      <g>
       <use style="stroke:#000000;stroke-width:0.5;" x="21.1703125" xlink:href="#md6505ede3b" y="354.126117862"/>
      </g>
     </g>
     <g id="line2d_74">
      <g>
       <use style="stroke:#000000;stroke-width:0.5;" x="414.2503125" xlink:href="#m07a904c757" y="354.126117862"/>
      </g>
     </g>
    </g>
    <g id="ytick_11">
     <g id="line2d_75">
      <g>
       <use style="stroke:#000000;stroke-width:0.5;" x="21.1703125" xlink:href="#md6505ede3b" y="339.087506076"/>
      </g>
     </g>
     <g id="line2d_76">
      <g>
       <use style="stroke:#000000;stroke-width:0.5;" x="414.2503125" xlink:href="#m07a904c757" y="339.087506076"/>
      </g>
     </g>
    </g>
    <g id="ytick_12">
     <g id="line2d_77">
      <g>
       <use style="stroke:#000000;stroke-width:0.5;" x="21.1703125" xlink:href="#md6505ede3b" y="309.010282503"/>
      </g>
     </g>
     <g id="line2d_78">
      <g>
       <use style="stroke:#000000;stroke-width:0.5;" x="414.2503125" xlink:href="#m07a904c757" y="309.010282503"/>
      </g>
     </g>
    </g>
    <g id="ytick_13">
     <g id="line2d_79">
      <g>
       <use style="stroke:#000000;stroke-width:0.5;" x="21.1703125" xlink:href="#md6505ede3b" y="293.971670717"/>
      </g>
     </g>
     <g id="line2d_80">
      <g>
       <use style="stroke:#000000;stroke-width:0.5;" x="414.2503125" xlink:href="#m07a904c757" y="293.971670717"/>
      </g>
     </g>
    </g>
    <g id="ytick_14">
     <g id="line2d_81">
      <g>
       <use style="stroke:#000000;stroke-width:0.5;" x="21.1703125" xlink:href="#md6505ede3b" y="278.933058931"/>
      </g>
     </g>
     <g id="line2d_82">
      <g>
       <use style="stroke:#000000;stroke-width:0.5;" x="414.2503125" xlink:href="#m07a904c757" y="278.933058931"/>
      </g>
     </g>
    </g>
    <g id="ytick_15">
     <g id="line2d_83">
      <g>
       <use style="stroke:#000000;stroke-width:0.5;" x="21.1703125" xlink:href="#md6505ede3b" y="248.855835359"/>
      </g>
     </g>
     <g id="line2d_84">
      <g>
       <use style="stroke:#000000;stroke-width:0.5;" x="414.2503125" xlink:href="#m07a904c757" y="248.855835359"/>
      </g>
     </g>
    </g>
    <g id="ytick_16">
     <g id="line2d_85">
      <g>
       <use style="stroke:#000000;stroke-width:0.5;" x="21.1703125" xlink:href="#md6505ede3b" y="233.817223572"/>
      </g>
     </g>
     <g id="line2d_86">
      <g>
       <use style="stroke:#000000;stroke-width:0.5;" x="414.2503125" xlink:href="#m07a904c757" y="233.817223572"/>
      </g>
     </g>
    </g>
    <g id="ytick_17">
     <g id="line2d_87">
      <g>
       <use style="stroke:#000000;stroke-width:0.5;" x="21.1703125" xlink:href="#md6505ede3b" y="218.778611786"/>
      </g>
     </g>
     <g id="line2d_88">
      <g>
       <use style="stroke:#000000;stroke-width:0.5;" x="414.2503125" xlink:href="#m07a904c757" y="218.778611786"/>
      </g>
     </g>
    </g>
    <g id="ytick_18">
     <g id="line2d_89">
      <g>
       <use style="stroke:#000000;stroke-width:0.5;" x="21.1703125" xlink:href="#md6505ede3b" y="188.701388214"/>
      </g>
     </g>
     <g id="line2d_90">
      <g>
       <use style="stroke:#000000;stroke-width:0.5;" x="414.2503125" xlink:href="#m07a904c757" y="188.701388214"/>
      </g>
     </g>
    </g>
    <g id="ytick_19">
     <g id="line2d_91">
      <g>
       <use style="stroke:#000000;stroke-width:0.5;" x="21.1703125" xlink:href="#md6505ede3b" y="173.662776428"/>
      </g>
     </g>
     <g id="line2d_92">
      <g>
       <use style="stroke:#000000;stroke-width:0.5;" x="414.2503125" xlink:href="#m07a904c757" y="173.662776428"/>
      </g>
     </g>
    </g>
    <g id="ytick_20">
     <g id="line2d_93">
      <g>
       <use style="stroke:#000000;stroke-width:0.5;" x="21.1703125" xlink:href="#md6505ede3b" y="158.624164641"/>
      </g>
     </g>
     <g id="line2d_94">
      <g>
       <use style="stroke:#000000;stroke-width:0.5;" x="414.2503125" xlink:href="#m07a904c757" y="158.624164641"/>
      </g>
     </g>
    </g>
    <g id="ytick_21">
     <g id="line2d_95">
      <g>
       <use style="stroke:#000000;stroke-width:0.5;" x="21.1703125" xlink:href="#md6505ede3b" y="128.546941069"/>
      </g>
     </g>
     <g id="line2d_96">
      <g>
       <use style="stroke:#000000;stroke-width:0.5;" x="414.2503125" xlink:href="#m07a904c757" y="128.546941069"/>
      </g>
     </g>
    </g>
    <g id="ytick_22">
     <g id="line2d_97">
      <g>
       <use style="stroke:#000000;stroke-width:0.5;" x="21.1703125" xlink:href="#md6505ede3b" y="113.508329283"/>
      </g>
     </g>
     <g id="line2d_98">
      <g>
       <use style="stroke:#000000;stroke-width:0.5;" x="414.2503125" xlink:href="#m07a904c757" y="113.508329283"/>
      </g>
     </g>
    </g>
    <g id="ytick_23">
     <g id="line2d_99">
      <g>
       <use style="stroke:#000000;stroke-width:0.5;" x="21.1703125" xlink:href="#md6505ede3b" y="98.4697174967"/>
      </g>
     </g>
     <g id="line2d_100">
      <g>
       <use style="stroke:#000000;stroke-width:0.5;" x="414.2503125" xlink:href="#m07a904c757" y="98.4697174967"/>
      </g>
     </g>
    </g>
    <g id="ytick_24">
     <g id="line2d_101">
      <g>
       <use style="stroke:#000000;stroke-width:0.5;" x="21.1703125" xlink:href="#md6505ede3b" y="68.3924939243"/>
      </g>
     </g>
     <g id="line2d_102">
      <g>
       <use style="stroke:#000000;stroke-width:0.5;" x="414.2503125" xlink:href="#m07a904c757" y="68.3924939243"/>
      </g>
     </g>
    </g>
    <g id="ytick_25">
     <g id="line2d_103">
      <g>
       <use style="stroke:#000000;stroke-width:0.5;" x="21.1703125" xlink:href="#md6505ede3b" y="53.3538821381"/>
      </g>
     </g>
     <g id="line2d_104">
      <g>
       <use style="stroke:#000000;stroke-width:0.5;" x="414.2503125" xlink:href="#m07a904c757" y="53.3538821381"/>
      </g>
     </g>
    </g>
    <g id="ytick_26">
     <g id="line2d_105">
      <g>
       <use style="stroke:#000000;stroke-width:0.5;" x="21.1703125" xlink:href="#md6505ede3b" y="38.3152703519"/>
      </g>
     </g>
     <g id="line2d_106">
      <g>
       <use style="stroke:#000000;stroke-width:0.5;" x="414.2503125" xlink:href="#m07a904c757" y="38.3152703519"/>
      </g>
     </g>
    </g>
    <g id="ytick_27">
     <g id="line2d_107">
      <g>
       <use style="stroke:#000000;stroke-width:0.5;" x="21.1703125" xlink:href="#md6505ede3b" y="8.23804677949"/>
      </g>
     </g>
     <g id="line2d_108">
      <g>
       <use style="stroke:#000000;stroke-width:0.5;" x="414.2503125" xlink:href="#m07a904c757" y="8.23804677949"/>
      </g>
     </g>
    </g>
   </g>
  </g>
 </g>
 <defs>
  <clipPath id="p1173dcf123">
   <rect height="393.08" width="393.08" x="21.1703125" y="7.2"/>
  </clipPath>
 </defs>
</svg>
