<?xml version="1.0" encoding="utf-8" standalone="no"?>
<!DOCTYPE svg PUBLIC "-//W3C//DTD SVG 1.1//EN"
  "http://www.w3.org/Graphics/SVG/1.1/DTD/svg11.dtd">
<!-- Created with matplotlib (http://matplotlib.org/) -->
<svg height="420pt" version="1.1" viewBox="0 0 564 420" width="564pt" xmlns="http://www.w3.org/2000/svg" xmlns:xlink="http://www.w3.org/1999/xlink">
 <defs>
  <style type="text/css">
*{stroke-linecap:butt;stroke-linejoin:round;stroke-miterlimit:100000;}
  </style>
 </defs>
 <g id="figure_1">
  <g id="patch_1">
   <path d="M 0 420.48 
L 564.48 420.48 
L 564.48 0 
L 0 0 
z
" style="fill:#ffffff;"/>
  </g>
  <g id="axes_1">
   <g id="patch_2">
    <path d="M 7.2 413.28 
L 557.28 413.28 
L 557.28 7.2 
L 7.2 7.2 
z
" style="fill:#ffffff;"/>
   </g>
   <g id="line2d_1">
    <path clip-path="url(#pfdd05feb98)" d="M 17.778462 210.241216 
L 28.586831 160.656821 
L 33.1442 140.541354 
L 38.520973 117.876462 
L 42.856534 100.680231 
L 47.585575 83.253634 
L 49.246427 77.502629 
L 52.636561 66.414373 
L 54.6451 60.280522 
L 57.5023 52.146473 
L 59.516953 46.84673 
L 62.219701 40.326778 
L 63.907878 36.608085 
L 65.596054 33.168675 
L 67.240239 30.092629 
L 69.97278 25.590508 
L 71.771028 23.051129 
L 73.569276 20.853375 
L 75.472721 18.903686 
L 77.376167 17.345235 
L 78.576825 16.564891 
L 80.176771 15.77004 
L 81.776718 15.256152 
L 82.947142 15.058612 
L 85.274574 15.114265 
L 87.602005 15.766397 
L 90.520638 17.423941 
L 92.966175 19.526866 
L 94.257855 20.897882 
L 96.539033 23.753774 
L 98.82021 27.157308 
L 100.792484 30.533728 
L 102.450217 33.677153 
L 104.528633 38.004568 
L 106.334568 42.105986 
L 108.140503 46.516884 
L 110.036866 51.472867 
L 113.782191 62.197387 
L 117.54703 74.158225 
L 120.88006 85.658471 
L 125.277459 102.013427 
L 128.63739 115.315153 
L 130.998444 125.029264 
L 138.244352 156.378799 
L 145.405309 188.928934 
L 161.912893 264.722091 
L 167.223098 287.878773 
L 172.002456 307.67544 
L 176.415566 324.846225 
L 179.575991 336.37994 
L 182.898431 347.737344 
L 185.578102 356.276847 
L 188.633989 365.29124 
L 191.79351 373.751846 
L 195.359762 382.19298 
L 197.467074 386.604518 
L 199.230922 389.957665 
L 200.994771 392.995251 
L 202.83698 395.825113 
L 204.679188 398.299521 
L 206.535121 400.428124 
L 208.997601 402.681087 
L 210.90999 403.976805 
L 212.822378 404.87265 
L 215.431447 405.446726 
L 217.976163 405.284333 
L 219.928693 404.676383 
L 221.805208 403.697852 
L 224.017173 402.050898 
L 226.112394 400.002352 
L 228.207614 397.483683 
L 230.00897 394.947151 
L 233.042611 389.913595 
L 234.802967 386.563098 
L 237.232409 381.433974 
L 240.324782 374.082911 
L 243.372418 365.973094 
L 247.281987 354.38104 
L 249.140993 348.426514 
L 251.907682 339.069219 
L 254.398732 330.166937 
L 257.060057 320.192976 
L 262.779724 297.32411 
L 268.453411 273.051604 
L 274.927233 243.990375 
L 294.628831 153.603001 
L 300.961865 126.23701 
L 304.188218 112.987955 
L 310.380431 89.223555 
L 315.05409 72.99264 
L 318.178288 63.073994 
L 322.700107 50.166999 
L 324.410692 45.758144 
L 328.237915 36.887799 
L 329.848497 33.579332 
L 331.459079 30.529501 
L 334.450513 25.566128 
L 337.344598 21.651466 
L 338.436124 20.40562 
L 340.181358 18.6792 
L 341.926591 17.282078 
L 343.663538 16.220926 
L 346.622408 15.174686 
L 348.504552 15.010457 
L 350.386696 15.236544 
L 353.296548 16.352971 
L 354.550763 17.120323 
L 357.374825 19.474549 
L 359.389528 21.679514 
L 362.020288 25.208072 
L 364.460188 29.126854 
L 366.900087 33.654065 
L 369.59883 39.351824 
L 372.138462 45.355533 
L 376.193127 56.174854 
L 379.915151 67.36684 
L 382.683302 76.419723 
L 387.391281 93.123197 
L 392.081098 111.217837 
L 397.891903 135.314868 
L 405.055338 166.931985 
L 415.227037 213.748899 
L 423.672309 252.582498 
L 430.020201 280.736307 
L 434.320624 298.937657 
L 438.62478 316.228459 
L 442.442814 330.645018 
L 446.685262 345.497996 
L 451.156642 359.663649 
L 452.672165 364.090105 
L 455.073322 370.692765 
L 458.057439 378.168635 
L 460.234731 383.092815 
L 463.180259 389.01621 
L 464.783427 391.874036 
L 466.386595 394.468391 
L 469.282973 398.475659 
L 472.168427 401.581877 
L 473.864808 402.989238 
L 475.835361 404.2309 
L 477.805915 405.047443 
L 479.340393 405.387695 
L 481.361538 405.440074 
L 483.382682 405.042441 
L 484.377037 404.681897 
L 486.144529 403.773313 
L 487.91202 402.523506 
L 489.523133 401.088853 
L 491.134247 399.37461 
L 492.707423 397.433343 
L 494.2806 395.230602 
L 495.977218 392.565516 
L 497.558538 389.814754 
L 499.64561 385.796918 
L 501.732683 381.347529 
L 503.60069 377.008104 
L 506.6218 369.298881 
L 508.708544 363.493119 
L 511.804962 354.188684 
L 515.165017 343.212812 
L 517.377031 335.52021 
L 521.860431 318.89072 
L 526.794309 299.174652 
L 532.703149 273.980987 
L 540.654656 238.192702 
L 546.701538 210.241216 
L 546.701538 210.241216 
" style="fill:none;stroke:#ff0000;stroke-linecap:square;stroke-width:2.0;"/>
   </g>
   <g id="line2d_2">
    <path clip-path="url(#pfdd05feb98)" d="M 17.778462 15.009231 
L 19.27485 15.132598 
L 21.600217 15.813466 
L 23.925583 17.087622 
L 26.588258 19.27013 
L 28.989761 21.894142 
L 29.999475 23.181016 
L 32.312167 26.532853 
L 34.624859 30.439175 
L 37.173329 35.371737 
L 38.914749 39.112031 
L 40.898201 43.728568 
L 42.881653 48.714802 
L 45.020658 54.493656 
L 47.099628 60.495834 
L 51.18502 73.340312 
L 55.261622 87.441833 
L 56.981848 93.745697 
L 62.208448 114.046886 
L 66.751367 132.907587 
L 72.178732 156.600703 
L 79.319564 189.065602 
L 96.123797 266.173771 
L 100.53775 285.44604 
L 106.025195 308.230097 
L 110.138989 324.240089 
L 114.677609 340.635153 
L 117.024781 348.53109 
L 120.90863 360.640972 
L 123.309011 367.491653 
L 125.766866 373.97639 
L 128.301694 380.079321 
L 130.431208 384.731281 
L 132.560721 388.936688 
L 134.204155 391.870042 
L 135.847589 394.52653 
L 137.506111 396.922602 
L 140.000704 399.979706 
L 141.770317 401.744921 
L 143.335656 403.024348 
L 144.900995 404.037168 
L 147.784064 405.200441 
L 149.799184 405.470769 
L 151.814305 405.293694 
L 152.62716 405.095688 
L 154.574813 404.325781 
L 156.522466 403.140374 
L 157.589594 402.315568 
L 159.164128 400.873285 
L 160.738662 399.164265 
L 163.296847 395.825142 
L 165.021341 393.186637 
L 166.745835 390.241076 
L 168.57076 386.795067 
L 170.395684 383.017215 
L 172.988562 377.092949 
L 175.856359 369.804332 
L 177.572224 365.087033 
L 181.320514 353.898568 
L 183.662636 346.323467 
L 186.004759 338.327112 
L 190.888844 320.406864 
L 196.525878 297.898446 
L 201.584689 276.34987 
L 205.38153 259.532665 
L 213.720276 221.387445 
L 226.721977 161.604087 
L 230.205327 146.140645 
L 236.153284 120.8067 
L 240.967596 101.58449 
L 242.962961 94.020018 
L 246.683611 80.625069 
L 249.016447 72.736422 
L 253.784084 57.952543 
L 256.49713 50.399937 
L 258.655883 44.863225 
L 261.604801 38.005468 
L 263.74154 33.562695 
L 265.878279 29.57515 
L 268.430307 25.423393 
L 271.369709 21.483978 
L 272.370818 20.351519 
L 274.295162 18.476886 
L 276.219507 17.00302 
L 277.260712 16.373762 
L 279.524781 15.415314 
L 281.788851 15.020446 
L 282.637284 15.017927 
L 285.579511 15.623408 
L 288.477694 17.149206 
L 290.674533 18.916056 
L 293.71693 22.222209 
L 295.355609 24.411131 
L 296.994288 26.881687 
L 299.082056 30.431329 
L 300.767964 33.620967 
L 302.453872 37.093929 
L 306.529243 46.624569 
L 308.540497 51.899052 
L 312.164052 62.30541 
L 314.232558 68.742452 
L 316.620477 76.597337 
L 321.081671 92.403658 
L 323.695677 102.291787 
L 329.43577 125.409951 
L 335.115906 149.838866 
L 341.097707 176.743764 
L 361.381283 269.70073 
L 365.334034 286.876511 
L 371.466538 312.134018 
L 374.27204 322.999702 
L 377.618566 335.301912 
L 381.960623 350.075211 
L 385.356963 360.60191 
L 389.100901 371.069623 
L 390.991084 375.876133 
L 393.43065 381.584655 
L 395.669204 386.316965 
L 397.916705 390.567254 
L 399.793277 393.722763 
L 402.044922 397.027197 
L 404.296566 399.797221 
L 407.250693 402.607874 
L 408.94887 403.795518 
L 410.647047 404.668138 
L 412.793343 405.318181 
L 415.7257 405.386432 
L 417.303892 405.031098 
L 418.882084 404.401942 
L 421.834018 402.493402 
L 424.727627 399.705082 
L 426.355692 397.74175 
L 428.427812 394.837665 
L 430.131968 392.113727 
L 431.836125 389.09169 
L 433.842059 385.159296 
L 435.991749 380.504409 
L 438.141439 375.405493 
L 441.276042 367.202377 
L 443.380918 361.202685 
L 447.464411 348.500993 
L 451.090776 336.127046 
L 455.566103 319.579342 
L 459.754145 302.971484 
L 463.753778 286.252029 
L 469.741105 259.990147 
L 476.320964 229.991037 
L 490.46516 164.83798 
L 496.883675 136.521595 
L 502.132912 114.607 
L 503.907693 107.517287 
L 507.439166 93.965364 
L 510.313206 83.535929 
L 514.117506 70.646599 
L 517.544228 60.009313 
L 521.848489 48.065966 
L 523.54338 43.821676 
L 526.214941 37.681994 
L 529.650396 30.811339 
L 531.215265 28.075292 
L 532.780134 25.591017 
L 534.934497 22.589066 
L 537.08886 20.078625 
L 539.011719 18.258454 
L 540.702054 16.989153 
L 543.118794 15.716077 
L 544.910166 15.186022 
L 546.701538 15.009231 
L 546.701538 15.009231 
" style="fill:none;stroke:#000000;stroke-dasharray:1.000000,3.000000;stroke-dashoffset:0.0;"/>
   </g>
   <g id="patch_3">
    <path d="M 7.2 210.241216 
L 557.28 210.241216 
" style="fill:none;stroke:#000000;stroke-linecap:square;stroke-linejoin:miter;stroke-width:0.8;"/>
   </g>
   <g id="patch_4">
    <path d="M 282.24 413.28 
L 282.24 7.2 
" style="fill:none;stroke:#000000;stroke-linecap:square;stroke-linejoin:miter;stroke-width:0.8;"/>
   </g>
   <g id="matplotlib.axis_1">
    <g id="xtick_1">
     <g id="line2d_3">
      <defs>
       <path d="M 0 0 
L 0 -4 
" id="mb3d6fd7244" style="stroke:#000000;stroke-width:0.5;"/>
      </defs>
      <g>
       <use style="stroke:#000000;stroke-width:0.5;" x="29.697833377" xlink:href="#mb3d6fd7244" y="210.241215501"/>
      </g>
     </g>
     <g id="text_1">
      <!-- -6 -->
      <defs>
       <path d="M 33.015625 40.375 
Q 26.375 40.375 22.484375 35.828125 
Q 18.609375 31.296875 18.609375 23.390625 
Q 18.609375 15.53125 22.484375 10.953125 
Q 26.375 6.390625 33.015625 6.390625 
Q 39.65625 6.390625 43.53125 10.953125 
Q 47.40625 15.53125 47.40625 23.390625 
Q 47.40625 31.296875 43.53125 35.828125 
Q 39.65625 40.375 33.015625 40.375 
M 52.59375 71.296875 
L 52.59375 62.3125 
Q 48.875 64.0625 45.09375 64.984375 
Q 41.3125 65.921875 37.59375 65.921875 
Q 27.828125 65.921875 22.671875 59.328125 
Q 17.53125 52.734375 16.796875 39.40625 
Q 19.671875 43.65625 24.015625 45.921875 
Q 28.375 48.1875 33.59375 48.1875 
Q 44.578125 48.1875 50.953125 41.515625 
Q 57.328125 34.859375 57.328125 23.390625 
Q 57.328125 12.15625 50.6875 5.359375 
Q 44.046875 -1.421875 33.015625 -1.421875 
Q 20.359375 -1.421875 13.671875 8.265625 
Q 6.984375 17.96875 6.984375 36.375 
Q 6.984375 53.65625 15.1875 63.9375 
Q 23.390625 74.21875 37.203125 74.21875 
Q 40.921875 74.21875 44.703125 73.484375 
Q 48.484375 72.75 52.59375 71.296875 
" id="BitstreamVeraSans-Roman-36"/>
       <path d="M 4.890625 31.390625 
L 31.203125 31.390625 
L 31.203125 23.390625 
L 4.890625 23.390625 
z
" id="BitstreamVeraSans-Roman-2d"/>
      </defs>
      <g transform="translate(24.712677127 221.839653001)scale(0.1 -0.1)">
       <use xlink:href="#BitstreamVeraSans-Roman-2d"/>
       <use x="36.083984375" xlink:href="#BitstreamVeraSans-Roman-36"/>
      </g>
     </g>
    </g>
    <g id="xtick_2">
     <g id="line2d_4">
      <g>
       <use style="stroke:#000000;stroke-width:0.5;" x="113.878555585" xlink:href="#mb3d6fd7244" y="210.241215501"/>
      </g>
     </g>
     <g id="text_2">
      <!-- -4 -->
      <defs>
       <path d="M 37.796875 64.3125 
L 12.890625 25.390625 
L 37.796875 25.390625 
z
M 35.203125 72.90625 
L 47.609375 72.90625 
L 47.609375 25.390625 
L 58.015625 25.390625 
L 58.015625 17.1875 
L 47.609375 17.1875 
L 47.609375 0 
L 37.796875 0 
L 37.796875 17.1875 
L 4.890625 17.1875 
L 4.890625 26.703125 
z
" id="BitstreamVeraSans-Roman-34"/>
      </defs>
      <g transform="translate(108.893399335 221.839653001)scale(0.1 -0.1)">
       <use xlink:href="#BitstreamVeraSans-Roman-2d"/>
       <use x="36.083984375" xlink:href="#BitstreamVeraSans-Roman-34"/>
      </g>
     </g>
    </g>
    <g id="xtick_3">
     <g id="line2d_5">
      <g>
       <use style="stroke:#000000;stroke-width:0.5;" x="198.059277792" xlink:href="#mb3d6fd7244" y="210.241215501"/>
      </g>
     </g>
     <g id="text_3">
      <!-- -2 -->
      <defs>
       <path d="M 19.1875 8.296875 
L 53.609375 8.296875 
L 53.609375 0 
L 7.328125 0 
L 7.328125 8.296875 
Q 12.9375 14.109375 22.625 23.890625 
Q 32.328125 33.6875 34.8125 36.53125 
Q 39.546875 41.84375 41.421875 45.53125 
Q 43.3125 49.21875 43.3125 52.78125 
Q 43.3125 58.59375 39.234375 62.25 
Q 35.15625 65.921875 28.609375 65.921875 
Q 23.96875 65.921875 18.8125 64.3125 
Q 13.671875 62.703125 7.8125 59.421875 
L 7.8125 69.390625 
Q 13.765625 71.78125 18.9375 73 
Q 24.125 74.21875 28.421875 74.21875 
Q 39.75 74.21875 46.484375 68.546875 
Q 53.21875 62.890625 53.21875 53.421875 
Q 53.21875 48.921875 51.53125 44.890625 
Q 49.859375 40.875 45.40625 35.40625 
Q 44.1875 33.984375 37.640625 27.21875 
Q 31.109375 20.453125 19.1875 8.296875 
" id="BitstreamVeraSans-Roman-32"/>
      </defs>
      <g transform="translate(193.074121542 221.839653001)scale(0.1 -0.1)">
       <use xlink:href="#BitstreamVeraSans-Roman-2d"/>
       <use x="36.083984375" xlink:href="#BitstreamVeraSans-Roman-32"/>
      </g>
     </g>
    </g>
    <g id="xtick_4">
     <g id="line2d_6">
      <g>
       <use style="stroke:#000000;stroke-width:0.5;" x="282.24" xlink:href="#mb3d6fd7244" y="210.241215501"/>
      </g>
     </g>
    </g>
    <g id="xtick_5">
     <g id="line2d_7">
      <g>
       <use style="stroke:#000000;stroke-width:0.5;" x="366.420722208" xlink:href="#mb3d6fd7244" y="210.241215501"/>
      </g>
     </g>
     <g id="text_4">
      <!-- 2 -->
      <g transform="translate(363.239472208 221.839653001)scale(0.1 -0.1)">
       <use xlink:href="#BitstreamVeraSans-Roman-32"/>
      </g>
     </g>
    </g>
    <g id="xtick_6">
     <g id="line2d_8">
      <g>
       <use style="stroke:#000000;stroke-width:0.5;" x="450.601444415" xlink:href="#mb3d6fd7244" y="210.241215501"/>
      </g>
     </g>
     <g id="text_5">
      <!-- 4 -->
      <g transform="translate(447.420194415 221.839653001)scale(0.1 -0.1)">
       <use xlink:href="#BitstreamVeraSans-Roman-34"/>
      </g>
     </g>
    </g>
    <g id="xtick_7">
     <g id="line2d_9">
      <g>
       <use style="stroke:#000000;stroke-width:0.5;" x="534.782166623" xlink:href="#mb3d6fd7244" y="210.241215501"/>
      </g>
     </g>
     <g id="text_6">
      <!-- 6 -->
      <g transform="translate(531.600916623 221.839653001)scale(0.1 -0.1)">
       <use xlink:href="#BitstreamVeraSans-Roman-36"/>
      </g>
     </g>
    </g>
    <g id="xtick_8">
     <g id="line2d_10">
      <defs>
       <path d="M 0 0 
L 0 -2 
" id="m9edcaea25d" style="stroke:#000000;stroke-width:0.5;"/>
      </defs>
      <g>
       <use style="stroke:#000000;stroke-width:0.5;" x="8.65265282503" xlink:href="#m9edcaea25d" y="210.241215501"/>
      </g>
     </g>
    </g>
    <g id="xtick_9">
     <g id="line2d_11">
      <g>
       <use style="stroke:#000000;stroke-width:0.5;" x="50.7430139289" xlink:href="#m9edcaea25d" y="210.241215501"/>
      </g>
     </g>
    </g>
    <g id="xtick_10">
     <g id="line2d_12">
      <g>
       <use style="stroke:#000000;stroke-width:0.5;" x="71.7881944808" xlink:href="#m9edcaea25d" y="210.241215501"/>
      </g>
     </g>
    </g>
    <g id="xtick_11">
     <g id="line2d_13">
      <g>
       <use style="stroke:#000000;stroke-width:0.5;" x="92.8333750327" xlink:href="#m9edcaea25d" y="210.241215501"/>
      </g>
     </g>
    </g>
    <g id="xtick_12">
     <g id="line2d_14">
      <g>
       <use style="stroke:#000000;stroke-width:0.5;" x="134.923736137" xlink:href="#m9edcaea25d" y="210.241215501"/>
      </g>
     </g>
    </g>
    <g id="xtick_13">
     <g id="line2d_15">
      <g>
       <use style="stroke:#000000;stroke-width:0.5;" x="155.968916688" xlink:href="#m9edcaea25d" y="210.241215501"/>
      </g>
     </g>
    </g>
    <g id="xtick_14">
     <g id="line2d_16">
      <g>
       <use style="stroke:#000000;stroke-width:0.5;" x="177.01409724" xlink:href="#m9edcaea25d" y="210.241215501"/>
      </g>
     </g>
    </g>
    <g id="xtick_15">
     <g id="line2d_17">
      <g>
       <use style="stroke:#000000;stroke-width:0.5;" x="219.104458344" xlink:href="#m9edcaea25d" y="210.241215501"/>
      </g>
     </g>
    </g>
    <g id="xtick_16">
     <g id="line2d_18">
      <g>
       <use style="stroke:#000000;stroke-width:0.5;" x="240.149638896" xlink:href="#m9edcaea25d" y="210.241215501"/>
      </g>
     </g>
    </g>
    <g id="xtick_17">
     <g id="line2d_19">
      <g>
       <use style="stroke:#000000;stroke-width:0.5;" x="261.194819448" xlink:href="#m9edcaea25d" y="210.241215501"/>
      </g>
     </g>
    </g>
    <g id="xtick_18">
     <g id="line2d_20">
      <g>
       <use style="stroke:#000000;stroke-width:0.5;" x="303.285180552" xlink:href="#m9edcaea25d" y="210.241215501"/>
      </g>
     </g>
    </g>
    <g id="xtick_19">
     <g id="line2d_21">
      <g>
       <use style="stroke:#000000;stroke-width:0.5;" x="324.330361104" xlink:href="#m9edcaea25d" y="210.241215501"/>
      </g>
     </g>
    </g>
    <g id="xtick_20">
     <g id="line2d_22">
      <g>
       <use style="stroke:#000000;stroke-width:0.5;" x="345.375541656" xlink:href="#m9edcaea25d" y="210.241215501"/>
      </g>
     </g>
    </g>
    <g id="xtick_21">
     <g id="line2d_23">
      <g>
       <use style="stroke:#000000;stroke-width:0.5;" x="387.46590276" xlink:href="#m9edcaea25d" y="210.241215501"/>
      </g>
     </g>
    </g>
    <g id="xtick_22">
     <g id="line2d_24">
      <g>
       <use style="stroke:#000000;stroke-width:0.5;" x="408.511083312" xlink:href="#m9edcaea25d" y="210.241215501"/>
      </g>
     </g>
    </g>
    <g id="xtick_23">
     <g id="line2d_25">
      <g>
       <use style="stroke:#000000;stroke-width:0.5;" x="429.556263863" xlink:href="#m9edcaea25d" y="210.241215501"/>
      </g>
     </g>
    </g>
    <g id="xtick_24">
     <g id="line2d_26">
      <g>
       <use style="stroke:#000000;stroke-width:0.5;" x="471.646624967" xlink:href="#m9edcaea25d" y="210.241215501"/>
      </g>
     </g>
    </g>
    <g id="xtick_25">
     <g id="line2d_27">
      <g>
       <use style="stroke:#000000;stroke-width:0.5;" x="492.691805519" xlink:href="#m9edcaea25d" y="210.241215501"/>
      </g>
     </g>
    </g>
    <g id="xtick_26">
     <g id="line2d_28">
      <g>
       <use style="stroke:#000000;stroke-width:0.5;" x="513.736986071" xlink:href="#m9edcaea25d" y="210.241215501"/>
      </g>
     </g>
    </g>
    <g id="xtick_27">
     <g id="line2d_29">
      <g>
       <use style="stroke:#000000;stroke-width:0.5;" x="555.827347175" xlink:href="#m9edcaea25d" y="210.241215501"/>
      </g>
     </g>
    </g>
   </g>
   <g id="matplotlib.axis_2">
    <g id="ytick_1">
     <g id="line2d_30">
      <defs>
       <path d="M 0 0 
L 4 0 
" id="m85af071344" style="stroke:#000000;stroke-width:0.5;"/>
      </defs>
      <g>
       <use style="stroke:#000000;stroke-width:0.5;" x="282.24" xlink:href="#m85af071344" y="405.473200232"/>
      </g>
     </g>
     <g id="text_7">
      <!-- -1 -->
      <defs>
       <path d="M 12.40625 8.296875 
L 28.515625 8.296875 
L 28.515625 63.921875 
L 10.984375 60.40625 
L 10.984375 69.390625 
L 28.421875 72.90625 
L 38.28125 72.90625 
L 38.28125 8.296875 
L 54.390625 8.296875 
L 54.390625 0 
L 12.40625 0 
z
" id="BitstreamVeraSans-Roman-31"/>
      </defs>
      <g transform="translate(268.2696875 408.232575232)scale(0.1 -0.1)">
       <use xlink:href="#BitstreamVeraSans-Roman-2d"/>
       <use x="36.083984375" xlink:href="#BitstreamVeraSans-Roman-31"/>
      </g>
     </g>
    </g>
    <g id="ytick_2">
     <g id="line2d_31">
      <g>
       <use style="stroke:#000000;stroke-width:0.5;" x="282.24" xlink:href="#m85af071344" y="307.857207866"/>
      </g>
     </g>
     <g id="text_8">
      <!-- -0.5 -->
      <defs>
       <path d="M 31.78125 66.40625 
Q 24.171875 66.40625 20.328125 58.90625 
Q 16.5 51.421875 16.5 36.375 
Q 16.5 21.390625 20.328125 13.890625 
Q 24.171875 6.390625 31.78125 6.390625 
Q 39.453125 6.390625 43.28125 13.890625 
Q 47.125 21.390625 47.125 36.375 
Q 47.125 51.421875 43.28125 58.90625 
Q 39.453125 66.40625 31.78125 66.40625 
M 31.78125 74.21875 
Q 44.046875 74.21875 50.515625 64.515625 
Q 56.984375 54.828125 56.984375 36.375 
Q 56.984375 17.96875 50.515625 8.265625 
Q 44.046875 -1.421875 31.78125 -1.421875 
Q 19.53125 -1.421875 13.0625 8.265625 
Q 6.59375 17.96875 6.59375 36.375 
Q 6.59375 54.828125 13.0625 64.515625 
Q 19.53125 74.21875 31.78125 74.21875 
" id="BitstreamVeraSans-Roman-30"/>
       <path d="M 10.6875 12.40625 
L 21 12.40625 
L 21 0 
L 10.6875 0 
z
" id="BitstreamVeraSans-Roman-2e"/>
       <path d="M 10.796875 72.90625 
L 49.515625 72.90625 
L 49.515625 64.59375 
L 19.828125 64.59375 
L 19.828125 46.734375 
Q 21.96875 47.46875 24.109375 47.828125 
Q 26.265625 48.1875 28.421875 48.1875 
Q 40.625 48.1875 47.75 41.5 
Q 54.890625 34.8125 54.890625 23.390625 
Q 54.890625 11.625 47.5625 5.09375 
Q 40.234375 -1.421875 26.90625 -1.421875 
Q 22.3125 -1.421875 17.546875 -0.640625 
Q 12.796875 0.140625 7.71875 1.703125 
L 7.71875 11.625 
Q 12.109375 9.234375 16.796875 8.0625 
Q 21.484375 6.890625 26.703125 6.890625 
Q 35.15625 6.890625 40.078125 11.328125 
Q 45.015625 15.765625 45.015625 23.390625 
Q 45.015625 31 40.078125 35.4375 
Q 35.15625 39.890625 26.703125 39.890625 
Q 22.75 39.890625 18.8125 39.015625 
Q 14.890625 38.140625 10.796875 36.28125 
z
" id="BitstreamVeraSans-Roman-35"/>
      </defs>
      <g transform="translate(258.7290625 310.616582866)scale(0.1 -0.1)">
       <use xlink:href="#BitstreamVeraSans-Roman-2d"/>
       <use x="36.083984375" xlink:href="#BitstreamVeraSans-Roman-30"/>
       <use x="99.70703125" xlink:href="#BitstreamVeraSans-Roman-2e"/>
       <use x="131.494140625" xlink:href="#BitstreamVeraSans-Roman-35"/>
      </g>
     </g>
    </g>
    <g id="ytick_3">
     <g id="line2d_32">
      <g>
       <use style="stroke:#000000;stroke-width:0.5;" x="282.24" xlink:href="#m85af071344" y="210.241215501"/>
      </g>
     </g>
    </g>
    <g id="ytick_4">
     <g id="line2d_33">
      <g>
       <use style="stroke:#000000;stroke-width:0.5;" x="282.24" xlink:href="#m85af071344" y="112.625223135"/>
      </g>
     </g>
     <g id="text_9">
      <!-- 0.5 -->
      <g transform="translate(262.336875 115.384598135)scale(0.1 -0.1)">
       <use xlink:href="#BitstreamVeraSans-Roman-30"/>
       <use x="63.623046875" xlink:href="#BitstreamVeraSans-Roman-2e"/>
       <use x="95.41015625" xlink:href="#BitstreamVeraSans-Roman-35"/>
      </g>
     </g>
    </g>
    <g id="ytick_5">
     <g id="line2d_34">
      <g>
       <use style="stroke:#000000;stroke-width:0.5;" x="282.24" xlink:href="#m85af071344" y="15.0092307692"/>
      </g>
     </g>
     <g id="text_10">
      <!-- 1 -->
      <g transform="translate(271.8775 17.7686057692)scale(0.1 -0.1)">
       <use xlink:href="#BitstreamVeraSans-Roman-31"/>
      </g>
     </g>
    </g>
    <g id="ytick_6">
     <g id="line2d_35">
      <defs>
       <path d="M 0 0 
L 2 0 
" id="md8c3dcd8bc" style="stroke:#000000;stroke-width:0.5;"/>
      </defs>
      <g>
       <use style="stroke:#000000;stroke-width:0.5;" x="282.24" xlink:href="#md8c3dcd8bc" y="385.950001759"/>
      </g>
     </g>
    </g>
    <g id="ytick_7">
     <g id="line2d_36">
      <g>
       <use style="stroke:#000000;stroke-width:0.5;" x="282.24" xlink:href="#md8c3dcd8bc" y="366.426803286"/>
      </g>
     </g>
    </g>
    <g id="ytick_8">
     <g id="line2d_37">
      <g>
       <use style="stroke:#000000;stroke-width:0.5;" x="282.24" xlink:href="#md8c3dcd8bc" y="346.903604813"/>
      </g>
     </g>
    </g>
    <g id="ytick_9">
     <g id="line2d_38">
      <g>
       <use style="stroke:#000000;stroke-width:0.5;" x="282.24" xlink:href="#md8c3dcd8bc" y="327.380406339"/>
      </g>
     </g>
    </g>
    <g id="ytick_10">
     <g id="line2d_39">
      <g>
       <use style="stroke:#000000;stroke-width:0.5;" x="282.24" xlink:href="#md8c3dcd8bc" y="307.857207866"/>
      </g>
     </g>
    </g>
    <g id="ytick_11">
     <g id="line2d_40">
      <g>
       <use style="stroke:#000000;stroke-width:0.5;" x="282.24" xlink:href="#md8c3dcd8bc" y="288.334009393"/>
      </g>
     </g>
    </g>
    <g id="ytick_12">
     <g id="line2d_41">
      <g>
       <use style="stroke:#000000;stroke-width:0.5;" x="282.24" xlink:href="#md8c3dcd8bc" y="268.81081092"/>
      </g>
     </g>
    </g>
    <g id="ytick_13">
     <g id="line2d_42">
      <g>
       <use style="stroke:#000000;stroke-width:0.5;" x="282.24" xlink:href="#md8c3dcd8bc" y="249.287612447"/>
      </g>
     </g>
    </g>
    <g id="ytick_14">
     <g id="line2d_43">
      <g>
       <use style="stroke:#000000;stroke-width:0.5;" x="282.24" xlink:href="#md8c3dcd8bc" y="229.764413974"/>
      </g>
     </g>
    </g>
    <g id="ytick_15">
     <g id="line2d_44">
      <g>
       <use style="stroke:#000000;stroke-width:0.5;" x="282.24" xlink:href="#md8c3dcd8bc" y="210.241215501"/>
      </g>
     </g>
    </g>
    <g id="ytick_16">
     <g id="line2d_45">
      <g>
       <use style="stroke:#000000;stroke-width:0.5;" x="282.24" xlink:href="#md8c3dcd8bc" y="190.718017027"/>
      </g>
     </g>
    </g>
    <g id="ytick_17">
     <g id="line2d_46">
      <g>
       <use style="stroke:#000000;stroke-width:0.5;" x="282.24" xlink:href="#md8c3dcd8bc" y="171.194818554"/>
      </g>
     </g>
    </g>
    <g id="ytick_18">
     <g id="line2d_47">
      <g>
       <use style="stroke:#000000;stroke-width:0.5;" x="282.24" xlink:href="#md8c3dcd8bc" y="151.671620081"/>
      </g>
     </g>
    </g>
    <g id="ytick_19">
     <g id="line2d_48">
      <g>
       <use style="stroke:#000000;stroke-width:0.5;" x="282.24" xlink:href="#md8c3dcd8bc" y="132.148421608"/>
      </g>
     </g>
    </g>
    <g id="ytick_20">
     <g id="line2d_49">
      <g>
       <use style="stroke:#000000;stroke-width:0.5;" x="282.24" xlink:href="#md8c3dcd8bc" y="112.625223135"/>
      </g>
     </g>
    </g>
    <g id="ytick_21">
     <g id="line2d_50">
      <g>
       <use style="stroke:#000000;stroke-width:0.5;" x="282.24" xlink:href="#md8c3dcd8bc" y="93.1020246618"/>
      </g>
     </g>
    </g>
    <g id="ytick_22">
     <g id="line2d_51">
      <g>
       <use style="stroke:#000000;stroke-width:0.5;" x="282.24" xlink:href="#md8c3dcd8bc" y="73.5788261886"/>
      </g>
     </g>
    </g>
    <g id="ytick_23">
     <g id="line2d_52">
      <g>
       <use style="stroke:#000000;stroke-width:0.5;" x="282.24" xlink:href="#md8c3dcd8bc" y="54.0556277155"/>
      </g>
     </g>
    </g>
    <g id="ytick_24">
     <g id="line2d_53">
      <g>
       <use style="stroke:#000000;stroke-width:0.5;" x="282.24" xlink:href="#md8c3dcd8bc" y="34.5324292424"/>
      </g>
     </g>
    </g>
    <g id="ytick_25">
     <g id="line2d_54">
      <g>
       <use style="stroke:#000000;stroke-width:0.5;" x="282.24" xlink:href="#md8c3dcd8bc" y="15.0092307692"/>
      </g>
     </g>
    </g>
   </g>
   <g id="legend_1">
    <g id="patch_5">
     <path d="M 15.2 409.28 
L 72.858125 409.28 
L 72.858125 371.4125 
L 15.2 371.4125 
z
" style="fill:#4c4c4c;opacity:0.5;stroke:#4c4c4c;stroke-linejoin:miter;"/>
    </g>
    <g id="patch_6">
     <path d="M 13.2 407.28 
L 70.858125 407.28 
L 70.858125 369.4125 
L 13.2 369.4125 
z
" style="fill:#ffffff;stroke:#000000;stroke-linejoin:miter;"/>
    </g>
    <g id="line2d_55">
     <path d="M 24 381.530625 
L 17.4 381.530625 
" style="fill:none;stroke:#ff0000;stroke-linecap:square;stroke-width:2.0;"/>
    </g>
    <g id="line2d_56"/>
    <g id="text_11">
     <!-- sin(x) -->
     <defs>
      <path d="M 54.890625 33.015625 
L 54.890625 0 
L 45.90625 0 
L 45.90625 32.71875 
Q 45.90625 40.484375 42.875 44.328125 
Q 39.84375 48.1875 33.796875 48.1875 
Q 26.515625 48.1875 22.3125 43.546875 
Q 18.109375 38.921875 18.109375 30.90625 
L 18.109375 0 
L 9.078125 0 
L 9.078125 54.6875 
L 18.109375 54.6875 
L 18.109375 46.1875 
Q 21.34375 51.125 25.703125 53.5625 
Q 30.078125 56 35.796875 56 
Q 45.21875 56 50.046875 50.171875 
Q 54.890625 44.34375 54.890625 33.015625 
" id="BitstreamVeraSans-Roman-6e"/>
      <path d="M 31 75.875 
Q 24.46875 64.65625 21.28125 53.65625 
Q 18.109375 42.671875 18.109375 31.390625 
Q 18.109375 20.125 21.3125 9.0625 
Q 24.515625 -2 31 -13.1875 
L 23.1875 -13.1875 
Q 15.875 -1.703125 12.234375 9.375 
Q 8.59375 20.453125 8.59375 31.390625 
Q 8.59375 42.28125 12.203125 53.3125 
Q 15.828125 64.359375 23.1875 75.875 
z
" id="BitstreamVeraSans-Roman-28"/>
      <path d="M 8.015625 75.875 
L 15.828125 75.875 
Q 23.140625 64.359375 26.78125 53.3125 
Q 30.421875 42.28125 30.421875 31.390625 
Q 30.421875 20.453125 26.78125 9.375 
Q 23.140625 -1.703125 15.828125 -13.1875 
L 8.015625 -13.1875 
Q 14.5 -2 17.703125 9.0625 
Q 20.90625 20.125 20.90625 31.390625 
Q 20.90625 42.671875 17.703125 53.65625 
Q 14.5 64.65625 8.015625 75.875 
" id="BitstreamVeraSans-Roman-29"/>
      <path d="M 9.421875 54.6875 
L 18.40625 54.6875 
L 18.40625 0 
L 9.421875 0 
z
M 9.421875 75.984375 
L 18.40625 75.984375 
L 18.40625 64.59375 
L 9.421875 64.59375 
z
" id="BitstreamVeraSans-Roman-69"/>
      <path d="M 54.890625 54.6875 
L 35.109375 28.078125 
L 55.90625 0 
L 45.3125 0 
L 29.390625 21.484375 
L 13.484375 0 
L 2.875 0 
L 24.125 28.609375 
L 4.6875 54.6875 
L 15.28125 54.6875 
L 29.78125 35.203125 
L 44.28125 54.6875 
z
" id="BitstreamVeraSans-Roman-78"/>
      <path d="M 44.28125 53.078125 
L 44.28125 44.578125 
Q 40.484375 46.53125 36.375 47.5 
Q 32.28125 48.484375 27.875 48.484375 
Q 21.1875 48.484375 17.84375 46.4375 
Q 14.5 44.390625 14.5 40.28125 
Q 14.5 37.15625 16.890625 35.375 
Q 19.28125 33.59375 26.515625 31.984375 
L 29.59375 31.296875 
Q 39.15625 29.25 43.1875 25.515625 
Q 47.21875 21.78125 47.21875 15.09375 
Q 47.21875 7.46875 41.1875 3.015625 
Q 35.15625 -1.421875 24.609375 -1.421875 
Q 20.21875 -1.421875 15.453125 -0.5625 
Q 10.6875 0.296875 5.421875 2 
L 5.421875 11.28125 
Q 10.40625 8.6875 15.234375 7.390625 
Q 20.0625 6.109375 24.8125 6.109375 
Q 31.15625 6.109375 34.5625 8.28125 
Q 37.984375 10.453125 37.984375 14.40625 
Q 37.984375 18.0625 35.515625 20.015625 
Q 33.0625 21.96875 24.703125 23.78125 
L 21.578125 24.515625 
Q 13.234375 26.265625 9.515625 29.90625 
Q 5.8125 33.546875 5.8125 39.890625 
Q 5.8125 47.609375 11.28125 51.796875 
Q 16.75 56 26.8125 56 
Q 31.78125 56 36.171875 55.265625 
Q 40.578125 54.546875 44.28125 53.078125 
" id="BitstreamVeraSans-Roman-73"/>
     </defs>
     <g transform="translate(27.0 385.730625)scale(0.12 -0.12)">
      <use xlink:href="#BitstreamVeraSans-Roman-73"/>
      <use x="52.099609375" xlink:href="#BitstreamVeraSans-Roman-69"/>
      <use x="79.8828125" xlink:href="#BitstreamVeraSans-Roman-6e"/>
      <use x="143.26171875" xlink:href="#BitstreamVeraSans-Roman-28"/>
      <use x="182.275390625" xlink:href="#BitstreamVeraSans-Roman-78"/>
      <use x="241.455078125" xlink:href="#BitstreamVeraSans-Roman-29"/>
     </g>
    </g>
    <g id="line2d_57">
     <path d="M 24 393.384375 
L 17.4 393.384375 
" style="fill:none;stroke:#000000;stroke-dasharray:1.000000,3.000000;stroke-dashoffset:0.0;"/>
    </g>
    <g id="line2d_58"/>
    <g id="text_12">
     <!-- cos(x) -->
     <defs>
      <path d="M 30.609375 48.390625 
Q 23.390625 48.390625 19.1875 42.75 
Q 14.984375 37.109375 14.984375 27.296875 
Q 14.984375 17.484375 19.15625 11.84375 
Q 23.34375 6.203125 30.609375 6.203125 
Q 37.796875 6.203125 41.984375 11.859375 
Q 46.1875 17.53125 46.1875 27.296875 
Q 46.1875 37.015625 41.984375 42.703125 
Q 37.796875 48.390625 30.609375 48.390625 
M 30.609375 56 
Q 42.328125 56 49.015625 48.375 
Q 55.71875 40.765625 55.71875 27.296875 
Q 55.71875 13.875 49.015625 6.21875 
Q 42.328125 -1.421875 30.609375 -1.421875 
Q 18.84375 -1.421875 12.171875 6.21875 
Q 5.515625 13.875 5.515625 27.296875 
Q 5.515625 40.765625 12.171875 48.375 
Q 18.84375 56 30.609375 56 
" id="BitstreamVeraSans-Roman-6f"/>
      <path d="M 48.78125 52.59375 
L 48.78125 44.1875 
Q 44.96875 46.296875 41.140625 47.34375 
Q 37.3125 48.390625 33.40625 48.390625 
Q 24.65625 48.390625 19.8125 42.84375 
Q 14.984375 37.3125 14.984375 27.296875 
Q 14.984375 17.28125 19.8125 11.734375 
Q 24.65625 6.203125 33.40625 6.203125 
Q 37.3125 6.203125 41.140625 7.25 
Q 44.96875 8.296875 48.78125 10.40625 
L 48.78125 2.09375 
Q 45.015625 0.34375 40.984375 -0.53125 
Q 36.96875 -1.421875 32.421875 -1.421875 
Q 20.0625 -1.421875 12.78125 6.34375 
Q 5.515625 14.109375 5.515625 27.296875 
Q 5.515625 40.671875 12.859375 48.328125 
Q 20.21875 56 33.015625 56 
Q 37.15625 56 41.109375 55.140625 
Q 45.0625 54.296875 48.78125 52.59375 
" id="BitstreamVeraSans-Roman-63"/>
     </defs>
     <g transform="translate(27.0 397.584375)scale(0.12 -0.12)">
      <use xlink:href="#BitstreamVeraSans-Roman-63"/>
      <use x="54.98046875" xlink:href="#BitstreamVeraSans-Roman-6f"/>
      <use x="116.162109375" xlink:href="#BitstreamVeraSans-Roman-73"/>
      <use x="168.26171875" xlink:href="#BitstreamVeraSans-Roman-28"/>
      <use x="207.275390625" xlink:href="#BitstreamVeraSans-Roman-78"/>
      <use x="266.455078125" xlink:href="#BitstreamVeraSans-Roman-29"/>
     </g>
    </g>
   </g>
  </g>
 </g>
 <defs>
  <clipPath id="pfdd05feb98">
   <rect height="406.08" width="550.08" x="7.2" y="7.2"/>
  </clipPath>
 </defs>
</svg>
