<?xml version="1.0" encoding="utf-8" standalone="no"?>
<!DOCTYPE svg PUBLIC "-//W3C//DTD SVG 1.1//EN"
  "http://www.w3.org/Graphics/SVG/1.1/DTD/svg11.dtd">
<!-- Created with matplotlib (http://matplotlib.org/) -->
<svg height="420pt" version="1.1" viewBox="0 0 564 420" width="564pt" xmlns="http://www.w3.org/2000/svg" xmlns:xlink="http://www.w3.org/1999/xlink">
 <defs>
  <style type="text/css">
*{stroke-linecap:butt;stroke-linejoin:round;stroke-miterlimit:100000;}
  </style>
 </defs>
 <g id="figure_1">
  <g id="patch_1">
   <path d="M 0 420.48 
L 564.48 420.48 
L 564.48 0 
L 0 0 
z
" style="fill:#ffffff;"/>
  </g>
  <g id="axes_1">
   <g id="patch_2">
    <path d="M 7.2 413.28 
L 557.28 413.28 
L 557.28 7.2 
L 7.2 7.2 
z
" style="fill:#ffffff;"/>
   </g>
   <g id="patch_3">
    <path clip-path="url(#paeb2bd681f)" d="M 546.701538 15.009231 
L 544.888197 15.190385 
L 543.074856 15.733511 
L 541.133914 16.714774 
L 538.687565 18.53732 
L 535.763083 21.564982 
L 534.59434 23.030571 
L 532.664693 25.765616 
L 530.735047 28.888324 
L 528.812482 32.378584 
L 527.030182 35.945787 
L 525.247883 39.825467 
L 523.418682 44.124859 
L 520.249915 52.31018 
L 518.370808 57.589929 
L 516.491702 63.173884 
L 515.631299 65.82917 
L 513.482014 72.723227 
L 511.332729 79.975784 
L 509.998328 84.6507 
L 506.378091 97.95557 
L 505.390247 101.734498 
L 502.361966 113.682289 
L 499.248015 126.488465 
L 496.404131 138.586129 
L 494.046273 148.866649 
L 490.524019 164.572675 
L 487.577557 177.961391 
L 485.251723 188.644926 
L 481.944653 203.941266 
L 479.476259 215.388989 
L 476.697091 228.254842 
L 476.211435 230.496655 
L 471.097148 253.883422 
L 468.962522 263.473887 
L 467.487539 270.022201 
L 463.066838 289.176988 
L 461.389948 296.226467 
L 458.986443 306.089827 
L 457.444602 312.254611 
L 455.213775 320.929759 
L 452.982949 329.294047 
L 451.408594 334.997058 
L 449.089376 343.078154 
L 446.401762 351.936969 
L 443.314324 361.398771 
L 441.370604 366.941559 
L 439.426885 372.150232 
L 438.133582 375.425341 
L 436.174292 380.088928 
L 434.215002 384.384544 
L 432.34175 388.138855 
L 429.560031 393.061823 
L 427.613664 396.032902 
L 425.15538 399.21703 
L 423.25872 401.233779 
L 421.362061 402.862774 
L 418.374233 404.634687 
L 416.233401 405.30249 
L 414.699619 405.470769 
L 411.775769 405.073595 
L 409.472848 404.098902 
L 407.169926 402.544023 
L 404.516494 400.039271 
L 402.951671 398.2079 
L 400.236435 394.41538 
L 398.189699 391.049172 
L 396.377195 387.711046 
L 394.56469 384.043879 
L 391.435759 376.959128 
L 390.30846 374.178753 
L 388.269685 368.853093 
L 385.847366 362.042975 
L 383.425047 354.730221 
L 382.755809 352.624435 
L 379.968604 343.473456 
L 377.597635 335.227717 
L 375.43656 327.365856 
L 373.275485 319.195303 
L 371.899144 313.84059 
L 369.641632 304.820496 
L 367.384121 295.528391 
L 365.42461 287.263057 
L 364.236337 282.168398 
L 360.526964 265.914608 
L 358.431408 256.533021 
L 356.317942 246.955117 
L 353.262629 232.951705 
L 350.265876 219.100037 
L 347.777594 207.561499 
L 344.148718 190.76168 
L 341.743242 179.697629 
L 338.831509 166.441829 
L 337.069638 158.518561 
L 333.278975 141.796719 
L 331.911972 135.895575 
L 329.611347 126.144314 
L 326.139883 111.915037 
L 324.651973 106.015373 
L 321.38723 93.536868 
L 317.713556 80.338074 
L 315.291441 72.170921 
L 312.17462 62.337457 
L 309.955942 55.828543 
L 308.056763 50.597024 
L 305.189461 43.317615 
L 303.513469 39.419237 
L 301.837478 35.791669 
L 299.459247 31.120097 
L 297.926543 28.411491 
L 295.061319 23.997184 
L 293.406603 21.839685 
L 291.751888 19.973331 
L 290.231188 18.517347 
L 288.710489 17.3116 
L 286.277478 15.906749 
L 284.390844 15.264078 
L 282.50421 15.013077 
L 280.657472 15.147208 
L 278.925093 15.614396 
L 277.192715 16.411241 
L 275.864027 17.244956 
L 273.882155 18.845573 
L 271.900282 20.870456 
L 269.611279 23.731197 
L 267.315114 27.154941 
L 265.815413 29.685887 
L 263.390393 34.261865 
L 260.893574 39.583341 
L 258.896622 44.272519 
L 256.899669 49.335218 
L 254.379005 56.241169 
L 251.070976 66.13791 
L 249.969587 69.633563 
L 246.511987 81.221526 
L 244.651494 87.822173 
L 242.66456 95.135159 
L 240.677626 102.704604 
L 237.61848 114.821082 
L 235.527821 123.395451 
L 232.87223 134.59283 
L 229.97235 147.162511 
L 228.657143 152.965633 
L 224.97114 169.509112 
L 222.575023 180.438807 
L 220.779805 188.692777 
L 217.633539 203.243941 
L 214.728995 216.713713 
L 210.964802 234.114856 
L 210.443679 236.512006 
L 205.640741 258.368647 
L 204.627137 262.910669 
L 202.490454 272.382061 
L 199.562951 285.094189 
L 195.599322 301.717419 
L 194.341964 306.828167 
L 191.763014 317.036164 
L 188.995506 327.543663 
L 185.644302 339.584595 
L 182.279568 350.849568 
L 179.818791 358.523417 
L 176.814695 367.202259 
L 174.978836 372.11526 
L 172.810249 377.521325 
L 171.157062 381.345046 
L 169.503876 384.904843 
L 167.552965 388.758763 
L 164.734447 393.647449 
L 162.021824 397.576333 
L 159.994197 400.005867 
L 157.966569 401.995107 
L 156.370416 403.248269 
L 154.774262 404.223903 
L 152.923187 405.005975 
L 150.555879 405.45719 
L 148.112934 405.27555 
L 146.33319 404.729539 
L 144.553446 403.835849 
L 141.633701 401.621115 
L 141.136963 401.152332 
L 139.132809 398.991637 
L 137.128655 396.403081 
L 134.841297 392.933468 
L 133.104885 389.938791 
L 131.368472 386.638325 
L 130.451271 384.773436 
L 128.378732 380.25569 
L 126.306192 375.32581 
L 125.230937 372.609674 
L 123.03873 366.745828 
L 120.846523 360.457531 
L 119.287745 355.737341 
L 116.052266 345.310704 
L 112.914401 334.436022 
L 111.656156 329.878095 
L 109.595941 322.186153 
L 107.535725 314.226063 
L 104.177116 300.724162 
L 103.896056 299.566952 
L 100.547724 285.489049 
L 96.740102 268.906817 
L 95.842115 264.921034 
L 93.254553 253.303176 
L 88.645668 232.235536 
L 86.210138 220.979923 
L 83.712833 209.401835 
L 82.516622 203.854456 
L 79.91645 191.820107 
L 75.027713 169.420166 
L 73.166473 161.020457 
L 70.68141 149.958312 
L 69.256003 143.705541 
L 65.977544 129.62527 
L 63.955397 121.179014 
L 61.364592 110.660516 
L 58.158023 98.168593 
L 55.058671 86.711516 
L 52.895363 79.107803 
L 50.237876 70.243173 
L 48.061831 63.398426 
L 45.885786 56.946078 
L 43.645266 50.730746 
L 42.123903 46.766965 
L 40.04494 41.696685 
L 36.917458 34.847261 
L 34.600306 30.394848 
L 32.608515 27.002679 
L 30.616723 24.02077 
L 28.602975 21.429866 
L 26.666876 19.346239 
L 24.730777 17.66645 
L 22.274705 16.122097 
L 20.328409 15.367398 
L 17.778462 15.009231 
L 17.778462 210.241443 
L 20.45416 207.140788 
L 22.050446 205.296144 
L 25.345035 201.514415 
L 27.455611 199.118407 
L 32.229353 193.811443 
L 32.433431 193.588799 
L 37.634979 188.060424 
L 39.287931 186.370567 
L 41.868376 183.807052 
L 44.763193 181.049891 
L 48.086706 178.055384 
L 49.639531 176.723938 
L 51.382408 175.283949 
L 56.110121 171.686366 
L 56.72525 171.253105 
L 61.448837 168.210114 
L 63.963669 166.80357 
L 66.079101 165.740266 
L 67.954415 164.891553 
L 70.058193 164.046643 
L 73.420156 162.936717 
L 77.009846 162.084733 
L 79.707356 161.674624 
L 81.276173 161.52775 
L 84.409711 161.437056 
L 86.15592 161.50386 
L 90.86766 162.1018 
L 91.234121 162.173711 
L 94.726986 163.041094 
L 97.261916 163.874458 
L 100.740906 165.29118 
L 103.715502 166.746329 
L 104.855828 167.362177 
L 107.67007 169.015719 
L 110.498768 170.863395 
L 112.953801 172.611425 
L 115.74777 174.756141 
L 120.048057 178.35903 
L 122.377031 180.451651 
L 124.901157 182.822377 
L 126.704814 184.577317 
L 129.975955 187.87804 
L 132.445459 190.460419 
L 133.579619 191.669774 
L 138.614548 197.188957 
L 140.159519 198.923662 
L 143.245683 202.432131 
L 145.258292 204.743937 
L 149.0114 209.084465 
L 150.179839 210.43928 
L 154.473905 215.408983 
L 155.298461 216.358714 
L 158.191496 219.669964 
L 162.457442 224.466895 
L 163.663402 225.798593 
L 165.824294 228.152128 
L 170.087058 232.650754 
L 171.839768 234.436365 
L 175.074883 237.619799 
L 177.857473 240.229289 
L 180.552661 242.632018 
L 182.32691 244.141863 
L 185.31901 246.550302 
L 187.214595 247.981949 
L 191.336507 250.82718 
L 193.535562 252.187616 
L 196.786302 253.987985 
L 199.086622 255.104971 
L 201.015896 255.938616 
L 202.633289 256.563594 
L 205.538163 257.513796 
L 208.512442 258.253466 
L 210.915401 258.676172 
L 214.54624 259.015182 
L 216.720568 259.044604 
L 220.634112 258.769638 
L 223.731219 258.254627 
L 226.330618 257.621659 
L 228.521604 256.947718 
L 229.103256 256.747467 
L 232.907158 255.220805 
L 235.145159 254.150142 
L 237.683103 252.785992 
L 242.21572 249.96858 
L 243.007606 249.42812 
L 245.608858 247.556216 
L 247.768735 245.893345 
L 250.913765 243.305422 
L 254.63483 240.0064 
L 257.289027 237.509608 
L 258.658093 236.178713 
L 263.149284 231.627809 
L 263.944827 230.794799 
L 266.424058 228.153076 
L 269.07247 225.262688 
L 272.379268 221.571653 
L 276.512618 216.862448 
L 277.887378 215.279759 
L 279.701583 213.183211 
L 284.656698 207.440575 
L 285.90999 205.991106 
L 288.839887 202.619526 
L 291.60603 199.469988 
L 293.55467 197.278384 
L 296.398381 194.131237 
L 298.190205 192.185072 
L 303.143961 186.985459 
L 305.842169 184.284272 
L 307.065534 183.09404 
L 310.964452 179.458493 
L 314.111673 176.715001 
L 314.952295 176.013309 
L 319.303301 172.605613 
L 319.943664 172.137183 
L 324.426151 169.110973 
L 325.556076 168.420451 
L 328.189527 166.928876 
L 330.634002 165.695909 
L 332.891106 164.690742 
L 335.587246 163.66192 
L 338.110706 162.872015 
L 341.585009 162.063454 
L 343.867752 161.710543 
L 346.322986 161.490279 
L 351.032647 161.532093 
L 353.020333 161.732854 
L 354.233633 161.9086 
L 358.955962 162.973169 
L 359.420384 163.110248 
L 362.392974 164.122769 
L 366.616327 165.955277 
L 367.473585 166.382312 
L 370.93003 168.28673 
L 374.381433 170.470528 
L 376.199712 171.729497 
L 378.318217 173.286809 
L 382.528451 176.655512 
L 384.021063 177.932249 
L 387.391895 180.962474 
L 390.367296 183.793836 
L 393.158804 186.570596 
L 395.411685 188.888055 
L 397.592989 191.190232 
L 401.061436 194.953662 
L 402.724034 196.796047 
L 407.004125 201.62845 
L 408.280869 203.089469 
L 412.228263 207.642259 
L 413.108552 208.662089 
L 417.680891 213.960298 
L 418.576185 214.994545 
L 420.537699 217.252328 
L 425.269405 222.626639 
L 426.528713 224.033383 
L 430.328993 228.198677 
L 432.736665 230.764002 
L 434.788037 232.89705 
L 438.170407 236.29426 
L 441.207267 239.201794 
L 443.155614 240.988737 
L 444.785291 242.432973 
L 449.525157 246.351723 
L 449.891502 246.636158 
L 454.637359 250.064221 
L 457.384924 251.82024 
L 458.557707 252.516262 
L 461.659501 254.197577 
L 463.71729 255.181848 
L 466.8674 256.479826 
L 468.453766 257.035866 
L 472.454615 258.141486 
L 474.729725 258.577801 
L 476.638737 258.835008 
L 479.415793 259.030629 
L 482.244417 259.011621 
L 486.75032 258.527017 
L 488.455909 258.198842 
L 490.591711 257.676932 
L 493.898284 256.628645 
L 494.967349 256.228145 
L 498.707601 254.595364 
L 500.253979 253.817201 
L 505.079193 251.016242 
L 506.115903 250.343198 
L 508.414467 248.764793 
L 511.191771 246.70487 
L 513.837691 244.594637 
L 516.284834 242.521943 
L 521.414314 237.832125 
L 522.586258 236.700556 
L 524.317311 234.991875 
L 528.106136 231.110047 
L 531.951457 226.997719 
L 533.250718 225.574905 
L 534.85208 223.801308 
L 538.389286 219.817813 
L 542.467997 215.142391 
L 543.112853 214.397848 
L 546.701538 210.241443 
z
" style="fill:#808080;opacity:0.5;"/>
   </g>
   <g id="line2d_1">
    <path clip-path="url(#paeb2bd681f)" d="M 17.778462 210.241443 
L 27.455611 199.118407 
L 32.433431 193.588799 
L 39.287931 186.370567 
L 44.763193 181.049891 
L 49.639531 176.723938 
L 51.382408 175.283949 
L 56.72525 171.253105 
L 61.448837 168.210114 
L 66.079101 165.740266 
L 70.058193 164.046643 
L 73.420156 162.936717 
L 77.009846 162.084733 
L 81.276173 161.52775 
L 84.409711 161.437056 
L 86.15592 161.50386 
L 91.234121 162.173711 
L 94.726986 163.041094 
L 97.261916 163.874458 
L 100.740906 165.29118 
L 104.855828 167.362177 
L 107.67007 169.015719 
L 110.498768 170.863395 
L 112.953801 172.611425 
L 115.74777 174.756141 
L 122.377031 180.451651 
L 126.704814 184.577317 
L 133.579619 191.669774 
L 140.159519 198.923662 
L 150.179839 210.43928 
L 158.191496 219.669964 
L 165.824294 228.152128 
L 171.839768 234.436365 
L 177.857473 240.229289 
L 182.32691 244.141863 
L 187.214595 247.981949 
L 191.336507 250.82718 
L 193.535562 252.187616 
L 196.786302 253.987985 
L 201.015896 255.938616 
L 202.633289 256.563594 
L 205.538163 257.513796 
L 208.512442 258.253466 
L 210.915401 258.676172 
L 214.54624 259.015182 
L 216.720568 259.044604 
L 220.634112 258.769638 
L 223.731219 258.254627 
L 226.330618 257.621659 
L 229.103256 256.747467 
L 232.907158 255.220805 
L 235.145159 254.150142 
L 237.683103 252.785992 
L 243.007606 249.42812 
L 247.768735 245.893345 
L 250.913765 243.305422 
L 257.289027 237.509608 
L 258.658093 236.178713 
L 266.424058 228.153076 
L 272.379268 221.571653 
L 285.90999 205.991106 
L 293.55467 197.278384 
L 298.190205 192.185072 
L 305.842169 184.284272 
L 307.065534 183.09404 
L 310.964452 179.458493 
L 314.952295 176.013309 
L 319.943664 172.137183 
L 325.556076 168.420451 
L 328.189527 166.928876 
L 330.634002 165.695909 
L 332.891106 164.690742 
L 335.587246 163.66192 
L 338.110706 162.872015 
L 341.585009 162.063454 
L 343.867752 161.710543 
L 346.322986 161.490279 
L 351.032647 161.532093 
L 354.233633 161.9086 
L 359.420384 163.110248 
L 362.392974 164.122769 
L 367.473585 166.382312 
L 370.93003 168.28673 
L 376.199712 171.729497 
L 378.318217 173.286809 
L 384.021063 177.932249 
L 387.391895 180.962474 
L 393.158804 186.570596 
L 397.592989 191.190232 
L 402.724034 196.796047 
L 413.108552 208.662089 
L 425.269405 222.626639 
L 430.328993 228.198677 
L 434.788037 232.89705 
L 441.207267 239.201794 
L 444.785291 242.432973 
L 449.891502 246.636158 
L 454.637359 250.064221 
L 458.557707 252.516262 
L 461.659501 254.197577 
L 463.71729 255.181848 
L 468.453766 257.035866 
L 472.454615 258.141486 
L 476.638737 258.835008 
L 479.415793 259.030629 
L 482.244417 259.011621 
L 486.75032 258.527017 
L 490.591711 257.676932 
L 494.967349 256.228145 
L 500.253979 253.817201 
L 506.115903 250.343198 
L 508.414467 248.764793 
L 511.191771 246.70487 
L 516.284834 242.521943 
L 522.586258 236.700556 
L 528.106136 231.110047 
L 534.85208 223.801308 
L 543.112853 214.397848 
L 546.701538 210.241443 
L 546.701538 210.241443 
" style="fill:none;stroke:#0000ff;stroke-linecap:square;"/>
   </g>
   <g id="line2d_2">
    <path clip-path="url(#paeb2bd681f)" d="M 17.778462 15.009231 
L 20.696406 15.478191 
L 22.548846 16.261789 
L 24.401286 17.421059 
L 27.590826 20.290468 
L 29.529043 22.568022 
L 31.46726 25.243469 
L 33.034184 27.6934 
L 35.118647 31.34398 
L 37.28912 35.611241 
L 39.459593 40.342769 
L 42.185857 46.924244 
L 44.422934 52.83771 
L 46.878232 59.839055 
L 51.106335 73.080413 
L 53.082766 79.753077 
L 56.482253 91.894471 
L 61.271733 110.290279 
L 66.666246 132.545353 
L 66.977244 133.870843 
L 72.391547 157.550685 
L 82.499743 203.776207 
L 93.559117 254.679939 
L 97.073147 270.378369 
L 101.817014 290.886621 
L 106.796921 311.309843 
L 111.877789 330.688823 
L 116.392017 346.444176 
L 120.953725 360.774656 
L 125.064767 372.180427 
L 126.765536 376.453388 
L 128.735208 381.062405 
L 131.693147 387.278438 
L 133.592496 390.810849 
L 136.056737 394.844975 
L 138.520978 398.246518 
L 141.318717 401.326945 
L 142.571739 402.433618 
L 144.163883 403.593997 
L 145.756027 404.477748 
L 147.400115 405.098679 
L 148.899067 405.405749 
L 150.398019 405.465326 
L 152.559295 405.115455 
L 154.447829 404.389116 
L 156.336363 403.271986 
L 158.7254 401.302513 
L 160.345809 399.615971 
L 163.302324 395.817696 
L 165.270337 392.78063 
L 167.238349 389.34457 
L 168.657308 386.623774 
L 170.547993 382.687558 
L 173.424836 376.0337 
L 176.275906 368.675511 
L 178.755495 361.683973 
L 182.138421 351.302975 
L 186.489259 336.622998 
L 189.406698 326.013465 
L 194.72243 305.290584 
L 198.582279 289.274638 
L 203.215151 269.186387 
L 210.60813 235.755952 
L 228.301954 154.542674 
L 231.859974 138.94274 
L 237.00618 117.308853 
L 241.699661 98.780047 
L 245.059157 86.354955 
L 247.63292 77.365553 
L 250.206684 68.872838 
L 253.27881 59.430032 
L 257.041544 48.963447 
L 259.139913 43.681029 
L 261.809964 37.559463 
L 263.685006 33.674449 
L 266.522804 28.46331 
L 268.365909 25.519877 
L 270.209014 22.93059 
L 271.805681 20.977647 
L 274.393844 18.39153 
L 277.346608 16.327144 
L 279.189447 15.521765 
L 281.032287 15.089593 
L 282.662545 15.019069 
L 284.292803 15.241378 
L 286.821408 16.164612 
L 288.418178 17.10864 
L 290.014948 18.33059 
L 292.614645 20.90992 
L 294.92649 23.810569 
L 297.054471 26.97775 
L 299.732367 31.627797 
L 301.31346 34.713962 
L 303.584335 39.578631 
L 306.903218 47.577431 
L 309.860519 55.558097 
L 312.08857 62.077235 
L 314.25011 68.798622 
L 318.567364 83.320991 
L 320.046211 88.61043 
L 324.779495 106.516009 
L 328.851683 122.978218 
L 334.630978 147.704144 
L 339.402359 169.02612 
L 349.140834 213.884465 
L 357.917281 254.212899 
L 365.204693 286.324683 
L 370.340663 307.643834 
L 375.650379 328.157823 
L 378.402566 338.072893 
L 381.400689 348.250827 
L 383.85321 356.058324 
L 386.987818 365.313279 
L 390.417951 374.453992 
L 392.670517 379.867244 
L 394.43627 383.771744 
L 396.827941 388.572186 
L 398.736119 391.990026 
L 400.644296 395.034385 
L 403.108415 398.403094 
L 406.019032 401.550925 
L 407.864096 403.073552 
L 410.666201 404.676631 
L 412.33088 405.221397 
L 413.995558 405.461212 
L 415.612683 405.40181 
L 418.097754 404.749254 
L 419.791852 403.915618 
L 421.485949 402.768275 
L 424.464125 399.996717 
L 425.999594 398.195701 
L 427.535062 396.144582 
L 429.081615 393.828601 
L 430.628169 391.264788 
L 432.501163 387.832981 
L 434.38681 384.022828 
L 437.288162 377.482149 
L 439.266149 372.565655 
L 442.717603 363.135249 
L 444.846431 356.801996 
L 448.359049 345.540563 
L 453.148937 328.682919 
L 458.337457 308.700839 
L 461.740915 294.761958 
L 466.96037 272.345222 
L 471.466492 252.211947 
L 479.374323 215.86163 
L 487.305433 179.206905 
L 495.755153 141.394675 
L 501.176807 118.497747 
L 506.891162 96.017129 
L 509.400467 86.786464 
L 513.91494 71.305145 
L 516.65812 62.667358 
L 518.86964 56.158253 
L 522.65789 46.005894 
L 525.387906 39.509513 
L 527.964605 34.036191 
L 529.551624 30.992416 
L 531.296545 27.940043 
L 533.041467 25.200936 
L 535.862205 21.447362 
L 537.508401 19.647506 
L 539.963179 17.505761 
L 543.00291 15.762514 
L 544.852224 15.197642 
L 546.701538 15.009231 
L 546.701538 15.009231 
" style="fill:none;stroke:#ff0000;stroke-linecap:square;"/>
   </g>
   <g id="patch_4">
    <path d="M 7.2 210.241443 
L 557.28 210.241443 
" style="fill:none;stroke:#000000;stroke-linecap:square;stroke-linejoin:miter;stroke-width:0.8;"/>
   </g>
   <g id="patch_5">
    <path d="M 282.24 413.28 
L 282.24 7.2 
" style="fill:none;stroke:#000000;stroke-linecap:square;stroke-linejoin:miter;stroke-width:0.8;"/>
   </g>
   <g id="matplotlib.axis_1">
    <g id="xtick_1">
     <g id="line2d_3">
      <defs>
       <path d="M 0 0 
L 0 -4 
" id="m1482796e37" style="stroke:#000000;stroke-width:0.5;"/>
      </defs>
      <g>
       <use style="stroke:#000000;stroke-width:0.5;" x="29.697833377" xlink:href="#m1482796e37" y="210.241442866"/>
      </g>
     </g>
     <g id="text_1">
      <!-- -6 -->
      <defs>
       <path d="M 33.015625 40.375 
Q 26.375 40.375 22.484375 35.828125 
Q 18.609375 31.296875 18.609375 23.390625 
Q 18.609375 15.53125 22.484375 10.953125 
Q 26.375 6.390625 33.015625 6.390625 
Q 39.65625 6.390625 43.53125 10.953125 
Q 47.40625 15.53125 47.40625 23.390625 
Q 47.40625 31.296875 43.53125 35.828125 
Q 39.65625 40.375 33.015625 40.375 
M 52.59375 71.296875 
L 52.59375 62.3125 
Q 48.875 64.0625 45.09375 64.984375 
Q 41.3125 65.921875 37.59375 65.921875 
Q 27.828125 65.921875 22.671875 59.328125 
Q 17.53125 52.734375 16.796875 39.40625 
Q 19.671875 43.65625 24.015625 45.921875 
Q 28.375 48.1875 33.59375 48.1875 
Q 44.578125 48.1875 50.953125 41.515625 
Q 57.328125 34.859375 57.328125 23.390625 
Q 57.328125 12.15625 50.6875 5.359375 
Q 44.046875 -1.421875 33.015625 -1.421875 
Q 20.359375 -1.421875 13.671875 8.265625 
Q 6.984375 17.96875 6.984375 36.375 
Q 6.984375 53.65625 15.1875 63.9375 
Q 23.390625 74.21875 37.203125 74.21875 
Q 40.921875 74.21875 44.703125 73.484375 
Q 48.484375 72.75 52.59375 71.296875 
" id="BitstreamVeraSans-Roman-36"/>
       <path d="M 4.890625 31.390625 
L 31.203125 31.390625 
L 31.203125 23.390625 
L 4.890625 23.390625 
z
" id="BitstreamVeraSans-Roman-2d"/>
      </defs>
      <g transform="translate(24.712677127 221.839880366)scale(0.1 -0.1)">
       <use xlink:href="#BitstreamVeraSans-Roman-2d"/>
       <use x="36.083984375" xlink:href="#BitstreamVeraSans-Roman-36"/>
      </g>
     </g>
    </g>
    <g id="xtick_2">
     <g id="line2d_4">
      <g>
       <use style="stroke:#000000;stroke-width:0.5;" x="113.878555585" xlink:href="#m1482796e37" y="210.241442866"/>
      </g>
     </g>
     <g id="text_2">
      <!-- -4 -->
      <defs>
       <path d="M 37.796875 64.3125 
L 12.890625 25.390625 
L 37.796875 25.390625 
z
M 35.203125 72.90625 
L 47.609375 72.90625 
L 47.609375 25.390625 
L 58.015625 25.390625 
L 58.015625 17.1875 
L 47.609375 17.1875 
L 47.609375 0 
L 37.796875 0 
L 37.796875 17.1875 
L 4.890625 17.1875 
L 4.890625 26.703125 
z
" id="BitstreamVeraSans-Roman-34"/>
      </defs>
      <g transform="translate(108.893399335 221.839880366)scale(0.1 -0.1)">
       <use xlink:href="#BitstreamVeraSans-Roman-2d"/>
       <use x="36.083984375" xlink:href="#BitstreamVeraSans-Roman-34"/>
      </g>
     </g>
    </g>
    <g id="xtick_3">
     <g id="line2d_5">
      <g>
       <use style="stroke:#000000;stroke-width:0.5;" x="198.059277792" xlink:href="#m1482796e37" y="210.241442866"/>
      </g>
     </g>
     <g id="text_3">
      <!-- -2 -->
      <defs>
       <path d="M 19.1875 8.296875 
L 53.609375 8.296875 
L 53.609375 0 
L 7.328125 0 
L 7.328125 8.296875 
Q 12.9375 14.109375 22.625 23.890625 
Q 32.328125 33.6875 34.8125 36.53125 
Q 39.546875 41.84375 41.421875 45.53125 
Q 43.3125 49.21875 43.3125 52.78125 
Q 43.3125 58.59375 39.234375 62.25 
Q 35.15625 65.921875 28.609375 65.921875 
Q 23.96875 65.921875 18.8125 64.3125 
Q 13.671875 62.703125 7.8125 59.421875 
L 7.8125 69.390625 
Q 13.765625 71.78125 18.9375 73 
Q 24.125 74.21875 28.421875 74.21875 
Q 39.75 74.21875 46.484375 68.546875 
Q 53.21875 62.890625 53.21875 53.421875 
Q 53.21875 48.921875 51.53125 44.890625 
Q 49.859375 40.875 45.40625 35.40625 
Q 44.1875 33.984375 37.640625 27.21875 
Q 31.109375 20.453125 19.1875 8.296875 
" id="BitstreamVeraSans-Roman-32"/>
      </defs>
      <g transform="translate(193.074121542 221.839880366)scale(0.1 -0.1)">
       <use xlink:href="#BitstreamVeraSans-Roman-2d"/>
       <use x="36.083984375" xlink:href="#BitstreamVeraSans-Roman-32"/>
      </g>
     </g>
    </g>
    <g id="xtick_4">
     <g id="line2d_6">
      <g>
       <use style="stroke:#000000;stroke-width:0.5;" x="282.24" xlink:href="#m1482796e37" y="210.241442866"/>
      </g>
     </g>
    </g>
    <g id="xtick_5">
     <g id="line2d_7">
      <g>
       <use style="stroke:#000000;stroke-width:0.5;" x="366.420722208" xlink:href="#m1482796e37" y="210.241442866"/>
      </g>
     </g>
     <g id="text_4">
      <!-- 2 -->
      <g transform="translate(363.239472208 221.839880366)scale(0.1 -0.1)">
       <use xlink:href="#BitstreamVeraSans-Roman-32"/>
      </g>
     </g>
    </g>
    <g id="xtick_6">
     <g id="line2d_8">
      <g>
       <use style="stroke:#000000;stroke-width:0.5;" x="450.601444415" xlink:href="#m1482796e37" y="210.241442866"/>
      </g>
     </g>
     <g id="text_5">
      <!-- 4 -->
      <g transform="translate(447.420194415 221.839880366)scale(0.1 -0.1)">
       <use xlink:href="#BitstreamVeraSans-Roman-34"/>
      </g>
     </g>
    </g>
    <g id="xtick_7">
     <g id="line2d_9">
      <g>
       <use style="stroke:#000000;stroke-width:0.5;" x="534.782166623" xlink:href="#m1482796e37" y="210.241442866"/>
      </g>
     </g>
     <g id="text_6">
      <!-- 6 -->
      <g transform="translate(531.600916623 221.839880366)scale(0.1 -0.1)">
       <use xlink:href="#BitstreamVeraSans-Roman-36"/>
      </g>
     </g>
    </g>
    <g id="xtick_8">
     <g id="line2d_10">
      <defs>
       <path d="M 0 0 
L 0 -2 
" id="mca452c470d" style="stroke:#000000;stroke-width:0.5;"/>
      </defs>
      <g>
       <use style="stroke:#000000;stroke-width:0.5;" x="8.65265282503" xlink:href="#mca452c470d" y="210.241442866"/>
      </g>
     </g>
    </g>
    <g id="xtick_9">
     <g id="line2d_11">
      <g>
       <use style="stroke:#000000;stroke-width:0.5;" x="50.7430139289" xlink:href="#mca452c470d" y="210.241442866"/>
      </g>
     </g>
    </g>
    <g id="xtick_10">
     <g id="line2d_12">
      <g>
       <use style="stroke:#000000;stroke-width:0.5;" x="71.7881944808" xlink:href="#mca452c470d" y="210.241442866"/>
      </g>
     </g>
    </g>
    <g id="xtick_11">
     <g id="line2d_13">
      <g>
       <use style="stroke:#000000;stroke-width:0.5;" x="92.8333750327" xlink:href="#mca452c470d" y="210.241442866"/>
      </g>
     </g>
    </g>
    <g id="xtick_12">
     <g id="line2d_14">
      <g>
       <use style="stroke:#000000;stroke-width:0.5;" x="134.923736137" xlink:href="#mca452c470d" y="210.241442866"/>
      </g>
     </g>
    </g>
    <g id="xtick_13">
     <g id="line2d_15">
      <g>
       <use style="stroke:#000000;stroke-width:0.5;" x="155.968916688" xlink:href="#mca452c470d" y="210.241442866"/>
      </g>
     </g>
    </g>
    <g id="xtick_14">
     <g id="line2d_16">
      <g>
       <use style="stroke:#000000;stroke-width:0.5;" x="177.01409724" xlink:href="#mca452c470d" y="210.241442866"/>
      </g>
     </g>
    </g>
    <g id="xtick_15">
     <g id="line2d_17">
      <g>
       <use style="stroke:#000000;stroke-width:0.5;" x="219.104458344" xlink:href="#mca452c470d" y="210.241442866"/>
      </g>
     </g>
    </g>
    <g id="xtick_16">
     <g id="line2d_18">
      <g>
       <use style="stroke:#000000;stroke-width:0.5;" x="240.149638896" xlink:href="#mca452c470d" y="210.241442866"/>
      </g>
     </g>
    </g>
    <g id="xtick_17">
     <g id="line2d_19">
      <g>
       <use style="stroke:#000000;stroke-width:0.5;" x="261.194819448" xlink:href="#mca452c470d" y="210.241442866"/>
      </g>
     </g>
    </g>
    <g id="xtick_18">
     <g id="line2d_20">
      <g>
       <use style="stroke:#000000;stroke-width:0.5;" x="303.285180552" xlink:href="#mca452c470d" y="210.241442866"/>
      </g>
     </g>
    </g>
    <g id="xtick_19">
     <g id="line2d_21">
      <g>
       <use style="stroke:#000000;stroke-width:0.5;" x="324.330361104" xlink:href="#mca452c470d" y="210.241442866"/>
      </g>
     </g>
    </g>
    <g id="xtick_20">
     <g id="line2d_22">
      <g>
       <use style="stroke:#000000;stroke-width:0.5;" x="345.375541656" xlink:href="#mca452c470d" y="210.241442866"/>
      </g>
     </g>
    </g>
    <g id="xtick_21">
     <g id="line2d_23">
      <g>
       <use style="stroke:#000000;stroke-width:0.5;" x="387.46590276" xlink:href="#mca452c470d" y="210.241442866"/>
      </g>
     </g>
    </g>
    <g id="xtick_22">
     <g id="line2d_24">
      <g>
       <use style="stroke:#000000;stroke-width:0.5;" x="408.511083312" xlink:href="#mca452c470d" y="210.241442866"/>
      </g>
     </g>
    </g>
    <g id="xtick_23">
     <g id="line2d_25">
      <g>
       <use style="stroke:#000000;stroke-width:0.5;" x="429.556263863" xlink:href="#mca452c470d" y="210.241442866"/>
      </g>
     </g>
    </g>
    <g id="xtick_24">
     <g id="line2d_26">
      <g>
       <use style="stroke:#000000;stroke-width:0.5;" x="471.646624967" xlink:href="#mca452c470d" y="210.241442866"/>
      </g>
     </g>
    </g>
    <g id="xtick_25">
     <g id="line2d_27">
      <g>
       <use style="stroke:#000000;stroke-width:0.5;" x="492.691805519" xlink:href="#mca452c470d" y="210.241442866"/>
      </g>
     </g>
    </g>
    <g id="xtick_26">
     <g id="line2d_28">
      <g>
       <use style="stroke:#000000;stroke-width:0.5;" x="513.736986071" xlink:href="#mca452c470d" y="210.241442866"/>
      </g>
     </g>
    </g>
    <g id="xtick_27">
     <g id="line2d_29">
      <g>
       <use style="stroke:#000000;stroke-width:0.5;" x="555.827347175" xlink:href="#mca452c470d" y="210.241442866"/>
      </g>
     </g>
    </g>
   </g>
   <g id="matplotlib.axis_2">
    <g id="ytick_1">
     <g id="line2d_30">
      <defs>
       <path d="M 0 0 
L 4 0 
" id="m3015ea367f" style="stroke:#000000;stroke-width:0.5;"/>
      </defs>
      <g>
       <use style="stroke:#000000;stroke-width:0.5;" x="282.24" xlink:href="#m3015ea367f" y="405.473654962"/>
      </g>
     </g>
     <g id="text_7">
      <!-- -1 -->
      <defs>
       <path d="M 12.40625 8.296875 
L 28.515625 8.296875 
L 28.515625 63.921875 
L 10.984375 60.40625 
L 10.984375 69.390625 
L 28.421875 72.90625 
L 38.28125 72.90625 
L 38.28125 8.296875 
L 54.390625 8.296875 
L 54.390625 0 
L 12.40625 0 
z
" id="BitstreamVeraSans-Roman-31"/>
      </defs>
      <g transform="translate(268.2696875 408.233029962)scale(0.1 -0.1)">
       <use xlink:href="#BitstreamVeraSans-Roman-2d"/>
       <use x="36.083984375" xlink:href="#BitstreamVeraSans-Roman-31"/>
      </g>
     </g>
    </g>
    <g id="ytick_2">
     <g id="line2d_31">
      <g>
       <use style="stroke:#000000;stroke-width:0.5;" x="282.24" xlink:href="#m3015ea367f" y="307.857548914"/>
      </g>
     </g>
     <g id="text_8">
      <!-- -0.5 -->
      <defs>
       <path d="M 31.78125 66.40625 
Q 24.171875 66.40625 20.328125 58.90625 
Q 16.5 51.421875 16.5 36.375 
Q 16.5 21.390625 20.328125 13.890625 
Q 24.171875 6.390625 31.78125 6.390625 
Q 39.453125 6.390625 43.28125 13.890625 
Q 47.125 21.390625 47.125 36.375 
Q 47.125 51.421875 43.28125 58.90625 
Q 39.453125 66.40625 31.78125 66.40625 
M 31.78125 74.21875 
Q 44.046875 74.21875 50.515625 64.515625 
Q 56.984375 54.828125 56.984375 36.375 
Q 56.984375 17.96875 50.515625 8.265625 
Q 44.046875 -1.421875 31.78125 -1.421875 
Q 19.53125 -1.421875 13.0625 8.265625 
Q 6.59375 17.96875 6.59375 36.375 
Q 6.59375 54.828125 13.0625 64.515625 
Q 19.53125 74.21875 31.78125 74.21875 
" id="BitstreamVeraSans-Roman-30"/>
       <path d="M 10.6875 12.40625 
L 21 12.40625 
L 21 0 
L 10.6875 0 
z
" id="BitstreamVeraSans-Roman-2e"/>
       <path d="M 10.796875 72.90625 
L 49.515625 72.90625 
L 49.515625 64.59375 
L 19.828125 64.59375 
L 19.828125 46.734375 
Q 21.96875 47.46875 24.109375 47.828125 
Q 26.265625 48.1875 28.421875 48.1875 
Q 40.625 48.1875 47.75 41.5 
Q 54.890625 34.8125 54.890625 23.390625 
Q 54.890625 11.625 47.5625 5.09375 
Q 40.234375 -1.421875 26.90625 -1.421875 
Q 22.3125 -1.421875 17.546875 -0.640625 
Q 12.796875 0.140625 7.71875 1.703125 
L 7.71875 11.625 
Q 12.109375 9.234375 16.796875 8.0625 
Q 21.484375 6.890625 26.703125 6.890625 
Q 35.15625 6.890625 40.078125 11.328125 
Q 45.015625 15.765625 45.015625 23.390625 
Q 45.015625 31 40.078125 35.4375 
Q 35.15625 39.890625 26.703125 39.890625 
Q 22.75 39.890625 18.8125 39.015625 
Q 14.890625 38.140625 10.796875 36.28125 
z
" id="BitstreamVeraSans-Roman-35"/>
      </defs>
      <g transform="translate(258.7290625 310.616923914)scale(0.1 -0.1)">
       <use xlink:href="#BitstreamVeraSans-Roman-2d"/>
       <use x="36.083984375" xlink:href="#BitstreamVeraSans-Roman-30"/>
       <use x="99.70703125" xlink:href="#BitstreamVeraSans-Roman-2e"/>
       <use x="131.494140625" xlink:href="#BitstreamVeraSans-Roman-35"/>
      </g>
     </g>
    </g>
    <g id="ytick_3">
     <g id="line2d_32">
      <g>
       <use style="stroke:#000000;stroke-width:0.5;" x="282.24" xlink:href="#m3015ea367f" y="210.241442866"/>
      </g>
     </g>
    </g>
    <g id="ytick_4">
     <g id="line2d_33">
      <g>
       <use style="stroke:#000000;stroke-width:0.5;" x="282.24" xlink:href="#m3015ea367f" y="112.625336817"/>
      </g>
     </g>
     <g id="text_9">
      <!-- 0.5 -->
      <g transform="translate(262.336875 115.384711817)scale(0.1 -0.1)">
       <use xlink:href="#BitstreamVeraSans-Roman-30"/>
       <use x="63.623046875" xlink:href="#BitstreamVeraSans-Roman-2e"/>
       <use x="95.41015625" xlink:href="#BitstreamVeraSans-Roman-35"/>
      </g>
     </g>
    </g>
    <g id="ytick_5">
     <g id="line2d_34">
      <g>
       <use style="stroke:#000000;stroke-width:0.5;" x="282.24" xlink:href="#m3015ea367f" y="15.0092307692"/>
      </g>
     </g>
     <g id="text_10">
      <!-- 1 -->
      <g transform="translate(271.8775 17.7686057692)scale(0.1 -0.1)">
       <use xlink:href="#BitstreamVeraSans-Roman-31"/>
      </g>
     </g>
    </g>
    <g id="ytick_6">
     <g id="line2d_35">
      <defs>
       <path d="M 0 0 
L 2 0 
" id="mc08686ed55" style="stroke:#000000;stroke-width:0.5;"/>
      </defs>
      <g>
       <use style="stroke:#000000;stroke-width:0.5;" x="282.24" xlink:href="#mc08686ed55" y="385.950433752"/>
      </g>
     </g>
    </g>
    <g id="ytick_7">
     <g id="line2d_36">
      <g>
       <use style="stroke:#000000;stroke-width:0.5;" x="282.24" xlink:href="#mc08686ed55" y="366.427212543"/>
      </g>
     </g>
    </g>
    <g id="ytick_8">
     <g id="line2d_37">
      <g>
       <use style="stroke:#000000;stroke-width:0.5;" x="282.24" xlink:href="#mc08686ed55" y="346.903991333"/>
      </g>
     </g>
    </g>
    <g id="ytick_9">
     <g id="line2d_38">
      <g>
       <use style="stroke:#000000;stroke-width:0.5;" x="282.24" xlink:href="#mc08686ed55" y="327.380770124"/>
      </g>
     </g>
    </g>
    <g id="ytick_10">
     <g id="line2d_39">
      <g>
       <use style="stroke:#000000;stroke-width:0.5;" x="282.24" xlink:href="#mc08686ed55" y="307.857548914"/>
      </g>
     </g>
    </g>
    <g id="ytick_11">
     <g id="line2d_40">
      <g>
       <use style="stroke:#000000;stroke-width:0.5;" x="282.24" xlink:href="#mc08686ed55" y="288.334327704"/>
      </g>
     </g>
    </g>
    <g id="ytick_12">
     <g id="line2d_41">
      <g>
       <use style="stroke:#000000;stroke-width:0.5;" x="282.24" xlink:href="#mc08686ed55" y="268.811106495"/>
      </g>
     </g>
    </g>
    <g id="ytick_13">
     <g id="line2d_42">
      <g>
       <use style="stroke:#000000;stroke-width:0.5;" x="282.24" xlink:href="#mc08686ed55" y="249.287885285"/>
      </g>
     </g>
    </g>
    <g id="ytick_14">
     <g id="line2d_43">
      <g>
       <use style="stroke:#000000;stroke-width:0.5;" x="282.24" xlink:href="#mc08686ed55" y="229.764664075"/>
      </g>
     </g>
    </g>
    <g id="ytick_15">
     <g id="line2d_44">
      <g>
       <use style="stroke:#000000;stroke-width:0.5;" x="282.24" xlink:href="#mc08686ed55" y="210.241442866"/>
      </g>
     </g>
    </g>
    <g id="ytick_16">
     <g id="line2d_45">
      <g>
       <use style="stroke:#000000;stroke-width:0.5;" x="282.24" xlink:href="#mc08686ed55" y="190.718221656"/>
      </g>
     </g>
    </g>
    <g id="ytick_17">
     <g id="line2d_46">
      <g>
       <use style="stroke:#000000;stroke-width:0.5;" x="282.24" xlink:href="#mc08686ed55" y="171.195000446"/>
      </g>
     </g>
    </g>
    <g id="ytick_18">
     <g id="line2d_47">
      <g>
       <use style="stroke:#000000;stroke-width:0.5;" x="282.24" xlink:href="#mc08686ed55" y="151.671779237"/>
      </g>
     </g>
    </g>
    <g id="ytick_19">
     <g id="line2d_48">
      <g>
       <use style="stroke:#000000;stroke-width:0.5;" x="282.24" xlink:href="#mc08686ed55" y="132.148558027"/>
      </g>
     </g>
    </g>
    <g id="ytick_20">
     <g id="line2d_49">
      <g>
       <use style="stroke:#000000;stroke-width:0.5;" x="282.24" xlink:href="#mc08686ed55" y="112.625336817"/>
      </g>
     </g>
    </g>
    <g id="ytick_21">
     <g id="line2d_50">
      <g>
       <use style="stroke:#000000;stroke-width:0.5;" x="282.24" xlink:href="#mc08686ed55" y="93.1021156078"/>
      </g>
     </g>
    </g>
    <g id="ytick_22">
     <g id="line2d_51">
      <g>
       <use style="stroke:#000000;stroke-width:0.5;" x="282.24" xlink:href="#mc08686ed55" y="73.5788943982"/>
      </g>
     </g>
    </g>
    <g id="ytick_23">
     <g id="line2d_52">
      <g>
       <use style="stroke:#000000;stroke-width:0.5;" x="282.24" xlink:href="#mc08686ed55" y="54.0556731885"/>
      </g>
     </g>
    </g>
    <g id="ytick_24">
     <g id="line2d_53">
      <g>
       <use style="stroke:#000000;stroke-width:0.5;" x="282.24" xlink:href="#mc08686ed55" y="34.5324519789"/>
      </g>
     </g>
    </g>
    <g id="ytick_25">
     <g id="line2d_54">
      <g>
       <use style="stroke:#000000;stroke-width:0.5;" x="282.24" xlink:href="#mc08686ed55" y="15.0092307692"/>
      </g>
     </g>
    </g>
   </g>
  </g>
 </g>
 <defs>
  <clipPath id="paeb2bd681f">
   <rect height="406.08" width="550.08" x="7.2" y="7.2"/>
  </clipPath>
 </defs>
</svg>
