<?xml version="1.0" encoding="utf-8" standalone="no"?>
<!DOCTYPE svg PUBLIC "-//W3C//DTD SVG 1.1//EN"
  "http://www.w3.org/Graphics/SVG/1.1/DTD/svg11.dtd">
<!-- Created with matplotlib (http://matplotlib.org/) -->
<svg height="420pt" version="1.1" viewBox="0 0 420 420" width="420pt" xmlns="http://www.w3.org/2000/svg" xmlns:xlink="http://www.w3.org/1999/xlink">
 <defs>
  <style type="text/css">
*{stroke-linecap:butt;stroke-linejoin:round;stroke-miterlimit:100000;}
  </style>
 </defs>
 <g id="figure_1">
  <g id="patch_1">
   <path d="M 0 420.48 
L 420.479128 420.48 
L 420.479128 0 
L 0 0 
z
" style="fill:#ffffff;"/>
  </g>
  <g id="axes_1">
   <g id="patch_2">
    <path d="M 7.2 413.28 
L 413.279128 413.28 
L 413.279128 7.2 
L 7.2 7.2 
z
" style="fill:#ffffff;"/>
   </g>
   <g id="line2d_1">
    <path clip-path="url(#peb970837b1)" d="M 210.239249 130.569789 
L 178.884461 95.895633 
L 160.677668 77.570006 
L 142.921299 61.198117 
L 127.529149 48.388777 
L 112.740353 37.492748 
L 104.089135 31.858594 
L 95.724316 27.004556 
L 89.005799 23.578997 
L 82.513277 20.717475 
L 76.258852 18.428636 
L 70.254184 16.719397 
L 60.88833 15.176503 
L 53.049964 15.174903 
L 45.873149 16.503895 
L 39.388087 19.154413 
L 33.622073 23.108378 
L 30.5666 26.04285 
L 27.774546 29.415081 
L 25.250005 33.217058 
L 22.996678 37.439745 
L 20.596483 43.21072 
L 18.618986 49.585166 
L 17.068595 56.540052 
L 15.948765 64.050252 
L 15.414379 69.733366 
L 15.092285 75.945338 
L 15.011805 82.426845 
L 15.173041 89.164877 
L 15.575792 96.145911 
L 16.21956 103.355936 
L 17.103547 110.780481 
L 18.22666 118.404645 
L 19.587507 126.213126 
L 22.447544 139.8917 
L 25.981889 153.979699 
L 29.277159 165.459276 
L 32.986146 177.104804 
L 37.100371 188.873125 
L 41.610429 200.720627 
L 45.407527 210.01471 
L 49.435215 219.309303 
L 53.687857 228.58333 
L 58.159505 237.81576 
L 64.331488 249.799683 
L 70.85298 261.630004 
L 77.70836 273.260787 
L 84.881206 284.646871 
L 88.287406 289.797218 
L 97.385888 302.81128 
L 106.86851 315.314607 
L 116.702994 327.238216 
L 126.855865 338.516323 
L 138.593625 350.334584 
L 151.823284 362.17671 
L 165.354715 372.74676 
L 193.042083 389.728036 
L 216.582253 399.369521 
L 235.685106 403.932596 
L 254.542708 405.470769 
L 271.627183 404.176166 
L 283.584535 401.643558 
L 295.22952 397.789753 
L 306.157207 392.82601 
L 316.702136 386.681346 
L 327.840944 378.580351 
L 338.408636 369.154375 
L 348.353891 358.477608 
L 357.628412 346.634084 
L 363.195668 338.477645 
L 368.458089 329.906932 
L 373.405186 320.949632 
L 379.37937 308.707812 
L 382.727629 301.003931 
L 385.859304 293.115307 
L 388.770464 285.057996 
L 391.457454 276.848398 
L 393.9169 268.503224 
L 396.145713 260.039458 
L 398.141095 251.47433 
L 399.90054 242.825271 
L 401.955424 230.661567 
L 403.542556 218.417101 
L 404.697865 205.577274 
L 405.334225 192.757617 
L 405.469914 183.237831 
L 405.315471 173.783093 
L 404.871124 164.416178 
L 404.137535 155.159653 
L 403.014915 145.261124 
L 401.554634 135.547089 
L 399.75925 126.045128 
L 397.631908 116.782221 
L 395.659236 109.442192 
L 393.471668 102.291536 
L 391.071741 95.343685 
L 388.462235 88.611693 
L 384.272491 79.176255 
L 379.650931 70.267942 
L 374.609023 61.922583 
L 369.159275 54.17374 
L 364.646595 48.578556 
L 359.902068 43.376855 
L 354.932817 38.5813 
L 349.746304 34.203561 
L 342.642817 29.122781 
L 335.198798 24.797059 
L 327.433391 21.24443 
L 319.36657 18.479705 
L 310.067203 16.344397 
L 300.450342 15.208632 
L 289.30629 15.131944 
L 277.844914 16.324408 
L 266.112212 18.778266 
L 254.155271 22.477556 
L 234.012279 31.263277 
L 218.942126 39.814691 
L 192.06954 59.05446 
L 165.541405 82.935983 
L 150.194095 98.979241 
L 135.246671 116.223296 
L 120.54833 134.812789 
L 106.176081 154.666962 
L 99.264432 164.851797 
L 92.552462 175.169014 
L 86.003418 185.668462 
L 79.681343 196.240676 
L 73.597785 206.854348 
L 67.763859 217.478046 
L 61.925118 228.59651 
L 56.384415 239.655181 
L 51.152885 250.618036 
L 46.241039 261.449366 
L 42.147184 270.94812 
L 38.320786 280.290292 
L 34.767935 289.451788 
L 31.494283 298.408977 
L 27.05794 311.60191 
L 23.297085 324.189015 
L 21.122289 332.405371 
L 19.273382 340.280479 
L 17.75355 347.792343 
L 16.565412 354.919979 
L 15.585291 362.886601 
L 15.081748 370.247431 
L 15.056016 376.973258 
L 15.508159 383.037388 
L 16.076276 386.709414 
L 16.856766 390.068547 
L 17.848776 393.108828 
L 19.05122 395.824869 
L 20.511135 398.282384 
L 22.191994 400.384923 
L 24.091839 402.128517 
L 26.208457 403.509874 
L 30.488705 405.061397 
L 35.427508 405.456017 
L 41.006773 404.691391 
L 47.206058 402.77206 
L 53.663345 399.882197 
L 60.640581 395.97159 
L 67.407952 391.553388 
L 74.566511 386.330271 
L 81.314642 380.970925 
L 88.347734 374.99989 
L 95.65024 368.438559 
L 103.20602 361.310439 
L 116.632589 347.915724 
L 130.661079 333.086293 
L 143.303483 319.117171 
L 156.272636 304.286654 
L 169.59848 288.600899 
L 183.125495 272.286493 
L 220.001612 226.294107 
L 242.001467 198.13357 
L 306.0632 115.410491 
L 326.356277 89.770125 
L 341.45628 71.223248 
L 349.720138 61.365271 
L 358.742913 50.92976 
L 367.069152 41.705309 
L 374.659801 33.762039 
L 381.479257 27.160334 
L 386.455603 22.798093 
L 390.88026 19.387034 
L 393.305653 17.778965 
L 395.517149 16.535427 
L 397.756603 15.571465 
L 399.716001 15.078787 
L 401.39242 15.058587 
L 402.783354 15.510913 
L 403.820556 16.356624 
L 404.606785 17.609806 
L 405.141021 19.267825 
L 405.422571 21.327197 
L 405.451069 23.783594 
L 405.22648 26.631854 
L 404.749094 29.865989 
L 404.01953 33.479205 
L 402.934778 37.853135 
L 401.55157 42.659875 
L 399.872048 47.887358 
L 397.898815 53.522458 
L 395.967014 58.689699 
L 391.86272 68.913656 
L 387.054385 80.025549 
L 381.560649 91.955565 
L 375.402806 104.628747 
L 368.683922 117.813489 
L 361.364456 131.566071 
L 355.92715 141.433901 
L 350.221992 151.506789 
L 341.744829 165.996779 
L 332.787267 180.748734 
L 323.382029 195.675307 
L 313.563471 210.688117 
L 305.761823 222.224915 
L 297.754183 233.719819 
L 281.190408 256.423509 
L 267.516485 274.105987 
L 253.527566 291.219234 
L 221.875889 326.274787 
L 185.623348 359.882101 
L 170.353934 371.762083 
L 147.165057 386.913546 
L 135.546933 393.055864 
L 124.23098 397.999457 
L 113.262976 401.711912 
L 102.687293 404.168884 
L 95.455991 405.140589 
L 88.45778 405.470739 
L 81.706872 405.158248 
L 75.216974 404.204143 
L 67.460387 402.103436 
L 61.091369 399.470126 
L 55.082543 396.096065 
L 49.448418 391.994462 
L 44.202603 387.181371 
L 39.566699 381.937609 
L 35.306764 376.080758 
L 32.446754 371.442072 
L 29.794431 366.498132 
L 27.352893 361.2583 
L 25.124994 355.732497 
L 23.113336 349.931188 
L 21.320267 343.865358 
L 19.747884 337.546493 
L 18.398023 330.986559 
L 17.101873 323.012194 
L 16.115308 314.744807 
L 15.27083 303.019337 
L 15.009214 290.844287 
L 15.331243 278.278654 
L 16.235955 265.383327 
L 17.348793 255.101364 
L 18.882195 244.258663 
L 20.795224 233.306564 
L 23.084086 222.280288 
L 25.744239 211.215293 
L 30.014989 195.948201 
L 34.966508 180.768608 
L 40.580094 165.769451 
L 46.834541 151.042561 
L 51.258527 141.605419 
L 55.939207 132.347915 
L 60.869024 123.294279 
L 66.040017 114.468206 
L 74.949056 100.650791 
L 83.861981 88.339648 
L 93.253398 76.776582 
L 103.08775 66.032553 
L 113.327802 56.173495 
L 128.777598 43.600793 
L 144.872429 33.166293 
L 149.630712 30.566257 
L 162.33823 24.652716 
L 175.265695 20.120315 
L 201.542291 15.323324 
L 230.205853 16.667815 
L 247.631618 20.857215 
L 264.752899 27.545571 
L 275.338281 33.014251 
L 285.712449 39.414946 
L 296.335067 47.097092 
L 306.650081 55.723986 
L 316.61325 65.238158 
L 326.196939 75.590758 
L 335.366961 86.721925 
L 344.090601 98.567298 
L 353.263966 112.55065 
L 361.801491 127.237892 
L 368.750632 140.645296 
L 375.155271 154.440189 
L 381.062085 168.722101 
L 386.367483 183.240936 
L 391.052788 197.91384 
L 395.101503 212.657084 
L 397.549487 222.97586 
L 399.674179 233.259004 
L 401.471912 243.477745 
L 402.939583 253.603495 
L 404.446174 267.700798 
L 405.28333 281.477061 
L 405.458104 288.974593 
L 405.424518 296.335901 
L 405.182606 303.548248 
L 404.732629 310.599155 
L 403.943523 318.620285 
L 402.871927 326.3852 
L 401.519402 333.875544 
L 399.88792 341.07361 
L 397.894404 348.242438 
L 395.603941 355.057278 
L 393.020158 361.50065 
L 390.147142 367.556027 
L 387.080858 373.056617 
L 383.750054 378.162421 
L 380.15971 382.861058 
L 376.315197 387.141137 
L 370.664059 392.292123 
L 364.565314 396.61977 
L 360.122819 399.106472 
L 355.482746 401.189593 
L 345.634583 404.128154 
L 335.072733 405.410349 
L 323.852871 405.025225 
L 312.811634 403.157791 
L 301.297055 399.847469 
L 286.456303 393.783867 
L 269.012736 384.384267 
L 251.036115 372.425403 
L 215.465023 342.812374 
L 202.093327 329.8233 
L 177.984341 304.020656 
L 154.372576 275.876263 
L 143.352636 261.778671 
L 132.569199 247.385703 
L 122.427758 233.300247 
L 112.575196 219.091829 
L 103.043924 204.83621 
L 93.865298 190.609405 
L 87.673434 180.719959 
L 81.67871 170.907479 
L 75.890767 161.197551 
L 70.318916 151.61549 
L 64.908361 142.072378 
L 59.737296 132.711356 
L 54.814241 123.557431 
L 50.147308 114.635054 
L 45.084513 104.646463 
L 40.384954 95.034322 
L 33.632319 80.490836 
L 27.878344 67.13642 
L 23.359182 55.642299 
L 21.457352 50.371017 
L 19.797373 45.431739 
L 17.715466 38.485773 
L 16.220619 32.38871 
L 15.235087 26.482966 
L 15.030723 21.770316 
L 15.608346 18.281358 
L 16.965641 16.038745 
L 18.335009 15.232215 
L 20.061619 15.014133 
L 21.613137 15.242977 
L 23.368058 15.812683 
L 25.32449 16.722256 
L 27.480322 17.970105 
L 30.108538 19.75199 
L 32.976871 21.945491 
L 36.081498 24.54587 
L 39.418279 27.547506 
L 42.982768 30.943914 
L 46.770212 34.727755 
L 54.993482 43.42421 
L 60.390803 49.410252 
L 66.082417 55.908293 
L 74.10934 65.332472 
L 88.857512 83.238493 
L 95.313036 91.255724 
L 117.039152 118.765828 
L 142.97641 152.204443 
L 165.937962 181.945471 
L 190.450019 213.507338 
L 220.252602 251.195754 
L 241.636155 277.490939 
L 262.63875 302.46411 
L 273.170993 314.588748 
L 283.502561 326.17405 
L 293.452514 337.001754 
L 303.144933 347.193574 
L 312.549823 356.698381 
L 321.638077 365.468498 
L 329.088804 372.308632 
L 336.274071 378.561996 
L 343.177832 384.20595 
L 349.784665 389.220057 
L 353.527146 391.868444 
L 361.221028 396.803187 
L 368.371495 400.649572 
L 374.952812 403.38516 
L 380.941291 404.993993 
L 384.662462 405.439272 
L 388.093506 405.358236 
L 391.228716 404.751104 
L 394.062876 403.619514 
L 396.315017 402.183927 
L 398.325006 400.343424 
L 400.090225 398.101888 
L 401.608379 395.464047 
L 403.377106 390.913112 
L 404.610194 385.549993 
L 405.304225 379.398796 
L 405.457273 372.487175 
L 405.181955 366.318967 
L 404.54814 359.685494 
L 403.62832 353.054907 
L 402.395305 346.049398 
L 400.851091 338.687359 
L 398.99818 330.988116 
L 395.475621 318.275267 
L 391.214487 304.864242 
L 387.067299 293.097122 
L 382.420444 280.950498 
L 377.287054 268.480005 
L 371.681633 255.74276 
L 365.559379 242.671398 
L 358.989728 229.448614 
L 351.991602 216.136145 
L 344.585161 202.796147 
L 339.805317 194.55224 
L 332.841717 183.008146 
L 325.610424 171.560432 
L 318.12723 160.249613 
L 310.408471 149.11572 
L 300.435369 135.48177 
L 290.153424 122.262729 
L 279.997242 109.998602 
L 269.619733 98.249986 
L 248.333033 76.538001 
L 215.602788 49.258497 
L 200.917489 39.431275 
L 167.825766 23.024405 
L 153.574155 18.575088 
L 139.645314 15.895117 
L 126.118583 15.009231 
L 113.071013 15.925608 
L 103.352701 17.866327 
L 93.998873 20.870318 
L 85.596605 24.633675 
L 74.750199 31.207799 
L 64.656566 39.394004 
L 59.909737 44.069151 
L 55.371787 49.118576 
L 51.049022 54.530907 
L 46.947448 60.293953 
L 41.575486 68.947752 
L 37.433869 76.673334 
L 33.62341 84.813824 
L 30.15141 93.343936 
L 27.024525 102.237172 
L 23.788005 113.156073 
L 21.048574 124.494516 
L 18.813534 136.203503 
L 17.088846 148.232435 
L 16.194889 156.735622 
L 15.549802 165.350046 
L 15.154413 174.057799 
L 15.00923 182.840776 
L 15.215268 194.919831 
L 15.887456 207.058242 
L 17.024188 219.20898 
L 18.622746 231.324969 
L 19.724178 238.111246 
L 21.425107 247.144758 
L 23.382476 256.09702 
L 25.593629 264.948322 
L 28.055562 273.679177 
L 30.764931 282.270362 
L 33.718056 290.702964 
L 36.910926 298.958416 
L 40.339206 307.018544 
L 43.879561 314.621953 
L 48.575603 323.771604 
L 53.589904 332.558961 
L 58.912593 340.955982 
L 64.533191 348.935872 
L 72.694639 359.142445 
L 81.363977 368.457838 
L 90.509194 376.826297 
L 100.09652 384.197738 
L 109.586102 390.239365 
L 121.138984 396.082106 
L 133.100487 400.543503 
L 145.415753 403.590394 
L 158.028304 405.200133 
L 163.266986 405.441456 
L 191.845098 402.593494 
L 220.828779 392.877878 
L 248.514579 377.360527 
L 268.493142 362.312403 
L 282.479903 349.765762 
L 296.049184 335.912353 
L 310.898249 318.704823 
L 318.046491 309.5931 
L 324.992546 300.179336 
L 337.140092 282.261152 
L 342.919537 273.015423 
L 348.490554 263.609841 
L 357.521169 247.201819 
L 363.570041 235.282462 
L 369.257193 223.267344 
L 374.569207 211.20241 
L 379.493552 199.133796 
L 384.88173 184.691865 
L 389.675055 170.390981 
L 393.857201 156.310096 
L 397.413923 142.526948 
L 399.240825 134.440126 
L 400.836417 126.503684 
L 402.198747 118.733368 
L 403.326146 111.144592 
L 404.555444 100.335472 
L 405.269479 89.998738 
L 405.466355 80.17882 
L 405.145551 70.917925 
L 404.659972 65.218983 
L 403.161591 55.241746 
L 400.902515 46.255083 
L 397.891652 38.316424 
L 394.140872 31.476507 
L 390.832241 27.072405 
L 387.118691 23.334013 
L 383.00855 20.274917 
L 378.511031 17.906237 
L 374.633659 16.512158 
L 370.519516 15.570373 
L 366.174528 15.08308 
L 361.604952 15.051418 
L 352.615657 16.186537 
L 346.687064 17.664826 
L 340.501596 19.730784 
L 334.070898 22.378107 
L 327.407077 25.598716 
L 317.521838 31.165745 
L 307.225621 37.844651 
L 296.557868 45.593964 
L 285.559447 54.365569 
L 273.264736 65.008339 
L 255.493104 81.77308 
L 233.021833 105.006689 
L 210.239249 130.569789 
L 210.239249 130.569789 
" style="fill:none;stroke:#0000ff;stroke-linecap:square;"/>
   </g>
   <g id="patch_3">
    <path d="M 7.2 210.239983 
L 413.279128 210.239983 
" style="fill:none;stroke:#000000;stroke-linecap:square;stroke-linejoin:miter;stroke-width:0.8;"/>
   </g>
   <g id="patch_4">
    <path d="M 210.239249 413.28 
L 210.239249 7.2 
" style="fill:none;stroke:#000000;stroke-linecap:square;stroke-linejoin:miter;stroke-width:0.8;"/>
   </g>
   <g id="matplotlib.axis_1">
    <g id="xtick_1">
     <g id="line2d_2">
      <defs>
       <path d="M 0 0 
L 0 -4 
" id="me67201a50c" style="stroke:#000000;stroke-width:0.5;"/>
      </defs>
      <g>
       <use style="stroke:#000000;stroke-width:0.5;" x="15.0084317373" xlink:href="#me67201a50c" y="210.239983161"/>
      </g>
     </g>
     <g id="text_1">
      <!-- -1 -->
      <defs>
       <path d="M 12.40625 8.296875 
L 28.515625 8.296875 
L 28.515625 63.921875 
L 10.984375 60.40625 
L 10.984375 69.390625 
L 28.421875 72.90625 
L 38.28125 72.90625 
L 38.28125 8.296875 
L 54.390625 8.296875 
L 54.390625 0 
L 12.40625 0 
z
" id="BitstreamVeraSans-Roman-31"/>
       <path d="M 4.890625 31.390625 
L 31.203125 31.390625 
L 31.203125 23.390625 
L 4.890625 23.390625 
z
" id="BitstreamVeraSans-Roman-2d"/>
      </defs>
      <g transform="translate(10.0232754873 221.838420661)scale(0.1 -0.1)">
       <use xlink:href="#BitstreamVeraSans-Roman-2d"/>
       <use x="36.083984375" xlink:href="#BitstreamVeraSans-Roman-31"/>
      </g>
     </g>
    </g>
    <g id="xtick_2">
     <g id="line2d_3">
      <g>
       <use style="stroke:#000000;stroke-width:0.5;" x="112.623840248" xlink:href="#me67201a50c" y="210.239983161"/>
      </g>
     </g>
     <g id="text_2">
      <!-- -0.5 -->
      <defs>
       <path d="M 31.78125 66.40625 
Q 24.171875 66.40625 20.328125 58.90625 
Q 16.5 51.421875 16.5 36.375 
Q 16.5 21.390625 20.328125 13.890625 
Q 24.171875 6.390625 31.78125 6.390625 
Q 39.453125 6.390625 43.28125 13.890625 
Q 47.125 21.390625 47.125 36.375 
Q 47.125 51.421875 43.28125 58.90625 
Q 39.453125 66.40625 31.78125 66.40625 
M 31.78125 74.21875 
Q 44.046875 74.21875 50.515625 64.515625 
Q 56.984375 54.828125 56.984375 36.375 
Q 56.984375 17.96875 50.515625 8.265625 
Q 44.046875 -1.421875 31.78125 -1.421875 
Q 19.53125 -1.421875 13.0625 8.265625 
Q 6.59375 17.96875 6.59375 36.375 
Q 6.59375 54.828125 13.0625 64.515625 
Q 19.53125 74.21875 31.78125 74.21875 
" id="BitstreamVeraSans-Roman-30"/>
       <path d="M 10.6875 12.40625 
L 21 12.40625 
L 21 0 
L 10.6875 0 
z
" id="BitstreamVeraSans-Roman-2e"/>
       <path d="M 10.796875 72.90625 
L 49.515625 72.90625 
L 49.515625 64.59375 
L 19.828125 64.59375 
L 19.828125 46.734375 
Q 21.96875 47.46875 24.109375 47.828125 
Q 26.265625 48.1875 28.421875 48.1875 
Q 40.625 48.1875 47.75 41.5 
Q 54.890625 34.8125 54.890625 23.390625 
Q 54.890625 11.625 47.5625 5.09375 
Q 40.234375 -1.421875 26.90625 -1.421875 
Q 22.3125 -1.421875 17.546875 -0.640625 
Q 12.796875 0.140625 7.71875 1.703125 
L 7.71875 11.625 
Q 12.109375 9.234375 16.796875 8.0625 
Q 21.484375 6.890625 26.703125 6.890625 
Q 35.15625 6.890625 40.078125 11.328125 
Q 45.015625 15.765625 45.015625 23.390625 
Q 45.015625 31 40.078125 35.4375 
Q 35.15625 39.890625 26.703125 39.890625 
Q 22.75 39.890625 18.8125 39.015625 
Q 14.890625 38.140625 10.796875 36.28125 
z
" id="BitstreamVeraSans-Roman-35"/>
      </defs>
      <g transform="translate(102.868371498 221.838420661)scale(0.1 -0.1)">
       <use xlink:href="#BitstreamVeraSans-Roman-2d"/>
       <use x="36.083984375" xlink:href="#BitstreamVeraSans-Roman-30"/>
       <use x="99.70703125" xlink:href="#BitstreamVeraSans-Roman-2e"/>
       <use x="131.494140625" xlink:href="#BitstreamVeraSans-Roman-35"/>
      </g>
     </g>
    </g>
    <g id="xtick_3">
     <g id="line2d_4">
      <g>
       <use style="stroke:#000000;stroke-width:0.5;" x="210.239248759" xlink:href="#me67201a50c" y="210.239983161"/>
      </g>
     </g>
    </g>
    <g id="xtick_4">
     <g id="line2d_5">
      <g>
       <use style="stroke:#000000;stroke-width:0.5;" x="307.85465727" xlink:href="#me67201a50c" y="210.239983161"/>
      </g>
     </g>
     <g id="text_3">
      <!-- 0.5 -->
      <g transform="translate(299.90309477 221.838420661)scale(0.1 -0.1)">
       <use xlink:href="#BitstreamVeraSans-Roman-30"/>
       <use x="63.623046875" xlink:href="#BitstreamVeraSans-Roman-2e"/>
       <use x="95.41015625" xlink:href="#BitstreamVeraSans-Roman-35"/>
      </g>
     </g>
    </g>
    <g id="xtick_5">
     <g id="line2d_6">
      <g>
       <use style="stroke:#000000;stroke-width:0.5;" x="405.470065781" xlink:href="#me67201a50c" y="210.239983161"/>
      </g>
     </g>
     <g id="text_4">
      <!-- 1 -->
      <g transform="translate(402.288815781 221.838420661)scale(0.1 -0.1)">
       <use xlink:href="#BitstreamVeraSans-Roman-31"/>
      </g>
     </g>
    </g>
    <g id="xtick_6">
     <g id="line2d_7">
      <defs>
       <path d="M 0 0 
L 0 -2 
" id="m89d4962b80" style="stroke:#000000;stroke-width:0.5;"/>
      </defs>
      <g>
       <use style="stroke:#000000;stroke-width:0.5;" x="34.5315134395" xlink:href="#m89d4962b80" y="210.239983161"/>
      </g>
     </g>
    </g>
    <g id="xtick_7">
     <g id="line2d_8">
      <g>
       <use style="stroke:#000000;stroke-width:0.5;" x="54.0545951416" xlink:href="#m89d4962b80" y="210.239983161"/>
      </g>
     </g>
    </g>
    <g id="xtick_8">
     <g id="line2d_9">
      <g>
       <use style="stroke:#000000;stroke-width:0.5;" x="73.5776768438" xlink:href="#m89d4962b80" y="210.239983161"/>
      </g>
     </g>
    </g>
    <g id="xtick_9">
     <g id="line2d_10">
      <g>
       <use style="stroke:#000000;stroke-width:0.5;" x="93.100758546" xlink:href="#m89d4962b80" y="210.239983161"/>
      </g>
     </g>
    </g>
    <g id="xtick_10">
     <g id="line2d_11">
      <g>
       <use style="stroke:#000000;stroke-width:0.5;" x="112.623840248" xlink:href="#m89d4962b80" y="210.239983161"/>
      </g>
     </g>
    </g>
    <g id="xtick_11">
     <g id="line2d_12">
      <g>
       <use style="stroke:#000000;stroke-width:0.5;" x="132.14692195" xlink:href="#m89d4962b80" y="210.239983161"/>
      </g>
     </g>
    </g>
    <g id="xtick_12">
     <g id="line2d_13">
      <g>
       <use style="stroke:#000000;stroke-width:0.5;" x="151.670003652" xlink:href="#m89d4962b80" y="210.239983161"/>
      </g>
     </g>
    </g>
    <g id="xtick_13">
     <g id="line2d_14">
      <g>
       <use style="stroke:#000000;stroke-width:0.5;" x="171.193085355" xlink:href="#m89d4962b80" y="210.239983161"/>
      </g>
     </g>
    </g>
    <g id="xtick_14">
     <g id="line2d_15">
      <g>
       <use style="stroke:#000000;stroke-width:0.5;" x="190.716167057" xlink:href="#m89d4962b80" y="210.239983161"/>
      </g>
     </g>
    </g>
    <g id="xtick_15">
     <g id="line2d_16">
      <g>
       <use style="stroke:#000000;stroke-width:0.5;" x="210.239248759" xlink:href="#m89d4962b80" y="210.239983161"/>
      </g>
     </g>
    </g>
    <g id="xtick_16">
     <g id="line2d_17">
      <g>
       <use style="stroke:#000000;stroke-width:0.5;" x="229.762330461" xlink:href="#m89d4962b80" y="210.239983161"/>
      </g>
     </g>
    </g>
    <g id="xtick_17">
     <g id="line2d_18">
      <g>
       <use style="stroke:#000000;stroke-width:0.5;" x="249.285412163" xlink:href="#m89d4962b80" y="210.239983161"/>
      </g>
     </g>
    </g>
    <g id="xtick_18">
     <g id="line2d_19">
      <g>
       <use style="stroke:#000000;stroke-width:0.5;" x="268.808493865" xlink:href="#m89d4962b80" y="210.239983161"/>
      </g>
     </g>
    </g>
    <g id="xtick_19">
     <g id="line2d_20">
      <g>
       <use style="stroke:#000000;stroke-width:0.5;" x="288.331575568" xlink:href="#m89d4962b80" y="210.239983161"/>
      </g>
     </g>
    </g>
    <g id="xtick_20">
     <g id="line2d_21">
      <g>
       <use style="stroke:#000000;stroke-width:0.5;" x="307.85465727" xlink:href="#m89d4962b80" y="210.239983161"/>
      </g>
     </g>
    </g>
    <g id="xtick_21">
     <g id="line2d_22">
      <g>
       <use style="stroke:#000000;stroke-width:0.5;" x="327.377738972" xlink:href="#m89d4962b80" y="210.239983161"/>
      </g>
     </g>
    </g>
    <g id="xtick_22">
     <g id="line2d_23">
      <g>
       <use style="stroke:#000000;stroke-width:0.5;" x="346.900820674" xlink:href="#m89d4962b80" y="210.239983161"/>
      </g>
     </g>
    </g>
    <g id="xtick_23">
     <g id="line2d_24">
      <g>
       <use style="stroke:#000000;stroke-width:0.5;" x="366.423902376" xlink:href="#m89d4962b80" y="210.239983161"/>
      </g>
     </g>
    </g>
    <g id="xtick_24">
     <g id="line2d_25">
      <g>
       <use style="stroke:#000000;stroke-width:0.5;" x="385.946984078" xlink:href="#m89d4962b80" y="210.239983161"/>
      </g>
     </g>
    </g>
    <g id="xtick_25">
     <g id="line2d_26">
      <g>
       <use style="stroke:#000000;stroke-width:0.5;" x="405.470065781" xlink:href="#m89d4962b80" y="210.239983161"/>
      </g>
     </g>
    </g>
   </g>
   <g id="matplotlib.axis_2">
    <g id="ytick_1">
     <g id="line2d_27">
      <defs>
       <path d="M 0 0 
L 4 0 
" id="m6415f86974" style="stroke:#000000;stroke-width:0.5;"/>
      </defs>
      <g>
       <use style="stroke:#000000;stroke-width:0.5;" x="210.239248759" xlink:href="#m6415f86974" y="405.470800182"/>
      </g>
     </g>
     <g id="text_5">
      <!-- -1 -->
      <g transform="translate(196.268936259 408.230175182)scale(0.1 -0.1)">
       <use xlink:href="#BitstreamVeraSans-Roman-2d"/>
       <use x="36.083984375" xlink:href="#BitstreamVeraSans-Roman-31"/>
      </g>
     </g>
    </g>
    <g id="ytick_2">
     <g id="line2d_28">
      <g>
       <use style="stroke:#000000;stroke-width:0.5;" x="210.239248759" xlink:href="#m6415f86974" y="307.855391671"/>
      </g>
     </g>
     <g id="text_6">
      <!-- -0.5 -->
      <g transform="translate(186.728311259 310.614766671)scale(0.1 -0.1)">
       <use xlink:href="#BitstreamVeraSans-Roman-2d"/>
       <use x="36.083984375" xlink:href="#BitstreamVeraSans-Roman-30"/>
       <use x="99.70703125" xlink:href="#BitstreamVeraSans-Roman-2e"/>
       <use x="131.494140625" xlink:href="#BitstreamVeraSans-Roman-35"/>
      </g>
     </g>
    </g>
    <g id="ytick_3">
     <g id="line2d_29">
      <g>
       <use style="stroke:#000000;stroke-width:0.5;" x="210.239248759" xlink:href="#m6415f86974" y="210.239983161"/>
      </g>
     </g>
    </g>
    <g id="ytick_4">
     <g id="line2d_30">
      <g>
       <use style="stroke:#000000;stroke-width:0.5;" x="210.239248759" xlink:href="#m6415f86974" y="112.62457465"/>
      </g>
     </g>
     <g id="text_7">
      <!-- 0.5 -->
      <g transform="translate(190.336123759 115.38394965)scale(0.1 -0.1)">
       <use xlink:href="#BitstreamVeraSans-Roman-30"/>
       <use x="63.623046875" xlink:href="#BitstreamVeraSans-Roman-2e"/>
       <use x="95.41015625" xlink:href="#BitstreamVeraSans-Roman-35"/>
      </g>
     </g>
    </g>
    <g id="ytick_5">
     <g id="line2d_31">
      <g>
       <use style="stroke:#000000;stroke-width:0.5;" x="210.239248759" xlink:href="#m6415f86974" y="15.009166139"/>
      </g>
     </g>
     <g id="text_8">
      <!-- 1 -->
      <g transform="translate(199.876748759 17.768541139)scale(0.1 -0.1)">
       <use xlink:href="#BitstreamVeraSans-Roman-31"/>
      </g>
     </g>
    </g>
    <g id="ytick_6">
     <g id="line2d_32">
      <defs>
       <path d="M 0 0 
L 2 0 
" id="mf67cfb93f8" style="stroke:#000000;stroke-width:0.5;"/>
      </defs>
      <g>
       <use style="stroke:#000000;stroke-width:0.5;" x="210.239248759" xlink:href="#mf67cfb93f8" y="385.94771848"/>
      </g>
     </g>
    </g>
    <g id="ytick_7">
     <g id="line2d_33">
      <g>
       <use style="stroke:#000000;stroke-width:0.5;" x="210.239248759" xlink:href="#mf67cfb93f8" y="366.424636778"/>
      </g>
     </g>
    </g>
    <g id="ytick_8">
     <g id="line2d_34">
      <g>
       <use style="stroke:#000000;stroke-width:0.5;" x="210.239248759" xlink:href="#mf67cfb93f8" y="346.901555076"/>
      </g>
     </g>
    </g>
    <g id="ytick_9">
     <g id="line2d_35">
      <g>
       <use style="stroke:#000000;stroke-width:0.5;" x="210.239248759" xlink:href="#mf67cfb93f8" y="327.378473374"/>
      </g>
     </g>
    </g>
    <g id="ytick_10">
     <g id="line2d_36">
      <g>
       <use style="stroke:#000000;stroke-width:0.5;" x="210.239248759" xlink:href="#mf67cfb93f8" y="307.855391671"/>
      </g>
     </g>
    </g>
    <g id="ytick_11">
     <g id="line2d_37">
      <g>
       <use style="stroke:#000000;stroke-width:0.5;" x="210.239248759" xlink:href="#mf67cfb93f8" y="288.332309969"/>
      </g>
     </g>
    </g>
    <g id="ytick_12">
     <g id="line2d_38">
      <g>
       <use style="stroke:#000000;stroke-width:0.5;" x="210.239248759" xlink:href="#mf67cfb93f8" y="268.809228267"/>
      </g>
     </g>
    </g>
    <g id="ytick_13">
     <g id="line2d_39">
      <g>
       <use style="stroke:#000000;stroke-width:0.5;" x="210.239248759" xlink:href="#mf67cfb93f8" y="249.286146565"/>
      </g>
     </g>
    </g>
    <g id="ytick_14">
     <g id="line2d_40">
      <g>
       <use style="stroke:#000000;stroke-width:0.5;" x="210.239248759" xlink:href="#mf67cfb93f8" y="229.763064863"/>
      </g>
     </g>
    </g>
    <g id="ytick_15">
     <g id="line2d_41">
      <g>
       <use style="stroke:#000000;stroke-width:0.5;" x="210.239248759" xlink:href="#mf67cfb93f8" y="210.239983161"/>
      </g>
     </g>
    </g>
    <g id="ytick_16">
     <g id="line2d_42">
      <g>
       <use style="stroke:#000000;stroke-width:0.5;" x="210.239248759" xlink:href="#mf67cfb93f8" y="190.716901459"/>
      </g>
     </g>
    </g>
    <g id="ytick_17">
     <g id="line2d_43">
      <g>
       <use style="stroke:#000000;stroke-width:0.5;" x="210.239248759" xlink:href="#mf67cfb93f8" y="171.193819756"/>
      </g>
     </g>
    </g>
    <g id="ytick_18">
     <g id="line2d_44">
      <g>
       <use style="stroke:#000000;stroke-width:0.5;" x="210.239248759" xlink:href="#mf67cfb93f8" y="151.670738054"/>
      </g>
     </g>
    </g>
    <g id="ytick_19">
     <g id="line2d_45">
      <g>
       <use style="stroke:#000000;stroke-width:0.5;" x="210.239248759" xlink:href="#mf67cfb93f8" y="132.147656352"/>
      </g>
     </g>
    </g>
    <g id="ytick_20">
     <g id="line2d_46">
      <g>
       <use style="stroke:#000000;stroke-width:0.5;" x="210.239248759" xlink:href="#mf67cfb93f8" y="112.62457465"/>
      </g>
     </g>
    </g>
    <g id="ytick_21">
     <g id="line2d_47">
      <g>
       <use style="stroke:#000000;stroke-width:0.5;" x="210.239248759" xlink:href="#mf67cfb93f8" y="93.1014929477"/>
      </g>
     </g>
    </g>
    <g id="ytick_22">
     <g id="line2d_48">
      <g>
       <use style="stroke:#000000;stroke-width:0.5;" x="210.239248759" xlink:href="#mf67cfb93f8" y="73.5784112455"/>
      </g>
     </g>
    </g>
    <g id="ytick_23">
     <g id="line2d_49">
      <g>
       <use style="stroke:#000000;stroke-width:0.5;" x="210.239248759" xlink:href="#mf67cfb93f8" y="54.0553295434"/>
      </g>
     </g>
    </g>
    <g id="ytick_24">
     <g id="line2d_50">
      <g>
       <use style="stroke:#000000;stroke-width:0.5;" x="210.239248759" xlink:href="#mf67cfb93f8" y="34.5322478412"/>
      </g>
     </g>
    </g>
    <g id="ytick_25">
     <g id="line2d_51">
      <g>
       <use style="stroke:#000000;stroke-width:0.5;" x="210.239248759" xlink:href="#mf67cfb93f8" y="15.009166139"/>
      </g>
     </g>
    </g>
   </g>
  </g>
 </g>
 <defs>
  <clipPath id="peb970837b1">
   <rect height="406.08" width="406.079128184" x="7.2" y="7.2"/>
  </clipPath>
 </defs>
</svg>
