<?xml version="1.0" encoding="utf-8" standalone="no"?>
<!DOCTYPE svg PUBLIC "-//W3C//DTD SVG 1.1//EN"
  "http://www.w3.org/Graphics/SVG/1.1/DTD/svg11.dtd">
<!-- Created with matplotlib (http://matplotlib.org/) -->
<svg height="420pt" version="1.1" viewBox="0 0 564 420" width="564pt" xmlns="http://www.w3.org/2000/svg" xmlns:xlink="http://www.w3.org/1999/xlink">
 <defs>
  <style type="text/css">
*{stroke-linecap:butt;stroke-linejoin:round;stroke-miterlimit:100000;}
  </style>
 </defs>
 <g id="figure_1">
  <g id="patch_1">
   <path d="M 0 420.118641 
L 564.48 420.118641 
L 564.48 0 
L 0 0 
z
" style="fill:#ffffff;"/>
  </g>
  <g id="axes_1">
   <g id="patch_2">
    <path d="M 7.2 406.918171 
L 557.28 406.918171 
L 557.28 7.2 
L 7.2 7.2 
z
" style="fill:#ffffff;"/>
   </g>
   <g id="line2d_1">
    <path clip-path="url(#pe4142cec72)" d="M 17.778462 14.886888 
L 25.753383 37.717988 
L 33.59309 59.480648 
L 42.237043 82.692841 
L 50.14716 103.214806 
L 58.953847 125.253786 
L 65.041522 139.990078 
L 73.039415 158.731294 
L 79.128395 172.52804 
L 87.814346 191.503886 
L 95.131684 206.846249 
L 100.255632 217.239373 
L 106.945992 230.375344 
L 112.181161 240.311072 
L 118.689022 252.242242 
L 125.204736 263.721474 
L 130.600051 272.873653 
L 137.96425 284.849313 
L 143.484178 293.434984 
L 149.709144 302.715485 
L 155.98163 311.636039 
L 162.288021 320.16887 
L 165.877621 324.830546 
L 171.287608 331.588727 
L 176.941378 338.30769 
L 182.575615 344.65393 
L 186.878883 349.265999 
L 192.197737 354.68528 
L 198.562165 360.761247 
L 204.167148 365.743506 
L 210.888476 371.262788 
L 216.47843 375.474834 
L 220.542714 378.321653 
L 224.811297 381.116102 
L 230.267676 384.396541 
L 236.551341 387.768948 
L 241.758616 390.234833 
L 246.799333 392.337963 
L 251.835429 394.160282 
L 258.075625 396.031609 
L 263.955049 397.403159 
L 266.953072 397.956275 
L 273.053043 398.776696 
L 277.791036 399.131742 
L 283.536148 399.231284 
L 289.799567 398.926465 
L 293.895843 398.493907 
L 298.383614 397.808303 
L 302.464709 396.992649 
L 306.742444 395.941193 
L 311.58943 394.506766 
L 315.973966 392.986763 
L 320.92557 391.016121 
L 325.889276 388.770194 
L 329.948938 386.73201 
L 335.344687 383.742659 
L 339.135816 381.450899 
L 344.040472 378.251623 
L 348.74686 374.933098 
L 353.073356 371.667671 
L 358.597241 367.199491 
L 364.176287 362.346281 
L 370.281583 356.643259 
L 376.551968 350.359575 
L 382.100045 344.439393 
L 388.202866 337.536513 
L 394.749 329.677168 
L 401.707921 320.805759 
L 407.223044 313.396872 
L 413.002443 305.274244 
L 418.968603 296.504032 
L 425.703866 286.13312 
L 431.928824 276.104613 
L 440.229177 262.070049 
L 447.654687 248.872982 
L 454.202816 236.732406 
L 462.325014 221.018606 
L 469.264087 207.019427 
L 476.123672 192.660447 
L 484.041811 175.442586 
L 491.27385 159.114518 
L 498.548912 142.109319 
L 506.888729 121.899645 
L 513.814396 104.535841 
L 522.048642 83.205208 
L 530.288104 61.115138 
L 538.817186 37.462628 
L 546.701538 14.886888 
L 546.701538 14.886888 
" style="fill:none;stroke:#0000ff;stroke-linecap:square;"/>
   </g>
   <g id="patch_3">
    <path d="M 7.2 399.240516 
L 557.28 399.240516 
" style="fill:none;stroke:#000000;stroke-linecap:square;stroke-linejoin:miter;stroke-width:0.8;"/>
   </g>
   <g id="patch_4">
    <path d="M 282.24 406.918171 
L 282.24 7.2 
" style="fill:none;stroke:#000000;stroke-linecap:square;stroke-linejoin:miter;stroke-width:0.8;"/>
   </g>
   <g id="matplotlib.axis_1">
    <g id="xtick_1">
     <g id="line2d_2">
      <defs>
       <path d="M 0 0 
L 0 -4 
" id="m0d79af60c5" style="stroke:#000000;stroke-width:0.5;"/>
      </defs>
      <g>
       <use style="stroke:#000000;stroke-width:0.5;" x="17.7784615385" xlink:href="#m0d79af60c5" y="399.240515917"/>
      </g>
     </g>
     <g id="text_1">
      <!-- -2 -->
      <defs>
       <path d="M 19.1875 8.296875 
L 53.609375 8.296875 
L 53.609375 0 
L 7.328125 0 
L 7.328125 8.296875 
Q 12.9375 14.109375 22.625 23.890625 
Q 32.328125 33.6875 34.8125 36.53125 
Q 39.546875 41.84375 41.421875 45.53125 
Q 43.3125 49.21875 43.3125 52.78125 
Q 43.3125 58.59375 39.234375 62.25 
Q 35.15625 65.921875 28.609375 65.921875 
Q 23.96875 65.921875 18.8125 64.3125 
Q 13.671875 62.703125 7.8125 59.421875 
L 7.8125 69.390625 
Q 13.765625 71.78125 18.9375 73 
Q 24.125 74.21875 28.421875 74.21875 
Q 39.75 74.21875 46.484375 68.546875 
Q 53.21875 62.890625 53.21875 53.421875 
Q 53.21875 48.921875 51.53125 44.890625 
Q 49.859375 40.875 45.40625 35.40625 
Q 44.1875 33.984375 37.640625 27.21875 
Q 31.109375 20.453125 19.1875 8.296875 
" id="BitstreamVeraSans-Roman-32"/>
       <path d="M 4.890625 31.390625 
L 31.203125 31.390625 
L 31.203125 23.390625 
L 4.890625 23.390625 
z
" id="BitstreamVeraSans-Roman-2d"/>
      </defs>
      <g transform="translate(12.7933052885 410.838953417)scale(0.1 -0.1)">
       <use xlink:href="#BitstreamVeraSans-Roman-2d"/>
       <use x="36.083984375" xlink:href="#BitstreamVeraSans-Roman-32"/>
      </g>
     </g>
    </g>
    <g id="xtick_2">
     <g id="line2d_3">
      <g>
       <use style="stroke:#000000;stroke-width:0.5;" x="150.009230769" xlink:href="#m0d79af60c5" y="399.240515917"/>
      </g>
     </g>
     <g id="text_2">
      <!-- -1 -->
      <defs>
       <path d="M 12.40625 8.296875 
L 28.515625 8.296875 
L 28.515625 63.921875 
L 10.984375 60.40625 
L 10.984375 69.390625 
L 28.421875 72.90625 
L 38.28125 72.90625 
L 38.28125 8.296875 
L 54.390625 8.296875 
L 54.390625 0 
L 12.40625 0 
z
" id="BitstreamVeraSans-Roman-31"/>
      </defs>
      <g transform="translate(145.024074519 410.838953417)scale(0.1 -0.1)">
       <use xlink:href="#BitstreamVeraSans-Roman-2d"/>
       <use x="36.083984375" xlink:href="#BitstreamVeraSans-Roman-31"/>
      </g>
     </g>
    </g>
    <g id="xtick_3">
     <g id="line2d_4">
      <g>
       <use style="stroke:#000000;stroke-width:0.5;" x="282.24" xlink:href="#m0d79af60c5" y="399.240515917"/>
      </g>
     </g>
    </g>
    <g id="xtick_4">
     <g id="line2d_5">
      <g>
       <use style="stroke:#000000;stroke-width:0.5;" x="414.470769231" xlink:href="#m0d79af60c5" y="399.240515917"/>
      </g>
     </g>
     <g id="text_3">
      <!-- 1 -->
      <g transform="translate(411.289519231 410.838953417)scale(0.1 -0.1)">
       <use xlink:href="#BitstreamVeraSans-Roman-31"/>
      </g>
     </g>
    </g>
    <g id="xtick_5">
     <g id="line2d_6">
      <g>
       <use style="stroke:#000000;stroke-width:0.5;" x="546.701538462" xlink:href="#m0d79af60c5" y="399.240515917"/>
      </g>
     </g>
     <g id="text_4">
      <!-- 2 -->
      <g transform="translate(543.520288462 410.838953417)scale(0.1 -0.1)">
       <use xlink:href="#BitstreamVeraSans-Roman-32"/>
      </g>
     </g>
    </g>
    <g id="xtick_6">
     <g id="line2d_7">
      <defs>
       <path d="M 0 0 
L 0 -2 
" id="m314ad183b0" style="stroke:#000000;stroke-width:0.5;"/>
      </defs>
      <g>
       <use style="stroke:#000000;stroke-width:0.5;" x="44.2246153846" xlink:href="#m314ad183b0" y="399.240515917"/>
      </g>
     </g>
    </g>
    <g id="xtick_7">
     <g id="line2d_8">
      <g>
       <use style="stroke:#000000;stroke-width:0.5;" x="70.6707692308" xlink:href="#m314ad183b0" y="399.240515917"/>
      </g>
     </g>
    </g>
    <g id="xtick_8">
     <g id="line2d_9">
      <g>
       <use style="stroke:#000000;stroke-width:0.5;" x="97.1169230769" xlink:href="#m314ad183b0" y="399.240515917"/>
      </g>
     </g>
    </g>
    <g id="xtick_9">
     <g id="line2d_10">
      <g>
       <use style="stroke:#000000;stroke-width:0.5;" x="123.563076923" xlink:href="#m314ad183b0" y="399.240515917"/>
      </g>
     </g>
    </g>
    <g id="xtick_10">
     <g id="line2d_11">
      <g>
       <use style="stroke:#000000;stroke-width:0.5;" x="150.009230769" xlink:href="#m314ad183b0" y="399.240515917"/>
      </g>
     </g>
    </g>
    <g id="xtick_11">
     <g id="line2d_12">
      <g>
       <use style="stroke:#000000;stroke-width:0.5;" x="176.455384615" xlink:href="#m314ad183b0" y="399.240515917"/>
      </g>
     </g>
    </g>
    <g id="xtick_12">
     <g id="line2d_13">
      <g>
       <use style="stroke:#000000;stroke-width:0.5;" x="202.901538462" xlink:href="#m314ad183b0" y="399.240515917"/>
      </g>
     </g>
    </g>
    <g id="xtick_13">
     <g id="line2d_14">
      <g>
       <use style="stroke:#000000;stroke-width:0.5;" x="229.347692308" xlink:href="#m314ad183b0" y="399.240515917"/>
      </g>
     </g>
    </g>
    <g id="xtick_14">
     <g id="line2d_15">
      <g>
       <use style="stroke:#000000;stroke-width:0.5;" x="255.793846154" xlink:href="#m314ad183b0" y="399.240515917"/>
      </g>
     </g>
    </g>
    <g id="xtick_15">
     <g id="line2d_16">
      <g>
       <use style="stroke:#000000;stroke-width:0.5;" x="282.24" xlink:href="#m314ad183b0" y="399.240515917"/>
      </g>
     </g>
    </g>
    <g id="xtick_16">
     <g id="line2d_17">
      <g>
       <use style="stroke:#000000;stroke-width:0.5;" x="308.686153846" xlink:href="#m314ad183b0" y="399.240515917"/>
      </g>
     </g>
    </g>
    <g id="xtick_17">
     <g id="line2d_18">
      <g>
       <use style="stroke:#000000;stroke-width:0.5;" x="335.132307692" xlink:href="#m314ad183b0" y="399.240515917"/>
      </g>
     </g>
    </g>
    <g id="xtick_18">
     <g id="line2d_19">
      <g>
       <use style="stroke:#000000;stroke-width:0.5;" x="361.578461538" xlink:href="#m314ad183b0" y="399.240515917"/>
      </g>
     </g>
    </g>
    <g id="xtick_19">
     <g id="line2d_20">
      <g>
       <use style="stroke:#000000;stroke-width:0.5;" x="388.024615385" xlink:href="#m314ad183b0" y="399.240515917"/>
      </g>
     </g>
    </g>
    <g id="xtick_20">
     <g id="line2d_21">
      <g>
       <use style="stroke:#000000;stroke-width:0.5;" x="414.470769231" xlink:href="#m314ad183b0" y="399.240515917"/>
      </g>
     </g>
    </g>
    <g id="xtick_21">
     <g id="line2d_22">
      <g>
       <use style="stroke:#000000;stroke-width:0.5;" x="440.916923077" xlink:href="#m314ad183b0" y="399.240515917"/>
      </g>
     </g>
    </g>
    <g id="xtick_22">
     <g id="line2d_23">
      <g>
       <use style="stroke:#000000;stroke-width:0.5;" x="467.363076923" xlink:href="#m314ad183b0" y="399.240515917"/>
      </g>
     </g>
    </g>
    <g id="xtick_23">
     <g id="line2d_24">
      <g>
       <use style="stroke:#000000;stroke-width:0.5;" x="493.809230769" xlink:href="#m314ad183b0" y="399.240515917"/>
      </g>
     </g>
    </g>
    <g id="xtick_24">
     <g id="line2d_25">
      <g>
       <use style="stroke:#000000;stroke-width:0.5;" x="520.255384615" xlink:href="#m314ad183b0" y="399.240515917"/>
      </g>
     </g>
    </g>
    <g id="xtick_25">
     <g id="line2d_26">
      <g>
       <use style="stroke:#000000;stroke-width:0.5;" x="546.701538462" xlink:href="#m314ad183b0" y="399.240515917"/>
      </g>
     </g>
    </g>
   </g>
   <g id="matplotlib.axis_2">
    <g id="ytick_1">
     <g id="line2d_27">
      <defs>
       <path d="M 0 0 
L 4 0 
" id="m0fd4c1a6e2" style="stroke:#000000;stroke-width:0.5;"/>
      </defs>
      <g>
       <use style="stroke:#000000;stroke-width:0.5;" x="282.24" xlink:href="#m0fd4c1a6e2" y="399.240515917"/>
      </g>
     </g>
    </g>
    <g id="ytick_2">
     <g id="line2d_28">
      <g>
       <use style="stroke:#000000;stroke-width:0.5;" x="282.24" xlink:href="#m0fd4c1a6e2" y="303.152108916"/>
      </g>
     </g>
     <g id="text_5">
      <!-- 1 -->
      <g transform="translate(271.8775 305.911483916)scale(0.1 -0.1)">
       <use xlink:href="#BitstreamVeraSans-Roman-31"/>
      </g>
     </g>
    </g>
    <g id="ytick_3">
     <g id="line2d_29">
      <g>
       <use style="stroke:#000000;stroke-width:0.5;" x="282.24" xlink:href="#m0fd4c1a6e2" y="207.063701915"/>
      </g>
     </g>
     <g id="text_6">
      <!-- 2 -->
      <g transform="translate(271.8775 209.823076915)scale(0.1 -0.1)">
       <use xlink:href="#BitstreamVeraSans-Roman-32"/>
      </g>
     </g>
    </g>
    <g id="ytick_4">
     <g id="line2d_30">
      <g>
       <use style="stroke:#000000;stroke-width:0.5;" x="282.24" xlink:href="#m0fd4c1a6e2" y="110.975294913"/>
      </g>
     </g>
     <g id="text_7">
      <!-- 3 -->
      <defs>
       <path d="M 40.578125 39.3125 
Q 47.65625 37.796875 51.625 33 
Q 55.609375 28.21875 55.609375 21.1875 
Q 55.609375 10.40625 48.1875 4.484375 
Q 40.765625 -1.421875 27.09375 -1.421875 
Q 22.515625 -1.421875 17.65625 -0.515625 
Q 12.796875 0.390625 7.625 2.203125 
L 7.625 11.71875 
Q 11.71875 9.328125 16.59375 8.109375 
Q 21.484375 6.890625 26.8125 6.890625 
Q 36.078125 6.890625 40.9375 10.546875 
Q 45.796875 14.203125 45.796875 21.1875 
Q 45.796875 27.640625 41.28125 31.265625 
Q 36.765625 34.90625 28.71875 34.90625 
L 20.21875 34.90625 
L 20.21875 43.015625 
L 29.109375 43.015625 
Q 36.375 43.015625 40.234375 45.921875 
Q 44.09375 48.828125 44.09375 54.296875 
Q 44.09375 59.90625 40.109375 62.90625 
Q 36.140625 65.921875 28.71875 65.921875 
Q 24.65625 65.921875 20.015625 65.03125 
Q 15.375 64.15625 9.8125 62.3125 
L 9.8125 71.09375 
Q 15.4375 72.65625 20.34375 73.4375 
Q 25.25 74.21875 29.59375 74.21875 
Q 40.828125 74.21875 47.359375 69.109375 
Q 53.90625 64.015625 53.90625 55.328125 
Q 53.90625 49.265625 50.4375 45.09375 
Q 46.96875 40.921875 40.578125 39.3125 
" id="BitstreamVeraSans-Roman-33"/>
      </defs>
      <g transform="translate(271.8775 113.734669913)scale(0.1 -0.1)">
       <use xlink:href="#BitstreamVeraSans-Roman-33"/>
      </g>
     </g>
    </g>
    <g id="ytick_5">
     <g id="line2d_31">
      <g>
       <use style="stroke:#000000;stroke-width:0.5;" x="282.24" xlink:href="#m0fd4c1a6e2" y="14.886887912"/>
      </g>
     </g>
     <g id="text_8">
      <!-- 4 -->
      <defs>
       <path d="M 37.796875 64.3125 
L 12.890625 25.390625 
L 37.796875 25.390625 
z
M 35.203125 72.90625 
L 47.609375 72.90625 
L 47.609375 25.390625 
L 58.015625 25.390625 
L 58.015625 17.1875 
L 47.609375 17.1875 
L 47.609375 0 
L 37.796875 0 
L 37.796875 17.1875 
L 4.890625 17.1875 
L 4.890625 26.703125 
z
" id="BitstreamVeraSans-Roman-34"/>
      </defs>
      <g transform="translate(271.8775 17.646262912)scale(0.1 -0.1)">
       <use xlink:href="#BitstreamVeraSans-Roman-34"/>
      </g>
     </g>
    </g>
    <g id="ytick_6">
     <g id="line2d_32">
      <defs>
       <path d="M 0 0 
L 2 0 
" id="m2f9d59b7fc" style="stroke:#000000;stroke-width:0.5;"/>
      </defs>
      <g>
       <use style="stroke:#000000;stroke-width:0.5;" x="282.24" xlink:href="#m2f9d59b7fc" y="380.022834517"/>
      </g>
     </g>
    </g>
    <g id="ytick_7">
     <g id="line2d_33">
      <g>
       <use style="stroke:#000000;stroke-width:0.5;" x="282.24" xlink:href="#m2f9d59b7fc" y="360.805153117"/>
      </g>
     </g>
    </g>
    <g id="ytick_8">
     <g id="line2d_34">
      <g>
       <use style="stroke:#000000;stroke-width:0.5;" x="282.24" xlink:href="#m2f9d59b7fc" y="341.587471716"/>
      </g>
     </g>
    </g>
    <g id="ytick_9">
     <g id="line2d_35">
      <g>
       <use style="stroke:#000000;stroke-width:0.5;" x="282.24" xlink:href="#m2f9d59b7fc" y="322.369790316"/>
      </g>
     </g>
    </g>
    <g id="ytick_10">
     <g id="line2d_36">
      <g>
       <use style="stroke:#000000;stroke-width:0.5;" x="282.24" xlink:href="#m2f9d59b7fc" y="303.152108916"/>
      </g>
     </g>
    </g>
    <g id="ytick_11">
     <g id="line2d_37">
      <g>
       <use style="stroke:#000000;stroke-width:0.5;" x="282.24" xlink:href="#m2f9d59b7fc" y="283.934427516"/>
      </g>
     </g>
    </g>
    <g id="ytick_12">
     <g id="line2d_38">
      <g>
       <use style="stroke:#000000;stroke-width:0.5;" x="282.24" xlink:href="#m2f9d59b7fc" y="264.716746115"/>
      </g>
     </g>
    </g>
    <g id="ytick_13">
     <g id="line2d_39">
      <g>
       <use style="stroke:#000000;stroke-width:0.5;" x="282.24" xlink:href="#m2f9d59b7fc" y="245.499064715"/>
      </g>
     </g>
    </g>
    <g id="ytick_14">
     <g id="line2d_40">
      <g>
       <use style="stroke:#000000;stroke-width:0.5;" x="282.24" xlink:href="#m2f9d59b7fc" y="226.281383315"/>
      </g>
     </g>
    </g>
    <g id="ytick_15">
     <g id="line2d_41">
      <g>
       <use style="stroke:#000000;stroke-width:0.5;" x="282.24" xlink:href="#m2f9d59b7fc" y="207.063701915"/>
      </g>
     </g>
    </g>
    <g id="ytick_16">
     <g id="line2d_42">
      <g>
       <use style="stroke:#000000;stroke-width:0.5;" x="282.24" xlink:href="#m2f9d59b7fc" y="187.846020514"/>
      </g>
     </g>
    </g>
    <g id="ytick_17">
     <g id="line2d_43">
      <g>
       <use style="stroke:#000000;stroke-width:0.5;" x="282.24" xlink:href="#m2f9d59b7fc" y="168.628339114"/>
      </g>
     </g>
    </g>
    <g id="ytick_18">
     <g id="line2d_44">
      <g>
       <use style="stroke:#000000;stroke-width:0.5;" x="282.24" xlink:href="#m2f9d59b7fc" y="149.410657714"/>
      </g>
     </g>
    </g>
    <g id="ytick_19">
     <g id="line2d_45">
      <g>
       <use style="stroke:#000000;stroke-width:0.5;" x="282.24" xlink:href="#m2f9d59b7fc" y="130.192976314"/>
      </g>
     </g>
    </g>
    <g id="ytick_20">
     <g id="line2d_46">
      <g>
       <use style="stroke:#000000;stroke-width:0.5;" x="282.24" xlink:href="#m2f9d59b7fc" y="110.975294913"/>
      </g>
     </g>
    </g>
    <g id="ytick_21">
     <g id="line2d_47">
      <g>
       <use style="stroke:#000000;stroke-width:0.5;" x="282.24" xlink:href="#m2f9d59b7fc" y="91.757613513"/>
      </g>
     </g>
    </g>
    <g id="ytick_22">
     <g id="line2d_48">
      <g>
       <use style="stroke:#000000;stroke-width:0.5;" x="282.24" xlink:href="#m2f9d59b7fc" y="72.5399321128"/>
      </g>
     </g>
    </g>
    <g id="ytick_23">
     <g id="line2d_49">
      <g>
       <use style="stroke:#000000;stroke-width:0.5;" x="282.24" xlink:href="#m2f9d59b7fc" y="53.3222507125"/>
      </g>
     </g>
    </g>
    <g id="ytick_24">
     <g id="line2d_50">
      <g>
       <use style="stroke:#000000;stroke-width:0.5;" x="282.24" xlink:href="#m2f9d59b7fc" y="34.1045693123"/>
      </g>
     </g>
    </g>
    <g id="ytick_25">
     <g id="line2d_51">
      <g>
       <use style="stroke:#000000;stroke-width:0.5;" x="282.24" xlink:href="#m2f9d59b7fc" y="14.886887912"/>
      </g>
     </g>
    </g>
   </g>
  </g>
 </g>
 <defs>
  <clipPath id="pe4142cec72">
   <rect height="399.718171424" width="550.08" x="7.2" y="7.2"/>
  </clipPath>
 </defs>
</svg>
