<?xml version="1.0" encoding="utf-8" standalone="no"?>
<!DOCTYPE svg PUBLIC "-//W3C//DTD SVG 1.1//EN"
  "http://www.w3.org/Graphics/SVG/1.1/DTD/svg11.dtd">
<!-- Created with matplotlib (http://matplotlib.org/) -->
<svg height="419pt" version="1.1" viewBox="0 0 564 419" width="564pt" xmlns="http://www.w3.org/2000/svg" xmlns:xlink="http://www.w3.org/1999/xlink">
 <defs>
  <style type="text/css">
*{stroke-linecap:butt;stroke-linejoin:round;stroke-miterlimit:100000;}
  </style>
 </defs>
 <g id="figure_1">
  <g id="patch_1">
   <path d="M 0 419.589585 
L 564.48 419.589585 
L 564.48 0 
L 0 0 
z
" style="fill:#ffffff;"/>
  </g>
  <g id="axes_1">
   <g id="patch_2">
    <path d="M 7.2 412.389585 
L 557.28 412.389585 
L 557.28 9.714538 
L 7.2 9.714538 
z
" style="fill:#ffffff;"/>
   </g>
   <g id="line2d_1">
    <path clip-path="url(#pc3ab2b460e)" d="M 17.778462 17.458289 
L 39.022082 18.440389 
L 57.04113 19.49832 
L 73.268951 20.692049 
L 83.280671 21.576813 
L 97.300861 23.062192 
L 108.337292 24.488806 
L 117.964801 25.971107 
L 126.672707 27.550985 
L 134.128456 29.126135 
L 140.080775 30.561375 
L 146.546298 32.33375 
L 153.032886 34.378278 
L 157.827154 36.092962 
L 163.788545 38.512367 
L 165.528144 39.286724 
L 170.974301 41.941196 
L 176.36446 44.964676 
L 179.567437 46.980855 
L 185.406211 51.157701 
L 189.812282 54.817831 
L 193.520964 58.304708 
L 196.548736 61.47129 
L 199.294621 64.626888 
L 201.504148 67.385894 
L 204.02724 70.804063 
L 207.661706 76.297562 
L 209.681359 79.680202 
L 211.508533 82.968987 
L 213.331001 86.486386 
L 215.68024 91.406331 
L 218.029479 96.811528 
L 221.661198 106.270976 
L 224.267997 114.022523 
L 226.333941 120.828191 
L 228.399885 128.296476 
L 230.015312 134.649618 
L 232.199138 144.037517 
L 234.406208 154.570504 
L 237.046996 168.74772 
L 239.687784 184.891815 
L 241.954618 200.538834 
L 243.999998 216.241764 
L 246.211834 235.069922 
L 248.301015 254.726417 
L 250.696922 279.541703 
L 253.737812 314.160717 
L 258.906011 374.758386 
L 260.451453 389.752613 
L 261.224174 395.816352 
L 261.996896 400.548382 
L 262.804628 403.708837 
L 263.208494 404.475921 
L 263.61236 404.627136 
L 264.016226 404.105965 
L 264.420093 402.856394 
L 265.025892 399.499689 
L 265.539191 395.159014 
L 266.161922 387.941109 
L 266.819795 377.945089 
L 267.859317 357.525066 
L 270.38282 301.478461 
L 270.951557 294.689963 
L 271.2928 293.202687 
L 271.406547 293.218555 
L 271.634042 294.085807 
L 271.861537 296.124317 
L 272.202779 301.456821 
L 272.657769 312.665933 
L 272.885263 319.769635 
L 274.145694 360.256828 
L 274.436563 363.838222 
L 274.533519 364.033791 
L 274.630476 363.673876 
L 274.824388 361.212213 
L 275.115257 353.212948 
L 275.696994 327.188889 
L 276.122497 312.78532 
L 276.257131 311.710358 
L 276.302009 311.848786 
L 276.436643 313.838485 
L 276.616154 320.062304 
L 277.334202 353.24608 
L 277.37908 353.193554 
L 277.505068 350.505061 
L 277.748396 336.433788 
L 278.072835 318.998837 
L 278.153945 319.184333 
L 278.316164 326.885793 
L 278.640603 348.16475 
L 278.721712 347.176937 
L 279.046151 323.072315 
L 279.127261 323.340527 
L 279.451699 344.634875 
L 279.695028 324.871586 
L 279.938357 342.539576 
L 280.114709 326.903477 
L 280.209952 339.144299 
L 280.305195 337.964513 
L 280.400437 327.686634 
L 280.49568 340.644517 
L 280.590922 330.131633 
L 280.686165 338.723242 
L 280.781408 329.448017 
L 280.87665 339.20551 
L 281.067136 332.495701 
L 281.162378 332.889151 
L 281.257621 337.454185 
L 281.352864 332.545791 
L 281.448106 336.06698 
L 281.543349 331.931243 
L 281.638592 332.312436 
L 281.829077 335.540801 
L 281.92432 334.144272 
L 282.019562 335.41442 
L 282.114805 334.537411 
L 282.30529 334.343126 
L 282.400533 334.423307 
L 282.591018 333.411058 
L 282.686261 334.343903 
L 282.781503 336.654928 
L 283.067231 331.594442 
L 283.199366 335.379438 
L 283.331502 330.450677 
L 283.595772 338.090379 
L 283.860043 328.424586 
L 283.992178 339.922517 
L 284.124313 329.974982 
L 284.256448 340.66519 
L 284.388584 326.38395 
L 284.520719 340.786639 
L 284.652854 337.586699 
L 284.78499 324.871318 
L 285.04926 345.26891 
L 285.181395 338.394204 
L 285.313531 325.465921 
L 285.445666 323.488735 
L 285.842072 348.131191 
L 286.106342 331.372476 
L 286.370613 318.769221 
L 286.502748 321.804655 
L 287.031289 352.170344 
L 287.163424 353.139938 
L 287.399888 345.85165 
L 288.130191 312.283088 
L 288.23452 311.716353 
L 288.338849 312.509493 
L 288.547507 317.59064 
L 288.964823 335.831049 
L 289.50786 357.768248 
L 289.779378 363.054546 
L 289.960391 364.039238 
L 290.050897 363.800984 
L 290.231909 361.989576 
L 290.503428 356.449611 
L 290.955959 342.308503 
L 292.059617 306.265005 
L 292.55611 296.893883 
L 292.854005 294.035493 
L 293.052602 293.251004 
L 293.151901 293.178807 
L 293.251199 293.310611 
L 293.449796 294.15418 
L 293.84699 297.912795 
L 294.442781 307.595232 
L 295.038572 320.364466 
L 297.10771 367.738158 
L 298.131505 385.352865 
L 298.814036 393.865663 
L 299.496566 399.795815 
L 299.837831 401.839256 
L 300.232222 403.482158 
L 300.626614 404.400617 
L 301.021005 404.645834 
L 301.415396 404.270329 
L 301.809787 403.326594 
L 302.204178 401.866094 
L 302.992961 397.591447 
L 303.723428 392.286425 
L 304.453896 385.954321 
L 305.914831 371.083201 
L 307.960841 347.482316 
L 313.097752 287.067369 
L 315.927315 257.219751 
L 318.043616 237.093973 
L 320.536433 215.787101 
L 323.03764 196.847653 
L 326.064128 176.852748 
L 328.024098 165.413403 
L 329.984067 155.022849 
L 332.301797 143.942839 
L 334.965895 132.627348 
L 336.557646 126.507276 
L 338.543967 119.468206 
L 341.904313 108.891202 
L 343.471921 104.461434 
L 345.647333 98.781778 
L 348.741202 91.534924 
L 351.724641 85.34849 
L 354.77637 79.718939 
L 356.997345 76.009671 
L 359.21832 72.590111 
L 363.310947 66.953984 
L 367.580097 61.859074 
L 371.95882 57.324578 
L 376.524958 53.215795 
L 380.945128 49.742033 
L 383.6103 47.853199 
L 389.003788 44.436079 
L 394.133916 41.615864 
L 398.388202 39.544854 
L 404.424353 36.957362 
L 409.542182 35.037105 
L 412.577843 34.000416 
L 420.252797 31.670034 
L 425.768206 30.21578 
L 432.682547 28.608966 
L 441.602007 26.831237 
L 450.139972 25.383532 
L 458.623663 24.145005 
L 469.030271 22.847001 
L 481.595796 21.539253 
L 494.599214 20.420291 
L 508.707435 19.415564 
L 527.53723 18.332961 
L 546.701538 17.458289 
L 546.701538 17.458289 
" style="fill:none;stroke:#800080;stroke-linecap:square;"/>
   </g>
   <g id="patch_3">
    <path d="M 7.2 334.582862 
L 557.28 334.582862 
" style="fill:none;stroke:#000000;stroke-linecap:square;stroke-linejoin:miter;stroke-width:0.8;"/>
   </g>
   <g id="patch_4">
    <path d="M 282.24 412.389585 
L 282.24 9.714538 
" style="fill:none;stroke:#000000;stroke-linecap:square;stroke-linejoin:miter;stroke-width:0.8;"/>
   </g>
   <g id="matplotlib.axis_1">
    <g id="xtick_1">
     <g id="line2d_2">
      <defs>
       <path d="M 0 0 
L 0 -4 
" id="m48f155799d" style="stroke:#000000;stroke-width:0.5;"/>
      </defs>
      <g>
       <use style="stroke:#000000;stroke-width:0.5;" x="17.7784615385" xlink:href="#m48f155799d" y="334.582862484"/>
      </g>
     </g>
     <g id="text_1">
      <!-- $-\pi$ -->
      <defs>
       <path d="M 10.203125 23 
Q 9.375 23 8.828125 23.625 
Q 8.296875 24.265625 8.296875 25 
Q 8.296875 25.734375 8.828125 26.359375 
Q 9.375 27 10.203125 27 
L 67.578125 27 
Q 68.359375 27 68.875 26.359375 
Q 69.390625 25.734375 69.390625 25 
Q 69.390625 24.265625 68.875 23.625 
Q 68.359375 23 67.578125 23 
z
" id="Cmsy10-a1"/>
       <path d="M 10.109375 1.703125 
Q 10.109375 2.25 10.5 3.328125 
Q 13.28125 9.125 15.6875 14.71875 
Q 18.109375 20.3125 20.03125 25.609375 
Q 21.96875 30.90625 23.578125 36.921875 
L 17.1875 36.921875 
Q 13.53125 36.921875 10.34375 34.625 
Q 7.171875 32.328125 5.078125 28.8125 
Q 4.890625 28.421875 4.5 28.421875 
L 3.328125 28.421875 
Q 2.390625 28.421875 2.390625 29.390625 
Q 2.390625 29.59375 2.59375 29.984375 
Q 5.859375 35.546875 9.59375 39.328125 
Q 13.328125 43.109375 18.015625 43.109375 
L 54.296875 43.109375 
Q 55.328125 43.109375 56.046875 42.421875 
Q 56.78125 41.75 56.78125 40.578125 
Q 56.78125 39.109375 55.734375 38.015625 
Q 54.6875 36.921875 53.21875 36.921875 
L 40.484375 36.921875 
Q 38.875 29.046875 38.71875 21.578125 
Q 38.71875 11.96875 42.09375 4.203125 
Q 42.390625 3.609375 42.390625 2.984375 
Q 42.390625 1.90625 41.75 0.96875 
Q 41.109375 0.046875 40.109375 -0.53125 
Q 39.109375 -1.125 37.984375 -1.125 
Q 35.359375 -1.125 34.375 3.171875 
Q 33.40625 7.46875 33.40625 11.53125 
Q 33.40625 17.234375 34.375 22.53125 
Q 35.359375 27.828125 37.5 36.921875 
L 26.609375 36.921875 
Q 18.703125 4.890625 17.09375 1.609375 
Q 15.671875 -1.125 13.1875 -1.125 
Q 11.96875 -1.125 11.03125 -0.3125 
Q 10.109375 0.484375 10.109375 1.703125 
" id="Cmmi10-bc"/>
      </defs>
      <g transform="translate(11.0284615385 346.181299984)scale(0.1 -0.1)">
       <use transform="translate(0.0 0.890625)" xlink:href="#Cmsy10-a1"/>
       <use transform="translate(77.685546875 0.890625)" xlink:href="#Cmmi10-bc"/>
      </g>
     </g>
    </g>
    <g id="xtick_2">
     <g id="line2d_3">
      <g>
       <use style="stroke:#000000;stroke-width:0.5;" x="150.009230769" xlink:href="#m48f155799d" y="334.582862484"/>
      </g>
     </g>
     <g id="text_2">
      <!-- $-\frac{1}{2} \, \pi$ -->
      <defs>
       <path d="M 4.984375 0 
L 4.984375 2.6875 
Q 4.984375 2.9375 5.171875 3.21875 
L 20.703125 20.40625 
Q 24.21875 24.21875 26.40625 26.796875 
Q 28.609375 29.390625 30.75 32.765625 
Q 32.90625 36.140625 34.15625 39.625 
Q 35.40625 43.109375 35.40625 47.015625 
Q 35.40625 51.125 33.890625 54.859375 
Q 32.375 58.59375 29.375 60.84375 
Q 26.375 63.09375 22.125 63.09375 
Q 17.78125 63.09375 14.3125 60.46875 
Q 10.84375 57.859375 9.421875 53.71875 
Q 9.8125 53.8125 10.5 53.8125 
Q 12.75 53.8125 14.328125 52.296875 
Q 15.921875 50.78125 15.921875 48.390625 
Q 15.921875 46.09375 14.328125 44.5 
Q 12.75 42.921875 10.5 42.921875 
Q 8.15625 42.921875 6.5625 44.546875 
Q 4.984375 46.1875 4.984375 48.390625 
Q 4.984375 52.15625 6.390625 55.4375 
Q 7.8125 58.734375 10.46875 61.296875 
Q 13.140625 63.875 16.484375 65.234375 
Q 19.828125 66.609375 23.578125 66.609375 
Q 29.296875 66.609375 34.21875 64.1875 
Q 39.15625 61.765625 42.03125 57.34375 
Q 44.921875 52.9375 44.921875 47.015625 
Q 44.921875 42.671875 43.015625 38.765625 
Q 41.109375 34.859375 38.125 31.65625 
Q 35.15625 28.46875 30.515625 24.40625 
Q 25.875 20.359375 24.421875 19 
L 13.09375 8.109375 
L 22.703125 8.109375 
Q 29.78125 8.109375 34.546875 8.21875 
Q 39.3125 8.34375 39.59375 8.59375 
Q 40.765625 9.859375 42 17.828125 
L 44.921875 17.828125 
L 42.09375 0 
z
" id="Cmr10-32"/>
       <path d="M 9.28125 0 
L 9.28125 3.515625 
Q 21.78125 3.515625 21.78125 6.6875 
L 21.78125 59.1875 
Q 16.609375 56.6875 8.6875 56.6875 
L 8.6875 60.203125 
Q 20.953125 60.203125 27.203125 66.609375 
L 28.609375 66.609375 
Q 28.953125 66.609375 29.265625 66.328125 
Q 29.59375 66.0625 29.59375 65.71875 
L 29.59375 6.6875 
Q 29.59375 3.515625 42.09375 3.515625 
L 42.09375 0 
z
" id="Cmr10-31"/>
      </defs>
      <g transform="translate(140.159230769 347.082862484)scale(0.1 -0.1)">
       <use transform="translate(0.0 0.8734375)" xlink:href="#Cmsy10-a1"/>
       <use transform="translate(77.685546875 38.3734375)scale(0.7)" xlink:href="#Cmr10-31"/>
       <use transform="translate(77.685546875 -39.503125)scale(0.7)" xlink:href="#Cmr10-32"/>
       <use transform="translate(139.818000977 0.8734375)" xlink:href="#Cmmi10-bc"/>
       <path d="M 77.685547 13.373437 
L 77.685547 19.623437 
L 112.685547 19.623437 
L 112.685547 13.373437 
L 77.685547 13.373437 
z
"/>
      </g>
     </g>
    </g>
    <g id="xtick_3">
     <g id="line2d_4">
      <g>
       <use style="stroke:#000000;stroke-width:0.5;" x="282.24" xlink:href="#m48f155799d" y="334.582862484"/>
      </g>
     </g>
    </g>
    <g id="xtick_4">
     <g id="line2d_5">
      <g>
       <use style="stroke:#000000;stroke-width:0.5;" x="414.470769231" xlink:href="#m48f155799d" y="334.582862484"/>
      </g>
     </g>
     <g id="text_3">
      <!-- $\frac{1}{2} \, \pi$ -->
      <g transform="translate(408.470769231 347.082862484)scale(0.1 -0.1)">
       <use transform="translate(0.0 38.3734375)scale(0.7)" xlink:href="#Cmr10-31"/>
       <use transform="translate(0.0 -39.503125)scale(0.7)" xlink:href="#Cmr10-32"/>
       <use transform="translate(62.1324541016 0.8734375)" xlink:href="#Cmmi10-bc"/>
       <path d="M 0 13.373437 
L 0 19.623437 
L 35 19.623437 
L 35 13.373437 
L 0 13.373437 
z
"/>
      </g>
     </g>
    </g>
    <g id="xtick_5">
     <g id="line2d_6">
      <g>
       <use style="stroke:#000000;stroke-width:0.5;" x="546.701538462" xlink:href="#m48f155799d" y="334.582862484"/>
      </g>
     </g>
     <g id="text_4">
      <!-- $\pi$ -->
      <g transform="translate(543.851538462 346.181299984)scale(0.1 -0.1)">
       <use transform="translate(0.0 0.890625)" xlink:href="#Cmmi10-bc"/>
      </g>
     </g>
    </g>
    <g id="xtick_6">
     <g id="line2d_7">
      <defs>
       <path d="M 0 0 
L 0 -2 
" id="mba4bed2751" style="stroke:#000000;stroke-width:0.5;"/>
      </defs>
      <g>
       <use style="stroke:#000000;stroke-width:0.5;" x="50.8361538462" xlink:href="#mba4bed2751" y="334.582862484"/>
      </g>
     </g>
    </g>
    <g id="xtick_7">
     <g id="line2d_8">
      <g>
       <use style="stroke:#000000;stroke-width:0.5;" x="83.8938461538" xlink:href="#mba4bed2751" y="334.582862484"/>
      </g>
     </g>
    </g>
    <g id="xtick_8">
     <g id="line2d_9">
      <g>
       <use style="stroke:#000000;stroke-width:0.5;" x="116.951538462" xlink:href="#mba4bed2751" y="334.582862484"/>
      </g>
     </g>
    </g>
    <g id="xtick_9">
     <g id="line2d_10">
      <g>
       <use style="stroke:#000000;stroke-width:0.5;" x="183.066923077" xlink:href="#mba4bed2751" y="334.582862484"/>
      </g>
     </g>
    </g>
    <g id="xtick_10">
     <g id="line2d_11">
      <g>
       <use style="stroke:#000000;stroke-width:0.5;" x="216.124615385" xlink:href="#mba4bed2751" y="334.582862484"/>
      </g>
     </g>
    </g>
    <g id="xtick_11">
     <g id="line2d_12">
      <g>
       <use style="stroke:#000000;stroke-width:0.5;" x="249.182307692" xlink:href="#mba4bed2751" y="334.582862484"/>
      </g>
     </g>
    </g>
    <g id="xtick_12">
     <g id="line2d_13">
      <g>
       <use style="stroke:#000000;stroke-width:0.5;" x="315.297692308" xlink:href="#mba4bed2751" y="334.582862484"/>
      </g>
     </g>
    </g>
    <g id="xtick_13">
     <g id="line2d_14">
      <g>
       <use style="stroke:#000000;stroke-width:0.5;" x="348.355384615" xlink:href="#mba4bed2751" y="334.582862484"/>
      </g>
     </g>
    </g>
    <g id="xtick_14">
     <g id="line2d_15">
      <g>
       <use style="stroke:#000000;stroke-width:0.5;" x="381.413076923" xlink:href="#mba4bed2751" y="334.582862484"/>
      </g>
     </g>
    </g>
    <g id="xtick_15">
     <g id="line2d_16">
      <g>
       <use style="stroke:#000000;stroke-width:0.5;" x="447.528461538" xlink:href="#mba4bed2751" y="334.582862484"/>
      </g>
     </g>
    </g>
    <g id="xtick_16">
     <g id="line2d_17">
      <g>
       <use style="stroke:#000000;stroke-width:0.5;" x="480.586153846" xlink:href="#mba4bed2751" y="334.582862484"/>
      </g>
     </g>
    </g>
    <g id="xtick_17">
     <g id="line2d_18">
      <g>
       <use style="stroke:#000000;stroke-width:0.5;" x="513.643846154" xlink:href="#mba4bed2751" y="334.582862484"/>
      </g>
     </g>
    </g>
   </g>
   <g id="matplotlib.axis_2">
    <g id="ytick_1">
     <g id="line2d_19">
      <defs>
       <path d="M 0 0 
L 4 0 
" id="md6ddf133a0" style="stroke:#000000;stroke-width:0.5;"/>
      </defs>
      <g>
       <use style="stroke:#000000;stroke-width:0.5;" x="282.24" xlink:href="#md6ddf133a0" y="399.091622481"/>
      </g>
     </g>
     <g id="text_5">
      <!-- $-0.2$ -->
      <defs>
       <path d="M 25 -2.203125 
Q 12.75 -2.203125 8.328125 7.875 
Q 3.90625 17.96875 3.90625 31.890625 
Q 3.90625 40.578125 5.484375 48.234375 
Q 7.078125 55.90625 11.78125 61.25 
Q 16.5 66.609375 25 66.609375 
Q 31.59375 66.609375 35.78125 63.375 
Q 39.984375 60.15625 42.1875 55.046875 
Q 44.390625 49.953125 45.1875 44.109375 
Q 46 38.28125 46 31.890625 
Q 46 23.296875 44.40625 15.796875 
Q 42.828125 8.296875 38.1875 3.046875 
Q 33.546875 -2.203125 25 -2.203125 
M 25 0.390625 
Q 30.5625 0.390625 33.296875 6.09375 
Q 36.03125 11.8125 36.671875 18.75 
Q 37.3125 25.6875 37.3125 33.5 
Q 37.3125 41.015625 36.671875 47.359375 
Q 36.03125 53.71875 33.3125 58.859375 
Q 30.609375 64.015625 25 64.015625 
Q 19.34375 64.015625 16.609375 58.828125 
Q 13.875 53.65625 13.234375 47.328125 
Q 12.59375 41.015625 12.59375 33.5 
Q 12.59375 27.9375 12.859375 23 
Q 13.140625 18.0625 14.3125 12.8125 
Q 15.484375 7.5625 18.09375 3.96875 
Q 20.703125 0.390625 25 0.390625 
" id="Cmr10-30"/>
       <path d="M 8.40625 5.515625 
Q 8.40625 7.765625 10.0625 9.375 
Q 11.71875 10.984375 13.921875 10.984375 
Q 15.28125 10.984375 16.59375 10.25 
Q 17.921875 9.515625 18.65625 8.203125 
Q 19.390625 6.890625 19.390625 5.515625 
Q 19.390625 3.328125 17.765625 1.65625 
Q 16.15625 0 13.921875 0 
Q 11.71875 0 10.0625 1.65625 
Q 8.40625 3.328125 8.40625 5.515625 
" id="Cmmi10-3a"/>
      </defs>
      <g transform="translate(255.94 401.850997481)scale(0.1 -0.1)">
       <use transform="translate(0.0 0.390625)" xlink:href="#Cmsy10-a1"/>
       <use transform="translate(77.685546875 0.390625)" xlink:href="#Cmr10-30"/>
       <use transform="translate(127.685546875 0.390625)" xlink:href="#Cmmi10-3a"/>
       <use transform="translate(172.9296875 0.390625)" xlink:href="#Cmr10-32"/>
      </g>
     </g>
    </g>
    <g id="ytick_2">
     <g id="line2d_20">
      <g>
       <use style="stroke:#000000;stroke-width:0.5;" x="282.24" xlink:href="#md6ddf133a0" y="334.582862484"/>
      </g>
     </g>
    </g>
    <g id="ytick_3">
     <g id="line2d_21">
      <g>
       <use style="stroke:#000000;stroke-width:0.5;" x="282.24" xlink:href="#md6ddf133a0" y="270.074102487"/>
      </g>
     </g>
     <g id="text_6">
      <!-- $0.2$ -->
      <g transform="translate(263.64 272.833477487)scale(0.1 -0.1)">
       <use transform="translate(0.0 0.390625)" xlink:href="#Cmr10-30"/>
       <use transform="translate(50.0 0.390625)" xlink:href="#Cmmi10-3a"/>
       <use transform="translate(95.244140625 0.390625)" xlink:href="#Cmr10-32"/>
      </g>
     </g>
    </g>
    <g id="ytick_4">
     <g id="line2d_22">
      <g>
       <use style="stroke:#000000;stroke-width:0.5;" x="282.24" xlink:href="#md6ddf133a0" y="205.565342491"/>
      </g>
     </g>
     <g id="text_7">
      <!-- $0.4$ -->
      <defs>
       <path d="M 2.78125 16.5 
L 2.78125 20.015625 
L 33.6875 66.109375 
Q 34.03125 66.609375 34.71875 66.609375 
L 36.1875 66.609375 
Q 37.3125 66.609375 37.3125 65.484375 
L 37.3125 20.015625 
L 47.125 20.015625 
L 47.125 16.5 
L 37.3125 16.5 
L 37.3125 6.6875 
Q 37.3125 4.640625 40.234375 4.078125 
Q 43.171875 3.515625 47.015625 3.515625 
L 47.015625 0 
L 19.484375 0 
L 19.484375 3.515625 
Q 23.34375 3.515625 26.265625 4.078125 
Q 29.203125 4.640625 29.203125 6.6875 
L 29.203125 16.5 
z
M 6.109375 20.015625 
L 29.78125 20.015625 
L 29.78125 55.421875 
z
" id="Cmr10-34"/>
      </defs>
      <g transform="translate(263.64 208.324717491)scale(0.1 -0.1)">
       <use transform="translate(0.0 0.390625)" xlink:href="#Cmr10-30"/>
       <use transform="translate(50.0 0.390625)" xlink:href="#Cmmi10-3a"/>
       <use transform="translate(95.244140625 0.390625)" xlink:href="#Cmr10-34"/>
      </g>
     </g>
    </g>
    <g id="ytick_5">
     <g id="line2d_23">
      <g>
       <use style="stroke:#000000;stroke-width:0.5;" x="282.24" xlink:href="#md6ddf133a0" y="141.056582494"/>
      </g>
     </g>
     <g id="text_8">
      <!-- $0.6$ -->
      <defs>
       <path d="M 25 -2.203125 
Q 18.796875 -2.203125 14.640625 1.09375 
Q 10.5 4.390625 8.21875 9.640625 
Q 5.953125 14.890625 5.078125 20.65625 
Q 4.203125 26.421875 4.203125 32.328125 
Q 4.203125 40.234375 7.28125 48.1875 
Q 10.359375 56.15625 16.328125 61.375 
Q 22.3125 66.609375 30.515625 66.609375 
Q 33.9375 66.609375 36.890625 65.3125 
Q 39.84375 64.015625 41.53125 61.5 
Q 43.21875 58.984375 43.21875 55.421875 
Q 43.21875 53.375 41.828125 51.984375 
Q 40.4375 50.59375 38.375 50.59375 
Q 36.421875 50.59375 35 52 
Q 33.59375 53.421875 33.59375 55.421875 
Q 33.59375 57.375 35 58.78125 
Q 36.421875 60.203125 38.375 60.203125 
L 38.921875 60.203125 
Q 37.640625 62.015625 35.328125 62.859375 
Q 33.015625 63.71875 30.515625 63.71875 
Q 27.484375 63.71875 24.921875 62.390625 
Q 22.359375 61.078125 20.3125 58.828125 
Q 18.265625 56.59375 16.890625 53.875 
Q 15.53125 51.171875 14.765625 47.703125 
Q 14.015625 44.234375 13.8125 41.203125 
Q 13.625 38.1875 13.625 33.59375 
Q 15.375 37.703125 18.59375 40.3125 
Q 21.828125 42.921875 25.875 42.921875 
Q 30.328125 42.921875 33.984375 41.109375 
Q 37.640625 39.3125 40.28125 36.109375 
Q 42.921875 32.90625 44.3125 28.796875 
Q 45.703125 24.703125 45.703125 20.515625 
Q 45.703125 14.65625 43.09375 9.34375 
Q 40.484375 4.046875 35.734375 0.921875 
Q 31 -2.203125 25 -2.203125 
M 25 0.984375 
Q 28.859375 0.984375 31.203125 2.734375 
Q 33.546875 4.5 34.640625 7.390625 
Q 35.75 10.296875 36.015625 13.25 
Q 36.28125 16.21875 36.28125 20.515625 
Q 36.28125 26.171875 35.734375 30.171875 
Q 35.203125 34.1875 32.8125 37.234375 
Q 30.421875 40.28125 25.484375 40.28125 
Q 21.4375 40.28125 18.828125 37.546875 
Q 16.21875 34.8125 15.015625 30.640625 
Q 13.8125 26.46875 13.8125 22.609375 
Q 13.8125 21.296875 13.921875 20.609375 
Q 13.921875 20.453125 13.890625 20.359375 
Q 13.875 20.265625 13.8125 20.125 
Q 13.8125 15.828125 14.6875 11.421875 
Q 15.578125 7.03125 18.0625 4 
Q 20.5625 0.984375 25 0.984375 
" id="Cmr10-36"/>
      </defs>
      <g transform="translate(263.64 143.815957494)scale(0.1 -0.1)">
       <use transform="translate(0.0 0.390625)" xlink:href="#Cmr10-30"/>
       <use transform="translate(50.0 0.390625)" xlink:href="#Cmmi10-3a"/>
       <use transform="translate(95.244140625 0.390625)" xlink:href="#Cmr10-36"/>
      </g>
     </g>
    </g>
    <g id="ytick_6">
     <g id="line2d_24">
      <g>
       <use style="stroke:#000000;stroke-width:0.5;" x="282.24" xlink:href="#md6ddf133a0" y="76.5478224968"/>
      </g>
     </g>
     <g id="text_9">
      <!-- $0.8$ -->
      <defs>
       <path d="M 4.203125 15.1875 
Q 4.203125 21.1875 8.15625 25.796875 
Q 12.109375 30.421875 18.3125 33.5 
L 14.59375 35.890625 
Q 11.1875 38.140625 9.03125 41.875 
Q 6.890625 45.609375 6.890625 49.703125 
Q 6.890625 54.5 9.40625 58.34375 
Q 11.921875 62.203125 16.09375 64.40625 
Q 20.265625 66.609375 25 66.609375 
Q 29.4375 66.609375 33.5625 64.796875 
Q 37.703125 62.984375 40.359375 59.609375 
Q 43.015625 56.25 43.015625 51.609375 
Q 43.015625 48.25 41.421875 45.359375 
Q 39.84375 42.484375 37.078125 40.1875 
Q 34.328125 37.890625 31.203125 36.28125 
L 36.921875 32.625 
Q 40.875 30.03125 43.28125 25.828125 
Q 45.703125 21.625 45.703125 17 
Q 45.703125 11.578125 42.796875 7.125 
Q 39.890625 2.6875 35.109375 0.234375 
Q 30.328125 -2.203125 25 -2.203125 
Q 19.828125 -2.203125 15.015625 -0.09375 
Q 10.203125 2 7.203125 5.984375 
Q 4.203125 9.96875 4.203125 15.1875 
M 9.625 15.1875 
Q 9.625 11.234375 11.796875 7.953125 
Q 13.96875 4.6875 17.53125 2.828125 
Q 21.09375 0.984375 25 0.984375 
Q 30.8125 0.984375 35.546875 4.375 
Q 40.28125 7.765625 40.28125 13.375 
Q 40.28125 15.28125 39.515625 17.15625 
Q 38.765625 19.046875 37.421875 20.578125 
Q 36.078125 22.125 34.421875 23.09375 
L 21 31.78125 
Q 17.875 30.125 15.25 27.578125 
Q 12.640625 25.046875 11.125 21.875 
Q 9.625 18.703125 9.625 15.1875 
M 16.5 45.703125 
L 28.609375 37.890625 
Q 32.8125 40.328125 35.5 43.796875 
Q 38.1875 47.265625 38.1875 51.609375 
Q 38.1875 54.984375 36.296875 57.78125 
Q 34.421875 60.59375 31.390625 62.15625 
Q 28.375 63.71875 24.90625 63.71875 
Q 21.875 63.71875 18.796875 62.546875 
Q 15.71875 61.375 13.71875 59.046875 
Q 11.71875 56.734375 11.71875 53.609375 
Q 11.71875 48.921875 16.5 45.703125 
" id="Cmr10-38"/>
      </defs>
      <g transform="translate(263.64 79.3071974968)scale(0.1 -0.1)">
       <use transform="translate(0.0 0.390625)" xlink:href="#Cmr10-30"/>
       <use transform="translate(50.0 0.390625)" xlink:href="#Cmmi10-3a"/>
       <use transform="translate(95.244140625 0.390625)" xlink:href="#Cmr10-38"/>
      </g>
     </g>
    </g>
    <g id="ytick_7">
     <g id="line2d_25">
      <g>
       <use style="stroke:#000000;stroke-width:0.5;" x="282.24" xlink:href="#md6ddf133a0" y="12.0390625"/>
      </g>
     </g>
     <g id="text_10">
      <!-- $1.0$ -->
      <g transform="translate(263.64 14.7984375)scale(0.1 -0.1)">
       <use transform="translate(0.0 0.390625)" xlink:href="#Cmr10-31"/>
       <use transform="translate(50.0 0.390625)" xlink:href="#Cmmi10-3a"/>
       <use transform="translate(95.244140625 0.390625)" xlink:href="#Cmr10-30"/>
      </g>
     </g>
    </g>
    <g id="ytick_8">
     <g id="line2d_26">
      <defs>
       <path d="M 0 0 
L 2 0 
" id="me5b9b00927" style="stroke:#000000;stroke-width:0.5;"/>
      </defs>
      <g>
       <use style="stroke:#000000;stroke-width:0.5;" x="282.24" xlink:href="#me5b9b00927" y="382.964432482"/>
      </g>
     </g>
    </g>
    <g id="ytick_9">
     <g id="line2d_27">
      <g>
       <use style="stroke:#000000;stroke-width:0.5;" x="282.24" xlink:href="#me5b9b00927" y="366.837242483"/>
      </g>
     </g>
    </g>
    <g id="ytick_10">
     <g id="line2d_28">
      <g>
       <use style="stroke:#000000;stroke-width:0.5;" x="282.24" xlink:href="#me5b9b00927" y="350.710052483"/>
      </g>
     </g>
    </g>
    <g id="ytick_11">
     <g id="line2d_29">
      <g>
       <use style="stroke:#000000;stroke-width:0.5;" x="282.24" xlink:href="#me5b9b00927" y="334.582862484"/>
      </g>
     </g>
    </g>
    <g id="ytick_12">
     <g id="line2d_30">
      <g>
       <use style="stroke:#000000;stroke-width:0.5;" x="282.24" xlink:href="#me5b9b00927" y="318.455672485"/>
      </g>
     </g>
    </g>
    <g id="ytick_13">
     <g id="line2d_31">
      <g>
       <use style="stroke:#000000;stroke-width:0.5;" x="282.24" xlink:href="#me5b9b00927" y="302.328482486"/>
      </g>
     </g>
    </g>
    <g id="ytick_14">
     <g id="line2d_32">
      <g>
       <use style="stroke:#000000;stroke-width:0.5;" x="282.24" xlink:href="#me5b9b00927" y="286.201292487"/>
      </g>
     </g>
    </g>
    <g id="ytick_15">
     <g id="line2d_33">
      <g>
       <use style="stroke:#000000;stroke-width:0.5;" x="282.24" xlink:href="#me5b9b00927" y="270.074102487"/>
      </g>
     </g>
    </g>
    <g id="ytick_16">
     <g id="line2d_34">
      <g>
       <use style="stroke:#000000;stroke-width:0.5;" x="282.24" xlink:href="#me5b9b00927" y="253.946912488"/>
      </g>
     </g>
    </g>
    <g id="ytick_17">
     <g id="line2d_35">
      <g>
       <use style="stroke:#000000;stroke-width:0.5;" x="282.24" xlink:href="#me5b9b00927" y="237.819722489"/>
      </g>
     </g>
    </g>
    <g id="ytick_18">
     <g id="line2d_36">
      <g>
       <use style="stroke:#000000;stroke-width:0.5;" x="282.24" xlink:href="#me5b9b00927" y="221.69253249"/>
      </g>
     </g>
    </g>
    <g id="ytick_19">
     <g id="line2d_37">
      <g>
       <use style="stroke:#000000;stroke-width:0.5;" x="282.24" xlink:href="#me5b9b00927" y="205.565342491"/>
      </g>
     </g>
    </g>
    <g id="ytick_20">
     <g id="line2d_38">
      <g>
       <use style="stroke:#000000;stroke-width:0.5;" x="282.24" xlink:href="#me5b9b00927" y="189.438152491"/>
      </g>
     </g>
    </g>
    <g id="ytick_21">
     <g id="line2d_39">
      <g>
       <use style="stroke:#000000;stroke-width:0.5;" x="282.24" xlink:href="#me5b9b00927" y="173.310962492"/>
      </g>
     </g>
    </g>
    <g id="ytick_22">
     <g id="line2d_40">
      <g>
       <use style="stroke:#000000;stroke-width:0.5;" x="282.24" xlink:href="#me5b9b00927" y="157.183772493"/>
      </g>
     </g>
    </g>
    <g id="ytick_23">
     <g id="line2d_41">
      <g>
       <use style="stroke:#000000;stroke-width:0.5;" x="282.24" xlink:href="#me5b9b00927" y="141.056582494"/>
      </g>
     </g>
    </g>
    <g id="ytick_24">
     <g id="line2d_42">
      <g>
       <use style="stroke:#000000;stroke-width:0.5;" x="282.24" xlink:href="#me5b9b00927" y="124.929392494"/>
      </g>
     </g>
    </g>
    <g id="ytick_25">
     <g id="line2d_43">
      <g>
       <use style="stroke:#000000;stroke-width:0.5;" x="282.24" xlink:href="#me5b9b00927" y="108.802202495"/>
      </g>
     </g>
    </g>
    <g id="ytick_26">
     <g id="line2d_44">
      <g>
       <use style="stroke:#000000;stroke-width:0.5;" x="282.24" xlink:href="#me5b9b00927" y="92.6750124961"/>
      </g>
     </g>
    </g>
    <g id="ytick_27">
     <g id="line2d_45">
      <g>
       <use style="stroke:#000000;stroke-width:0.5;" x="282.24" xlink:href="#me5b9b00927" y="76.5478224968"/>
      </g>
     </g>
    </g>
    <g id="ytick_28">
     <g id="line2d_46">
      <g>
       <use style="stroke:#000000;stroke-width:0.5;" x="282.24" xlink:href="#me5b9b00927" y="60.4206324976"/>
      </g>
     </g>
    </g>
    <g id="ytick_29">
     <g id="line2d_47">
      <g>
       <use style="stroke:#000000;stroke-width:0.5;" x="282.24" xlink:href="#me5b9b00927" y="44.2934424984"/>
      </g>
     </g>
    </g>
    <g id="ytick_30">
     <g id="line2d_48">
      <g>
       <use style="stroke:#000000;stroke-width:0.5;" x="282.24" xlink:href="#me5b9b00927" y="28.1662524992"/>
      </g>
     </g>
    </g>
    <g id="ytick_31">
     <g id="line2d_49">
      <g>
       <use style="stroke:#000000;stroke-width:0.5;" x="282.24" xlink:href="#me5b9b00927" y="12.0390625"/>
      </g>
     </g>
    </g>
   </g>
  </g>
 </g>
 <defs>
  <clipPath id="pc3ab2b460e">
   <rect height="402.675047265" width="550.08" x="7.2" y="9.71453775521"/>
  </clipPath>
 </defs>
</svg>
