<?xml version="1.0" encoding="utf-8" standalone="no"?>
<!DOCTYPE svg PUBLIC "-//W3C//DTD SVG 1.1//EN"
  "http://www.w3.org/Graphics/SVG/1.1/DTD/svg11.dtd">
<!-- Created with matplotlib (http://matplotlib.org/) -->
<svg height="420pt" version="1.1" viewBox="0 0 431 420" width="431pt" xmlns="http://www.w3.org/2000/svg" xmlns:xlink="http://www.w3.org/1999/xlink">
 <defs>
  <style type="text/css">
*{stroke-linecap:butt;stroke-linejoin:round;stroke-miterlimit:100000;}
  </style>
 </defs>
 <g id="figure_1">
  <g id="patch_1">
   <path d="M 0 420.48 
L 431.418134 420.48 
L 431.418134 0 
L 0 0 
z
" style="fill:#ffffff;"/>
  </g>
  <g id="axes_1">
   <g id="patch_2">
    <path d="M 8.513105 413.28 
L 424.218134 413.28 
L 424.218134 7.2 
L 8.513105 7.2 
z
" style="fill:#ffffff;"/>
   </g>
   <g id="line2d_1">
    <path clip-path="url(#p94b5253b28)" d="M 216.389058 218.275003 
L 227.32327 216.889963 
L 233.532271 214.797742 
L 242.105805 210.054019 
L 253.091676 199.408403 
L 256.46333 194.362953 
L 262.542806 179.405612 
L 264.110184 170.271932 
L 264.161304 158.286832 
L 262.025401 146.034839 
L 257.304228 133.034494 
L 252.722551 124.544657 
L 244.739107 113.603683 
L 230.577155 100.147364 
L 214.305831 89.865986 
L 200.217612 83.901769 
L 181.47224 79.180931 
L 179.695506 78.900862 
L 157.664134 77.615417 
L 143.256374 78.871965 
L 110.049055 88.120013 
L 106.699701 89.577705 
L 75.238427 108.955584 
L 71.285975 112.253623 
L 51.746272 132.58214 
L 44.979848 141.714396 
L 28.915735 171.45149 
L 20.993127 196.097157 
L 18.548382 208.524406 
L 16.507432 235.547373 
L 17.374221 251.834669 
L 22.764738 280.42224 
L 28.031665 296.31205 
L 39.636076 320.537461 
L 55.522864 343.479161 
L 64.485685 353.576478 
L 79.85452 367.740506 
L 94.488302 378.420095 
L 124.168689 393.802802 
L 131.14763 396.400142 
L 151.956013 402.1314 
L 180.046933 405.414137 
L 193.181068 405.250927 
L 229.293464 399.004164 
L 239.714628 395.471019 
L 259.60055 386.166637 
L 284.438925 368.439284 
L 286.806521 366.27428 
L 305.877561 344.030165 
L 310.217073 337.1858 
L 317.79747 322.073154 
L 323.526098 304.69444 
L 326.699484 278.675753 
L 326.535827 272.904866 
L 324.955103 259.945134 
L 319.04767 240.537295 
L 309.472072 223.800691 
L 307.78511 221.59922 
L 293.396864 207.730569 
L 285.249706 202.63666 
L 276.543892 198.824404 
L 260.633933 195.610637 
L 255.512185 195.56351 
L 241.312233 198.138702 
L 231.503271 202.741425 
L 224.362414 208.218008 
L 216.534294 218.025353 
L 213.599641 224.044167 
L 211.183597 232.537502 
L 210.523492 238.378846 
L 213.407218 257.023797 
L 213.888616 258.297347 
L 223.250399 273.727459 
L 229.869727 280.308009 
L 242.543739 288.708291 
L 253.565782 293.169485 
L 258.227646 294.45465 
L 278.544836 296.626253 
L 284.198581 296.332013 
L 302.89676 292.719623 
L 319.034554 286.217702 
L 331.524961 278.730829 
L 345.804561 266.874773 
L 361.174128 248.352628 
L 369.804836 233.3815 
L 372.257881 228.058112 
L 381.053574 199.109471 
L 382.049406 192.9672 
L 383.224736 166.173082 
L 378.835274 136.955951 
L 378.233718 134.651699 
L 367.102068 105.463818 
L 357.188155 88.402341 
L 342.816591 69.897138 
L 322.600808 50.891732 
L 307.778325 40.381979 
L 288.897924 30.088091 
L 269.417416 22.433314 
L 247.420678 16.886062 
L 238.254157 15.462585 
L 198.423382 15.009231 
L 187.61222 16.48891 
L 167.614548 21.116607 
L 131.971992 36.215057 
L 116.152501 46.362792 
L 107.036956 53.447337 
L 89.243872 70.700849 
L 79.748823 82.458131 
L 61.857176 113.667637 
L 55.395852 131.61623 
L 50.602517 154.460303 
L 49.433067 169.282008 
L 50.16423 188.357161 
L 54.661712 211.647686 
L 61.064771 229.296198 
L 68.660581 243.762899 
L 75.222186 253.443422 
L 86.265025 266.174047 
L 96.799944 275.455917 
L 111.764118 285.184772 
L 130.104557 292.786864 
L 146.663082 296.147928 
L 162.953228 296.335193 
L 166.243755 295.981612 
L 178.238317 293.465104 
L 194.745433 286.196725 
L 205.755409 277.727066 
L 213.563203 268.424124 
L 217.157226 262.215218 
L 221.173012 250.838884 
L 222.306851 240.425187 
L 221.423476 231.638106 
L 220.575341 228.149095 
L 215.219449 216.3639 
L 209.618072 209.391993 
L 197.640894 200.709086 
L 186.944938 196.85578 
L 181.265423 195.870899 
L 167.757953 196.033642 
L 159.915753 197.664317 
L 146.375772 203.261701 
L 134.400176 211.711345 
L 129.267851 216.659671 
L 124.718537 221.946689 
L 113.089091 242.065035 
L 110.702258 248.614417 
L 106.709392 267.347235 
L 106.242792 284.608291 
L 109.190205 304.440256 
L 113.443372 318.206593 
L 121.327474 335.047528 
L 126.077467 342.803724 
L 141.402312 361.790322 
L 162.44356 379.488874 
L 177.000083 388.243133 
L 194.525498 396.0184 
L 218.516816 402.679952 
L 223.876637 403.610778 
L 246.405899 405.470769 
L 273.637338 403.445998 
L 283.298787 401.600961 
L 314.973209 391.118051 
L 331.702879 382.498348 
L 353.351669 367.390656 
L 369.402928 352.409323 
L 382.522879 336.717397 
L 391.415013 323.454849 
L 400.88697 305.500655 
L 408.39629 285.882256 
L 415.757863 247.891449 
L 416.223807 238.76279 
L 415.296207 216.557433 
L 412.195979 197.87764 
L 400.873317 164.632455 
L 395.181058 153.557559 
L 382.059401 133.882636 
L 363.415284 113.943801 
L 354.178293 106.325675 
L 337.77481 95.512841 
L 308.087992 82.915125 
L 302.683112 81.451419 
L 285.794684 78.390621 
L 264.792553 77.724236 
L 246.483859 80.081248 
L 222.440324 87.947079 
L 213.832756 92.375792 
L 199.873909 102.004023 
L 190.585625 110.74327 
L 181.843308 121.766679 
L 175.925129 132.082739 
L 170.491596 147.052982 
L 168.599059 158.499443 
L 168.484076 167.895204 
L 170.928488 181.932721 
L 174.689126 191.389703 
L 183.826105 204.226732 
L 189.175523 208.960984 
L 200.458299 215.2871 
L 204.406061 216.606801 
L 216.389058 218.275003 
L 216.389058 218.275003 
" style="fill:none;stroke:#0000ff;stroke-linecap:square;"/>
   </g>
   <g id="patch_3">
    <path d="M 8.513105 218.275003 
L 424.218134 218.275003 
" style="fill:none;stroke:#000000;stroke-linecap:square;stroke-linejoin:miter;stroke-width:0.8;"/>
   </g>
   <g id="patch_4">
    <path d="M 216.389058 413.28 
L 216.389058 7.2 
" style="fill:none;stroke:#000000;stroke-linecap:square;stroke-linejoin:miter;stroke-width:0.8;"/>
   </g>
   <g id="matplotlib.axis_1">
    <g id="xtick_1">
     <g id="line2d_2">
      <defs>
       <path d="M 0 0 
L 0 -4 
" id="m1e34d03f28" style="stroke:#000000;stroke-width:0.5;"/>
      </defs>
      <g>
       <use style="stroke:#000000;stroke-width:0.5;" x="12.18515625" xlink:href="#m1e34d03f28" y="218.275002745"/>
      </g>
     </g>
     <g id="text_1">
      <!-- -1 -->
      <defs>
       <path d="M 12.40625 8.296875 
L 28.515625 8.296875 
L 28.515625 63.921875 
L 10.984375 60.40625 
L 10.984375 69.390625 
L 28.421875 72.90625 
L 38.28125 72.90625 
L 38.28125 8.296875 
L 54.390625 8.296875 
L 54.390625 0 
L 12.40625 0 
z
" id="BitstreamVeraSans-Roman-31"/>
       <path d="M 4.890625 31.390625 
L 31.203125 31.390625 
L 31.203125 23.390625 
L 4.890625 23.390625 
z
" id="BitstreamVeraSans-Roman-2d"/>
      </defs>
      <g transform="translate(7.2 229.873440245)scale(0.1 -0.1)">
       <use xlink:href="#BitstreamVeraSans-Roman-2d"/>
       <use x="36.083984375" xlink:href="#BitstreamVeraSans-Roman-31"/>
      </g>
     </g>
    </g>
    <g id="xtick_2">
     <g id="line2d_3">
      <g>
       <use style="stroke:#000000;stroke-width:0.5;" x="114.287107066" xlink:href="#m1e34d03f28" y="218.275002745"/>
      </g>
     </g>
     <g id="text_2">
      <!-- -0.5 -->
      <defs>
       <path d="M 31.78125 66.40625 
Q 24.171875 66.40625 20.328125 58.90625 
Q 16.5 51.421875 16.5 36.375 
Q 16.5 21.390625 20.328125 13.890625 
Q 24.171875 6.390625 31.78125 6.390625 
Q 39.453125 6.390625 43.28125 13.890625 
Q 47.125 21.390625 47.125 36.375 
Q 47.125 51.421875 43.28125 58.90625 
Q 39.453125 66.40625 31.78125 66.40625 
M 31.78125 74.21875 
Q 44.046875 74.21875 50.515625 64.515625 
Q 56.984375 54.828125 56.984375 36.375 
Q 56.984375 17.96875 50.515625 8.265625 
Q 44.046875 -1.421875 31.78125 -1.421875 
Q 19.53125 -1.421875 13.0625 8.265625 
Q 6.59375 17.96875 6.59375 36.375 
Q 6.59375 54.828125 13.0625 64.515625 
Q 19.53125 74.21875 31.78125 74.21875 
" id="BitstreamVeraSans-Roman-30"/>
       <path d="M 10.6875 12.40625 
L 21 12.40625 
L 21 0 
L 10.6875 0 
z
" id="BitstreamVeraSans-Roman-2e"/>
       <path d="M 10.796875 72.90625 
L 49.515625 72.90625 
L 49.515625 64.59375 
L 19.828125 64.59375 
L 19.828125 46.734375 
Q 21.96875 47.46875 24.109375 47.828125 
Q 26.265625 48.1875 28.421875 48.1875 
Q 40.625 48.1875 47.75 41.5 
Q 54.890625 34.8125 54.890625 23.390625 
Q 54.890625 11.625 47.5625 5.09375 
Q 40.234375 -1.421875 26.90625 -1.421875 
Q 22.3125 -1.421875 17.546875 -0.640625 
Q 12.796875 0.140625 7.71875 1.703125 
L 7.71875 11.625 
Q 12.109375 9.234375 16.796875 8.0625 
Q 21.484375 6.890625 26.703125 6.890625 
Q 35.15625 6.890625 40.078125 11.328125 
Q 45.015625 15.765625 45.015625 23.390625 
Q 45.015625 31 40.078125 35.4375 
Q 35.15625 39.890625 26.703125 39.890625 
Q 22.75 39.890625 18.8125 39.015625 
Q 14.890625 38.140625 10.796875 36.28125 
z
" id="BitstreamVeraSans-Roman-35"/>
      </defs>
      <g transform="translate(104.531638316 229.873440245)scale(0.1 -0.1)">
       <use xlink:href="#BitstreamVeraSans-Roman-2d"/>
       <use x="36.083984375" xlink:href="#BitstreamVeraSans-Roman-30"/>
       <use x="99.70703125" xlink:href="#BitstreamVeraSans-Roman-2e"/>
       <use x="131.494140625" xlink:href="#BitstreamVeraSans-Roman-35"/>
      </g>
     </g>
    </g>
    <g id="xtick_3">
     <g id="line2d_4">
      <g>
       <use style="stroke:#000000;stroke-width:0.5;" x="216.389057883" xlink:href="#m1e34d03f28" y="218.275002745"/>
      </g>
     </g>
    </g>
    <g id="xtick_4">
     <g id="line2d_5">
      <g>
       <use style="stroke:#000000;stroke-width:0.5;" x="318.491008699" xlink:href="#m1e34d03f28" y="218.275002745"/>
      </g>
     </g>
     <g id="text_3">
      <!-- 0.5 -->
      <g transform="translate(310.539446199 229.873440245)scale(0.1 -0.1)">
       <use xlink:href="#BitstreamVeraSans-Roman-30"/>
       <use x="63.623046875" xlink:href="#BitstreamVeraSans-Roman-2e"/>
       <use x="95.41015625" xlink:href="#BitstreamVeraSans-Roman-35"/>
      </g>
     </g>
    </g>
    <g id="xtick_5">
     <g id="line2d_6">
      <g>
       <use style="stroke:#000000;stroke-width:0.5;" x="420.592959516" xlink:href="#m1e34d03f28" y="218.275002745"/>
      </g>
     </g>
     <g id="text_4">
      <!-- 1 -->
      <g transform="translate(417.411709516 229.873440245)scale(0.1 -0.1)">
       <use xlink:href="#BitstreamVeraSans-Roman-31"/>
      </g>
     </g>
    </g>
    <g id="xtick_6">
     <g id="line2d_7">
      <defs>
       <path d="M 0 0 
L 0 -2 
" id="md6bb5d0855" style="stroke:#000000;stroke-width:0.5;"/>
      </defs>
      <g>
       <use style="stroke:#000000;stroke-width:0.5;" x="32.6055464133" xlink:href="#md6bb5d0855" y="218.275002745"/>
      </g>
     </g>
    </g>
    <g id="xtick_7">
     <g id="line2d_8">
      <g>
       <use style="stroke:#000000;stroke-width:0.5;" x="53.0259365766" xlink:href="#md6bb5d0855" y="218.275002745"/>
      </g>
     </g>
    </g>
    <g id="xtick_8">
     <g id="line2d_9">
      <g>
       <use style="stroke:#000000;stroke-width:0.5;" x="73.4463267398" xlink:href="#md6bb5d0855" y="218.275002745"/>
      </g>
     </g>
    </g>
    <g id="xtick_9">
     <g id="line2d_10">
      <g>
       <use style="stroke:#000000;stroke-width:0.5;" x="93.8667169031" xlink:href="#md6bb5d0855" y="218.275002745"/>
      </g>
     </g>
    </g>
    <g id="xtick_10">
     <g id="line2d_11">
      <g>
       <use style="stroke:#000000;stroke-width:0.5;" x="114.287107066" xlink:href="#md6bb5d0855" y="218.275002745"/>
      </g>
     </g>
    </g>
    <g id="xtick_11">
     <g id="line2d_12">
      <g>
       <use style="stroke:#000000;stroke-width:0.5;" x="134.70749723" xlink:href="#md6bb5d0855" y="218.275002745"/>
      </g>
     </g>
    </g>
    <g id="xtick_12">
     <g id="line2d_13">
      <g>
       <use style="stroke:#000000;stroke-width:0.5;" x="155.127887393" xlink:href="#md6bb5d0855" y="218.275002745"/>
      </g>
     </g>
    </g>
    <g id="xtick_13">
     <g id="line2d_14">
      <g>
       <use style="stroke:#000000;stroke-width:0.5;" x="175.548277556" xlink:href="#md6bb5d0855" y="218.275002745"/>
      </g>
     </g>
    </g>
    <g id="xtick_14">
     <g id="line2d_15">
      <g>
       <use style="stroke:#000000;stroke-width:0.5;" x="195.96866772" xlink:href="#md6bb5d0855" y="218.275002745"/>
      </g>
     </g>
    </g>
    <g id="xtick_15">
     <g id="line2d_16">
      <g>
       <use style="stroke:#000000;stroke-width:0.5;" x="216.389057883" xlink:href="#md6bb5d0855" y="218.275002745"/>
      </g>
     </g>
    </g>
    <g id="xtick_16">
     <g id="line2d_17">
      <g>
       <use style="stroke:#000000;stroke-width:0.5;" x="236.809448046" xlink:href="#md6bb5d0855" y="218.275002745"/>
      </g>
     </g>
    </g>
    <g id="xtick_17">
     <g id="line2d_18">
      <g>
       <use style="stroke:#000000;stroke-width:0.5;" x="257.229838209" xlink:href="#md6bb5d0855" y="218.275002745"/>
      </g>
     </g>
    </g>
    <g id="xtick_18">
     <g id="line2d_19">
      <g>
       <use style="stroke:#000000;stroke-width:0.5;" x="277.650228373" xlink:href="#md6bb5d0855" y="218.275002745"/>
      </g>
     </g>
    </g>
    <g id="xtick_19">
     <g id="line2d_20">
      <g>
       <use style="stroke:#000000;stroke-width:0.5;" x="298.070618536" xlink:href="#md6bb5d0855" y="218.275002745"/>
      </g>
     </g>
    </g>
    <g id="xtick_20">
     <g id="line2d_21">
      <g>
       <use style="stroke:#000000;stroke-width:0.5;" x="318.491008699" xlink:href="#md6bb5d0855" y="218.275002745"/>
      </g>
     </g>
    </g>
    <g id="xtick_21">
     <g id="line2d_22">
      <g>
       <use style="stroke:#000000;stroke-width:0.5;" x="338.911398862" xlink:href="#md6bb5d0855" y="218.275002745"/>
      </g>
     </g>
    </g>
    <g id="xtick_22">
     <g id="line2d_23">
      <g>
       <use style="stroke:#000000;stroke-width:0.5;" x="359.331789026" xlink:href="#md6bb5d0855" y="218.275002745"/>
      </g>
     </g>
    </g>
    <g id="xtick_23">
     <g id="line2d_24">
      <g>
       <use style="stroke:#000000;stroke-width:0.5;" x="379.752179189" xlink:href="#md6bb5d0855" y="218.275002745"/>
      </g>
     </g>
    </g>
    <g id="xtick_24">
     <g id="line2d_25">
      <g>
       <use style="stroke:#000000;stroke-width:0.5;" x="400.172569352" xlink:href="#md6bb5d0855" y="218.275002745"/>
      </g>
     </g>
    </g>
    <g id="xtick_25">
     <g id="line2d_26">
      <g>
       <use style="stroke:#000000;stroke-width:0.5;" x="420.592959516" xlink:href="#md6bb5d0855" y="218.275002745"/>
      </g>
     </g>
    </g>
   </g>
   <g id="matplotlib.axis_2">
    <g id="ytick_1">
     <g id="line2d_27">
      <defs>
       <path d="M 0 0 
L 4 0 
" id="md992b43ec5" style="stroke:#000000;stroke-width:0.5;"/>
      </defs>
      <g>
       <use style="stroke:#000000;stroke-width:0.5;" x="216.389057883" xlink:href="#md992b43ec5" y="320.376953562"/>
      </g>
     </g>
     <g id="text_5">
      <!-- -0.5 -->
      <g transform="translate(192.878120383 323.136328562)scale(0.1 -0.1)">
       <use xlink:href="#BitstreamVeraSans-Roman-2d"/>
       <use x="36.083984375" xlink:href="#BitstreamVeraSans-Roman-30"/>
       <use x="99.70703125" xlink:href="#BitstreamVeraSans-Roman-2e"/>
       <use x="131.494140625" xlink:href="#BitstreamVeraSans-Roman-35"/>
      </g>
     </g>
    </g>
    <g id="ytick_2">
     <g id="line2d_28">
      <g>
       <use style="stroke:#000000;stroke-width:0.5;" x="216.389057883" xlink:href="#md992b43ec5" y="218.275002745"/>
      </g>
     </g>
    </g>
    <g id="ytick_3">
     <g id="line2d_29">
      <g>
       <use style="stroke:#000000;stroke-width:0.5;" x="216.389057883" xlink:href="#md992b43ec5" y="116.173051929"/>
      </g>
     </g>
     <g id="text_6">
      <!-- 0.5 -->
      <g transform="translate(196.485932883 118.932426929)scale(0.1 -0.1)">
       <use xlink:href="#BitstreamVeraSans-Roman-30"/>
       <use x="63.623046875" xlink:href="#BitstreamVeraSans-Roman-2e"/>
       <use x="95.41015625" xlink:href="#BitstreamVeraSans-Roman-35"/>
      </g>
     </g>
    </g>
    <g id="ytick_4">
     <g id="line2d_30">
      <g>
       <use style="stroke:#000000;stroke-width:0.5;" x="216.389057883" xlink:href="#md992b43ec5" y="14.0711011124"/>
      </g>
     </g>
     <g id="text_7">
      <!-- 1 -->
      <g transform="translate(206.026557883 16.8304761124)scale(0.1 -0.1)">
       <use xlink:href="#BitstreamVeraSans-Roman-31"/>
      </g>
     </g>
    </g>
    <g id="ytick_5">
     <g id="line2d_31">
      <defs>
       <path d="M 0 0 
L 2 0 
" id="m9708f429dd" style="stroke:#000000;stroke-width:0.5;"/>
      </defs>
      <g>
       <use style="stroke:#000000;stroke-width:0.5;" x="216.389057883" xlink:href="#m9708f429dd" y="402.058514215"/>
      </g>
     </g>
    </g>
    <g id="ytick_6">
     <g id="line2d_32">
      <g>
       <use style="stroke:#000000;stroke-width:0.5;" x="216.389057883" xlink:href="#m9708f429dd" y="381.638124051"/>
      </g>
     </g>
    </g>
    <g id="ytick_7">
     <g id="line2d_33">
      <g>
       <use style="stroke:#000000;stroke-width:0.5;" x="216.389057883" xlink:href="#m9708f429dd" y="361.217733888"/>
      </g>
     </g>
    </g>
    <g id="ytick_8">
     <g id="line2d_34">
      <g>
       <use style="stroke:#000000;stroke-width:0.5;" x="216.389057883" xlink:href="#m9708f429dd" y="340.797343725"/>
      </g>
     </g>
    </g>
    <g id="ytick_9">
     <g id="line2d_35">
      <g>
       <use style="stroke:#000000;stroke-width:0.5;" x="216.389057883" xlink:href="#m9708f429dd" y="299.956563398"/>
      </g>
     </g>
    </g>
    <g id="ytick_10">
     <g id="line2d_36">
      <g>
       <use style="stroke:#000000;stroke-width:0.5;" x="216.389057883" xlink:href="#m9708f429dd" y="279.536173235"/>
      </g>
     </g>
    </g>
    <g id="ytick_11">
     <g id="line2d_37">
      <g>
       <use style="stroke:#000000;stroke-width:0.5;" x="216.389057883" xlink:href="#m9708f429dd" y="259.115783072"/>
      </g>
     </g>
    </g>
    <g id="ytick_12">
     <g id="line2d_38">
      <g>
       <use style="stroke:#000000;stroke-width:0.5;" x="216.389057883" xlink:href="#m9708f429dd" y="238.695392908"/>
      </g>
     </g>
    </g>
    <g id="ytick_13">
     <g id="line2d_39">
      <g>
       <use style="stroke:#000000;stroke-width:0.5;" x="216.389057883" xlink:href="#m9708f429dd" y="197.854612582"/>
      </g>
     </g>
    </g>
    <g id="ytick_14">
     <g id="line2d_40">
      <g>
       <use style="stroke:#000000;stroke-width:0.5;" x="216.389057883" xlink:href="#m9708f429dd" y="177.434222419"/>
      </g>
     </g>
    </g>
    <g id="ytick_15">
     <g id="line2d_41">
      <g>
       <use style="stroke:#000000;stroke-width:0.5;" x="216.389057883" xlink:href="#m9708f429dd" y="157.013832255"/>
      </g>
     </g>
    </g>
    <g id="ytick_16">
     <g id="line2d_42">
      <g>
       <use style="stroke:#000000;stroke-width:0.5;" x="216.389057883" xlink:href="#m9708f429dd" y="136.593442092"/>
      </g>
     </g>
    </g>
    <g id="ytick_17">
     <g id="line2d_43">
      <g>
       <use style="stroke:#000000;stroke-width:0.5;" x="216.389057883" xlink:href="#m9708f429dd" y="95.7526617655"/>
      </g>
     </g>
    </g>
    <g id="ytick_18">
     <g id="line2d_44">
      <g>
       <use style="stroke:#000000;stroke-width:0.5;" x="216.389057883" xlink:href="#m9708f429dd" y="75.3322716022"/>
      </g>
     </g>
    </g>
    <g id="ytick_19">
     <g id="line2d_45">
      <g>
       <use style="stroke:#000000;stroke-width:0.5;" x="216.389057883" xlink:href="#m9708f429dd" y="54.9118814389"/>
      </g>
     </g>
    </g>
    <g id="ytick_20">
     <g id="line2d_46">
      <g>
       <use style="stroke:#000000;stroke-width:0.5;" x="216.389057883" xlink:href="#m9708f429dd" y="34.4914912756"/>
      </g>
     </g>
    </g>
   </g>
  </g>
 </g>
 <defs>
  <clipPath id="p94b5253b28">
   <rect height="406.08" width="415.705029694" x="8.51310462634" y="7.2"/>
  </clipPath>
 </defs>
</svg>
