<?xml version="1.0" encoding="utf-8" standalone="no"?>
<!DOCTYPE svg PUBLIC "-//W3C//DTD SVG 1.1//EN"
  "http://www.w3.org/Graphics/SVG/1.1/DTD/svg11.dtd">
<!-- Created with matplotlib (http://matplotlib.org/) -->
<svg height="420pt" version="1.1" viewBox="0 0 497 420" width="497pt" xmlns="http://www.w3.org/2000/svg" xmlns:xlink="http://www.w3.org/1999/xlink">
 <defs>
  <style type="text/css">
*{stroke-linecap:butt;stroke-linejoin:round;stroke-miterlimit:100000;}
  </style>
 </defs>
 <g id="figure_1">
  <g id="patch_1">
   <path d="M 0 420.48 
L 497.11206 420.48 
L 497.11206 0 
L 0 0 
z
" style="fill:#ffffff;"/>
  </g>
  <g id="axes_1">
   <g id="patch_2">
    <path d="M 10.401119 413.28 
L 488.506616 413.28 
L 488.506616 7.2 
L 10.401119 7.2 
z
" style="fill:#ffffff;"/>
   </g>
   <g id="line2d_1">
    <path clip-path="url(#pd070c67c11)" d="M 249.457983 205.716449 
L 250.642088 205.234482 
L 251.886797 203.79345 
L 253.576236 200.754301 
L 255.989133 195.312508 
L 265.101971 173.518122 
L 269.210155 164.462289 
L 273.512003 155.571846 
L 277.432589 147.94604 
L 282.308953 139.022822 
L 288.314201 128.783262 
L 291.55023 123.570289 
L 295.466239 117.520138 
L 299.584026 111.440427 
L 303.899537 105.355866 
L 308.407463 99.29119 
L 313.476648 92.801983 
L 318.752147 86.395261 
L 326.220618 77.887018 
L 334.01465 69.660597 
L 337.971862 65.724461 
L 341.994159 61.882977 
L 350.212462 54.516508 
L 359.782228 46.724941 
L 369.528177 39.631313 
L 377.409258 34.505782 
L 389.445848 27.733714 
L 401.370047 22.317335 
L 406.693642 20.334408 
L 411.944742 18.656287 
L 416.529664 17.427679 
L 421.03417 16.447336 
L 425.44727 15.718232 
L 429.758015 15.24271 
L 433.177573 15.044272 
L 436.516593 15.014985 
L 439.769344 15.155181 
L 442.930163 15.464916 
L 447.616773 16.27547 
L 449.866605 16.831477 
L 452.050827 17.487459 
L 454.167018 18.242914 
L 456.212799 19.097243 
L 458.185838 20.049752 
L 460.083852 21.099657 
L 462.939842 22.965983 
L 465.592136 25.071953 
L 468.03244 27.413002 
L 470.252859 29.984013 
L 472.535602 33.234801 
L 474.503817 36.775648 
L 476.147555 40.596069 
L 477.457753 44.684731 
L 478.205596 47.865239 
L 478.764616 51.179953 
L 479.102314 54.252015 
L 479.285363 57.423077 
L 479.31228 60.68906 
L 478.96806 66.744493 
L 478.245299 72.293503 
L 477.1268 78.029982 
L 475.611313 83.935947 
L 473.888045 89.439756 
L 472.055714 94.491926 
L 469.959103 99.623567 
L 467.600148 104.824115 
L 464.694943 110.631406 
L 461.159174 117.048864 
L 459.253209 120.277109 
L 456.403646 124.857824 
L 453.375546 129.451636 
L 450.172184 134.051939 
L 446.797132 138.652172 
L 443.240885 143.262752 
L 439.519777 147.860203 
L 435.638295 152.4381 
L 428.89291 159.935443 
L 426.122297 162.865485 
L 420.400158 168.673073 
L 414.447306 174.399848 
L 408.27695 180.033204 
L 402.129074 185.369659 
L 395.804571 190.597333 
L 387.907735 196.783963 
L 379.795637 202.77859 
L 371.494357 208.565438 
L 363.030807 214.129941 
L 354.265884 219.559046 
L 345.391034 224.730683 
L 327.433902 234.258317 
L 311.463583 241.743142 
L 300.176609 246.497983 
L 289.012782 250.775529 
L 281.917454 253.276093 
L 274.915245 255.577589 
L 268.022282 257.680843 
L 261.254437 259.587372 
L 254.247882 261.392667 
L 247.416806 262.983643 
L 240.831068 264.354286 
L 234.451847 265.523073 
L 225.305088 266.910306 
L 217.350613 267.818133 
L 212.532288 268.22016 
L 207.930662 268.490137 
L 199.440992 268.658804 
L 193.719191 268.489356 
L 188.556144 268.09317 
L 183.663676 267.444659 
L 179.459087 266.596101 
L 176.065083 265.617002 
L 174.175042 264.89305 
L 172.586461 264.12304 
L 171.199298 263.24134 
L 170.106123 262.2511 
L 169.406188 261.160898 
L 169.235091 260.573352 
L 169.20609 259.987599 
L 169.318667 259.406665 
L 169.572148 258.833554 
L 169.965704 258.271249 
L 171.168941 257.190834 
L 173.033197 256.134973 
L 175.492812 255.192874 
L 178.175697 254.469162 
L 181.304571 253.873609 
L 185.741653 253.341005 
L 190.796491 253.055788 
L 194.49168 253.016131 
L 201.720393 253.271448 
L 209.668793 253.97622 
L 217.412489 255.026114 
L 223.266024 256.032874 
L 229.335854 257.256776 
L 235.597833 258.701781 
L 242.027245 260.370582 
L 249.640432 262.581971 
L 257.404367 265.094676 
L 266.297948 268.289544 
L 275.274633 271.858265 
L 296.417678 281.674037 
L 302.77783 285.035535 
L 309.061158 288.555697 
L 316.517073 293.004538 
L 323.797195 297.653535 
L 334.315257 304.959181 
L 341.626228 310.500378 
L 349.17092 316.681194 
L 355.537559 322.323162 
L 360.828404 327.362704 
L 365.990252 332.646049 
L 370.960022 338.14997 
L 375.506273 343.63646 
L 379.611137 349.07493 
L 381.493139 351.766487 
L 383.79965 355.282542 
L 385.900732 358.748421 
L 387.793416 362.155146 
L 390.381275 367.45831 
L 391.962693 371.2968 
L 393.17397 374.804581 
L 394.061928 377.990609 
L 394.715705 381.119593 
L 395.118201 384.171036 
L 395.252829 387.059885 
L 395.121861 389.775115 
L 394.70085 392.431924 
L 393.951634 394.987381 
L 392.893569 397.292189 
L 391.533778 399.333944 
L 390.743234 400.252507 
L 389.134795 401.731636 
L 387.297976 402.975056 
L 385.173145 404.00274 
L 382.822524 404.765282 
L 380.255636 405.25632 
L 377.482578 405.470238 
L 374.067295 405.368609 
L 370.412339 404.891194 
L 367.282748 404.224469 
L 364.01661 403.305522 
L 360.623901 402.133207 
L 357.114835 400.707014 
L 354.059997 399.300826 
L 350.93562 397.713103 
L 344.504342 393.996482 
L 339.657227 390.816537 
L 334.723892 387.258969 
L 324.68294 379.041956 
L 314.718715 369.594217 
L 304.821458 358.885346 
L 302.399778 356.053111 
L 297.579438 350.152993 
L 292.839623 343.993234 
L 288.197265 337.591518 
L 283.668601 330.966552 
L 280.179755 325.585059 
L 276.778897 320.08647 
L 273.472964 314.48122 
L 270.268533 308.780047 
L 266.349518 301.408129 
L 262.616525 293.922136 
L 259.080335 286.345885 
L 255.75062 278.703685 
L 253.361783 272.86258 
L 250.75858 266.092202 
L 248.330564 259.321744 
L 246.081445 252.568424 
L 242.636389 241.031019 
L 240.170746 231.500638 
L 238.154266 222.453017 
L 236.549945 213.914582 
L 235.281582 205.621607 
L 234.343592 197.613784 
L 233.996093 193.728879 
L 233.652975 188.62554 
L 233.450962 183.689122 
L 233.386227 178.93048 
L 233.460834 174.152357 
L 233.664046 169.777234 
L 233.990929 165.611828 
L 234.435916 161.665415 
L 234.993064 157.946801 
L 235.909277 153.314177 
L 237.001025 149.128328 
L 238.25095 145.40625 
L 239.640785 142.163069 
L 240.802942 139.985917 
L 242.028609 138.110153 
L 243.903921 135.930467 
L 245.863911 134.408313 
L 249.916785 133.364683 
L 253.650542 134.78818 
L 255.732238 136.66235 
L 257.124701 138.42399 
L 258.450362 140.550802 
L 259.696968 143.036539 
L 260.852593 145.873909 
L 261.996042 149.360777 
L 263.003038 153.244116 
L 263.859836 157.510406 
L 264.553435 162.144814 
L 265.047678 166.845601 
L 265.375889 171.845906 
L 265.53084 177.272796 
L 265.492947 182.981279 
L 265.254432 188.952869 
L 264.454107 198.860749 
L 263.528161 206.453704 
L 262.242371 214.672989 
L 260.54752 223.514566 
L 259.564468 228.017971 
L 258.024489 234.446507 
L 256.304547 240.953282 
L 254.405549 247.522016 
L 252.329101 254.136343 
L 250.430945 259.768751 
L 248.408623 265.412135 
L 246.264287 271.056511 
L 244.000435 276.691935 
L 240.976853 283.776804 
L 237.773936 290.812001 
L 234.399032 297.778122 
L 230.860316 304.656095 
L 225.550088 314.272288 
L 220.71298 322.394268 
L 215.681369 330.280673 
L 210.477335 337.900013 
L 205.124414 345.222343 
L 198.305823 353.861405 
L 191.346154 361.948575 
L 181.168925 372.547398 
L 167.103082 384.940945 
L 161.869352 388.898052 
L 156.719543 392.439825 
L 151.678319 395.558563 
L 146.770198 398.248457 
L 142.968809 400.083042 
L 140.166305 401.287674 
L 137.433172 402.333961 
L 134.774508 403.221965 
L 132.195324 403.951994 
L 129.645639 404.535639 
L 127.189319 404.955592 
L 124.831385 405.212976 
L 122.576725 405.309177 
L 120.430081 405.245835 
L 118.396046 405.024845 
L 116.479046 404.648348 
L 114.683341 404.118729 
L 113.2718 403.557483 
L 111.95102 402.891739 
L 110.723219 402.123286 
L 109.590511 401.254026 
L 108.366158 400.087694 
L 107.283275 398.784295 
L 106.344857 397.347632 
L 105.104793 394.655573 
L 104.413894 392.238213 
L 104.002935 389.609934 
L 103.876157 386.782265 
L 104.074681 383.402677 
L 104.715224 379.418092 
L 105.202177 377.334284 
L 106.016403 374.494047 
L 107.02499 371.561756 
L 108.227496 368.544791 
L 110.6062 363.454577 
L 112.801607 359.386403 
L 115.299105 355.229753 
L 118.093658 351.000217 
L 121.604157 346.148995 
L 125.947367 340.677455 
L 130.510921 335.409601 
L 135.22585 330.374396 
L 141.009874 324.654065 
L 147.990485 318.298089 
L 154.489454 312.82917 
L 157.380191 310.518318 
L 163.333142 305.971973 
L 169.497094 301.540114 
L 175.849996 297.238737 
L 181.750153 293.466625 
L 187.768875 289.824403 
L 195.367591 285.503881 
L 203.084836 281.4146 
L 218.727909 273.987228 
L 227.74162 270.204622 
L 239.073958 265.946415 
L 244.673995 264.044572 
L 250.210364 262.296157 
L 255.444383 260.764749 
L 265.645789 258.126551 
L 275.367757 256.056698 
L 284.520656 254.534654 
L 292.653494 253.567107 
L 299.784056 253.059537 
L 306.839341 252.930793 
L 311.970092 253.126256 
L 316.527829 253.565574 
L 320.760804 254.282381 
L 324.256663 255.217909 
L 326.034137 255.88896 
L 327.951287 256.884382 
L 329.314531 257.965665 
L 329.785018 258.531125 
L 330.113242 259.109115 
L 330.298272 259.696582 
L 330.339338 260.290446 
L 330.190798 261.027175 
L 329.821512 261.763057 
L 329.231065 262.492208 
L 328.419424 263.20873 
L 327.363727 263.920645 
L 326.078922 264.607032 
L 324.566201 265.261677 
L 321.819288 266.18641 
L 318.424669 267.028067 
L 313.391655 267.880937 
L 307.523361 268.465712 
L 302.898382 268.693651 
L 297.887165 268.752509 
L 292.504327 268.628719 
L 286.765792 268.309498 
L 278.559212 267.55582 
L 269.790855 266.404777 
L 262.928395 265.27642 
L 255.802137 263.906956 
L 248.433895 262.289233 
L 240.846298 260.417218 
L 233.040186 258.279566 
L 225.061171 255.877543 
L 216.411688 253.0295 
L 207.625004 249.87806 
L 198.731995 246.423384 
L 189.763884 242.66726 
L 162.809398 229.678071 
L 150.537961 222.871138 
L 138.441181 215.56643 
L 128.480588 209.074326 
L 118.743149 202.274996 
L 110.38723 196.051499 
L 100.921303 188.522436 
L 91.821314 180.74783 
L 83.128986 172.760462 
L 74.883526 164.595147 
L 69.382246 158.776792 
L 62.206673 150.661368 
L 55.535168 142.473999 
L 49.393462 134.251251 
L 46.528525 130.138263 
L 42.012565 123.208997 
L 38.635225 117.586415 
L 35.632021 112.179681 
L 32.98089 106.996103 
L 31.749504 104.423859 
L 29.570587 99.545834 
L 27.625097 94.730636 
L 25.914592 89.987112 
L 24.440165 85.324028 
L 22.709048 78.662431 
L 22.033703 75.411539 
L 21.484969 72.218287 
L 21.062533 69.085892 
L 20.765948 66.017517 
L 20.594641 63.016268 
L 20.547908 60.08519 
L 20.639613 56.941464 
L 20.880163 53.890368 
L 21.268091 50.935677 
L 21.801753 48.081053 
L 22.974755 43.665617 
L 24.518816 39.538084 
L 25.426942 37.586546 
L 26.424033 35.711981 
L 27.508679 33.915921 
L 28.679407 32.199837 
L 30.577352 29.797477 
L 32.657141 27.579592 
L 34.913171 25.550165 
L 37.339566 23.71282 
L 40.385664 21.811767 
L 43.646214 20.182517 
L 45.642892 19.359245 
L 47.706739 18.630415 
L 52.027026 17.458237 
L 56.588868 16.669419 
L 61.373507 16.265991 
L 66.036764 16.238119 
L 70.862309 16.547791 
L 76.716784 17.340403 
L 82.746035 18.591688 
L 88.92317 20.294803 
L 95.221255 22.440848 
L 104.788826 26.443852 
L 116.617249 32.564815 
L 130.642776 41.4386 
L 137.592142 46.479184 
L 144.46046 51.885201 
L 151.745785 58.090423 
L 158.872759 64.645133 
L 165.939689 71.63824 
L 171.88383 77.920345 
L 177.64222 84.374705 
L 183.199428 90.968749 
L 188.541798 97.669222 
L 192.960144 103.497491 
L 197.204003 109.35784 
L 201.267986 115.22838 
L 208.023322 125.601871 
L 214.14542 135.751193 
L 220.306156 146.801643 
L 225.458608 156.799563 
L 230.719275 167.844635 
L 235.139094 177.874144 
L 238.827847 186.791089 
L 245.11822 202.2754 
L 245.900011 203.950043 
L 247.516622 206.760497 
L 248.971723 208.081965 
L 251.083683 207.26449 
L 252.456513 205.209791 
L 253.434595 203.275818 
L 254.509874 200.876208 
L 257.869463 192.637035 
L 261.448749 183.783393 
L 265.923595 173.285026 
L 269.453882 165.518035 
L 273.462414 157.21193 
L 276.81656 150.639636 
L 282.661567 139.908465 
L 286.107829 133.962666 
L 289.764604 127.929729 
L 293.630621 121.834787 
L 297.70329 115.703232 
L 301.821636 109.781219 
L 309.233494 99.765599 
L 315.703934 91.636043 
L 322.490786 83.668162 
L 329.568594 75.922168 
L 333.207584 72.150759 
L 337.803487 67.583597 
L 342.485661 63.148484 
L 348.304581 57.933096 
L 354.222436 52.956279 
L 360.221545 48.23968 
L 366.283294 43.803854 
L 383.122822 33.202133 
L 389.094714 30.054351 
L 399.356048 25.418729 
L 404.414828 23.507249 
L 409.407354 21.875263 
L 417.123183 19.880072 
L 423.318541 18.778432 
L 429.308668 18.182046 
L 432.217185 18.074802 
L 435.062946 18.09533 
L 437.842195 18.243786 
L 440.55122 18.520169 
L 443.898651 19.058029 
L 447.118399 19.803009 
L 451.280931 21.147159 
L 453.262839 21.961019 
L 455.175581 22.868587 
L 457.017017 23.869145 
L 458.785053 24.961891 
L 460.477645 26.145937 
L 462.092799 27.420316 
L 463.721807 28.872075 
L 465.258957 30.423257 
L 466.702067 32.072404 
L 468.049031 33.817962 
L 469.297823 35.658277 
L 470.446502 37.591605 
L 471.493209 39.616107 
L 473.143872 43.564566 
L 473.776912 45.459059 
L 474.600726 48.477837 
L 475.243897 51.629521 
L 475.703719 54.909169 
L 475.977762 58.311647 
L 476.061 61.030942 
L 476.030374 63.818331 
L 475.885109 66.671199 
L 475.248091 72.562641 
L 474.14591 78.683279 
L 472.557929 85.075691 
L 471.574445 88.376509 
L 470.092829 92.793031 
L 468.400568 97.279371 
L 466.498642 101.828132 
L 464.388404 106.43185 
L 462.071583 111.083012 
L 459.550278 115.774073 
L 456.82696 120.497467 
L 453.904469 125.245629 
L 451.17786 129.427439 
L 446.296178 136.42443 
L 442.090296 142.036595 
L 437.633292 147.636325 
L 435.313037 150.427825 
L 427.705672 159.070145 
L 421.919993 165.190148 
L 415.867519 171.235096 
L 412.745694 174.224732 
L 406.320251 180.129215 
L 398.45289 186.945087 
L 390.293907 193.583938 
L 384.590549 197.988835 
L 378.774539 202.295836 
L 372.855383 206.498999 
L 366.842819 210.592694 
L 357.84399 216.407977 
L 348.696867 221.959078 
L 336.564832 228.797696 
L 324.311946 235.133892 
L 304.485452 244.24418 
L 294.631696 248.267788 
L 284.872029 251.930567 
L 277.080752 254.625732 
L 269.398494 257.083935 
L 255.818846 260.939592 
L 246.840955 263.13706 
L 237.942769 265.027952 
L 229.391365 266.562815 
L 221.223775 267.754078 
L 212.221352 268.729694 
L 204.789918 269.239756 
L 197.497752 269.444729 
L 190.82223 269.332556 
L 186.012962 269.039424 
L 180.980239 268.497946 
L 176.048307 267.666291 
L 171.466579 266.511542 
L 167.866046 265.181294 
L 166.430263 264.471802 
L 165.215845 263.733311 
L 164.223782 262.971748 
L 163.477387 262.220022 
L 162.939102 261.457699 
L 162.608792 260.690145 
L 162.485982 259.922709 
L 162.537698 259.306754 
L 162.723602 258.697133 
L 163.042968 258.09661 
L 163.494932 257.507924 
L 164.792502 256.376878 
L 166.606642 255.325265 
L 169.094566 254.315406 
L 172.138529 253.443105 
L 175.485608 252.769627 
L 180.239445 252.160071 
L 185.64753 251.824034 
L 191.66787 251.789802 
L 198.254759 252.082524 
L 202.422827 252.420926 
L 210.971541 253.441534 
L 219.773506 254.904933 
L 224.347651 255.817552 
L 230.553571 257.21328 
L 236.914351 258.825591 
L 243.405846 260.655405 
L 250.003595 262.70242 
L 259.198295 265.866746 
L 282.153767 275.36548 
L 293.317803 280.845943 
L 298.827579 283.772673 
L 308.810779 289.4748 
L 317.68853 295.011898 
L 322.011435 297.881295 
L 326.946241 301.30694 
L 331.751108 304.807432 
L 336.415177 308.374338 
L 344.42736 314.937878 
L 350.779961 320.596204 
L 356.414201 326.019484 
L 361.642798 331.467013 
L 366.443521 336.907534 
L 368.67717 339.615207 
L 371.568787 343.32446 
L 375.728572 349.174275 
L 378.461605 353.468664 
L 381.288906 358.476198 
L 382.709945 361.31427 
L 383.964599 364.089103 
L 385.051964 366.794596 
L 385.971444 369.42471 
L 386.72275 371.97348 
L 387.305898 374.435029 
L 387.721207 376.803577 
L 387.981009 379.236991 
L 387.99642 382.910762 
L 387.676542 385.481903 
L 387.410421 386.689099 
L 386.780994 388.65932 
L 385.94323 390.458354 
L 384.901122 392.079257 
L 383.659127 393.515436 
L 382.606387 394.461946 
L 381.447518 395.299952 
L 380.184837 396.027144 
L 378.820784 396.641341 
L 377.35792 397.14049 
L 375.798926 397.522679 
L 374.146592 397.78613 
L 372.40382 397.929212 
L 370.551844 397.949959 
L 368.613603 397.844614 
L 366.592408 397.611949 
L 364.491663 397.250895 
L 360.765657 396.345082 
L 356.839359 395.065852 
L 352.7308 393.411281 
L 348.458524 391.380842 
L 345.20805 389.639754 
L 341.867561 387.68335 
L 338.463026 385.5221 
L 331.494101 380.59243 
L 325.784419 376.062514 
L 320.006011 371.03498 
L 308.376554 359.552984 
L 297.926415 347.606515 
L 293.288936 341.771799 
L 288.726731 335.685561 
L 284.25579 329.364129 
L 279.891477 322.82478 
L 274.193786 313.681805 
L 268.75114 304.221904 
L 265.417568 298.026553 
L 260.010658 287.21847 
L 255.823078 278.08088 
L 251.946498 268.884691 
L 248.391242 259.672372 
L 245.14954 250.439635 
L 242.231305 241.22814 
L 239.81141 232.706499 
L 237.830046 224.892894 
L 235.769889 215.581248 
L 233.823147 204.910567 
L 232.530518 195.829467 
L 231.724717 188.266714 
L 231.196389 180.967043 
L 230.938297 173.9597 
L 230.940724 167.316743 
L 231.312572 159.195933 
L 232.077037 151.708672 
L 232.981965 146.046149 
L 234.115203 140.874971 
L 235.456699 136.218887 
L 236.985032 132.099278 
L 239.081621 127.806044 
L 241.381232 124.377928 
L 243.461231 122.161977 
L 247.638405 119.752197 
L 251.915161 119.758259 
L 255.151536 121.414426 
L 257.795955 123.957964 
L 260.264557 127.518363 
L 261.781082 130.434655 
L 263.179128 133.777062 
L 264.443438 137.533445 
L 265.559443 141.690204 
L 266.353459 145.383241 
L 267.031493 149.325992 
L 267.6766 154.318333 
L 268.138114 159.632348 
L 268.406369 165.250078 
L 268.422492 174.418383 
L 268.138133 181.164638 
L 267.582047 188.392014 
L 266.723806 196.094742 
L 266.184239 200.035874 
L 265.173705 206.408946 
L 263.974146 212.901978 
L 262.584978 219.497632 
L 259.899394 230.481908 
L 257.456522 239.152926 
L 254.513001 248.47994 
L 251.012003 258.424901 
L 247.145096 268.334325 
L 242.929287 278.15452 
L 240.696743 283.014647 
L 236.942645 290.736978 
L 232.996184 298.324559 
L 229.515644 304.622841 
L 225.916367 310.791147 
L 222.208029 316.81488 
L 218.400836 322.679953 
L 214.004283 329.083908 
L 209.511787 335.250604 
L 201.107085 345.853173 
L 192.54535 355.507904 
L 176.555873 370.696166 
L 172.10343 374.286801 
L 167.717262 377.549281 
L 161.08197 381.950242 
L 157.860461 383.844298 
L 154.713809 385.532264 
L 151.421759 387.116962 
L 148.235314 388.461844 
L 145.164074 389.567059 
L 142.217436 390.433339 
L 139.066974 391.123216 
L 136.097959 391.515884 
L 133.322547 391.614937 
L 130.752396 391.424843 
L 128.984486 391.100006 
L 127.340063 390.621332 
L 125.823274 389.99153 
L 124.438069 389.213548 
L 123.114745 388.228218 
L 121.948401 387.083309 
L 121.138192 386.065494 
L 120.430897 384.952477 
L 119.828236 383.746649 
L 119.331806 382.450495 
L 118.943081 381.066596 
L 118.663408 379.59762 
L 118.494009 378.04632 
L 118.48377 374.813528 
L 118.879446 371.416677 
L 119.22838 369.626932 
L 119.853351 367.144097 
L 120.659981 364.565001 
L 121.648489 361.896164 
L 123.704618 357.256503 
L 125.719656 353.386318 
L 128.056644 349.403573 
L 130.711662 345.324946 
L 133.123237 341.919788 
L 137.805355 335.902423 
L 143.091814 329.800807 
L 148.956774 323.662957 
L 155.370002 317.536013 
L 162.11775 311.616701 
L 167.199001 307.458833 
L 172.495865 303.363449 
L 177.993603 299.344327 
L 183.676685 295.414693 
L 188.54949 292.212965 
L 193.530227 289.089356 
L 198.608757 286.050526 
L 203.774648 283.102788 
L 210.011649 279.726838 
L 216.33848 276.497161 
L 229.185981 270.50979 
L 243.663158 264.63074 
L 254.618119 260.769699 
L 262.403473 258.329445 
L 270.085164 256.170104 
L 277.62745 254.293869 
L 284.99496 252.700931 
L 290.644187 251.645966 
L 296.147089 250.76344 
L 301.487345 250.05087 
L 310.867876 249.170367 
L 317.414242 248.867853 
L 323.529698 248.853113 
L 329.178289 249.109813 
L 334.326322 249.619388 
L 337.835726 250.154414 
L 341.034529 250.810375 
L 343.962685 251.59281 
L 346.545681 252.479337 
L 348.773561 253.458325 
L 350.63742 254.517669 
L 352.035644 255.562615 
L 353.107672 256.655759 
L 353.848938 257.786543 
L 354.255732 258.944214 
L 354.336603 259.935834 
L 354.175145 260.932211 
L 353.770581 261.926639 
L 353.122589 262.912386 
L 352.258969 263.856385 
L 351.165739 264.779605 
L 348.95337 266.19165 
L 346.167177 267.510688 
L 344.106271 268.288058 
L 341.820565 269.012143 
L 339.313163 269.67696 
L 334.928246 270.588827 
L 329.535846 271.375166 
L 323.54054 271.914961 
L 318.437338 272.14879 
L 312.152806 272.195518 
L 305.442759 271.988897 
L 298.332374 271.513673 
L 289.271744 270.564871 
L 283.739635 269.811233 
L 278.049562 268.906393 
L 272.212347 267.84711 
L 260.658515 265.376355 
L 250.625178 262.84348 
L 245.513286 261.418458 
L 235.130691 258.249239 
L 224.579247 254.654114 
L 213.941947 250.64769 
L 203.240698 246.225815 
L 182.102207 236.29971 
L 170.738592 230.275613 
L 159.542727 223.83545 
L 149.325494 217.489528 
L 141.89964 212.575592 
L 134.628988 207.499663 
L 127.532115 202.273318 
L 120.62698 196.908868 
L 112.324986 190.057578 
L 104.378615 183.038894 
L 99.939829 178.897813 
L 95.636571 174.715312 
L 91.474139 170.497171 
L 87.457581 166.249291 
L 82.754654 161.027118 
L 76.13984 153.15192 
L 72.03389 147.890448 
L 67.388271 141.511586 
L 62.412167 134.046197 
L 57.97706 126.653015 
L 54.095055 119.366394 
L 51.247992 113.306519 
L 50.199756 110.859652 
L 48.617877 106.865128 
L 47.223585 102.936321 
L 46.017274 99.07944 
L 44.999039 95.300612 
L 44.168669 91.605868 
L 43.52566 88.001133 
L 43.069209 84.492211 
L 42.721483 78.959269 
L 42.792603 74.845493 
L 43.203083 70.609953 
L 44.02529 66.31899 
L 44.581702 64.282004 
L 45.233398 62.319878 
L 45.979088 60.434425 
L 46.817408 58.627398 
L 48.592879 55.519415 
L 50.469116 52.932212 
L 52.736504 50.433375 
L 55.43587 48.083042 
L 58.419397 46.057244 
L 61.673417 44.362966 
L 63.397402 43.642031 
L 66.376774 42.638671 
L 69.046811 41.967197 
L 71.828455 41.467173 
L 74.716129 41.139506 
L 77.704145 40.984818 
L 81.533086 41.033385 
L 85.495745 41.347483 
L 89.580797 41.926429 
L 93.77678 42.768854 
L 99.976175 44.436106 
L 106.346158 46.634281 
L 112.852149 49.351932 
L 119.459706 52.574786 
L 135.981902 62.57325 
L 140.883601 66.060383 
L 148.202862 71.711108 
L 155.43746 77.826855 
L 162.549142 84.36792 
L 169.501892 91.291739 
L 173.505399 95.52692 
L 177.435801 99.86947 
L 183.01056 106.358153 
L 188.400505 113.022078 
L 193.589952 119.82924 
L 201.044059 130.34871 
L 205.815377 137.595504 
L 208.105004 141.231197 
L 212.162883 147.951287 
L 217.843032 158.024988 
L 221.364829 164.722281 
L 225.048986 172.163209 
L 228.789526 180.253599 
L 231.975062 187.655303 
L 234.670748 194.366537 
L 237.226052 201.193585 
L 239.594984 208.027566 
L 241.629238 214.389782 
L 244.102386 222.949197 
L 246.326014 231.738533 
L 248.727683 242.401403 
L 249.346988 244.146895 
L 249.829526 243.970258 
L 250.401665 242.210131 
L 254.534292 225.216804 
L 257.179583 216.128778 
L 260.00799 207.519467 
L 262.655115 200.204451 
L 265.598126 192.711208 
L 268.28232 186.346993 
L 271.233133 179.777014 
L 274.45379 173.036366 
L 278.357678 165.375843 
L 282.552771 157.675059 
L 286.546381 150.785314 
L 290.788716 143.879962 
L 293.000886 140.432401 
L 297.601604 133.569387 
L 302.134162 127.181103 
L 305.680899 122.419663 
L 309.330794 117.722814 
L 313.078426 113.102519 
L 316.917917 108.570537 
L 323.516409 101.231221 
L 330.321235 94.222114 
L 336.208687 88.591319 
L 342.195782 83.260349 
L 351.372222 75.837151 
L 360.632464 69.243676 
L 370.050287 63.46094 
L 379.355254 58.684929 
L 387.859322 55.180229 
L 391.85856 53.835676 
L 395.783199 52.718211 
L 399.623377 51.830503 
L 403.369269 51.174672 
L 406.267793 50.820353 
L 409.095974 50.613539 
L 411.849016 50.554549 
L 414.522175 50.643479 
L 416.804447 50.84397 
L 419.0181 51.158666 
L 421.16003 51.587214 
L 423.227184 52.129132 
L 425.216563 52.783811 
L 427.125223 53.550511 
L 428.950284 54.428371 
L 430.68893 55.4164 
L 432.859029 56.896467 
L 434.865752 58.56582 
L 436.703121 60.42116 
L 438.365414 62.458823 
L 440.04566 65.008805 
L 441.481876 67.785656 
L 442.666883 70.782247 
L 443.594046 73.990908 
L 444.182662 76.926779 
L 444.570823 80.00919 
L 444.75531 83.232307 
L 444.733255 86.590048 
L 444.388448 91.175155 
L 443.681246 95.965104 
L 442.608055 100.944609 
L 441.166398 106.097857 
L 439.228555 111.747658 
L 436.872716 117.555316 
L 434.935232 121.787879 
L 432.786155 126.082942 
L 430.426805 130.432867 
L 426.230222 137.469641 
L 422.754963 142.784459 
L 418.993106 148.135599 
L 414.950071 153.50994 
L 410.579454 158.957974 
L 405.878709 164.466394 
L 400.595134 170.290197 
L 394.687902 176.408475 
L 388.463924 182.468665 
L 381.938266 188.452454 
L 378.567321 191.410116 
L 373.501619 195.698363 
L 368.294041 199.924656 
L 362.951813 204.082505 
L 357.482435 208.165626 
L 350.71448 212.991459 
L 343.786369 217.689077 
L 336.712768 222.248759 
L 329.508797 226.661335 
L 322.454528 230.768186 
L 310.945887 237.038963 
L 299.259432 242.892018 
L 266.503222 256.73816 
L 257.146893 260.033005 
L 247.8598 263.019956 
L 235.167484 266.644917 
L 228.919924 268.233541 
L 217.901628 270.71436 
L 208.391883 272.516923 
L 203.742176 273.280041 
L 196.259568 274.338642 
L 185.470073 275.477313 
L 178.595985 275.946463 
L 170.959812 276.211935 
L 162.753091 276.165023 
L 155.882674 275.825226 
L 150.212394 275.306251 
L 144.930281 274.595787 
L 140.051542 273.707963 
L 135.532927 272.642511 
L 131.404523 271.409309 
L 127.526221 269.948567 
L 124.004021 268.256536 
L 121.095139 266.441458 
L 119.873423 265.496217 
L 118.807943 264.530397 
L 117.216286 262.651527 
L 116.660646 261.747063 
L 116.232407 260.836568 
L 115.931486 259.922561 
L 115.763112 259.051374 
L 115.709689 258.181441 
L 115.77084 257.314915 
L 115.946089 256.453933 
L 116.240985 255.585609 
L 117.180557 253.881641 
L 118.526183 252.289894 
L 120.225766 250.819335 
L 122.31072 249.427116 
L 124.771707 248.126224 
L 128.287099 246.674003 
L 130.619437 245.896471 
L 133.13211 245.185658 
L 135.819949 244.545681 
L 138.832301 243.952894 
L 142.026018 243.447261 
L 145.394124 243.032851 
L 152.536667 242.496578 
L 160.178688 242.356586 
L 168.051781 242.608905 
L 176.049781 243.226842 
L 180.180704 243.67687 
L 186.904474 244.588149 
L 193.799133 245.741915 
L 200.836139 247.138764 
L 207.986612 248.777772 
L 222.70816 252.831066 
L 236.28823 257.37277 
L 249.7708 262.657649 
L 257.684122 266.133832 
L 266.949772 270.57551 
L 275.961225 275.304712 
L 281.526559 278.441928 
L 286.951457 281.671036 
L 292.222145 284.981681 
L 300.141543 290.30859 
L 305.591162 294.24858 
L 310.783386 298.239089 
L 315.702547 302.262081 
L 320.266244 306.237864 
L 324.475007 310.148127 
L 329.230665 314.907322 
L 334.267216 320.453698 
L 338.413788 325.559114 
L 341.760073 330.20406 
L 344.5557 334.652916 
L 346.794567 338.86764 
L 348.425946 342.681048 
L 349.505937 346.088967 
L 349.86511 347.68425 
L 350.159647 349.708705 
L 350.23951 351.58543 
L 350.107295 353.30652 
L 349.766101 354.864363 
L 349.205033 356.280586 
L 348.433684 357.511164 
L 347.822538 358.207429 
L 347.126229 358.820626 
L 346.346285 359.348999 
L 345.484322 359.790874 
L 344.542035 360.144655 
L 342.423666 360.581978 
L 341.251361 360.662756 
L 339.428033 360.613693 
L 337.458846 360.36546 
L 335.35038 359.915032 
L 333.109484 359.2598 
L 330.567886 358.327326 
L 327.891264 357.154807 
L 324.038501 355.165206 
L 319.976188 352.723863 
L 315.72947 349.830756 
L 309.500229 345.006689 
L 305.90373 341.923431 
L 302.244837 338.569389 
L 294.791843 331.066547 
L 285.060273 319.893526 
L 278.951655 312.041263 
L 272.921478 303.60126 
L 267.021303 294.615765 
L 261.30056 285.13164 
L 255.968195 275.505761 
L 250.847951 265.425006 
L 246.090971 255.175426 
L 241.717255 244.824781 
L 237.68322 234.27899 
L 234.014272 223.594915 
L 231.086154 214.059756 
L 228.792428 205.732086 
L 227.737987 201.57079 
L 226.082604 194.481466 
L 224.612995 187.427929 
L 223.331572 180.427533 
L 222.239998 173.497586 
L 221.320626 166.498359 
L 220.601101 159.609179 
L 219.917108 149.968177 
L 219.636943 140.642129 
L 219.732302 132.277987 
L 220.162292 124.271081 
L 220.832703 117.344387 
L 221.759101 110.770614 
L 222.929735 104.575635 
L 224.331438 98.783874 
L 225.284203 95.489842 
L 226.312615 92.356116 
L 227.413091 89.387217 
L 228.581899 86.58743 
L 230.034406 83.524944 
L 231.569064 80.706653 
L 233.17915 78.138145 
L 234.857728 75.824504 
L 237.653969 72.677821 
L 240.576025 70.204343 
L 244.469993 68.032056 
L 254.61995 67.706045 
L 259.013831 69.943417 
L 261.142465 71.601575 
L 263.210045 73.613467 
L 265.019689 75.735224 
L 266.761776 78.137453 
L 269.192069 82.182633 
L 271.433213 86.806579 
L 273.461842 91.986656 
L 275.256079 97.697612 
L 276.823136 104.038032 
L 277.692872 108.438166 
L 278.436844 113.037719 
L 279.05051 117.826918 
L 279.792549 126.530568 
L 280.092147 134.253867 
L 280.083176 142.286063 
L 279.75883 150.591353 
L 279.476845 154.834932 
L 278.900641 161.323766 
L 277.605441 171.871206 
L 276.341184 179.856065 
L 274.822574 187.926876 
L 273.052995 196.055908 
L 270.650359 205.679015 
L 267.471803 216.758346 
L 264.061773 227.219522 
L 260.612112 236.723627 
L 256.99966 245.789506 
L 255.09947 250.258395 
L 251.124148 259.044535 
L 246.934287 267.598153 
L 242.796943 275.440464 
L 238.510956 283.015433 
L 232.649185 292.584595 
L 226.623373 301.58182 
L 212.790778 319.457003 
L 207.488927 325.378697 
L 203.092513 329.917933 
L 198.767896 334.056633 
L 195.607705 336.874284 
L 192.511051 339.462333 
L 189.487963 341.818631 
L 186.548377 343.941617 
L 183.82825 345.750237 
L 181.201637 347.344858 
L 178.676812 348.72561 
L 174.326008 350.709017 
L 170.721275 351.896446 
L 169.061193 352.270448 
L 167.501607 352.500007 
L 166.046579 352.586921 
L 164.700022 352.533204 
L 163.465697 352.341082 
L 162.518048 352.074446 
L 161.654211 351.713373 
L 160.876143 351.259511 
L 160.185711 350.714605 
L 159.286026 349.684566 
L 158.611212 348.443922 
L 158.167001 347.000637 
L 157.958513 345.363156 
L 157.955378 344.103347 
L 158.300277 341.366689 
L 159.102036 338.362169 
L 160.193129 335.481429 
L 161.429646 332.827803 
L 162.938512 330.036781 
L 164.719627 327.120773 
L 165.712018 325.61984 
L 167.738284 322.757945 
L 169.996959 319.814724 
L 172.485682 316.800647 
L 176.769378 312.035998 
L 180.100072 308.618277 
L 183.685652 305.162151 
L 187.51944 301.681037 
L 192.872139 297.131775 
L 200.001236 291.541842 
L 207.642096 286.046213 
L 215.743122 280.693627 
L 219.965654 278.07522 
L 226.595696 274.179669 
L 233.448833 270.410217 
L 240.500531 266.784949 
L 251.23364 261.725738 
L 260.966418 257.586639 
L 270.863916 253.79196 
L 299.721579 245.002251 
L 311.963794 242.285107 
L 321.164453 240.651195 
L 330.148669 239.408837 
L 338.859832 238.557133 
L 347.242473 238.091447 
L 351.813974 237.995996 
L 357.157538 238.038697 
L 362.292868 238.250172 
L 369.571063 238.872731 
L 375.050114 239.631556 
L 380.991198 240.797724 
L 386.172129 242.181845 
L 390.623595 243.73395 
L 394.526828 245.480798 
L 397.858508 247.399469 
L 400.377046 249.275049 
L 402.21559 251.054782 
L 403.567916 252.799471 
L 404.494204 254.486647 
L 405.080092 256.206463 
L 405.322236 257.947953 
L 405.3136 258.82336 
L 405.153947 260.059333 
L 404.821351 261.293842 
L 404.31559 262.522939 
L 403.018471 264.642861 
L 401.494899 266.414545 
L 399.590346 268.137132 
L 397.308083 269.797742 
L 394.440087 271.498333 
L 390.904372 273.203814 
L 387.143615 274.685869 
L 383.245901 275.953359 
L 378.996512 277.091151 
L 374.405602 278.087847 
L 368.770864 279.037905 
L 361.956247 279.850343 
L 354.536939 280.380311 
L 346.522511 280.594925 
L 338.864388 280.49306 
L 331.701552 280.151772 
L 328.022791 279.890026 
L 320.484129 279.180199 
L 312.722559 278.217225 
L 302.434022 276.596468 
L 291.864214 274.540975 
L 285.568927 273.134762 
L 279.205601 271.57802 
L 266.317559 268.013888 
L 252.514736 263.590576 
L 235.333341 257.202085 
L 218.258678 249.854534 
L 211.17369 246.500877 
L 204.155316 242.994676 
L 194.270941 237.732803 
L 184.589516 232.191267 
L 175.14886 226.391385 
L 165.98537 220.356356 
L 160.127435 216.27157 
L 154.413928 212.103341 
L 148.853987 207.859439 
L 143.456382 203.547902 
L 137.976745 198.960465 
L 129.190266 191.10678 
L 122.483259 184.634513 
L 116.193916 178.117183 
L 110.340131 171.582427 
L 105.532198 165.802912 
L 103.551774 163.293868 
L 100.166782 158.801233 
L 97.010884 154.340612 
L 94.087362 149.921533 
L 90.133588 143.3738 
L 87.784751 139.065358 
L 85.679746 134.832847 
L 83.81957 130.685748 
L 82.095994 126.34043 
L 80.566762 121.83185 
L 79.358868 117.474353 
L 78.470429 113.281131 
L 77.901074 109.287565 
L 77.641838 105.502641 
L 77.625626 103.683153 
L 77.759839 100.819119 
L 78.090851 98.095804 
L 78.615378 95.518815 
L 79.329808 93.093497 
L 80.500061 90.249395 
L 81.959495 87.665956 
L 83.698693 85.35204 
L 85.707527 83.31571 
L 87.428884 81.94321 
L 89.298141 80.742085 
L 91.309925 79.714973 
L 93.45867 78.864194 
L 96.53601 78.005508 
L 99.833735 77.469557 
L 103.337143 77.259164 
L 107.031104 77.376081 
L 110.272322 77.728092 
L 113.627868 78.311677 
L 117.088239 79.126092 
L 120.643833 80.170047 
L 125.022044 81.722947 
L 130.917766 84.246984 
L 136.958202 87.314247 
L 143.105594 90.909176 
L 149.322567 95.013061 
L 159.570605 102.784988 
L 170.310634 112.283055 
L 175.597596 117.483779 
L 180.801682 122.95729 
L 187.468084 130.509985 
L 193.917695 138.437858 
L 199.773134 146.213912 
L 205.37346 154.222532 
L 208.917337 159.610083 
L 212.332505 165.060863 
L 218.024688 174.780878 
L 223.271642 184.562555 
L 226.298579 190.633627 
L 229.141957 196.6738 
L 231.799178 202.662161 
L 234.268649 208.577946 
L 237.852813 217.908749 
L 240.399396 225.231593 
L 242.631728 232.296959 
L 244.557328 239.062846 
L 246.644551 247.456195 
L 247.693965 252.330603 
L 248.688045 257.629662 
L 249.457603 262.523353 
L 250.001411 266.821156 
L 250.369651 270.698646 
L 250.599098 274.616816 
L 250.647857 277.9267 
L 250.546215 280.606463 
L 250.325842 282.638422 
L 250.080977 283.806442 
L 248.74335 283.44557 
L 248.432653 281.367382 
L 248.274451 278.365206 
L 248.286726 275.587694 
L 248.436389 272.251174 
L 248.745709 268.438424 
L 249.234531 264.169638 
L 250.502049 256.080137 
L 251.838838 249.396329 
L 253.545803 242.170959 
L 255.057161 236.521365 
L 256.789917 230.632807 
L 258.749994 224.531074 
L 262.344534 214.457748 
L 265.396197 206.744625 
L 268.53861 199.413292 
L 271.708249 192.527004 
L 275.175915 185.479863 
L 278.948015 178.303152 
L 280.92611 174.71875 
L 284.266564 168.915894 
L 287.759636 163.153482 
L 291.399062 157.449699 
L 295.17778 151.822508 
L 298.527566 147.065312 
L 301.968865 142.388623 
L 305.495865 137.803224 
L 309.102366 133.319666 
L 312.957252 128.744726 
L 316.884149 124.304228 
L 324.920081 115.870567 
L 333.445683 107.828503 
L 354.664821 91.630348 
L 359.682122 88.590454 
L 364.637956 85.895065 
L 370.726208 83.019486 
L 376.646418 80.713278 
L 381.359581 79.251883 
L 385.910046 78.187641 
L 390.275931 77.523462 
L 394.435675 77.260618 
L 397.496289 77.332274 
L 400.411547 77.642689 
L 403.172108 78.190453 
L 405.768872 78.973584 
L 408.478571 80.130307 
L 410.958548 81.576148 
L 413.197253 83.305812 
L 415.183687 85.313165 
L 416.845951 87.498458 
L 417.937711 89.315405 
L 418.881724 91.268675 
L 419.674633 93.35483 
L 420.313283 95.57023 
L 420.803516 97.9638 
L 421.126669 100.484056 
L 421.280077 103.126512 
L 421.261332 105.886495 
L 421.066082 108.781986 
L 420.691857 111.786784 
L 420.136996 114.895591 
L 419.400119 118.102959 
L 418.480131 121.403298 
L 417.376223 124.790888 
L 416.08788 128.259891 
L 413.688916 133.864285 
L 412.702561 135.945801 
L 410.650318 139.978876 
L 408.378909 144.078444 
L 405.889722 148.236307 
L 403.184571 152.444203 
L 400.097971 156.930066 
L 396.776499 161.452609 
L 393.223834 166.002035 
L 389.444174 170.568562 
L 382.847605 177.982093 
L 375.690046 185.37395 
L 368.023817 192.679939 
L 359.855591 199.885418 
L 351.217671 206.952698 
L 342.14527 213.845568 
L 333.832935 219.739089 
L 325.241004 225.448551 
L 318.070097 229.939836 
L 310.749602 234.284937 
L 303.296169 238.473855 
L 295.72691 242.497249 
L 283.534726 248.514633 
L 271.167302 254.063901 
L 251.515706 261.791966 
L 232.115342 268.157348 
L 223.279087 270.646002 
L 214.539121 272.85343 
L 207.713231 274.399535 
L 200.978137 275.769513 
L 194.347088 276.96415 
L 187.833135 277.984754 
L 177.256143 279.305835 
L 167.098929 280.159061 
L 157.41702 280.55996 
L 148.263153 280.527749 
L 140.103554 280.116799 
L 132.504586 279.357856 
L 127.30831 278.594116 
L 121.154745 277.381234 
L 115.573362 275.924708 
L 110.58675 274.249449 
L 106.214583 272.38166 
L 103.788762 271.121457 
L 101.615794 269.802947 
L 99.698695 268.433225 
L 98.039983 267.019493 
L 96.861536 265.818548 
L 95.863179 264.59652 
L 95.045556 263.357627 
L 94.40907 262.106096 
L 94.005446 261.018868 
L 93.627988 259.152218 
L 93.614161 257.603101 
L 93.871144 256.063985 
L 94.397144 254.542556 
L 94.760318 253.790852 
L 95.522585 252.540491 
L 96.471533 251.315222 
L 97.605047 250.119425 
L 98.920752 248.957405 
L 100.416016 247.833377 
L 102.087955 246.751459 
L 103.933437 245.715666 
L 107.988085 243.855352 
L 112.491644 242.259773 
L 117.238027 240.959429 
L 122.116715 239.934449 
L 127.083381 239.152923 
L 132.060642 238.592781 
L 137.307013 238.21176 
L 140.025406 238.090572 
L 149.339777 238.028086 
L 157.201982 238.358051 
L 165.599698 239.057673 
L 169.906546 239.546412 
L 178.703691 240.803613 
L 190.554427 243.021128 
L 200.41574 245.306628 
L 210.360743 248.007378 
L 222.857972 251.9625 
L 235.252995 256.51211 
L 242.938142 259.656494 
L 250.502243 263.003357 
L 257.91559 266.537298 
L 265.14945 270.241498 
L 270.487871 273.147021 
L 275.696123 276.131343 
L 280.763121 279.185732 
L 285.678232 282.301099 
L 291.022996 285.873507 
L 296.148204 289.49743 
L 300.424593 292.685626 
L 304.516529 295.892234 
L 308.416568 299.107291 
L 314.276455 304.276737 
L 318.359202 308.166085 
L 322.121295 312.009188 
L 325.554365 315.786926 
L 329.122198 320.070604 
L 332.623904 324.775198 
L 335.195745 328.716479 
L 337.397124 332.651609 
L 338.451543 334.859216 
L 339.320843 336.966971 
L 340.342377 340.168745 
L 340.799733 342.429445 
L 340.972176 344.492606 
L 340.864065 346.34634 
L 340.435939 348.106479 
L 340.073743 348.942511 
L 339.621177 349.697169 
L 339.079697 350.368495 
L 338.450849 350.954613 
L 337.73627 351.453729 
L 336.937684 351.864134 
L 336.056901 352.184207 
L 334.339456 352.52072 
L 332.390783 352.573438 
L 329.98891 352.295122 
L 327.335543 351.656928 
L 324.447322 350.652819 
L 321.341671 349.278156 
L 318.135241 347.58575 
L 314.758047 345.539337 
L 310.16185 342.364475 
L 305.348269 338.598764 
L 301.374196 335.17076 
L 297.307575 331.374811 
L 288.979738 322.706573 
L 281.981478 314.480592 
L 272.936977 302.497603 
L 268.48271 295.986755 
L 262.307547 286.216166 
L 256.613676 276.34187 
L 253.858534 271.224801 
L 251.173071 265.998253 
L 247.603862 258.644758 
L 244.192931 251.121783 
L 240.954284 243.452313 
L 237.900888 235.660098 
L 235.161163 228.104589 
L 232.611723 220.480844 
L 230.261032 212.811234 
L 226.873686 200.268055 
L 224.775754 191.19359 
L 223.09656 182.776106 
L 221.69114 174.440661 
L 220.562264 166.218344 
L 219.64938 157.436287 
L 219.034059 148.237068 
L 218.793679 139.382414 
L 218.91651 130.859475 
L 219.393016 122.712394 
L 220.176558 115.247433 
L 221.2198 108.456534 
L 222.65463 101.574121 
L 223.552135 98.085576 
L 224.53225 94.758849 
L 225.591354 91.599149 
L 227.170714 87.533677 
L 228.881975 83.805884 
L 230.325631 81.097025 
L 231.839627 78.61268 
L 235.054846 74.335898 
L 238.854373 70.70971 
L 242.839109 68.279977 
L 248.284986 66.941463 
L 253.523994 67.691094 
L 258.634084 70.418899 
L 261.094458 72.51467 
L 263.466755 75.08897 
L 265.733142 78.132693 
L 267.876326 81.635024 
L 268.969866 83.699429 
L 270.817911 87.7066 
L 272.515302 92.105061 
L 274.049008 96.880333 
L 275.406783 102.016699 
L 276.764399 108.50363 
L 277.845402 115.438059 
L 278.51055 121.391139 
L 278.975141 127.601969 
L 279.232858 134.05192 
L 279.278307 140.721692 
L 279.107286 147.585582 
L 278.71647 154.628672 
L 278.103402 161.830117 
L 277.266634 169.16868 
L 276.421627 175.217948 
L 275.428886 181.331843 
L 274.289129 187.498604 
L 272.07641 197.818153 
L 270.036235 206.066166 
L 268.924574 210.195657 
L 266.510563 218.486817 
L 264.327435 225.349734 
L 261.987722 232.176094 
L 259.497109 238.950671 
L 254.727953 250.793495 
L 250.226461 260.890558 
L 247.866279 265.839624 
L 244.470717 272.599749 
L 240.955325 279.19882 
L 237.331961 285.621059 
L 233.613056 291.851361 
L 229.377454 298.542386 
L 225.058138 304.959139 
L 219.098013 313.196234 
L 213.068919 320.856553 
L 201.890749 333.409349 
L 196.383327 338.841086 
L 190.986742 343.686159 
L 187.228628 346.776284 
L 183.563655 349.55788 
L 178.520994 352.990772 
L 173.742134 355.786163 
L 170.446608 357.42344 
L 167.32956 358.723461 
L 164.406257 359.689064 
L 161.691399 360.324227 
L 159.769291 360.589686 
L 157.982668 360.668482 
L 156.337265 360.563662 
L 154.838554 360.278625 
L 153.684272 359.89759 
L 152.64268 359.391617 
L 151.244581 358.354458 
L 150.14011 357.028333 
L 149.338457 355.425132 
L 148.847747 353.557611 
L 148.700555 352.236497 
L 148.683953 350.817304 
L 148.799323 349.303817 
L 149.04785 347.699926 
L 149.43069 346.008988 
L 150.602056 342.384167 
L 152.31722 338.463713 
L 154.576748 334.282587 
L 155.909912 332.105458 
L 157.733948 329.358001 
L 159.760118 326.540994 
L 161.986282 323.663038 
L 166.513967 318.328526 
L 171.09651 313.45255 
L 176.156205 308.523628 
L 182.570329 302.807287 
L 189.564568 297.113761 
L 197.097628 291.495563 
L 205.123406 286.00311 
L 209.807511 283.004518 
L 214.620517 280.068263 
L 221.023437 276.373964 
L 227.603577 272.812664 
L 235.438749 268.862508 
L 243.444314 265.133192 
L 254.256855 260.561125 
L 265.206831 256.450652 
L 282.380317 251.021296 
L 290.887332 248.788048 
L 299.278124 246.885589 
L 306.433757 245.504857 
L 313.932776 244.305734 
L 324.768677 243.048869 
L 331.664612 242.56644 
L 339.085617 242.354286 
L 346.8408 242.518565 
L 350.495228 242.752628 
L 354.216651 243.109106 
L 360.7186 244.067895 
L 366.16684 245.286473 
L 369.977001 246.44385 
L 372.481525 247.390614 
L 374.738029 248.414181 
L 376.740044 249.507597 
L 378.753718 250.867629 
L 380.611459 252.51693 
L 381.977107 254.244588 
L 382.472411 255.131769 
L 382.841349 256.031236 
L 383.08306 256.940493 
L 383.198975 257.899893 
L 383.174011 258.864342 
L 383.007616 259.830905 
L 382.351828 261.564061 
L 381.385549 263.085657 
L 380.058052 264.579532 
L 378.370594 266.033666 
L 376.41362 267.381414 
L 375.359577 268.007379 
L 373.329971 269.069866 
L 371.072674 270.081604 
L 368.590449 271.036567 
L 365.886457 271.928839 
L 362.964254 272.752622 
L 359.827782 273.502254 
L 356.481361 274.172223 
L 350.215976 275.126828 
L 345.040429 275.667977 
L 340.129108 276.004978 
L 334.964905 276.195011 
L 332.291289 276.232708 
L 323.174898 276.078464 
L 315.733188 275.656507 
L 311.890797 275.342708 
L 305.501202 274.684484 
L 298.92417 273.837203 
L 292.174316 272.796815 
L 285.266671 271.559915 
L 276.581724 269.766146 
L 267.710943 267.667598 
L 258.684276 265.262121 
L 249.532187 262.549153 
L 236.484876 258.207493 
L 223.336982 253.266117 
L 210.228884 247.763067 
L 197.193677 241.700187 
L 187.60819 236.849596 
L 178.144 231.717596 
L 171.795545 228.074973 
L 165.528994 224.31406 
L 159.354467 220.440249 
L 153.281867 216.459261 
L 146.435661 211.755597 
L 139.751359 206.927825 
L 133.242755 201.986134 
L 123.054784 193.72352 
L 115.56905 187.190445 
L 107.884411 180.013085 
L 101.061902 173.177062 
L 95.536484 167.266008 
L 90.323376 161.327189 
L 85.433387 155.377807 
L 79.977039 148.210029 
L 77.01277 144.029493 
L 74.222463 139.869227 
L 71.608455 135.735484 
L 69.100774 131.509036 
L 66.784506 127.324233 
L 64.661248 123.187872 
L 61.3721 115.987316 
L 59.004349 109.872288 
L 57.107378 103.942487 
L 55.680326 98.221655 
L 55.142245 95.446834 
L 54.593669 91.743585 
L 54.172162 86.281291 
L 54.17889 82.636798 
L 54.430977 79.153949 
L 54.647852 77.475603 
L 55.260638 74.249795 
L 55.862571 71.988536 
L 56.589984 69.828047 
L 57.440756 67.770989 
L 58.412638 65.819903 
L 59.503251 63.977203 
L 60.710096 62.245173 
L 62.030555 60.625964 
L 63.461895 59.121589 
L 65.471255 57.350575 
L 67.654652 55.778153 
L 70.005419 54.407605 
L 72.516633 53.241795 
L 74.83692 52.392564 
L 76.872764 51.802505 
L 78.98475 51.325711 
L 81.169843 50.962718 
L 83.424954 50.713935 
L 85.746947 50.57964 
L 88.132646 50.55998 
L 93.082263 50.864495 
L 97.147722 51.428573 
L 101.334897 52.276454 
L 105.630604 53.405668 
L 110.021587 54.81293 
L 116.943843 57.516137 
L 124.012331 60.850969 
L 131.771432 65.144967 
L 147.436304 75.755506 
L 158.61052 84.901282 
L 164.101441 89.889373 
L 169.503187 95.126225 
L 173.853869 99.590547 
L 178.123572 104.194229 
L 182.303628 108.923994 
L 186.385896 113.766184 
L 191.889712 120.665069 
L 197.170946 127.715884 
L 203.45091 136.706814 
L 209.328553 145.794965 
L 213.841304 153.27787 
L 218.059284 160.727554 
L 223.227028 170.556229 
L 225.949192 176.097278 
L 230.856272 186.859855 
L 234.658686 196.051454 
L 237.566521 203.735487 
L 240.308874 211.665153 
L 242.948019 220.142578 
L 245.120455 227.995455 
L 246.938527 235.406244 
L 248.911341 243.559641 
L 249.670727 243.9872 
L 250.035757 242.970732 
L 251.145888 238.161283 
L 252.964336 230.167895 
L 254.991758 222.295318 
L 257.73963 212.927339 
L 261.152739 202.696378 
L 264.810493 192.920852 
L 269.142745 182.48439 
L 273.182434 173.600602 
L 277.691596 164.447802 
L 281.715165 156.843128 
L 284.781833 151.353637 
L 288.004908 145.83871 
L 293.631032 136.768343 
L 295.941374 133.229332 
L 300.740559 126.190604 
L 305.768623 119.232885 
L 311.012976 112.390123 
L 315.594435 106.731926 
L 320.30994 101.198885 
L 326.127201 94.755076 
L 332.102456 88.550846 
L 337.34827 83.433259 
L 342.680686 78.534178 
L 353.543866 69.462293 
L 369.186467 58.469647 
L 376.66213 54.073317 
L 384.071292 50.275643 
L 391.484213 47.055349 
L 398.729473 44.501048 
L 404.914847 42.820605 
L 410.897741 41.675815 
L 416.462675 41.083381 
L 419.152646 40.978187 
L 421.775962 41.00051 
L 424.32893 41.150279 
L 426.807908 41.427263 
L 429.209307 41.831076 
L 431.529597 42.361177 
L 433.728011 43.004669 
L 435.841477 43.768708 
L 437.866837 44.652345 
L 439.801009 45.65449 
L 442.489751 47.352425 
L 444.962818 49.302675 
L 447.18294 51.469348 
L 449.176164 53.871107 
L 450.934781 56.501826 
L 452.451568 59.354829 
L 453.903995 62.947064 
L 455.009854 66.818597 
L 455.760507 70.956302 
L 456.148389 75.346231 
L 456.164972 80.031564 
L 455.797769 84.944222 
L 455.042519 90.067518 
L 453.896228 95.384155 
L 452.932948 98.961554 
L 451.248454 104.238344 
L 449.214319 109.645152 
L 446.831945 115.16612 
L 445.510892 117.964397 
L 443.483769 121.982754 
L 441.283951 126.040766 
L 438.913103 130.132553 
L 434.256985 137.509773 
L 429.719415 144.054258 
L 424.78392 150.618895 
L 419.462738 157.181045 
L 414.263377 163.168972 
L 411.803106 165.875981 
L 406.701575 171.260485 
L 401.366963 176.595458 
L 395.809721 181.868948 
L 390.748986 186.445085 
L 385.412479 191.058673 
L 379.922072 195.597171 
L 374.286966 200.052895 
L 368.516702 204.418454 
L 361.58579 209.417236 
L 354.49879 214.271212 
L 347.272694 218.970152 
L 339.924966 223.50451 
L 328.513489 230.089731 
L 316.925562 236.242856 
L 296.581098 245.833254 
L 284.049712 251.011117 
L 271.612226 255.618484 
L 261.896634 258.852988 
L 252.33305 261.724067 
L 238.360782 265.352078 
L 229.418724 267.310508 
L 220.825853 268.913293 
L 216.645624 269.589946 
L 206.710291 270.912028 
L 199.253794 271.621352 
L 191.107729 272.089931 
L 183.39985 272.201472 
L 176.197775 271.965655 
L 169.663778 271.408005 
L 163.831954 270.561074 
L 159.592966 269.674579 
L 155.585875 268.548379 
L 152.184511 267.272221 
L 150.25953 266.351491 
L 148.236156 265.130977 
L 146.65421 263.853721 
L 145.516434 262.536303 
L 144.824051 261.195388 
L 144.576656 259.842028 
L 144.620749 259.168028 
L 145.04264 257.83583 
L 145.905855 256.538475 
L 147.269028 255.241016 
L 149.131341 253.9976 
L 151.403544 252.874444 
L 154.112762 251.857817 
L 157.246126 250.963584 
L 158.967422 250.567118 
L 161.80956 250.028747 
L 164.881885 249.582293 
L 168.176457 249.233772 
L 173.744882 248.898775 
L 175.86788 248.843916 
L 180.296157 248.843223 
L 184.955934 248.993105 
L 189.832853 249.299236 
L 195.473408 249.827078 
L 201.163789 250.534011 
L 207.048488 251.43717 
L 213.107214 252.539899 
L 219.319226 253.84454 
L 227.87589 255.919085 
L 236.61928 258.361208 
L 250.20223 262.788498 
L 266.251996 269.01529 
L 274.245788 272.529519 
L 282.169289 276.295319 
L 291.177527 280.934695 
L 299.989296 285.86502 
L 306.243066 289.616679 
L 312.345593 293.495449 
L 318.27805 297.488673 
L 327.348791 304.065006 
L 330.598749 306.574857 
L 338.441768 313.01421 
L 343.362161 317.368106 
L 348.019484 321.751797 
L 352.954827 326.725728 
L 358.442105 332.744603 
L 361.168774 335.973215 
L 363.725254 339.177973 
L 367.989315 345.01103 
L 371.365159 350.229542 
L 374.217424 355.284988 
L 376.538702 360.142387 
L 377.498757 362.48602 
L 378.391236 364.965742 
L 379.124792 367.366165 
L 379.699635 369.681976 
L 380.322153 373.485343 
L 380.479838 376.477983 
L 380.302163 379.241578 
L 379.794344 381.761257 
L 379.418581 382.925174 
L 378.84245 384.274464 
L 378.145443 385.519091 
L 377.329586 386.656062 
L 376.397061 387.682514 
L 374.906197 388.924334 
L 373.199802 389.938974 
L 371.285223 390.720038 
L 369.170318 391.261705 
L 367.342235 391.518906 
L 365.248715 391.6185 
L 363.024885 391.53281 
L 360.676715 391.259567 
L 358.210378 390.796854 
L 355.685303 390.158199 
L 353.059041 389.335025 
L 350.337891 388.326554 
L 347.528287 387.132355 
L 344.56524 385.71634 
L 341.523406 384.105628 
L 338.410041 382.300899 
L 335.232485 380.303225 
L 330.507731 377.053653 
L 325.685677 373.404416 
L 315.842103 364.939507 
L 304.556944 353.554477 
L 298.086733 346.184089 
L 291.704408 338.269478 
L 287.880517 333.200043 
L 284.116856 327.954053 
L 280.423314 322.542104 
L 276.809425 316.975297 
L 271.967953 309.056925 
L 267.318509 300.897364 
L 260.750339 288.27903 
L 256.653389 279.62856 
L 252.801771 270.821086 
L 248.945045 261.191198 
L 245.176537 250.772021 
L 243.446584 245.561085 
L 241.474394 239.203068 
L 239.662133 232.873774 
L 238.011819 226.587613 
L 236.524886 220.358961 
L 234.537839 210.814823 
L 233.089489 202.416383 
L 231.961443 194.240248 
L 231.149384 186.323806 
L 230.631019 178.360688 
L 230.44036 170.436517 
L 230.475055 166.636973 
L 230.633033 162.116708 
L 231.259198 154.135367 
L 232.210077 147.315163 
L 233.484842 141.159768 
L 234.233867 138.344147 
L 235.051733 135.709507 
L 235.934046 133.260186 
L 236.907653 130.930398 
L 238.953382 127.010483 
L 241.179815 123.88707 
L 243.516012 121.604799 
L 245.9486 120.134467 
L 253.55204 120.750937 
L 257.134079 123.891424 
L 258.819091 126.150475 
L 260.410564 128.858714 
L 262.009271 132.286978 
L 263.358504 135.914003 
L 264.563696 139.959132 
L 265.610051 144.407926 
L 266.483585 149.244505 
L 267.054548 153.427054 
L 267.497466 157.842123 
L 267.841124 163.202543 
L 267.998408 168.841259 
L 267.961672 174.740881 
L 267.473188 184.808525 
L 266.727763 192.899091 
L 266.231282 197.054846 
L 265.466612 202.518334 
L 264.561278 208.083064 
L 263.514364 213.738185 
L 261.184498 224.478961 
L 258.585924 234.615269 
L 257.129349 239.730776 
L 255.299189 245.725376 
L 253.329761 251.73809 
L 251.223361 257.757328 
L 248.982714 263.771543 
L 246.759578 269.403484 
L 244.423812 275.011444 
L 241.978679 280.586085 
L 237.20645 290.724755 
L 232.558169 299.807409 
L 230.136545 304.273087 
L 225.370638 312.59403 
L 220.405134 320.674958 
L 215.262725 328.483658 
L 209.967601 335.98952 
L 202.134136 346.198234 
L 194.118129 355.641935 
L 184.855423 365.395423 
L 174.578399 374.845433 
L 166.644893 381.174977 
L 162.749863 383.971323 
L 158.917644 386.517263 
L 153.327203 389.852113 
L 147.939348 392.614264 
L 143.847715 394.390232 
L 139.922978 395.806268 
L 136.182266 396.863593 
L 132.6422 397.5647 
L 130.457285 397.831041 
L 128.368108 397.949871 
L 126.378797 397.922712 
L 124.493351 397.751299 
L 122.857117 397.468573 
L 121.314559 397.067547 
L 119.868445 396.550016 
L 118.521431 395.917911 
L 117.309585 395.195705 
L 116.195973 394.369235 
L 115.182705 393.440631 
L 114.271773 392.412136 
L 113.222154 390.893772 
L 112.360868 389.208732 
L 111.691594 387.363126 
L 111.217606 385.363353 
L 110.953944 383.363739 
L 110.864879 381.241268 
L 110.952077 379.001743 
L 111.480729 375.087551 
L 112.229657 371.837403 
L 113.274126 368.434519 
L 114.614019 364.892638 
L 116.651569 360.394659 
L 118.060973 357.659209 
L 121.33181 352.041481 
L 124.796592 346.827533 
L 128.73287 341.51568 
L 133.126085 336.13804 
L 137.959068 330.726415 
L 142.702573 325.818777 
L 147.774703 320.931758 
L 154.251207 315.141598 
L 161.138733 309.449584 
L 166.315371 305.444263 
L 171.670488 301.520055 
L 177.188964 297.688817 
L 187.048953 291.32916 
L 191.305541 288.76083 
L 199.980378 283.83157 
L 210.266956 278.482334 
L 246.760227 263.410611 
L 252.870948 261.451724 
L 258.89982 259.676942 
L 266.554057 257.653193 
L 273.997532 255.93844 
L 279.699481 254.800722 
L 285.225246 253.851027 
L 290.555771 253.085756 
L 299.466867 252.168059 
L 305.868195 251.824652 
L 311.076108 251.774357 
L 315.862916 251.944454 
L 320.20262 252.318953 
L 323.975666 252.863356 
L 327.307856 253.574201 
L 330.236899 254.460998 
L 332.617953 255.47918 
L 334.434977 256.605306 
L 335.598534 257.717789 
L 336.24914 258.842597 
L 336.402133 259.448414 
L 336.423217 260.05982 
L 336.311857 260.674104 
L 336.067651 261.288536 
L 335.690336 261.900375 
L 334.536019 263.105288 
L 333.00704 264.174227 
L 331.031335 265.189616 
L 328.612612 266.134602 
L 325.756134 266.992554 
L 322.000053 267.838726 
L 317.703189 268.529101 
L 312.461644 269.074739 
L 307.681205 269.348847 
L 302.128013 269.447338 
L 296.144146 269.327568 
L 289.750133 268.973674 
L 283.122868 268.387157 
L 276.309088 267.572077 
L 267.454354 266.217485 
L 261.971318 265.221661 
L 256.344736 264.080806 
L 250.584599 262.792087 
L 244.274981 261.244082 
L 237.83668 259.520958 
L 231.282903 257.620748 
L 224.627105 255.542034 
L 213.862237 251.86529 
L 202.929781 247.734177 
L 190.353268 242.482568 
L 172.062819 233.865328 
L 162.951222 229.121088 
L 153.904451 224.098013 
L 145.702162 219.26181 
L 137.604319 214.209972 
L 129.634227 208.952889 
L 121.814673 203.501972 
L 115.806605 199.102969 
L 106.040375 191.527704 
L 98.473178 185.261439 
L 91.167785 178.844645 
L 84.146076 172.295735 
L 77.568735 165.777108 
L 71.434409 159.314001 
L 65.266986 152.38241 
L 59.146611 144.993616 
L 53.458782 137.572108 
L 48.220665 130.145508 
L 43.621846 123.025222 
L 39.757848 116.474442 
L 36.402162 110.222984 
L 33.410452 104.044878 
L 30.787382 97.957967 
L 29.615222 94.954252 
L 28.151531 90.859364 
L 26.866148 86.826193 
L 25.75943 82.860396 
L 24.320898 76.462213 
L 23.528718 71.558391 
L 23.246744 69.162898 
L 22.982405 65.929665 
L 22.860872 62.77519 
L 22.881177 59.703137 
L 23.042184 56.717081 
L 23.342597 53.820501 
L 23.780963 51.016777 
L 24.355669 48.309185 
L 25.064953 45.700887 
L 26.490861 41.703057 
L 28.254363 37.98472 
L 29.824936 35.33649 
L 31.582504 32.86313 
L 33.522009 30.569034 
L 35.638105 28.45826 
L 37.261556 27.059252 
L 38.970819 25.757739 
L 40.763674 24.554884 
L 42.637837 23.451756 
L 44.590965 22.449325 
L 46.620658 21.548461 
L 48.724462 20.749934 
L 50.899872 20.054412 
L 53.176939 19.454746 
L 55.522338 18.962117 
L 57.933317 18.576897 
L 60.407081 18.299345 
L 63.691949 18.10038 
L 67.070727 18.081467 
L 70.537146 18.242336 
L 74.084871 18.582401 
L 77.978152 19.146139 
L 81.949868 19.913997 
L 85.992016 20.884048 
L 90.096578 22.053952 
L 96.048636 24.064932 
L 102.088311 26.468155 
L 114.338565 32.405537 
L 129.805905 41.847642 
L 142.35405 51.07797 
L 149.49127 56.966056 
L 155.317858 62.126305 
L 161.032448 67.505962 
L 166.619322 73.081786 
L 172.063879 78.829717 
L 176.447268 83.693214 
L 180.717267 88.643057 
L 185.518458 94.471839 
L 190.149737 100.37407 
L 194.603322 106.326406 
L 201.538771 116.183813 
L 206.627158 123.918749 
L 212.312049 133.1281 
L 218.342588 143.644065 
L 223.838909 154.00753 
L 228.766266 164.038569 
L 232.710471 172.648329 
L 236.868676 182.337384 
L 242.694055 196.745896 
L 245.48833 203.29056 
L 247.026991 206.171795 
L 249.055474 208.139339 
L 249.950613 208.079389 
L 251.595898 206.481563 
L 252.491875 204.975847 
L 254.492981 200.681147 
L 257.970027 192.088118 
L 262.422428 181.092946 
L 266.188391 172.312477 
L 269.266203 165.524074 
L 272.920032 157.886696 
L 276.762909 150.299959 
L 280.739251 142.878409 
L 285.064551 135.245882 
L 289.740281 127.454662 
L 294.618078 119.781553 
L 299.664424 112.282758 
L 302.299824 108.530047 
L 306.302776 103.02999 
L 313.232553 94.038596 
L 316.066537 90.542412 
L 321.908928 83.64429 
L 328.232098 76.621714 
L 334.772857 69.812472 
L 341.375828 63.382222 
L 348.142348 57.233849 
L 355.046746 51.403054 
L 362.061521 45.923748 
L 377.061836 35.674975 
L 388.376171 29.261685 
L 397.17534 25.074152 
L 405.850517 21.661236 
L 413.946641 19.157217 
L 417.911231 18.187204 
L 421.810372 17.408203 
L 428.149135 16.538541 
L 431.231981 16.306879 
L 434.251536 16.211379 
L 437.203643 16.252356 
L 440.084183 16.429942 
L 442.889084 16.744091 
L 445.614329 17.19458 
L 449.183379 18.024646 
L 452.588252 19.104245 
L 455.819464 20.431245 
L 458.86781 22.002925 
L 461.443194 23.620885 
L 463.101545 24.829964 
L 464.683673 26.126738 
L 466.187741 27.510163 
L 467.611965 28.979115 
L 468.954616 30.5324 
L 470.214025 32.16875 
L 471.388582 33.886826 
L 473.356891 37.323646 
L 474.911533 40.777453 
L 476.186077 44.459882 
L 477.174033 48.361655 
L 477.870823 52.482388 
L 478.10789 54.623273 
L 478.337332 58.383585 
L 478.344601 62.278942 
L 478.127559 66.302198 
L 477.684481 70.445991 
L 477.059168 74.452934 
L 476.231362 78.553666 
L 475.20065 82.741592 
L 473.150792 89.542959 
L 471.310578 94.679067 
L 469.194388 99.899461 
L 466.804227 105.192875 
L 465.507211 107.863421 
L 463.081958 112.557457 
L 460.453613 117.286537 
L 457.624928 122.043066 
L 452.514492 129.951173 
L 448.100982 136.221973 
L 443.369335 142.488681 
L 438.32981 148.734777 
L 432.346703 155.6716 
L 425.323161 163.258566 
L 417.709191 170.911626 
L 409.505019 178.591291 
L 400.918469 186.085091 
L 391.985341 193.363863 
L 387.40054 196.913992 
L 380.709958 201.886104 
L 373.885778 206.718216 
L 367.969778 210.723475 
L 361.977172 214.615723 
L 349.801434 222.04307 
L 338.87831 228.19159 
L 327.865418 233.927677 
L 311.817696 241.497529 
L 295.878617 248.129281 
L 283.834215 252.569198 
L 272.52777 256.292089 
L 261.515692 259.499701 
L 251.052656 262.155642 
L 240.997624 264.334051 
L 235.122026 265.429245 
L 229.430294 266.358716 
L 223.934399 267.127207 
L 215.681173 268.025928 
L 209.979913 268.451556 
L 204.595818 268.690546 
L 199.543638 268.753688 
L 193.468505 268.59053 
L 186.805168 268.041239 
L 182.443111 267.405768 
L 178.657511 266.606746 
L 175.465633 265.671082 
L 172.872324 264.623922 
L 170.88514 263.491918 
L 169.508737 262.302064 
L 168.996128 261.604742 
L 168.684548 260.902455 
L 168.573572 260.200302 
L 168.662465 259.503356 
L 168.968492 258.784852 
L 169.490812 258.083302 
L 170.227487 257.404364 
L 171.176211 256.753614 
L 173.364903 255.688485 
L 176.190903 254.75805 
L 179.364826 254.039824 
L 183.050368 253.483157 
L 187.421507 253.096073 
L 192.300133 252.928315 
L 197.656849 252.99937 
L 203.459977 253.326786 
L 210.552142 254.029449 
L 218.124384 255.102268 
L 222.929839 255.94041 
L 227.87892 256.923364 
L 232.958523 258.053328 
L 238.15529 259.331939 
L 246.709751 261.698186 
L 255.473987 264.4515 
L 264.141041 267.497153 
L 272.897793 270.900522 
L 293.260528 280.116422 
L 299.772044 283.466326 
L 308.975205 288.55865 
L 317.96988 293.968641 
L 326.695458 299.664452 
L 335.093917 305.610582 
L 340.278281 309.534757 
L 345.291877 313.534918 
L 350.375732 317.819797 
L 357.586841 324.351143 
L 362.098023 328.753624 
L 364.259996 330.963751 
L 370.464052 337.732976 
L 375.283895 343.530652 
L 379.610435 349.274404 
L 383.425625 354.927653 
L 385.136685 357.708834 
L 387.035085 361.036275 
L 388.73478 364.30176 
L 390.233825 367.497091 
L 392.227105 372.487784 
L 393.388933 376.129796 
L 394.333247 380.073301 
L 394.920992 384.224008 
L 395.030625 386.188847 
L 394.989295 388.652605 
L 394.739102 390.973476 
L 394.282478 393.144116 
L 393.622306 395.15745 
L 392.468998 397.522259 
L 390.987574 399.597292 
L 389.187538 401.36945 
L 387.079526 402.82662 
L 385.332503 403.693744 
L 383.429065 404.379074 
L 381.374571 404.878878 
L 379.174662 405.189774 
L 377.346326 405.299588 
L 375.43468 405.289386 
L 372.27812 405.029172 
L 368.936679 404.467512 
L 365.423051 403.601531 
L 361.750352 402.429264 
L 357.287441 400.675312 
L 352.648715 398.503978 
L 347.856555 395.916979 
L 342.933723 392.917786 
L 338.138905 389.678715 
L 333.266307 386.075589 
L 324.913642 379.182497 
L 307.029465 361.345843 
L 302.223491 355.799701 
L 297.478905 349.985785 
L 292.812495 343.919982 
L 288.240454 337.619199 
L 283.990792 331.42039 
L 279.85349 325.041084 
L 275.140233 317.317441 
L 270.618412 309.395458 
L 266.305292 301.304954 
L 262.216663 293.076724 
L 256.967964 281.551708 
L 253.285327 272.665235 
L 249.898912 263.749391 
L 246.818567 254.843364 
L 243.863771 245.347581 
L 241.114889 235.327429 
L 238.729238 225.210217 
L 236.744195 215.077483 
L 235.195946 205.040472 
L 234.110047 195.197443 
L 233.561984 186.993435 
L 233.380946 180.299462 
L 233.466753 173.644569 
L 233.845331 167.119085 
L 234.501016 161.090578 
L 234.926396 158.272486 
L 236.247787 151.845436 
L 237.177511 148.503249 
L 238.211919 145.475199 
L 239.340878 142.769586 
L 240.553886 140.393836 
L 241.930165 138.227874 
L 243.376432 136.452497 
L 246.423241 134.094541 
L 253.017838 134.38797 
L 255.377011 136.295582 
L 257.604386 139.159462 
L 258.890948 141.39552 
L 260.513166 145.011759 
L 261.954013 149.260586 
L 262.74831 152.22007 
L 263.454918 155.410561 
L 264.067699 158.825435 
L 264.580792 162.457605 
L 265.088413 167.476194 
L 265.407925 172.82968 
L 265.528937 178.499492 
L 265.442053 184.465998 
L 265.238051 189.076247 
L 264.911756 193.829975 
L 264.460475 198.718161 
L 263.881863 203.731547 
L 263.088023 209.431974 
L 261.397292 219.25431 
L 259.703209 227.380288 
L 257.71029 235.665734 
L 255.419033 244.076166 
L 254.162208 248.317375 
L 252.163833 254.637102 
L 250.005936 260.982473 
L 247.972271 266.589219 
L 245.818708 272.195044 
L 243.547758 277.790222 
L 241.162271 283.365096 
L 237.864682 290.631405 
L 234.383524 297.824961 
L 230.727758 304.924796 
L 224.285554 316.474313 
L 221.59933 320.973365 
L 216.047438 329.754604 
L 210.276999 338.217087 
L 204.324074 346.313308 
L 199.388882 352.579874 
L 194.37515 358.56153 
L 186.632285 367.085058 
L 178.825108 374.849665 
L 169.138111 383.374014 
L 159.613881 390.571146 
L 155.31144 393.430237 
L 151.089988 395.989507 
L 147.250776 398.096998 
L 143.505665 399.940663 
L 139.866066 401.519334 
L 136.343214 402.832551 
L 132.874738 403.900698 
L 129.551232 404.692816 
L 126.383888 405.210671 
L 123.383553 405.456769 
L 121.454404 405.470769 
L 119.609568 405.363126 
L 117.852081 405.135173 
L 116.184886 404.788389 
L 114.610821 404.324394 
L 113.13262 403.744947 
L 111.752905 403.051941 
L 110.101002 401.97743 
L 108.890599 400.968039 
L 107.800261 399.838851 
L 106.832488 398.5928 
L 105.989615 397.232967 
L 105.273805 395.762573 
L 104.687042 394.184974 
L 104.231133 392.503658 
L 103.764457 389.458793 
L 103.664367 386.80366 
L 103.814982 383.985723 
L 104.218329 381.015103 
L 104.898785 377.809295 
L 105.879994 374.367626 
L 107.109932 370.886514 
L 108.566082 367.387853 
L 110.276293 363.791576 
L 112.23835 360.109177 
L 115.305226 354.984242 
L 117.477814 351.685764 
L 119.827828 348.35126 
L 122.352026 344.988112 
L 124.962799 341.706299 
L 127.730355 338.411109 
L 130.650752 335.109136 
L 133.719739 331.8069 
L 137.573346 327.871677 
L 141.624067 323.956024 
L 145.863002 320.070476 
L 150.280688 316.225305 
L 155.442991 311.967196 
L 160.691513 307.871002 
L 166.115139 303.861106 
L 171.698428 299.949225 
L 177.425312 296.146473 
L 182.308372 293.060443 
L 187.270082 290.063657 
L 197.388348 284.359046 
L 209.690461 278.10628 
L 222.114068 272.5002 
L 234.470069 267.596369 
L 240.480133 265.447902 
L 246.428818 263.473277 
L 252.298295 261.67379 
L 258.070865 260.049943 
L 264.869758 258.326901 
L 274.691141 256.214284 
L 280.944658 255.11458 
L 286.983753 254.248153 
L 294.055013 253.501199 
L 301.773721 253.062203 
L 307.611037 253.042593 
L 311.865221 253.238217 
L 316.117313 253.659033 
L 320.17943 254.345586 
L 323.334518 255.164804 
L 325.701152 256.052134 
L 327.532613 257.043898 
L 328.816339 258.11751 
L 329.249538 258.677753 
L 329.600398 259.416502 
L 329.716057 260.168223 
L 329.595115 260.926427 
L 329.236613 261.684577 
L 328.719044 262.352084 
L 328.013875 263.009767 
L 327.12131 263.653016 
L 325.167406 264.704049 
L 323.141541 265.515947 
L 320.749415 266.261613 
L 317.995685 266.928506 
L 314.612066 267.547655 
L 310.512311 268.077364 
L 305.336332 268.481921 
L 298.909827 268.662216 
L 292.750059 268.562032 
L 287.098644 268.269651 
L 281.109412 267.774107 
L 274.800195 267.064385 
L 266.760313 265.904091 
L 256.806071 264.100951 
L 247.266978 262.017899 
L 238.30288 259.759801 
L 233.719624 258.496162 
L 224.834263 255.840518 
L 215.76246 252.85266 
L 208.632449 250.309814 
L 201.428172 247.566694 
L 186.86364 241.483115 
L 163.562277 230.205942 
L 147.556385 221.287822 
L 136.317386 214.405447 
L 130.778897 210.811953 
L 125.304717 207.121644 
L 119.902422 203.338357 
L 114.579449 199.466154 
L 109.343088 195.509316 
L 104.200467 191.472338 
L 98.894714 187.140324 
L 93.708493 182.730393 
L 88.649465 178.248494 
L 79.917126 170.048707 
L 72.582853 162.645367 
L 65.33725 154.785565 
L 58.495137 146.766673 
L 52.360293 138.972526 
L 46.708739 131.15814 
L 41.559019 123.355465 
L 39.177469 119.468618 
L 36.816439 115.40066 
L 34.602244 111.354086 
L 32.536556 107.333634 
L 30.62085 103.344034 
L 28.897012 99.484554 
L 27.318252 95.663328 
L 25.885392 91.884703 
L 23.720666 85.353932 
L 22.218493 79.851747 
L 21.056002 74.489665 
L 20.232559 69.282042 
L 19.755594 64.381093 
L 19.595456 59.785089 
L 19.731175 55.362152 
L 20.159196 51.122984 
L 20.481517 49.075543 
L 21.219016 45.605172 
L 22.172723 42.29437 
L 23.653473 38.411181 
L 25.453816 34.795228 
L 27.564579 31.456936 
L 29.975771 28.405907 
L 32.396374 25.910448 
L 35.043704 23.661012 
L 38.321674 21.406526 
L 41.868242 19.484072 
L 45.669059 17.899189 
L 49.709181 16.656308 
L 52.159172 16.092853 
L 54.681552 15.646346 
L 57.273168 15.317127 
L 59.930818 15.105402 
L 64.140788 15.009231 
L 68.487401 15.190931 
L 72.958532 15.649417 
L 77.541928 16.382858 
L 81.366964 17.185706 
L 85.252111 18.169136 
L 93.175571 20.668995 
L 104.223069 25.18817 
L 115.430819 30.926729 
L 129.880256 39.969673 
L 139.577214 47.067756 
L 147.583181 53.561244 
L 155.420746 60.489683 
L 163.050224 67.799715 
L 170.435326 75.435137 
L 173.211597 78.454908 
L 178.662702 84.633668 
L 183.927191 90.93051 
L 188.993638 97.316389 
L 193.852143 103.761861 
L 198.49156 110.2332 
L 205.426494 120.540152 
L 210.218212 128.154794 
L 212.490645 131.921503 
L 216.076794 138.087011 
L 219.43608 144.128016 
L 222.570258 150.017508 
L 227.05115 158.908037 
L 231.707062 168.801889 
L 235.812541 178.132541 
L 240.65834 189.80146 
L 244.672155 199.334582 
L 246.526928 202.995616 
L 248.043488 205.033799 
L 249.457983 205.716449 
L 249.457983 205.716449 
" style="fill:none;stroke:#800080;stroke-linecap:square;"/>
   </g>
   <g id="patch_3">
    <path d="M 10.401119 262.526035 
L 488.506616 262.526035 
" style="fill:none;stroke:#000000;stroke-linecap:square;stroke-linejoin:miter;stroke-width:0.8;"/>
   </g>
   <g id="patch_4">
    <path d="M 249.457983 413.28 
L 249.457983 7.2 
" style="fill:none;stroke:#000000;stroke-linecap:square;stroke-linejoin:miter;stroke-width:0.8;"/>
   </g>
   <g id="matplotlib.axis_1">
    <g id="xtick_1">
     <g id="line2d_2">
      <defs>
       <path d="M 0 0 
L 0 -4 
" id="m369612aa2c" style="stroke:#000000;stroke-width:0.5;"/>
      </defs>
      <g>
       <use style="stroke:#000000;stroke-width:0.5;" x="12.18515625" xlink:href="#m369612aa2c" y="262.526035361"/>
      </g>
     </g>
     <g id="text_1">
      <!-- -3 -->
      <defs>
       <path d="M 40.578125 39.3125 
Q 47.65625 37.796875 51.625 33 
Q 55.609375 28.21875 55.609375 21.1875 
Q 55.609375 10.40625 48.1875 4.484375 
Q 40.765625 -1.421875 27.09375 -1.421875 
Q 22.515625 -1.421875 17.65625 -0.515625 
Q 12.796875 0.390625 7.625 2.203125 
L 7.625 11.71875 
Q 11.71875 9.328125 16.59375 8.109375 
Q 21.484375 6.890625 26.8125 6.890625 
Q 36.078125 6.890625 40.9375 10.546875 
Q 45.796875 14.203125 45.796875 21.1875 
Q 45.796875 27.640625 41.28125 31.265625 
Q 36.765625 34.90625 28.71875 34.90625 
L 20.21875 34.90625 
L 20.21875 43.015625 
L 29.109375 43.015625 
Q 36.375 43.015625 40.234375 45.921875 
Q 44.09375 48.828125 44.09375 54.296875 
Q 44.09375 59.90625 40.109375 62.90625 
Q 36.140625 65.921875 28.71875 65.921875 
Q 24.65625 65.921875 20.015625 65.03125 
Q 15.375 64.15625 9.8125 62.3125 
L 9.8125 71.09375 
Q 15.4375 72.65625 20.34375 73.4375 
Q 25.25 74.21875 29.59375 74.21875 
Q 40.828125 74.21875 47.359375 69.109375 
Q 53.90625 64.015625 53.90625 55.328125 
Q 53.90625 49.265625 50.4375 45.09375 
Q 46.96875 40.921875 40.578125 39.3125 
" id="BitstreamVeraSans-Roman-33"/>
       <path d="M 4.890625 31.390625 
L 31.203125 31.390625 
L 31.203125 23.390625 
L 4.890625 23.390625 
z
" id="BitstreamVeraSans-Roman-2d"/>
      </defs>
      <g transform="translate(7.2 274.124472861)scale(0.1 -0.1)">
       <use xlink:href="#BitstreamVeraSans-Roman-2d"/>
       <use x="36.083984375" xlink:href="#BitstreamVeraSans-Roman-33"/>
      </g>
     </g>
    </g>
    <g id="xtick_2">
     <g id="line2d_3">
      <g>
       <use style="stroke:#000000;stroke-width:0.5;" x="91.2760985309" xlink:href="#m369612aa2c" y="262.526035361"/>
      </g>
     </g>
     <g id="text_2">
      <!-- -2 -->
      <defs>
       <path d="M 19.1875 8.296875 
L 53.609375 8.296875 
L 53.609375 0 
L 7.328125 0 
L 7.328125 8.296875 
Q 12.9375 14.109375 22.625 23.890625 
Q 32.328125 33.6875 34.8125 36.53125 
Q 39.546875 41.84375 41.421875 45.53125 
Q 43.3125 49.21875 43.3125 52.78125 
Q 43.3125 58.59375 39.234375 62.25 
Q 35.15625 65.921875 28.609375 65.921875 
Q 23.96875 65.921875 18.8125 64.3125 
Q 13.671875 62.703125 7.8125 59.421875 
L 7.8125 69.390625 
Q 13.765625 71.78125 18.9375 73 
Q 24.125 74.21875 28.421875 74.21875 
Q 39.75 74.21875 46.484375 68.546875 
Q 53.21875 62.890625 53.21875 53.421875 
Q 53.21875 48.921875 51.53125 44.890625 
Q 49.859375 40.875 45.40625 35.40625 
Q 44.1875 33.984375 37.640625 27.21875 
Q 31.109375 20.453125 19.1875 8.296875 
" id="BitstreamVeraSans-Roman-32"/>
      </defs>
      <g transform="translate(86.2909422809 274.124472861)scale(0.1 -0.1)">
       <use xlink:href="#BitstreamVeraSans-Roman-2d"/>
       <use x="36.083984375" xlink:href="#BitstreamVeraSans-Roman-32"/>
      </g>
     </g>
    </g>
    <g id="xtick_3">
     <g id="line2d_4">
      <g>
       <use style="stroke:#000000;stroke-width:0.5;" x="170.367040812" xlink:href="#m369612aa2c" y="262.526035361"/>
      </g>
     </g>
     <g id="text_3">
      <!-- -1 -->
      <defs>
       <path d="M 12.40625 8.296875 
L 28.515625 8.296875 
L 28.515625 63.921875 
L 10.984375 60.40625 
L 10.984375 69.390625 
L 28.421875 72.90625 
L 38.28125 72.90625 
L 38.28125 8.296875 
L 54.390625 8.296875 
L 54.390625 0 
L 12.40625 0 
z
" id="BitstreamVeraSans-Roman-31"/>
      </defs>
      <g transform="translate(165.381884562 274.124472861)scale(0.1 -0.1)">
       <use xlink:href="#BitstreamVeraSans-Roman-2d"/>
       <use x="36.083984375" xlink:href="#BitstreamVeraSans-Roman-31"/>
      </g>
     </g>
    </g>
    <g id="xtick_4">
     <g id="line2d_5">
      <g>
       <use style="stroke:#000000;stroke-width:0.5;" x="249.457983093" xlink:href="#m369612aa2c" y="262.526035361"/>
      </g>
     </g>
    </g>
    <g id="xtick_5">
     <g id="line2d_6">
      <g>
       <use style="stroke:#000000;stroke-width:0.5;" x="328.548925374" xlink:href="#m369612aa2c" y="262.526035361"/>
      </g>
     </g>
     <g id="text_4">
      <!-- 1 -->
      <g transform="translate(325.367675374 274.124472861)scale(0.1 -0.1)">
       <use xlink:href="#BitstreamVeraSans-Roman-31"/>
      </g>
     </g>
    </g>
    <g id="xtick_6">
     <g id="line2d_7">
      <g>
       <use style="stroke:#000000;stroke-width:0.5;" x="407.639867655" xlink:href="#m369612aa2c" y="262.526035361"/>
      </g>
     </g>
     <g id="text_5">
      <!-- 2 -->
      <g transform="translate(404.458617655 274.124472861)scale(0.1 -0.1)">
       <use xlink:href="#BitstreamVeraSans-Roman-32"/>
      </g>
     </g>
    </g>
    <g id="xtick_7">
     <g id="line2d_8">
      <g>
       <use style="stroke:#000000;stroke-width:0.5;" x="486.730809936" xlink:href="#m369612aa2c" y="262.526035361"/>
      </g>
     </g>
     <g id="text_6">
      <!-- 3 -->
      <g transform="translate(483.549559936 274.124472861)scale(0.1 -0.1)">
       <use xlink:href="#BitstreamVeraSans-Roman-33"/>
      </g>
     </g>
    </g>
    <g id="xtick_8">
     <g id="line2d_9">
      <defs>
       <path d="M 0 0 
L 0 -2 
" id="mf3ced7e3e2" style="stroke:#000000;stroke-width:0.5;"/>
      </defs>
      <g>
       <use style="stroke:#000000;stroke-width:0.5;" x="28.0033447062" xlink:href="#mf3ced7e3e2" y="262.526035361"/>
      </g>
     </g>
    </g>
    <g id="xtick_9">
     <g id="line2d_10">
      <g>
       <use style="stroke:#000000;stroke-width:0.5;" x="43.8215331624" xlink:href="#mf3ced7e3e2" y="262.526035361"/>
      </g>
     </g>
    </g>
    <g id="xtick_10">
     <g id="line2d_11">
      <g>
       <use style="stroke:#000000;stroke-width:0.5;" x="59.6397216186" xlink:href="#mf3ced7e3e2" y="262.526035361"/>
      </g>
     </g>
    </g>
    <g id="xtick_11">
     <g id="line2d_12">
      <g>
       <use style="stroke:#000000;stroke-width:0.5;" x="75.4579100748" xlink:href="#mf3ced7e3e2" y="262.526035361"/>
      </g>
     </g>
    </g>
    <g id="xtick_12">
     <g id="line2d_13">
      <g>
       <use style="stroke:#000000;stroke-width:0.5;" x="107.094286987" xlink:href="#mf3ced7e3e2" y="262.526035361"/>
      </g>
     </g>
    </g>
    <g id="xtick_13">
     <g id="line2d_14">
      <g>
       <use style="stroke:#000000;stroke-width:0.5;" x="122.912475443" xlink:href="#mf3ced7e3e2" y="262.526035361"/>
      </g>
     </g>
    </g>
    <g id="xtick_14">
     <g id="line2d_15">
      <g>
       <use style="stroke:#000000;stroke-width:0.5;" x="138.7306639" xlink:href="#mf3ced7e3e2" y="262.526035361"/>
      </g>
     </g>
    </g>
    <g id="xtick_15">
     <g id="line2d_16">
      <g>
       <use style="stroke:#000000;stroke-width:0.5;" x="154.548852356" xlink:href="#mf3ced7e3e2" y="262.526035361"/>
      </g>
     </g>
    </g>
    <g id="xtick_16">
     <g id="line2d_17">
      <g>
       <use style="stroke:#000000;stroke-width:0.5;" x="170.367040812" xlink:href="#mf3ced7e3e2" y="262.526035361"/>
      </g>
     </g>
    </g>
    <g id="xtick_17">
     <g id="line2d_18">
      <g>
       <use style="stroke:#000000;stroke-width:0.5;" x="186.185229268" xlink:href="#mf3ced7e3e2" y="262.526035361"/>
      </g>
     </g>
    </g>
    <g id="xtick_18">
     <g id="line2d_19">
      <g>
       <use style="stroke:#000000;stroke-width:0.5;" x="202.003417724" xlink:href="#mf3ced7e3e2" y="262.526035361"/>
      </g>
     </g>
    </g>
    <g id="xtick_19">
     <g id="line2d_20">
      <g>
       <use style="stroke:#000000;stroke-width:0.5;" x="217.82160618" xlink:href="#mf3ced7e3e2" y="262.526035361"/>
      </g>
     </g>
    </g>
    <g id="xtick_20">
     <g id="line2d_21">
      <g>
       <use style="stroke:#000000;stroke-width:0.5;" x="233.639794637" xlink:href="#mf3ced7e3e2" y="262.526035361"/>
      </g>
     </g>
    </g>
    <g id="xtick_21">
     <g id="line2d_22">
      <g>
       <use style="stroke:#000000;stroke-width:0.5;" x="249.457983093" xlink:href="#mf3ced7e3e2" y="262.526035361"/>
      </g>
     </g>
    </g>
    <g id="xtick_22">
     <g id="line2d_23">
      <g>
       <use style="stroke:#000000;stroke-width:0.5;" x="265.276171549" xlink:href="#mf3ced7e3e2" y="262.526035361"/>
      </g>
     </g>
    </g>
    <g id="xtick_23">
     <g id="line2d_24">
      <g>
       <use style="stroke:#000000;stroke-width:0.5;" x="281.094360005" xlink:href="#mf3ced7e3e2" y="262.526035361"/>
      </g>
     </g>
    </g>
    <g id="xtick_24">
     <g id="line2d_25">
      <g>
       <use style="stroke:#000000;stroke-width:0.5;" x="296.912548461" xlink:href="#mf3ced7e3e2" y="262.526035361"/>
      </g>
     </g>
    </g>
    <g id="xtick_25">
     <g id="line2d_26">
      <g>
       <use style="stroke:#000000;stroke-width:0.5;" x="312.730736918" xlink:href="#mf3ced7e3e2" y="262.526035361"/>
      </g>
     </g>
    </g>
    <g id="xtick_26">
     <g id="line2d_27">
      <g>
       <use style="stroke:#000000;stroke-width:0.5;" x="328.548925374" xlink:href="#mf3ced7e3e2" y="262.526035361"/>
      </g>
     </g>
    </g>
    <g id="xtick_27">
     <g id="line2d_28">
      <g>
       <use style="stroke:#000000;stroke-width:0.5;" x="344.36711383" xlink:href="#mf3ced7e3e2" y="262.526035361"/>
      </g>
     </g>
    </g>
    <g id="xtick_28">
     <g id="line2d_29">
      <g>
       <use style="stroke:#000000;stroke-width:0.5;" x="360.185302286" xlink:href="#mf3ced7e3e2" y="262.526035361"/>
      </g>
     </g>
    </g>
    <g id="xtick_29">
     <g id="line2d_30">
      <g>
       <use style="stroke:#000000;stroke-width:0.5;" x="376.003490742" xlink:href="#mf3ced7e3e2" y="262.526035361"/>
      </g>
     </g>
    </g>
    <g id="xtick_30">
     <g id="line2d_31">
      <g>
       <use style="stroke:#000000;stroke-width:0.5;" x="391.821679199" xlink:href="#mf3ced7e3e2" y="262.526035361"/>
      </g>
     </g>
    </g>
    <g id="xtick_31">
     <g id="line2d_32">
      <g>
       <use style="stroke:#000000;stroke-width:0.5;" x="407.639867655" xlink:href="#mf3ced7e3e2" y="262.526035361"/>
      </g>
     </g>
    </g>
    <g id="xtick_32">
     <g id="line2d_33">
      <g>
       <use style="stroke:#000000;stroke-width:0.5;" x="423.458056111" xlink:href="#mf3ced7e3e2" y="262.526035361"/>
      </g>
     </g>
    </g>
    <g id="xtick_33">
     <g id="line2d_34">
      <g>
       <use style="stroke:#000000;stroke-width:0.5;" x="439.276244567" xlink:href="#mf3ced7e3e2" y="262.526035361"/>
      </g>
     </g>
    </g>
    <g id="xtick_34">
     <g id="line2d_35">
      <g>
       <use style="stroke:#000000;stroke-width:0.5;" x="455.094433023" xlink:href="#mf3ced7e3e2" y="262.526035361"/>
      </g>
     </g>
    </g>
    <g id="xtick_35">
     <g id="line2d_36">
      <g>
       <use style="stroke:#000000;stroke-width:0.5;" x="470.912621479" xlink:href="#mf3ced7e3e2" y="262.526035361"/>
      </g>
     </g>
    </g>
    <g id="xtick_36">
     <g id="line2d_37">
      <g>
       <use style="stroke:#000000;stroke-width:0.5;" x="486.730809936" xlink:href="#mf3ced7e3e2" y="262.526035361"/>
      </g>
     </g>
    </g>
   </g>
   <g id="matplotlib.axis_2">
    <g id="ytick_1">
     <g id="line2d_38">
      <defs>
       <path d="M 0 0 
L 4 0 
" id="m675386f76f" style="stroke:#000000;stroke-width:0.5;"/>
      </defs>
      <g>
       <use style="stroke:#000000;stroke-width:0.5;" x="249.457983093" xlink:href="#m675386f76f" y="341.616977642"/>
      </g>
     </g>
     <g id="text_7">
      <!-- -1 -->
      <g transform="translate(235.487670593 344.376352642)scale(0.1 -0.1)">
       <use xlink:href="#BitstreamVeraSans-Roman-2d"/>
       <use x="36.083984375" xlink:href="#BitstreamVeraSans-Roman-31"/>
      </g>
     </g>
    </g>
    <g id="ytick_2">
     <g id="line2d_39">
      <g>
       <use style="stroke:#000000;stroke-width:0.5;" x="249.457983093" xlink:href="#m675386f76f" y="262.526035361"/>
      </g>
     </g>
    </g>
    <g id="ytick_3">
     <g id="line2d_40">
      <g>
       <use style="stroke:#000000;stroke-width:0.5;" x="249.457983093" xlink:href="#m675386f76f" y="183.43509308"/>
      </g>
     </g>
     <g id="text_8">
      <!-- 1 -->
      <g transform="translate(239.095483093 186.19446808)scale(0.1 -0.1)">
       <use xlink:href="#BitstreamVeraSans-Roman-31"/>
      </g>
     </g>
    </g>
    <g id="ytick_4">
     <g id="line2d_41">
      <g>
       <use style="stroke:#000000;stroke-width:0.5;" x="249.457983093" xlink:href="#m675386f76f" y="104.3441508"/>
      </g>
     </g>
     <g id="text_9">
      <!-- 2 -->
      <g transform="translate(239.095483093 107.1035258)scale(0.1 -0.1)">
       <use xlink:href="#BitstreamVeraSans-Roman-32"/>
      </g>
     </g>
    </g>
    <g id="ytick_5">
     <g id="line2d_42">
      <g>
       <use style="stroke:#000000;stroke-width:0.5;" x="249.457983093" xlink:href="#m675386f76f" y="25.2532085186"/>
      </g>
     </g>
     <g id="text_10">
      <!-- 3 -->
      <g transform="translate(239.095483093 28.0125835186)scale(0.1 -0.1)">
       <use xlink:href="#BitstreamVeraSans-Roman-33"/>
      </g>
     </g>
    </g>
    <g id="ytick_6">
     <g id="line2d_43">
      <defs>
       <path d="M 0 0 
L 2 0 
" id="mff65c120bb" style="stroke:#000000;stroke-width:0.5;"/>
      </defs>
      <g>
       <use style="stroke:#000000;stroke-width:0.5;" x="249.457983093" xlink:href="#mff65c120bb" y="404.889731467"/>
      </g>
     </g>
    </g>
    <g id="ytick_7">
     <g id="line2d_44">
      <g>
       <use style="stroke:#000000;stroke-width:0.5;" x="249.457983093" xlink:href="#mff65c120bb" y="389.071543011"/>
      </g>
     </g>
    </g>
    <g id="ytick_8">
     <g id="line2d_45">
      <g>
       <use style="stroke:#000000;stroke-width:0.5;" x="249.457983093" xlink:href="#mff65c120bb" y="373.253354555"/>
      </g>
     </g>
    </g>
    <g id="ytick_9">
     <g id="line2d_46">
      <g>
       <use style="stroke:#000000;stroke-width:0.5;" x="249.457983093" xlink:href="#mff65c120bb" y="357.435166099"/>
      </g>
     </g>
    </g>
    <g id="ytick_10">
     <g id="line2d_47">
      <g>
       <use style="stroke:#000000;stroke-width:0.5;" x="249.457983093" xlink:href="#mff65c120bb" y="325.798789186"/>
      </g>
     </g>
    </g>
    <g id="ytick_11">
     <g id="line2d_48">
      <g>
       <use style="stroke:#000000;stroke-width:0.5;" x="249.457983093" xlink:href="#mff65c120bb" y="309.98060073"/>
      </g>
     </g>
    </g>
    <g id="ytick_12">
     <g id="line2d_49">
      <g>
       <use style="stroke:#000000;stroke-width:0.5;" x="249.457983093" xlink:href="#mff65c120bb" y="294.162412274"/>
      </g>
     </g>
    </g>
    <g id="ytick_13">
     <g id="line2d_50">
      <g>
       <use style="stroke:#000000;stroke-width:0.5;" x="249.457983093" xlink:href="#mff65c120bb" y="278.344223818"/>
      </g>
     </g>
    </g>
    <g id="ytick_14">
     <g id="line2d_51">
      <g>
       <use style="stroke:#000000;stroke-width:0.5;" x="249.457983093" xlink:href="#mff65c120bb" y="246.707846905"/>
      </g>
     </g>
    </g>
    <g id="ytick_15">
     <g id="line2d_52">
      <g>
       <use style="stroke:#000000;stroke-width:0.5;" x="249.457983093" xlink:href="#mff65c120bb" y="230.889658449"/>
      </g>
     </g>
    </g>
    <g id="ytick_16">
     <g id="line2d_53">
      <g>
       <use style="stroke:#000000;stroke-width:0.5;" x="249.457983093" xlink:href="#mff65c120bb" y="215.071469993"/>
      </g>
     </g>
    </g>
    <g id="ytick_17">
     <g id="line2d_54">
      <g>
       <use style="stroke:#000000;stroke-width:0.5;" x="249.457983093" xlink:href="#mff65c120bb" y="199.253281537"/>
      </g>
     </g>
    </g>
    <g id="ytick_18">
     <g id="line2d_55">
      <g>
       <use style="stroke:#000000;stroke-width:0.5;" x="249.457983093" xlink:href="#mff65c120bb" y="167.616904624"/>
      </g>
     </g>
    </g>
    <g id="ytick_19">
     <g id="line2d_56">
      <g>
       <use style="stroke:#000000;stroke-width:0.5;" x="249.457983093" xlink:href="#mff65c120bb" y="151.798716168"/>
      </g>
     </g>
    </g>
    <g id="ytick_20">
     <g id="line2d_57">
      <g>
       <use style="stroke:#000000;stroke-width:0.5;" x="249.457983093" xlink:href="#mff65c120bb" y="135.980527712"/>
      </g>
     </g>
    </g>
    <g id="ytick_21">
     <g id="line2d_58">
      <g>
       <use style="stroke:#000000;stroke-width:0.5;" x="249.457983093" xlink:href="#mff65c120bb" y="120.162339256"/>
      </g>
     </g>
    </g>
    <g id="ytick_22">
     <g id="line2d_59">
      <g>
       <use style="stroke:#000000;stroke-width:0.5;" x="249.457983093" xlink:href="#mff65c120bb" y="88.5259623433"/>
      </g>
     </g>
    </g>
    <g id="ytick_23">
     <g id="line2d_60">
      <g>
       <use style="stroke:#000000;stroke-width:0.5;" x="249.457983093" xlink:href="#mff65c120bb" y="72.7077738871"/>
      </g>
     </g>
    </g>
    <g id="ytick_24">
     <g id="line2d_61">
      <g>
       <use style="stroke:#000000;stroke-width:0.5;" x="249.457983093" xlink:href="#mff65c120bb" y="56.8895854309"/>
      </g>
     </g>
    </g>
    <g id="ytick_25">
     <g id="line2d_62">
      <g>
       <use style="stroke:#000000;stroke-width:0.5;" x="249.457983093" xlink:href="#mff65c120bb" y="41.0713969748"/>
      </g>
     </g>
    </g>
    <g id="ytick_26">
     <g id="line2d_63">
      <g>
       <use style="stroke:#000000;stroke-width:0.5;" x="249.457983093" xlink:href="#mff65c120bb" y="9.43502006239"/>
      </g>
     </g>
    </g>
   </g>
  </g>
 </g>
 <defs>
  <clipPath id="pd070c67c11">
   <rect height="406.08" width="478.105496863" x="10.4011192858" y="7.2"/>
  </clipPath>
 </defs>
</svg>
