<?xml version="1.0" encoding="utf-8" standalone="no"?>
<!DOCTYPE svg PUBLIC "-//W3C//DTD SVG 1.1//EN"
  "http://www.w3.org/Graphics/SVG/1.1/DTD/svg11.dtd">
<!-- Created with matplotlib (http://matplotlib.org/) -->
<svg height="420pt" version="1.1" viewBox="0 0 561 420" width="561pt" xmlns="http://www.w3.org/2000/svg" xmlns:xlink="http://www.w3.org/1999/xlink">
 <defs>
  <style type="text/css">
*{stroke-linecap:butt;stroke-linejoin:round;stroke-miterlimit:100000;}
  </style>
 </defs>
 <g id="figure_1">
  <g id="patch_1">
   <path d="M 0 420.48 
L 561.475646 420.48 
L 561.475646 0 
L 0 0 
z
" style="fill:#ffffff;"/>
  </g>
  <g id="axes_1">
   <g id="patch_2">
    <path d="M 23.288713 413.28 
L 554.275646 413.28 
L 554.275646 7.2 
L 23.288713 7.2 
z
" style="fill:#ffffff;"/>
   </g>
   <g id="patch_3">
    <path clip-path="url(#p3a929086fd)" d="M 33.5 210.240151 
L 33.5 210.240151 
L 34.348993 208.200394 
L 35.609898 205.171474 
L 37.739707 200.058439 
L 38.966643 197.115885 
L 40.074731 194.460913 
L 41.386567 191.321597 
L 42.482346 188.703064 
L 43.513999 186.241341 
L 44.487059 183.922971 
L 46.016011 180.287908 
L 48.092156 175.369121 
L 49.239701 172.659929 
L 50.369848 169.999134 
L 51.725538 166.81764 
L 52.332826 165.396338 
L 54.339499 160.718157 
L 54.818635 159.6055 
L 57.16719 154.177841 
L 57.291927 153.890836 
L 58.814019 150.399578 
L 60.342965 146.913738 
L 61.349766 144.630502 
L 62.931738 141.063364 
L 64.880026 136.706401 
L 65.835044 134.585976 
L 66.953727 132.115476 
L 68.469791 128.791119 
L 69.115761 127.38321 
L 70.481974 124.422871 
L 71.384798 122.479872 
L 72.652556 119.76983 
L 74.533327 115.79013 
L 76.231531 112.240149 
L 77.682859 109.240106 
L 78.710207 107.135891 
L 80.128081 104.258941 
L 80.541146 103.426836 
L 82.395328 99.725968 
L 83.099986 98.334487 
L 85.410996 93.830565 
L 85.891496 92.905822 
L 87.707599 89.447985 
L 89.230341 86.595135 
L 89.92748 85.303476 
L 91.349213 82.697894 
L 93.141547 79.468849 
L 93.613683 78.628778 
L 95.533032 75.259725 
L 96.799335 73.078086 
L 98.168151 70.757311 
L 98.619245 70.001137 
L 100.183548 67.412507 
L 100.879165 66.278335 
L 102.867361 63.095122 
L 104.575406 60.430717 
L 104.772498 60.127508 
L 106.111425 58.09115 
L 108.152865 55.066036 
L 109.787686 52.713998 
L 110.667084 51.475109 
L 111.564546 50.229946 
L 112.681419 48.70764 
L 114.11406 46.799656 
L 115.143036 45.460584 
L 116.371244 43.896849 
L 118.647293 41.099742 
L 119.154868 40.493988 
L 120.373325 39.066922 
L 122.616136 36.540976 
L 123.528673 35.551003 
L 124.105493 34.936591 
L 125.72352 33.260358 
L 126.617083 32.364684 
L 128.635717 30.420625 
L 129.101877 29.987415 
L 130.388301 28.822738 
L 132.033734 27.399338 
L 133.441459 26.241053 
L 134.876637 25.117027 
L 136.183123 24.143995 
L 137.265739 23.374132 
L 138.098206 22.804704 
L 139.396134 21.956157 
L 141.720691 20.556619 
L 142.264501 20.251573 
L 143.613857 19.531441 
L 145.386673 18.665274 
L 146.692173 18.085705 
L 147.131702 17.901731 
L 149.152695 17.128308 
L 150.009767 16.836355 
L 151.885073 16.272633 
L 153.118526 15.958155 
L 154.490764 15.660899 
L 155.57551 15.465185 
L 157.236038 15.232829 
L 158.285341 15.127983 
L 158.717103 15.094288 
L 160.655423 15.010917 
L 162.33153 15.028381 
L 163.288539 15.075602 
L 164.612814 15.185589 
L 165.407489 15.276463 
L 166.41098 15.417854 
L 168.263221 15.756847 
L 169.284414 15.986968 
L 170.734411 16.366416 
L 172.375712 16.870403 
L 172.754273 16.99785 
L 174.982056 17.832726 
L 175.684435 18.125964 
L 177.675797 19.0353 
L 178.760761 19.579098 
L 180.198277 20.351935 
L 180.585746 20.570424 
L 181.677785 21.209399 
L 184.085964 22.738956 
L 184.491201 23.012568 
L 185.701439 23.857399 
L 187.560088 25.235298 
L 189.070817 26.426611 
L 190.002949 27.193381 
L 191.206847 28.219335 
L 191.974439 28.894343 
L 194.249632 30.98994 
L 194.496208 31.225522 
L 195.877507 32.575652 
L 198.33138 35.100501 
L 199.437639 36.291129 
L 200.699527 37.688604 
L 201.241099 38.301147 
L 202.956266 40.291348 
L 204.676308 42.363241 
L 205.191101 42.998006 
L 206.586832 44.752711 
L 207.52618 45.96117 
L 208.751208 47.570113 
L 211.000227 50.619926 
L 212.370721 52.53851 
L 213.07806 53.546314 
L 214.50363 55.61344 
L 216.22061 58.166239 
L 216.354546 58.368244 
L 218.570088 61.769215 
L 219.89246 63.851885 
L 221.213731 65.97154 
L 221.845197 66.998078 
L 222.928342 68.778992 
L 224.306785 71.081744 
L 226.445491 74.733566 
L 226.835808 75.410233 
L 228.61637 78.536301 
L 229.355648 79.852891 
L 230.517169 81.943213 
L 232.278263 85.162413 
L 233.967531 88.30554 
L 235.461456 91.129155 
L 235.893573 91.953432 
L 237.458471 94.966349 
L 238.665353 97.31923 
L 239.581531 99.122029 
L 241.550253 103.043448 
L 242.401095 104.757816 
L 243.715725 107.429341 
L 244.824111 109.702686 
L 246.315875 112.791804 
L 247.914338 116.138297 
L 249.455854 119.400069 
L 250.749669 122.163001 
L 251.822156 124.470244 
L 253.312351 127.700818 
L 254.393314 130.061659 
L 255.802964 133.161606 
L 256.554886 134.824696 
L 257.588465 137.121262 
L 259.725614 141.907006 
L 260.616453 143.916022 
L 261.702594 146.376241 
L 262.670359 148.577951 
L 264.724459 153.279719 
L 265.982238 156.176895 
L 267.052717 158.652872 
L 267.658268 160.05748 
L 269.274501 163.819853 
L 271.438361 168.885515 
L 272.429558 171.215946 
L 272.86233 172.235292 
L 275.249029 177.875468 
L 276.12105 179.943422 
L 276.847298 181.668357 
L 278.903391 186.563769 
L 279.432361 187.825786 
L 280.498339 190.371829 
L 281.805051 193.497472 
L 283.582399 197.755667 
L 285.471704 202.288594 
L 285.895393 203.305809 
L 287.03139 206.034025 
L 288.782179 210.240151 
L 288.782179 210.240151 
z
" style="fill:#2d2d2d;"/>
   </g>
   <g id="line2d_1">
    <path clip-path="url(#p3a929086fd)" d="M 33.5 210.240151 
L 50.169956 170.469204 
L 59.388308 149.087709 
L 66.22824 133.715984 
L 74.11589 116.669129 
L 78.896934 106.755198 
L 86.337223 92.051672 
L 90.059028 85.060773 
L 94.049091 77.857994 
L 98.0205 71.005755 
L 104.222436 60.975933 
L 108.314859 54.830155 
L 113.250724 47.943398 
L 117.168241 42.902433 
L 122.532994 36.632264 
L 126.942309 32.044024 
L 129.966525 29.199602 
L 132.389278 27.101601 
L 134.882542 25.112522 
L 137.413258 23.271794 
L 140.805958 21.088887 
L 142.681601 20.023369 
L 146.377519 18.220863 
L 148.631372 17.316401 
L 150.759056 16.598743 
L 155.700407 15.444878 
L 157.958299 15.157172 
L 160.792116 15.009231 
L 163.183159 15.069076 
L 165.456555 15.282685 
L 167.729951 15.648882 
L 169.708791 16.091626 
L 172.413716 16.883008 
L 174.404319 17.6023 
L 179.212103 19.815334 
L 182.481945 21.701764 
L 186.487607 24.428362 
L 189.22782 26.554071 
L 193.719346 30.488892 
L 196.556164 33.257827 
L 201.499388 38.595977 
L 204.83925 42.563428 
L 207.623772 46.087983 
L 213.225306 53.757604 
L 217.70071 60.421376 
L 223.651078 69.981322 
L 227.952067 77.362533 
L 233.510215 87.449378 
L 238.408459 96.816298 
L 240.278183 100.502324 
L 248.700144 117.796866 
L 255.566082 132.639035 
L 264.065472 151.767211 
L 272.810625 172.113448 
L 285.640965 202.69494 
L 304.467534 247.692233 
L 313.625955 269.0043 
L 321.677543 287.133557 
L 328.558455 302.035736 
L 335.095162 315.584766 
L 342.472374 330.053256 
L 346.296375 337.171915 
L 348.742034 341.578303 
L 355.258321 352.727598 
L 358.152252 357.389461 
L 363.047606 364.847611 
L 366.894979 370.316752 
L 369.222896 373.452478 
L 374.16576 379.663374 
L 379.310489 385.462008 
L 384.979983 391.038049 
L 389.295504 394.69403 
L 393.290957 397.615369 
L 397.284489 400.082716 
L 400.386201 401.683029 
L 402.274473 402.520827 
L 404.494137 403.372873 
L 406.633485 404.057722 
L 408.772833 404.608236 
L 411.835514 405.161795 
L 414.380344 405.411174 
L 416.800338 405.470769 
L 418.829606 405.387273 
L 423.481211 404.736894 
L 426.30354 404.031473 
L 428.569774 403.295787 
L 430.525412 402.540214 
L 434.438578 400.694442 
L 436.635094 399.464563 
L 439.771518 397.469002 
L 443.100641 395.04578 
L 446.103245 392.594088 
L 451.423824 387.640613 
L 456.06081 382.702706 
L 459.297612 378.922074 
L 463.875271 373.119944 
L 466.829407 369.100032 
L 471.393247 362.478969 
L 474.754206 357.294808 
L 480.810153 347.325035 
L 486.541212 337.188255 
L 492.572299 325.840153 
L 498.668671 313.722565 
L 501.848156 307.167347 
L 511.036107 287.426925 
L 519.447206 268.484836 
L 527.198414 250.47199 
L 538.983505 222.439471 
L 544.064359 210.240151 
L 544.064359 210.240151 
" style="fill:none;stroke:#2d2d2d;stroke-linecap:square;"/>
   </g>
   <g id="line2d_2">
    <path clip-path="url(#p3a929086fd)" d="M 33.5 210.240151 
L 49.239701 172.659929 
L 58.814019 150.399578 
L 66.953727 132.115476 
L 72.652556 119.76983 
L 78.710207 107.135891 
L 83.099986 98.334487 
L 89.230341 86.595135 
L 93.613683 78.628778 
L 98.619245 70.001137 
L 102.867361 63.095122 
L 106.111425 58.09115 
L 110.667084 51.475109 
L 114.11406 46.799656 
L 116.371244 43.896849 
L 120.373325 39.066922 
L 124.105493 34.936591 
L 126.617083 32.364684 
L 130.388301 28.822738 
L 133.441459 26.241053 
L 137.265739 23.374132 
L 139.396134 21.956157 
L 143.613857 19.531441 
L 147.131702 17.901731 
L 150.009767 16.836355 
L 153.118526 15.958155 
L 155.57551 15.465185 
L 158.717103 15.094288 
L 162.33153 15.028381 
L 165.407489 15.276463 
L 168.263221 15.756847 
L 170.734411 16.366416 
L 172.754273 16.99785 
L 175.684435 18.125964 
L 178.760761 19.579098 
L 181.677785 21.209399 
L 185.701439 23.857399 
L 189.070817 26.426611 
L 191.974439 28.894343 
L 195.877507 32.575652 
L 200.699527 37.688604 
L 202.956266 40.291348 
L 207.52618 45.96117 
L 211.000227 50.619926 
L 214.50363 55.61344 
L 218.570088 61.769215 
L 222.928342 68.778992 
L 226.835808 75.410233 
L 232.278263 85.162413 
L 237.458471 94.966349 
L 242.401095 104.757816 
L 247.914338 116.138297 
L 254.393314 130.061659 
L 261.702594 146.376241 
L 269.274501 163.819853 
L 280.498339 190.371829 
L 288.782179 210.240151 
L 288.782179 210.240151 
" style="fill:none;stroke:#2d2d2d;stroke-linecap:square;"/>
   </g>
   <g id="patch_4">
    <path d="M 23.288713 210.240151 
L 554.275646 210.240151 
" style="fill:none;stroke:#000000;stroke-linecap:square;stroke-linejoin:miter;stroke-width:0.8;"/>
   </g>
   <g id="patch_5">
    <path d="M 33.5 413.28 
L 33.5 7.2 
" style="fill:none;stroke:#000000;stroke-linecap:square;stroke-linejoin:miter;stroke-width:0.8;"/>
   </g>
   <g id="matplotlib.axis_1">
    <g id="xtick_1">
     <g id="line2d_3">
      <defs>
       <path d="M 0 0 
L 0 -4 
" id="m566183457b" style="stroke:#000000;stroke-width:0.5;"/>
      </defs>
      <g>
       <use style="stroke:#000000;stroke-width:0.5;" x="33.5" xlink:href="#m566183457b" y="210.240150783"/>
      </g>
     </g>
    </g>
    <g id="xtick_2">
     <g id="line2d_4">
      <g>
       <use style="stroke:#000000;stroke-width:0.5;" x="161.14108971" xlink:href="#m566183457b" y="210.240150783"/>
      </g>
     </g>
     <g id="text_1">
      <!-- $\frac{1}{2} \, \pi$ -->
      <defs>
       <path d="M 4.984375 0 
L 4.984375 2.6875 
Q 4.984375 2.9375 5.171875 3.21875 
L 20.703125 20.40625 
Q 24.21875 24.21875 26.40625 26.796875 
Q 28.609375 29.390625 30.75 32.765625 
Q 32.90625 36.140625 34.15625 39.625 
Q 35.40625 43.109375 35.40625 47.015625 
Q 35.40625 51.125 33.890625 54.859375 
Q 32.375 58.59375 29.375 60.84375 
Q 26.375 63.09375 22.125 63.09375 
Q 17.78125 63.09375 14.3125 60.46875 
Q 10.84375 57.859375 9.421875 53.71875 
Q 9.8125 53.8125 10.5 53.8125 
Q 12.75 53.8125 14.328125 52.296875 
Q 15.921875 50.78125 15.921875 48.390625 
Q 15.921875 46.09375 14.328125 44.5 
Q 12.75 42.921875 10.5 42.921875 
Q 8.15625 42.921875 6.5625 44.546875 
Q 4.984375 46.1875 4.984375 48.390625 
Q 4.984375 52.15625 6.390625 55.4375 
Q 7.8125 58.734375 10.46875 61.296875 
Q 13.140625 63.875 16.484375 65.234375 
Q 19.828125 66.609375 23.578125 66.609375 
Q 29.296875 66.609375 34.21875 64.1875 
Q 39.15625 61.765625 42.03125 57.34375 
Q 44.921875 52.9375 44.921875 47.015625 
Q 44.921875 42.671875 43.015625 38.765625 
Q 41.109375 34.859375 38.125 31.65625 
Q 35.15625 28.46875 30.515625 24.40625 
Q 25.875 20.359375 24.421875 19 
L 13.09375 8.109375 
L 22.703125 8.109375 
Q 29.78125 8.109375 34.546875 8.21875 
Q 39.3125 8.34375 39.59375 8.59375 
Q 40.765625 9.859375 42 17.828125 
L 44.921875 17.828125 
L 42.09375 0 
z
" id="Cmr10-32"/>
       <path d="M 9.28125 0 
L 9.28125 3.515625 
Q 21.78125 3.515625 21.78125 6.6875 
L 21.78125 59.1875 
Q 16.609375 56.6875 8.6875 56.6875 
L 8.6875 60.203125 
Q 20.953125 60.203125 27.203125 66.609375 
L 28.609375 66.609375 
Q 28.953125 66.609375 29.265625 66.328125 
Q 29.59375 66.0625 29.59375 65.71875 
L 29.59375 6.6875 
Q 29.59375 3.515625 42.09375 3.515625 
L 42.09375 0 
z
" id="Cmr10-31"/>
       <path d="M 10.109375 1.703125 
Q 10.109375 2.25 10.5 3.328125 
Q 13.28125 9.125 15.6875 14.71875 
Q 18.109375 20.3125 20.03125 25.609375 
Q 21.96875 30.90625 23.578125 36.921875 
L 17.1875 36.921875 
Q 13.53125 36.921875 10.34375 34.625 
Q 7.171875 32.328125 5.078125 28.8125 
Q 4.890625 28.421875 4.5 28.421875 
L 3.328125 28.421875 
Q 2.390625 28.421875 2.390625 29.390625 
Q 2.390625 29.59375 2.59375 29.984375 
Q 5.859375 35.546875 9.59375 39.328125 
Q 13.328125 43.109375 18.015625 43.109375 
L 54.296875 43.109375 
Q 55.328125 43.109375 56.046875 42.421875 
Q 56.78125 41.75 56.78125 40.578125 
Q 56.78125 39.109375 55.734375 38.015625 
Q 54.6875 36.921875 53.21875 36.921875 
L 40.484375 36.921875 
Q 38.875 29.046875 38.71875 21.578125 
Q 38.71875 11.96875 42.09375 4.203125 
Q 42.390625 3.609375 42.390625 2.984375 
Q 42.390625 1.90625 41.75 0.96875 
Q 41.109375 0.046875 40.109375 -0.53125 
Q 39.109375 -1.125 37.984375 -1.125 
Q 35.359375 -1.125 34.375 3.171875 
Q 33.40625 7.46875 33.40625 11.53125 
Q 33.40625 17.234375 34.375 22.53125 
Q 35.359375 27.828125 37.5 36.921875 
L 26.609375 36.921875 
Q 18.703125 4.890625 17.09375 1.609375 
Q 15.671875 -1.125 13.1875 -1.125 
Q 11.96875 -1.125 11.03125 -0.3125 
Q 10.109375 0.484375 10.109375 1.703125 
" id="Cmmi10-bc"/>
      </defs>
      <g transform="translate(155.14108971 222.740150783)scale(0.1 -0.1)">
       <use transform="translate(0.0 38.3734375)scale(0.7)" xlink:href="#Cmr10-31"/>
       <use transform="translate(0.0 -39.503125)scale(0.7)" xlink:href="#Cmr10-32"/>
       <use transform="translate(62.1324541016 0.8734375)" xlink:href="#Cmmi10-bc"/>
       <path d="M 0 13.373437 
L 0 19.623437 
L 35 19.623437 
L 35 13.373437 
L 0 13.373437 
z
"/>
      </g>
     </g>
    </g>
    <g id="xtick_3">
     <g id="line2d_5">
      <g>
       <use style="stroke:#000000;stroke-width:0.5;" x="288.782179421" xlink:href="#m566183457b" y="210.240150783"/>
      </g>
     </g>
     <g id="text_2">
      <!-- $\pi$ -->
      <g transform="translate(285.932179421 221.838588283)scale(0.1 -0.1)">
       <use transform="translate(0.0 0.890625)" xlink:href="#Cmmi10-bc"/>
      </g>
     </g>
    </g>
    <g id="xtick_4">
     <g id="line2d_6">
      <g>
       <use style="stroke:#000000;stroke-width:0.5;" x="416.423269131" xlink:href="#m566183457b" y="210.240150783"/>
      </g>
     </g>
     <g id="text_3">
      <!-- $\frac{3}{2} \, \pi$ -->
      <defs>
       <path d="M 9.515625 7.71875 
Q 11.859375 4.296875 15.8125 2.640625 
Q 19.78125 0.984375 24.3125 0.984375 
Q 30.125 0.984375 32.5625 5.9375 
Q 35.015625 10.890625 35.015625 17.1875 
Q 35.015625 20.015625 34.5 22.84375 
Q 33.984375 25.6875 32.765625 28.125 
Q 31.546875 30.5625 29.421875 32.03125 
Q 27.296875 33.5 24.21875 33.5 
L 17.578125 33.5 
Q 16.703125 33.5 16.703125 34.421875 
L 16.703125 35.296875 
Q 16.703125 36.078125 17.578125 36.078125 
L 23.09375 36.53125 
Q 26.609375 36.53125 28.921875 39.15625 
Q 31.25 41.796875 32.328125 45.578125 
Q 33.40625 49.359375 33.40625 52.78125 
Q 33.40625 57.5625 31.15625 60.640625 
Q 28.90625 63.71875 24.3125 63.71875 
Q 20.515625 63.71875 17.046875 62.28125 
Q 13.578125 60.84375 11.53125 57.90625 
Q 11.71875 57.953125 11.859375 57.984375 
Q 12.015625 58.015625 12.203125 58.015625 
Q 14.453125 58.015625 15.96875 56.453125 
Q 17.484375 54.890625 17.484375 52.6875 
Q 17.484375 50.53125 15.96875 48.96875 
Q 14.453125 47.40625 12.203125 47.40625 
Q 10.015625 47.40625 8.453125 48.96875 
Q 6.890625 50.53125 6.890625 52.6875 
Q 6.890625 56.984375 9.46875 60.15625 
Q 12.0625 63.328125 16.140625 64.96875 
Q 20.21875 66.609375 24.3125 66.609375 
Q 27.34375 66.609375 30.703125 65.703125 
Q 34.078125 64.796875 36.8125 63.109375 
Q 39.546875 61.421875 41.28125 58.78125 
Q 43.015625 56.15625 43.015625 52.78125 
Q 43.015625 48.578125 41.140625 45.015625 
Q 39.265625 41.453125 35.984375 38.859375 
Q 32.71875 36.28125 28.8125 35.015625 
Q 33.15625 34.1875 37.0625 31.734375 
Q 40.96875 29.296875 43.328125 25.484375 
Q 45.703125 21.6875 45.703125 17.28125 
Q 45.703125 11.765625 42.671875 7.296875 
Q 39.65625 2.828125 34.71875 0.3125 
Q 29.78125 -2.203125 24.3125 -2.203125 
Q 19.625 -2.203125 14.90625 -0.40625 
Q 10.203125 1.375 7.203125 4.9375 
Q 4.203125 8.5 4.203125 13.484375 
Q 4.203125 15.96875 5.859375 17.625 
Q 7.515625 19.28125 10.015625 19.28125 
Q 11.625 19.28125 12.96875 18.53125 
Q 14.3125 17.78125 15.0625 16.40625 
Q 15.828125 15.046875 15.828125 13.484375 
Q 15.828125 11.03125 14.109375 9.375 
Q 12.40625 7.71875 10.015625 7.71875 
z
" id="Cmr10-33"/>
      </defs>
      <g transform="translate(410.423269131 222.840150783)scale(0.1 -0.1)">
       <use transform="translate(0.0 39.3734375)scale(0.7)" xlink:href="#Cmr10-33"/>
       <use transform="translate(0.0 -40.0453125)scale(0.7)" xlink:href="#Cmr10-32"/>
       <use transform="translate(62.1324541016 0.33125)" xlink:href="#Cmmi10-bc"/>
       <path d="M 0 12.83125 
L 0 19.08125 
L 35 19.08125 
L 35 12.83125 
L 0 12.83125 
z
"/>
      </g>
     </g>
    </g>
    <g id="xtick_5">
     <g id="line2d_7">
      <g>
       <use style="stroke:#000000;stroke-width:0.5;" x="544.064358841" xlink:href="#m566183457b" y="210.240150783"/>
      </g>
     </g>
     <g id="text_4">
      <!-- $2 \, \pi$ -->
      <g transform="translate(537.964358841 221.838588283)scale(0.1 -0.1)">
       <use transform="translate(0.0 0.390625)" xlink:href="#Cmr10-32"/>
       <use transform="translate(64.6324541016 0.390625)" xlink:href="#Cmmi10-bc"/>
      </g>
     </g>
    </g>
    <g id="xtick_6">
     <g id="line2d_8">
      <defs>
       <path d="M 0 0 
L 0 -2 
" id="mc112290c5b" style="stroke:#000000;stroke-width:0.5;"/>
      </defs>
      <g>
       <use style="stroke:#000000;stroke-width:0.5;" x="65.4102724276" xlink:href="#mc112290c5b" y="210.240150783"/>
      </g>
     </g>
    </g>
    <g id="xtick_7">
     <g id="line2d_9">
      <g>
       <use style="stroke:#000000;stroke-width:0.5;" x="97.3205448551" xlink:href="#mc112290c5b" y="210.240150783"/>
      </g>
     </g>
    </g>
    <g id="xtick_8">
     <g id="line2d_10">
      <g>
       <use style="stroke:#000000;stroke-width:0.5;" x="129.230817283" xlink:href="#mc112290c5b" y="210.240150783"/>
      </g>
     </g>
    </g>
    <g id="xtick_9">
     <g id="line2d_11">
      <g>
       <use style="stroke:#000000;stroke-width:0.5;" x="193.051362138" xlink:href="#mc112290c5b" y="210.240150783"/>
      </g>
     </g>
    </g>
    <g id="xtick_10">
     <g id="line2d_12">
      <g>
       <use style="stroke:#000000;stroke-width:0.5;" x="224.961634565" xlink:href="#mc112290c5b" y="210.240150783"/>
      </g>
     </g>
    </g>
    <g id="xtick_11">
     <g id="line2d_13">
      <g>
       <use style="stroke:#000000;stroke-width:0.5;" x="256.871906993" xlink:href="#mc112290c5b" y="210.240150783"/>
      </g>
     </g>
    </g>
    <g id="xtick_12">
     <g id="line2d_14">
      <g>
       <use style="stroke:#000000;stroke-width:0.5;" x="320.692451848" xlink:href="#mc112290c5b" y="210.240150783"/>
      </g>
     </g>
    </g>
    <g id="xtick_13">
     <g id="line2d_15">
      <g>
       <use style="stroke:#000000;stroke-width:0.5;" x="352.602724276" xlink:href="#mc112290c5b" y="210.240150783"/>
      </g>
     </g>
    </g>
    <g id="xtick_14">
     <g id="line2d_16">
      <g>
       <use style="stroke:#000000;stroke-width:0.5;" x="384.512996703" xlink:href="#mc112290c5b" y="210.240150783"/>
      </g>
     </g>
    </g>
    <g id="xtick_15">
     <g id="line2d_17">
      <g>
       <use style="stroke:#000000;stroke-width:0.5;" x="448.333541558" xlink:href="#mc112290c5b" y="210.240150783"/>
      </g>
     </g>
    </g>
    <g id="xtick_16">
     <g id="line2d_18">
      <g>
       <use style="stroke:#000000;stroke-width:0.5;" x="480.243813986" xlink:href="#mc112290c5b" y="210.240150783"/>
      </g>
     </g>
    </g>
    <g id="xtick_17">
     <g id="line2d_19">
      <g>
       <use style="stroke:#000000;stroke-width:0.5;" x="512.154086413" xlink:href="#mc112290c5b" y="210.240150783"/>
      </g>
     </g>
    </g>
   </g>
   <g id="matplotlib.axis_2">
    <g id="ytick_1">
     <g id="line2d_20">
      <defs>
       <path d="M 0 0 
L 4 0 
" id="m6dcc8ff20b" style="stroke:#000000;stroke-width:0.5;"/>
      </defs>
      <g>
       <use style="stroke:#000000;stroke-width:0.5;" x="33.5" xlink:href="#m6dcc8ff20b" y="405.47287118"/>
      </g>
     </g>
     <g id="text_5">
      <!-- $-1.0$ -->
      <defs>
       <path d="M 10.203125 23 
Q 9.375 23 8.828125 23.625 
Q 8.296875 24.265625 8.296875 25 
Q 8.296875 25.734375 8.828125 26.359375 
Q 9.375 27 10.203125 27 
L 67.578125 27 
Q 68.359375 27 68.875 26.359375 
Q 69.390625 25.734375 69.390625 25 
Q 69.390625 24.265625 68.875 23.625 
Q 68.359375 23 67.578125 23 
z
" id="Cmsy10-a1"/>
       <path d="M 25 -2.203125 
Q 12.75 -2.203125 8.328125 7.875 
Q 3.90625 17.96875 3.90625 31.890625 
Q 3.90625 40.578125 5.484375 48.234375 
Q 7.078125 55.90625 11.78125 61.25 
Q 16.5 66.609375 25 66.609375 
Q 31.59375 66.609375 35.78125 63.375 
Q 39.984375 60.15625 42.1875 55.046875 
Q 44.390625 49.953125 45.1875 44.109375 
Q 46 38.28125 46 31.890625 
Q 46 23.296875 44.40625 15.796875 
Q 42.828125 8.296875 38.1875 3.046875 
Q 33.546875 -2.203125 25 -2.203125 
M 25 0.390625 
Q 30.5625 0.390625 33.296875 6.09375 
Q 36.03125 11.8125 36.671875 18.75 
Q 37.3125 25.6875 37.3125 33.5 
Q 37.3125 41.015625 36.671875 47.359375 
Q 36.03125 53.71875 33.3125 58.859375 
Q 30.609375 64.015625 25 64.015625 
Q 19.34375 64.015625 16.609375 58.828125 
Q 13.875 53.65625 13.234375 47.328125 
Q 12.59375 41.015625 12.59375 33.5 
Q 12.59375 27.9375 12.859375 23 
Q 13.140625 18.0625 14.3125 12.8125 
Q 15.484375 7.5625 18.09375 3.96875 
Q 20.703125 0.390625 25 0.390625 
" id="Cmr10-30"/>
       <path d="M 8.40625 5.515625 
Q 8.40625 7.765625 10.0625 9.375 
Q 11.71875 10.984375 13.921875 10.984375 
Q 15.28125 10.984375 16.59375 10.25 
Q 17.921875 9.515625 18.65625 8.203125 
Q 19.390625 6.890625 19.390625 5.515625 
Q 19.390625 3.328125 17.765625 1.65625 
Q 16.15625 0 13.921875 0 
Q 11.71875 0 10.0625 1.65625 
Q 8.40625 3.328125 8.40625 5.515625 
" id="Cmmi10-3a"/>
      </defs>
      <g transform="translate(7.2 408.23224618)scale(0.1 -0.1)">
       <use transform="translate(0.0 0.390625)" xlink:href="#Cmsy10-a1"/>
       <use transform="translate(77.685546875 0.390625)" xlink:href="#Cmr10-31"/>
       <use transform="translate(127.685546875 0.390625)" xlink:href="#Cmmi10-3a"/>
       <use transform="translate(172.9296875 0.390625)" xlink:href="#Cmr10-30"/>
      </g>
     </g>
    </g>
    <g id="ytick_2">
     <g id="line2d_21">
      <g>
       <use style="stroke:#000000;stroke-width:0.5;" x="33.5" xlink:href="#m6dcc8ff20b" y="307.856510981"/>
      </g>
     </g>
     <g id="text_6">
      <!-- $-0.5$ -->
      <defs>
       <path d="M 8.6875 11.375 
Q 9.71875 8.453125 11.84375 6.046875 
Q 13.96875 3.65625 16.875 2.3125 
Q 19.78125 0.984375 22.90625 0.984375 
Q 30.125 0.984375 32.859375 6.59375 
Q 35.59375 12.203125 35.59375 20.21875 
Q 35.59375 23.6875 35.46875 26.046875 
Q 35.359375 28.421875 34.8125 30.609375 
Q 33.890625 34.125 31.5625 36.765625 
Q 29.25 39.40625 25.875 39.40625 
Q 22.515625 39.40625 20.09375 38.375 
Q 17.671875 37.359375 16.15625 35.984375 
Q 14.65625 34.625 13.484375 33.109375 
Q 12.3125 31.59375 12.015625 31.5 
L 10.890625 31.5 
Q 10.640625 31.5 10.265625 31.8125 
Q 9.90625 32.125 9.90625 32.421875 
L 9.90625 65.828125 
Q 9.90625 66.0625 10.21875 66.328125 
Q 10.546875 66.609375 10.890625 66.609375 
L 11.1875 66.609375 
Q 17.921875 63.375 25.484375 63.375 
Q 32.90625 63.375 39.796875 66.609375 
L 40.09375 66.609375 
Q 40.4375 66.609375 40.71875 66.359375 
Q 41.015625 66.109375 41.015625 65.828125 
L 41.015625 64.890625 
Q 41.015625 64.40625 40.828125 64.40625 
Q 37.40625 59.859375 32.25 57.3125 
Q 27.09375 54.78125 21.578125 54.78125 
Q 17.578125 54.78125 13.375 55.90625 
L 13.375 37.015625 
Q 16.703125 39.703125 19.3125 40.84375 
Q 21.921875 42 25.984375 42 
Q 31.5 42 35.859375 38.8125 
Q 40.234375 35.640625 42.578125 30.53125 
Q 44.921875 25.4375 44.921875 20.125 
Q 44.921875 14.109375 41.96875 8.984375 
Q 39.015625 3.859375 33.9375 0.828125 
Q 28.859375 -2.203125 22.90625 -2.203125 
Q 17.96875 -2.203125 13.84375 0.328125 
Q 9.71875 2.875 7.34375 7.171875 
Q 4.984375 11.46875 4.984375 16.3125 
Q 4.984375 18.5625 6.4375 19.96875 
Q 7.90625 21.390625 10.109375 21.390625 
Q 12.3125 21.390625 13.796875 19.9375 
Q 15.28125 18.5 15.28125 16.3125 
Q 15.28125 14.15625 13.796875 12.671875 
Q 12.3125 11.1875 10.109375 11.1875 
Q 9.765625 11.1875 9.328125 11.25 
Q 8.890625 11.328125 8.6875 11.375 
" id="Cmr10-35"/>
      </defs>
      <g transform="translate(7.2 310.615885981)scale(0.1 -0.1)">
       <use transform="translate(0.0 0.390625)" xlink:href="#Cmsy10-a1"/>
       <use transform="translate(77.685546875 0.390625)" xlink:href="#Cmr10-30"/>
       <use transform="translate(127.685546875 0.390625)" xlink:href="#Cmmi10-3a"/>
       <use transform="translate(172.9296875 0.390625)" xlink:href="#Cmr10-35"/>
      </g>
     </g>
    </g>
    <g id="ytick_3">
     <g id="line2d_22">
      <g>
       <use style="stroke:#000000;stroke-width:0.5;" x="33.5" xlink:href="#m6dcc8ff20b" y="210.240150783"/>
      </g>
     </g>
    </g>
    <g id="ytick_4">
     <g id="line2d_23">
      <g>
       <use style="stroke:#000000;stroke-width:0.5;" x="33.5" xlink:href="#m6dcc8ff20b" y="112.623790584"/>
      </g>
     </g>
     <g id="text_7">
      <!-- $0.5$ -->
      <g transform="translate(14.9 115.383165584)scale(0.1 -0.1)">
       <use transform="translate(0.0 0.390625)" xlink:href="#Cmr10-30"/>
       <use transform="translate(50.0 0.390625)" xlink:href="#Cmmi10-3a"/>
       <use transform="translate(95.244140625 0.390625)" xlink:href="#Cmr10-35"/>
      </g>
     </g>
    </g>
    <g id="ytick_5">
     <g id="line2d_24">
      <g>
       <use style="stroke:#000000;stroke-width:0.5;" x="33.5" xlink:href="#m6dcc8ff20b" y="15.0074303855"/>
      </g>
     </g>
     <g id="text_8">
      <!-- $1.0$ -->
      <g transform="translate(14.9 17.7668053855)scale(0.1 -0.1)">
       <use transform="translate(0.0 0.390625)" xlink:href="#Cmr10-31"/>
       <use transform="translate(50.0 0.390625)" xlink:href="#Cmmi10-3a"/>
       <use transform="translate(95.244140625 0.390625)" xlink:href="#Cmr10-30"/>
      </g>
     </g>
    </g>
    <g id="ytick_6">
     <g id="line2d_25">
      <defs>
       <path d="M 0 0 
L 2 0 
" id="me8fe67187a" style="stroke:#000000;stroke-width:0.5;"/>
      </defs>
      <g>
       <use style="stroke:#000000;stroke-width:0.5;" x="33.5" xlink:href="#me8fe67187a" y="385.94959914"/>
      </g>
     </g>
    </g>
    <g id="ytick_7">
     <g id="line2d_26">
      <g>
       <use style="stroke:#000000;stroke-width:0.5;" x="33.5" xlink:href="#me8fe67187a" y="366.4263271"/>
      </g>
     </g>
    </g>
    <g id="ytick_8">
     <g id="line2d_27">
      <g>
       <use style="stroke:#000000;stroke-width:0.5;" x="33.5" xlink:href="#me8fe67187a" y="346.90305506"/>
      </g>
     </g>
    </g>
    <g id="ytick_9">
     <g id="line2d_28">
      <g>
       <use style="stroke:#000000;stroke-width:0.5;" x="33.5" xlink:href="#me8fe67187a" y="327.379783021"/>
      </g>
     </g>
    </g>
    <g id="ytick_10">
     <g id="line2d_29">
      <g>
       <use style="stroke:#000000;stroke-width:0.5;" x="33.5" xlink:href="#me8fe67187a" y="307.856510981"/>
      </g>
     </g>
    </g>
    <g id="ytick_11">
     <g id="line2d_30">
      <g>
       <use style="stroke:#000000;stroke-width:0.5;" x="33.5" xlink:href="#me8fe67187a" y="288.333238941"/>
      </g>
     </g>
    </g>
    <g id="ytick_12">
     <g id="line2d_31">
      <g>
       <use style="stroke:#000000;stroke-width:0.5;" x="33.5" xlink:href="#me8fe67187a" y="268.809966902"/>
      </g>
     </g>
    </g>
    <g id="ytick_13">
     <g id="line2d_32">
      <g>
       <use style="stroke:#000000;stroke-width:0.5;" x="33.5" xlink:href="#me8fe67187a" y="249.286694862"/>
      </g>
     </g>
    </g>
    <g id="ytick_14">
     <g id="line2d_33">
      <g>
       <use style="stroke:#000000;stroke-width:0.5;" x="33.5" xlink:href="#me8fe67187a" y="229.763422822"/>
      </g>
     </g>
    </g>
    <g id="ytick_15">
     <g id="line2d_34">
      <g>
       <use style="stroke:#000000;stroke-width:0.5;" x="33.5" xlink:href="#me8fe67187a" y="210.240150783"/>
      </g>
     </g>
    </g>
    <g id="ytick_16">
     <g id="line2d_35">
      <g>
       <use style="stroke:#000000;stroke-width:0.5;" x="33.5" xlink:href="#me8fe67187a" y="190.716878743"/>
      </g>
     </g>
    </g>
    <g id="ytick_17">
     <g id="line2d_36">
      <g>
       <use style="stroke:#000000;stroke-width:0.5;" x="33.5" xlink:href="#me8fe67187a" y="171.193606703"/>
      </g>
     </g>
    </g>
    <g id="ytick_18">
     <g id="line2d_37">
      <g>
       <use style="stroke:#000000;stroke-width:0.5;" x="33.5" xlink:href="#me8fe67187a" y="151.670334663"/>
      </g>
     </g>
    </g>
    <g id="ytick_19">
     <g id="line2d_38">
      <g>
       <use style="stroke:#000000;stroke-width:0.5;" x="33.5" xlink:href="#me8fe67187a" y="132.147062624"/>
      </g>
     </g>
    </g>
    <g id="ytick_20">
     <g id="line2d_39">
      <g>
       <use style="stroke:#000000;stroke-width:0.5;" x="33.5" xlink:href="#me8fe67187a" y="112.623790584"/>
      </g>
     </g>
    </g>
    <g id="ytick_21">
     <g id="line2d_40">
      <g>
       <use style="stroke:#000000;stroke-width:0.5;" x="33.5" xlink:href="#me8fe67187a" y="93.1005185443"/>
      </g>
     </g>
    </g>
    <g id="ytick_22">
     <g id="line2d_41">
      <g>
       <use style="stroke:#000000;stroke-width:0.5;" x="33.5" xlink:href="#me8fe67187a" y="73.5772465046"/>
      </g>
     </g>
    </g>
    <g id="ytick_23">
     <g id="line2d_42">
      <g>
       <use style="stroke:#000000;stroke-width:0.5;" x="33.5" xlink:href="#me8fe67187a" y="54.0539744649"/>
      </g>
     </g>
    </g>
    <g id="ytick_24">
     <g id="line2d_43">
      <g>
       <use style="stroke:#000000;stroke-width:0.5;" x="33.5" xlink:href="#me8fe67187a" y="34.5307024252"/>
      </g>
     </g>
    </g>
    <g id="ytick_25">
     <g id="line2d_44">
      <g>
       <use style="stroke:#000000;stroke-width:0.5;" x="33.5" xlink:href="#me8fe67187a" y="15.0074303855"/>
      </g>
     </g>
    </g>
   </g>
   <g id="text_9">
    <!-- $\int^{\pi}_{0}{\sin{x}\,dx}$ -->
    <defs>
     <path d="M 10.59375 -217.09375 
Q 13.09375 -219.578125 16.703125 -219.578125 
Q 20.3125 -219.578125 23.28125 -214.625 
Q 26.265625 -209.671875 28.515625 -202.25 
Q 30.765625 -194.828125 31.8125 -189.8125 
Q 32.859375 -184.8125 34.421875 -176.90625 
Q 35.84375 -169.53125 37.15625 -162.109375 
Q 38.484375 -154.6875 39.875 -146.3125 
Q 41.265625 -137.9375 42.796875 -129.3125 
Q 44.34375 -120.703125 46.296875 -110.984375 
Q 48.921875 -98.1875 50.0625 -92.6875 
Q 51.21875 -87.203125 53.5625 -76.828125 
Q 55.90625 -66.453125 56.65625 -63.15625 
Q 57.421875 -59.859375 60.984375 -45.125 
L 62.3125 -39.890625 
Q 64.546875 -31.109375 65.765625 -26.59375 
Q 67 -22.078125 69.5625 -15.546875 
Q 72.125 -9.03125 75.578125 -4.515625 
Q 79.046875 0 83.203125 0 
Q 86.140625 0 88.640625 -1.3125 
Q 91.15625 -2.640625 92.71875 -4.9375 
Q 94.28125 -7.234375 94.28125 -10.203125 
Q 94.28125 -12.359375 92.859375 -13.765625 
Q 91.453125 -15.1875 89.3125 -15.1875 
Q 87.109375 -15.1875 85.640625 -13.765625 
Q 84.1875 -12.359375 84.1875 -10.203125 
Q 84.1875 -8.015625 85.640625 -6.546875 
Q 87.109375 -5.078125 89.3125 -5.078125 
Q 86.71875 -2.59375 83.296875 -2.59375 
Q 81.453125 -2.59375 79.21875 -8 
Q 77 -13.421875 75.125 -20.765625 
Q 73.25 -28.125 72.234375 -33.03125 
Q 71.234375 -37.9375 69.828125 -45.3125 
Q 68.171875 -53.65625 67.0625 -59.859375 
Q 65.96875 -66.0625 64.40625 -75.1875 
Q 62.84375 -84.328125 61.34375 -92.578125 
Q 59.859375 -100.828125 57.8125 -111.1875 
Q 56.5 -117.71875 54 -129.5625 
Q 51.515625 -141.40625 50.703125 -144.96875 
Q 49.90625 -148.53125 46.609375 -162.390625 
Q 43.3125 -176.265625 43.109375 -177.09375 
L 41.890625 -181.6875 
Q 39.3125 -192.28125 36.6875 -200.3125 
Q 34.078125 -208.34375 29.015625 -215.28125 
Q 23.96875 -222.21875 16.703125 -222.21875 
Q 12.359375 -222.21875 8.984375 -219.28125 
Q 5.609375 -216.359375 5.609375 -212.109375 
Q 5.609375 -209.90625 7.078125 -208.4375 
Q 8.546875 -206.984375 10.6875 -206.984375 
Q 12.109375 -206.984375 13.25 -207.65625 
Q 14.40625 -208.34375 15.0625 -209.515625 
Q 15.71875 -210.6875 15.71875 -212.109375 
Q 15.71875 -214.265625 14.25 -215.671875 
Q 12.796875 -217.09375 10.59375 -217.09375 
" id="Cmex10-5a"/>
     <path d="M 2.984375 0 
L 2.984375 3.515625 
Q 6.390625 3.515625 8.59375 4.046875 
Q 10.796875 4.59375 10.796875 6.6875 
L 10.796875 33.984375 
Q 10.796875 36.671875 9.984375 37.859375 
Q 9.1875 39.0625 7.671875 39.328125 
Q 6.15625 39.59375 2.984375 39.59375 
L 2.984375 43.109375 
L 17.484375 44.1875 
L 17.484375 34.421875 
Q 19.484375 38.71875 23.40625 41.453125 
Q 27.34375 44.1875 31.984375 44.1875 
Q 38.921875 44.1875 42.40625 40.859375 
Q 45.90625 37.546875 45.90625 30.71875 
L 45.90625 6.6875 
Q 45.90625 4.59375 48.09375 4.046875 
Q 50.296875 3.515625 53.71875 3.515625 
L 53.71875 0 
L 30.8125 0 
L 30.8125 3.515625 
Q 34.234375 3.515625 36.421875 4.046875 
Q 38.625 4.59375 38.625 6.6875 
L 38.625 30.421875 
Q 38.625 35.296875 37.203125 38.453125 
Q 35.796875 41.609375 31.390625 41.609375 
Q 25.59375 41.609375 21.84375 36.96875 
Q 18.109375 32.328125 18.109375 26.421875 
L 18.109375 6.6875 
Q 18.109375 4.59375 20.3125 4.046875 
Q 22.515625 3.515625 25.875 3.515625 
L 25.875 0 
z
" id="Cmr10-6e"/>
     <path d="M 3.078125 0 
L 3.078125 3.515625 
Q 6.5 3.515625 8.6875 4.046875 
Q 10.890625 4.59375 10.890625 6.6875 
L 10.890625 33.984375 
Q 10.890625 37.84375 9.390625 38.71875 
Q 7.90625 39.59375 3.515625 39.59375 
L 3.515625 43.109375 
L 17.921875 44.1875 
L 17.921875 6.6875 
Q 17.921875 4.59375 19.828125 4.046875 
Q 21.734375 3.515625 24.90625 3.515625 
L 24.90625 0 
z
M 7.328125 61.375 
Q 7.328125 63.578125 8.984375 65.234375 
Q 10.640625 66.890625 12.796875 66.890625 
Q 14.203125 66.890625 15.515625 66.15625 
Q 16.84375 65.4375 17.578125 64.109375 
Q 18.3125 62.796875 18.3125 61.375 
Q 18.3125 59.234375 16.640625 57.5625 
Q 14.984375 55.90625 12.796875 55.90625 
Q 10.640625 55.90625 8.984375 57.5625 
Q 7.328125 59.234375 7.328125 61.375 
" id="Cmr10-69"/>
     <path d="M 7.8125 2.875 
Q 9.578125 1.515625 12.796875 1.515625 
Q 15.921875 1.515625 18.3125 4.515625 
Q 20.703125 7.515625 21.578125 11.078125 
L 26.125 28.8125 
Q 27.203125 33.640625 27.203125 35.40625 
Q 27.203125 37.890625 25.8125 39.75 
Q 24.421875 41.609375 21.921875 41.609375 
Q 18.75 41.609375 15.96875 39.625 
Q 13.1875 37.640625 11.28125 34.59375 
Q 9.375 31.546875 8.59375 28.421875 
Q 8.40625 27.78125 7.8125 27.78125 
L 6.59375 27.78125 
Q 5.8125 27.78125 5.8125 28.71875 
L 5.8125 29 
Q 6.78125 32.71875 9.125 36.25 
Q 11.46875 39.796875 14.859375 41.984375 
Q 18.265625 44.1875 22.125 44.1875 
Q 25.78125 44.1875 28.734375 42.234375 
Q 31.6875 40.28125 32.90625 36.921875 
Q 34.625 39.984375 37.28125 42.078125 
Q 39.9375 44.1875 43.109375 44.1875 
Q 45.265625 44.1875 47.5 43.421875 
Q 49.75 42.671875 51.171875 41.109375 
Q 52.59375 39.546875 52.59375 37.203125 
Q 52.59375 34.671875 50.953125 32.828125 
Q 49.3125 31 46.78125 31 
Q 45.171875 31 44.09375 32.03125 
Q 43.015625 33.0625 43.015625 34.625 
Q 43.015625 36.71875 44.453125 38.296875 
Q 45.90625 39.890625 47.90625 40.1875 
Q 46.09375 41.609375 42.921875 41.609375 
Q 39.703125 41.609375 37.328125 38.625 
Q 34.96875 35.640625 33.984375 31.984375 
L 29.59375 14.3125 
Q 28.515625 10.296875 28.515625 7.71875 
Q 28.515625 5.171875 29.953125 3.34375 
Q 31.390625 1.515625 33.796875 1.515625 
Q 38.484375 1.515625 42.15625 5.640625 
Q 45.84375 9.765625 47.015625 14.703125 
Q 47.21875 15.28125 47.796875 15.28125 
L 49.03125 15.28125 
Q 49.421875 15.28125 49.65625 15.015625 
Q 49.90625 14.75 49.90625 14.40625 
Q 49.90625 14.3125 49.8125 14.109375 
Q 48.390625 8.15625 43.84375 3.515625 
Q 39.3125 -1.125 33.59375 -1.125 
Q 29.9375 -1.125 26.984375 0.84375 
Q 24.03125 2.828125 22.796875 6.203125 
Q 21.234375 3.265625 18.46875 1.0625 
Q 15.71875 -1.125 12.59375 -1.125 
Q 10.453125 -1.125 8.171875 -0.359375 
Q 5.90625 0.390625 4.484375 1.953125 
Q 3.078125 3.515625 3.078125 5.90625 
Q 3.078125 8.25 4.703125 10.171875 
Q 6.34375 12.109375 8.796875 12.109375 
Q 10.453125 12.109375 11.578125 11.109375 
Q 12.703125 10.109375 12.703125 8.5 
Q 12.703125 6.390625 11.296875 4.828125 
Q 9.90625 3.265625 7.8125 2.875 
" id="Cmmi10-78"/>
     <path d="M 3.328125 -0.296875 
L 3.328125 16.015625 
Q 3.328125 16.796875 4.203125 16.796875 
L 5.421875 16.796875 
Q 6 16.796875 6.203125 16.015625 
Q 8.984375 1.515625 19.671875 1.515625 
Q 24.421875 1.515625 27.609375 3.65625 
Q 30.8125 5.8125 30.8125 10.296875 
Q 30.8125 13.53125 28.3125 15.796875 
Q 25.828125 18.0625 22.40625 18.890625 
L 15.71875 20.21875 
Q 12.359375 20.953125 9.59375 22.453125 
Q 6.84375 23.96875 5.078125 26.484375 
Q 3.328125 29 3.328125 32.328125 
Q 3.328125 36.71875 5.640625 39.515625 
Q 7.953125 42.328125 11.65625 43.578125 
Q 15.375 44.828125 19.671875 44.828125 
Q 24.8125 44.828125 28.609375 42.09375 
L 31.5 44.578125 
Q 31.5 44.828125 31.984375 44.828125 
L 32.71875 44.828125 
Q 33.015625 44.828125 33.25 44.546875 
Q 33.5 44.28125 33.5 44 
L 33.5 30.90625 
Q 33.5 29.984375 32.71875 29.984375 
L 31.5 29.984375 
Q 30.609375 29.984375 30.609375 30.90625 
Q 30.609375 36.140625 27.703125 39.3125 
Q 24.8125 42.484375 19.578125 42.484375 
Q 15.09375 42.484375 11.796875 40.8125 
Q 8.5 39.15625 8.5 35.109375 
Q 8.5 32.328125 10.859375 30.546875 
Q 13.234375 28.765625 16.40625 27.984375 
L 23.1875 26.703125 
Q 26.609375 25.921875 29.5625 24.0625 
Q 32.515625 22.21875 34.25 19.375 
Q 35.984375 16.546875 35.984375 12.984375 
Q 35.984375 9.375 34.734375 6.703125 
Q 33.5 4.046875 31.265625 2.28125 
Q 29.046875 0.53125 26.015625 -0.296875 
Q 23 -1.125 19.671875 -1.125 
Q 13.421875 -1.125 8.984375 3.078125 
L 5.328125 -0.875 
Q 5.328125 -1.125 4.78125 -1.125 
L 4.203125 -1.125 
Q 3.328125 -1.125 3.328125 -0.296875 
" id="Cmr10-73"/>
     <path d="M 17.390625 -1.125 
Q 11.078125 -1.125 7.4375 3.640625 
Q 3.8125 8.40625 3.8125 14.890625 
Q 3.8125 21.296875 7.125 28.171875 
Q 10.453125 35.0625 16.09375 39.625 
Q 21.734375 44.1875 28.21875 44.1875 
Q 31.15625 44.1875 33.515625 42.546875 
Q 35.890625 40.921875 37.203125 38.1875 
L 42.828125 60.5 
Q 43.21875 62.203125 43.3125 63.1875 
Q 43.3125 64.796875 36.8125 64.796875 
Q 35.796875 64.796875 35.796875 66.109375 
Q 35.84375 66.359375 36.015625 66.984375 
Q 36.1875 67.625 36.453125 67.96875 
Q 36.71875 68.3125 37.203125 68.3125 
L 50.6875 69.390625 
Q 51.90625 69.390625 51.90625 68.109375 
L 37.5 10.59375 
Q 36.8125 8.9375 36.8125 5.8125 
Q 36.8125 1.515625 39.703125 1.515625 
Q 42.828125 1.515625 44.453125 5.484375 
Q 46.09375 9.46875 47.21875 14.703125 
Q 47.40625 15.28125 48 15.28125 
L 49.21875 15.28125 
Q 49.609375 15.28125 49.84375 14.9375 
Q 50.09375 14.59375 50.09375 14.3125 
Q 48.34375 7.328125 46.265625 3.09375 
Q 44.1875 -1.125 39.5 -1.125 
Q 36.140625 -1.125 33.546875 0.84375 
Q 30.953125 2.828125 30.328125 6.109375 
Q 23.875 -1.125 17.390625 -1.125 
M 17.484375 1.515625 
Q 21.09375 1.515625 24.484375 4.21875 
Q 27.875 6.9375 30.328125 10.59375 
Q 30.421875 10.6875 30.421875 10.984375 
L 35.890625 33.015625 
Q 35.296875 36.53125 33.296875 39.0625 
Q 31.296875 41.609375 27.984375 41.609375 
Q 24.609375 41.609375 21.703125 38.84375 
Q 18.796875 36.078125 16.796875 32.328125 
Q 14.84375 28.328125 13.0625 21.34375 
Q 11.28125 14.359375 11.28125 10.5 
Q 11.28125 7.03125 12.765625 4.265625 
Q 14.265625 1.515625 17.484375 1.515625 
" id="Cmmi10-64"/>
    </defs>
    <g style="fill:#ffffff;" transform="translate(111.42108971 158.380334663)scale(0.22 -0.22)">
     <use transform="translate(0.0 144.8296875)" xlink:href="#Cmex10-5a"/>
     <use transform="translate(108.600273437 127.8234375)scale(0.7)" xlink:href="#Cmmi10-bc"/>
     <use transform="translate(47.9343359375 -94.3953125)scale(0.7)" xlink:href="#Cmr10-30"/>
     <use transform="translate(148.48796875 0.386979166667)" xlink:href="#Cmr10-73"/>
     <use transform="translate(187.892265625 0.386979166667)" xlink:href="#Cmr10-69"/>
     <use transform="translate(215.5778125 0.386979166667)" xlink:href="#Cmr10-6e"/>
     <use transform="translate(271.095390625 0.386979166667)" xlink:href="#Cmmi10-78"/>
     <use transform="translate(342.807922852 0.386979166667)" xlink:href="#Cmmi10-64"/>
     <use transform="translate(394.809875977 0.386979166667)" xlink:href="#Cmmi10-78"/>
    </g>
   </g>
  </g>
 </g>
 <defs>
  <clipPath id="p3a929086fd">
   <rect height="406.08" width="530.986933195" x="23.2887128232" y="7.2"/>
  </clipPath>
 </defs>
</svg>
