<?xml version="1.0" encoding="utf-8" standalone="no"?>
<!DOCTYPE svg PUBLIC "-//W3C//DTD SVG 1.1//EN"
  "http://www.w3.org/Graphics/SVG/1.1/DTD/svg11.dtd">
<!-- Created with matplotlib (http://matplotlib.org/) -->
<svg height="420pt" version="1.1" viewBox="0 0 564 420" width="564pt" xmlns="http://www.w3.org/2000/svg" xmlns:xlink="http://www.w3.org/1999/xlink">
 <defs>
  <style type="text/css">
*{stroke-linecap:butt;stroke-linejoin:round;stroke-miterlimit:100000;}
  </style>
 </defs>
 <g id="figure_1">
  <g id="patch_1">
   <path d="M 0 420.48 
L 564.48 420.48 
L 564.48 0 
L 0 0 
z
" style="fill:#ffffff;"/>
  </g>
  <g id="axes_1">
   <g id="patch_2">
    <path d="M 7.2 413.28 
L 557.28 413.28 
L 557.28 7.2 
L 7.2 7.2 
z
" style="fill:#ffffff;"/>
   </g>
   <g id="line2d_1">
    <path clip-path="url(#pa023fd6b2f)" d="M 17.778462 405.470769 
L 23.524286 393.020193 
L 29.292 381.066191 
L 34.822643 370.10419 
L 40.198113 359.909151 
L 45.904882 349.570272 
L 51.146392 340.504029 
L 56.57125 331.54396 
L 62.272891 322.579877 
L 67.937495 314.122513 
L 73.446468 306.315317 
L 78.231752 299.859783 
L 83.619435 292.9453 
L 89.243767 286.116485 
L 94.465149 280.123232 
L 99.659385 274.482835 
L 104.33118 269.676488 
L 109.471597 264.671921 
L 114.504587 260.052116 
L 119.932059 255.371525 
L 125.417273 250.948745 
L 131.09144 246.68792 
L 136.000734 243.250546 
L 140.621204 240.219432 
L 145.994402 236.934891 
L 151.41493 233.873804 
L 156.084877 231.432168 
L 162.208747 228.493398 
L 167.787503 226.064738 
L 173.223723 223.915233 
L 179.690329 221.623178 
L 186.389471 219.53489 
L 193.154335 217.702497 
L 199.459757 216.227435 
L 206.45142 214.834857 
L 213.15071 213.720911 
L 220.469897 212.727687 
L 227.344782 211.98608 
L 235.756134 211.30015 
L 244.928454 210.788265 
L 253.707041 210.485189 
L 265.06727 210.293454 
L 285.101966 210.239753 
L 304.055613 210.130412 
L 315.073412 209.866398 
L 324.552708 209.440399 
L 333.702771 208.8014 
L 341.732339 208.017489 
L 349.626501 207.010172 
L 356.25344 205.960506 
L 362.104957 204.86313 
L 369.4977 203.227514 
L 375.482193 201.683461 
L 381.35991 199.961177 
L 387.200826 198.03487 
L 393.594412 195.665858 
L 398.652045 193.588458 
L 404.318081 191.036792 
L 409.836935 188.312888 
L 415.454792 185.287271 
L 421.273581 181.87258 
L 426.574746 178.502451 
L 432.208662 174.638995 
L 437.95978 170.384152 
L 443.318593 166.126229 
L 448.960221 161.326861 
L 453.929024 156.821917 
L 459.689368 151.26281 
L 464.873231 145.941608 
L 470.128426 140.229885 
L 475.813998 133.680028 
L 481.09818 127.237516 
L 486.244231 120.625512 
L 491.675913 113.275186 
L 497.004181 105.684651 
L 501.99844 98.219528 
L 507.5959 89.439841 
L 513.261281 80.098243 
L 518.831461 70.455858 
L 524.593205 59.992585 
L 530.020817 49.670245 
L 535.499127 38.782684 
L 540.93568 27.502267 
L 546.701538 15.009231 
L 546.701538 15.009231 
" style="fill:none;stroke:#008000;stroke-linecap:square;"/>
   </g>
   <g id="line2d_2">
    <path clip-path="url(#pa023fd6b2f)" d="M 17.778462 145.163077 
L 29.542737 150.82405 
L 41.698462 156.40284 
L 53.292881 161.467801 
L 64.830536 166.259632 
L 75.949021 170.642985 
L 87.634482 175.001917 
L 99.771362 179.260213 
L 112.145481 183.319532 
L 123.280706 186.728853 
L 134.042191 189.804487 
L 145.256646 192.780268 
L 156.609614 195.554411 
L 166.124358 197.694631 
L 176.091861 199.756007 
L 187.29665 201.852528 
L 198.39789 203.699268 
L 210.78615 205.489348 
L 220.796842 206.727236 
L 231.552839 207.84945 
L 243.055129 208.811307 
L 254.539577 209.526039 
L 265.725387 209.986231 
L 277.463382 210.21877 
L 289.478798 210.191243 
L 299.589475 209.959925 
L 310.551665 209.494182 
L 321.033442 208.839708 
L 332.791565 207.862223 
L 342.720754 206.836417 
L 354.635657 205.363289 
L 364.602644 203.928065 
L 375.800437 202.095087 
L 387.113865 200.00621 
L 397.867254 197.799942 
L 407.958204 195.533873 
L 419.015728 192.833156 
L 430.607052 189.757786 
L 442.775681 186.260224 
L 454.605017 182.596042 
L 466.336164 178.705101 
L 477.337867 174.823388 
L 487.348293 171.095711 
L 499.802171 166.197827 
L 512.094847 161.080291 
L 524.127092 155.798842 
L 535.402557 150.605042 
L 546.701538 145.163077 
L 546.701538 145.163077 
" style="fill:none;stroke:#000000;stroke-linecap:square;"/>
   </g>
   <g id="patch_3">
    <path d="M 7.2 210.24 
L 557.28 210.24 
" style="fill:none;stroke:#000000;stroke-linecap:square;stroke-linejoin:miter;stroke-width:0.8;"/>
   </g>
   <g id="patch_4">
    <path d="M 282.24 413.28 
L 282.24 7.2 
" style="fill:none;stroke:#000000;stroke-linecap:square;stroke-linejoin:miter;stroke-width:0.8;"/>
   </g>
   <g id="matplotlib.axis_1">
    <g id="xtick_1">
     <g id="line2d_3">
      <defs>
       <path d="M 0 0 
L 0 -4 
" id="mbb86cc4d48" style="stroke:#000000;stroke-width:0.5;"/>
      </defs>
      <g>
       <use style="stroke:#000000;stroke-width:0.5;" x="17.7784615385" xlink:href="#mbb86cc4d48" y="210.24"/>
      </g>
     </g>
     <g id="text_1">
      <!-- -3 -->
      <defs>
       <path d="M 40.578125 39.3125 
Q 47.65625 37.796875 51.625 33 
Q 55.609375 28.21875 55.609375 21.1875 
Q 55.609375 10.40625 48.1875 4.484375 
Q 40.765625 -1.421875 27.09375 -1.421875 
Q 22.515625 -1.421875 17.65625 -0.515625 
Q 12.796875 0.390625 7.625 2.203125 
L 7.625 11.71875 
Q 11.71875 9.328125 16.59375 8.109375 
Q 21.484375 6.890625 26.8125 6.890625 
Q 36.078125 6.890625 40.9375 10.546875 
Q 45.796875 14.203125 45.796875 21.1875 
Q 45.796875 27.640625 41.28125 31.265625 
Q 36.765625 34.90625 28.71875 34.90625 
L 20.21875 34.90625 
L 20.21875 43.015625 
L 29.109375 43.015625 
Q 36.375 43.015625 40.234375 45.921875 
Q 44.09375 48.828125 44.09375 54.296875 
Q 44.09375 59.90625 40.109375 62.90625 
Q 36.140625 65.921875 28.71875 65.921875 
Q 24.65625 65.921875 20.015625 65.03125 
Q 15.375 64.15625 9.8125 62.3125 
L 9.8125 71.09375 
Q 15.4375 72.65625 20.34375 73.4375 
Q 25.25 74.21875 29.59375 74.21875 
Q 40.828125 74.21875 47.359375 69.109375 
Q 53.90625 64.015625 53.90625 55.328125 
Q 53.90625 49.265625 50.4375 45.09375 
Q 46.96875 40.921875 40.578125 39.3125 
" id="BitstreamVeraSans-Roman-33"/>
       <path d="M 4.890625 31.390625 
L 31.203125 31.390625 
L 31.203125 23.390625 
L 4.890625 23.390625 
z
" id="BitstreamVeraSans-Roman-2d"/>
      </defs>
      <g transform="translate(12.7933052885 221.8384375)scale(0.1 -0.1)">
       <use xlink:href="#BitstreamVeraSans-Roman-2d"/>
       <use x="36.083984375" xlink:href="#BitstreamVeraSans-Roman-33"/>
      </g>
     </g>
    </g>
    <g id="xtick_2">
     <g id="line2d_4">
      <g>
       <use style="stroke:#000000;stroke-width:0.5;" x="105.932307692" xlink:href="#mbb86cc4d48" y="210.24"/>
      </g>
     </g>
     <g id="text_2">
      <!-- -2 -->
      <defs>
       <path d="M 19.1875 8.296875 
L 53.609375 8.296875 
L 53.609375 0 
L 7.328125 0 
L 7.328125 8.296875 
Q 12.9375 14.109375 22.625 23.890625 
Q 32.328125 33.6875 34.8125 36.53125 
Q 39.546875 41.84375 41.421875 45.53125 
Q 43.3125 49.21875 43.3125 52.78125 
Q 43.3125 58.59375 39.234375 62.25 
Q 35.15625 65.921875 28.609375 65.921875 
Q 23.96875 65.921875 18.8125 64.3125 
Q 13.671875 62.703125 7.8125 59.421875 
L 7.8125 69.390625 
Q 13.765625 71.78125 18.9375 73 
Q 24.125 74.21875 28.421875 74.21875 
Q 39.75 74.21875 46.484375 68.546875 
Q 53.21875 62.890625 53.21875 53.421875 
Q 53.21875 48.921875 51.53125 44.890625 
Q 49.859375 40.875 45.40625 35.40625 
Q 44.1875 33.984375 37.640625 27.21875 
Q 31.109375 20.453125 19.1875 8.296875 
" id="BitstreamVeraSans-Roman-32"/>
      </defs>
      <g transform="translate(100.947151442 221.8384375)scale(0.1 -0.1)">
       <use xlink:href="#BitstreamVeraSans-Roman-2d"/>
       <use x="36.083984375" xlink:href="#BitstreamVeraSans-Roman-32"/>
      </g>
     </g>
    </g>
    <g id="xtick_3">
     <g id="line2d_5">
      <g>
       <use style="stroke:#000000;stroke-width:0.5;" x="194.086153846" xlink:href="#mbb86cc4d48" y="210.24"/>
      </g>
     </g>
     <g id="text_3">
      <!-- -1 -->
      <defs>
       <path d="M 12.40625 8.296875 
L 28.515625 8.296875 
L 28.515625 63.921875 
L 10.984375 60.40625 
L 10.984375 69.390625 
L 28.421875 72.90625 
L 38.28125 72.90625 
L 38.28125 8.296875 
L 54.390625 8.296875 
L 54.390625 0 
L 12.40625 0 
z
" id="BitstreamVeraSans-Roman-31"/>
      </defs>
      <g transform="translate(189.100997596 221.8384375)scale(0.1 -0.1)">
       <use xlink:href="#BitstreamVeraSans-Roman-2d"/>
       <use x="36.083984375" xlink:href="#BitstreamVeraSans-Roman-31"/>
      </g>
     </g>
    </g>
    <g id="xtick_4">
     <g id="line2d_6">
      <g>
       <use style="stroke:#000000;stroke-width:0.5;" x="282.24" xlink:href="#mbb86cc4d48" y="210.24"/>
      </g>
     </g>
    </g>
    <g id="xtick_5">
     <g id="line2d_7">
      <g>
       <use style="stroke:#000000;stroke-width:0.5;" x="370.393846154" xlink:href="#mbb86cc4d48" y="210.24"/>
      </g>
     </g>
     <g id="text_4">
      <!-- 1 -->
      <g transform="translate(367.212596154 221.8384375)scale(0.1 -0.1)">
       <use xlink:href="#BitstreamVeraSans-Roman-31"/>
      </g>
     </g>
    </g>
    <g id="xtick_6">
     <g id="line2d_8">
      <g>
       <use style="stroke:#000000;stroke-width:0.5;" x="458.547692308" xlink:href="#mbb86cc4d48" y="210.24"/>
      </g>
     </g>
     <g id="text_5">
      <!-- 2 -->
      <g transform="translate(455.366442308 221.8384375)scale(0.1 -0.1)">
       <use xlink:href="#BitstreamVeraSans-Roman-32"/>
      </g>
     </g>
    </g>
    <g id="xtick_7">
     <g id="line2d_9">
      <g>
       <use style="stroke:#000000;stroke-width:0.5;" x="546.701538462" xlink:href="#mbb86cc4d48" y="210.24"/>
      </g>
     </g>
     <g id="text_6">
      <!-- 3 -->
      <g transform="translate(543.520288462 221.8384375)scale(0.1 -0.1)">
       <use xlink:href="#BitstreamVeraSans-Roman-33"/>
      </g>
     </g>
    </g>
    <g id="xtick_8">
     <g id="line2d_10">
      <defs>
       <path d="M 0 0 
L 0 -2 
" id="m233099ca3a" style="stroke:#000000;stroke-width:0.5;"/>
      </defs>
      <g>
       <use style="stroke:#000000;stroke-width:0.5;" x="35.4092307692" xlink:href="#m233099ca3a" y="210.24"/>
      </g>
     </g>
    </g>
    <g id="xtick_9">
     <g id="line2d_11">
      <g>
       <use style="stroke:#000000;stroke-width:0.5;" x="53.04" xlink:href="#m233099ca3a" y="210.24"/>
      </g>
     </g>
    </g>
    <g id="xtick_10">
     <g id="line2d_12">
      <g>
       <use style="stroke:#000000;stroke-width:0.5;" x="70.6707692308" xlink:href="#m233099ca3a" y="210.24"/>
      </g>
     </g>
    </g>
    <g id="xtick_11">
     <g id="line2d_13">
      <g>
       <use style="stroke:#000000;stroke-width:0.5;" x="88.3015384615" xlink:href="#m233099ca3a" y="210.24"/>
      </g>
     </g>
    </g>
    <g id="xtick_12">
     <g id="line2d_14">
      <g>
       <use style="stroke:#000000;stroke-width:0.5;" x="123.563076923" xlink:href="#m233099ca3a" y="210.24"/>
      </g>
     </g>
    </g>
    <g id="xtick_13">
     <g id="line2d_15">
      <g>
       <use style="stroke:#000000;stroke-width:0.5;" x="141.193846154" xlink:href="#m233099ca3a" y="210.24"/>
      </g>
     </g>
    </g>
    <g id="xtick_14">
     <g id="line2d_16">
      <g>
       <use style="stroke:#000000;stroke-width:0.5;" x="158.824615385" xlink:href="#m233099ca3a" y="210.24"/>
      </g>
     </g>
    </g>
    <g id="xtick_15">
     <g id="line2d_17">
      <g>
       <use style="stroke:#000000;stroke-width:0.5;" x="176.455384615" xlink:href="#m233099ca3a" y="210.24"/>
      </g>
     </g>
    </g>
    <g id="xtick_16">
     <g id="line2d_18">
      <g>
       <use style="stroke:#000000;stroke-width:0.5;" x="194.086153846" xlink:href="#m233099ca3a" y="210.24"/>
      </g>
     </g>
    </g>
    <g id="xtick_17">
     <g id="line2d_19">
      <g>
       <use style="stroke:#000000;stroke-width:0.5;" x="211.716923077" xlink:href="#m233099ca3a" y="210.24"/>
      </g>
     </g>
    </g>
    <g id="xtick_18">
     <g id="line2d_20">
      <g>
       <use style="stroke:#000000;stroke-width:0.5;" x="229.347692308" xlink:href="#m233099ca3a" y="210.24"/>
      </g>
     </g>
    </g>
    <g id="xtick_19">
     <g id="line2d_21">
      <g>
       <use style="stroke:#000000;stroke-width:0.5;" x="246.978461538" xlink:href="#m233099ca3a" y="210.24"/>
      </g>
     </g>
    </g>
    <g id="xtick_20">
     <g id="line2d_22">
      <g>
       <use style="stroke:#000000;stroke-width:0.5;" x="264.609230769" xlink:href="#m233099ca3a" y="210.24"/>
      </g>
     </g>
    </g>
    <g id="xtick_21">
     <g id="line2d_23">
      <g>
       <use style="stroke:#000000;stroke-width:0.5;" x="282.24" xlink:href="#m233099ca3a" y="210.24"/>
      </g>
     </g>
    </g>
    <g id="xtick_22">
     <g id="line2d_24">
      <g>
       <use style="stroke:#000000;stroke-width:0.5;" x="299.870769231" xlink:href="#m233099ca3a" y="210.24"/>
      </g>
     </g>
    </g>
    <g id="xtick_23">
     <g id="line2d_25">
      <g>
       <use style="stroke:#000000;stroke-width:0.5;" x="317.501538462" xlink:href="#m233099ca3a" y="210.24"/>
      </g>
     </g>
    </g>
    <g id="xtick_24">
     <g id="line2d_26">
      <g>
       <use style="stroke:#000000;stroke-width:0.5;" x="335.132307692" xlink:href="#m233099ca3a" y="210.24"/>
      </g>
     </g>
    </g>
    <g id="xtick_25">
     <g id="line2d_27">
      <g>
       <use style="stroke:#000000;stroke-width:0.5;" x="352.763076923" xlink:href="#m233099ca3a" y="210.24"/>
      </g>
     </g>
    </g>
    <g id="xtick_26">
     <g id="line2d_28">
      <g>
       <use style="stroke:#000000;stroke-width:0.5;" x="370.393846154" xlink:href="#m233099ca3a" y="210.24"/>
      </g>
     </g>
    </g>
    <g id="xtick_27">
     <g id="line2d_29">
      <g>
       <use style="stroke:#000000;stroke-width:0.5;" x="388.024615385" xlink:href="#m233099ca3a" y="210.24"/>
      </g>
     </g>
    </g>
    <g id="xtick_28">
     <g id="line2d_30">
      <g>
       <use style="stroke:#000000;stroke-width:0.5;" x="405.655384615" xlink:href="#m233099ca3a" y="210.24"/>
      </g>
     </g>
    </g>
    <g id="xtick_29">
     <g id="line2d_31">
      <g>
       <use style="stroke:#000000;stroke-width:0.5;" x="423.286153846" xlink:href="#m233099ca3a" y="210.24"/>
      </g>
     </g>
    </g>
    <g id="xtick_30">
     <g id="line2d_32">
      <g>
       <use style="stroke:#000000;stroke-width:0.5;" x="440.916923077" xlink:href="#m233099ca3a" y="210.24"/>
      </g>
     </g>
    </g>
    <g id="xtick_31">
     <g id="line2d_33">
      <g>
       <use style="stroke:#000000;stroke-width:0.5;" x="458.547692308" xlink:href="#m233099ca3a" y="210.24"/>
      </g>
     </g>
    </g>
    <g id="xtick_32">
     <g id="line2d_34">
      <g>
       <use style="stroke:#000000;stroke-width:0.5;" x="476.178461538" xlink:href="#m233099ca3a" y="210.24"/>
      </g>
     </g>
    </g>
    <g id="xtick_33">
     <g id="line2d_35">
      <g>
       <use style="stroke:#000000;stroke-width:0.5;" x="493.809230769" xlink:href="#m233099ca3a" y="210.24"/>
      </g>
     </g>
    </g>
    <g id="xtick_34">
     <g id="line2d_36">
      <g>
       <use style="stroke:#000000;stroke-width:0.5;" x="511.44" xlink:href="#m233099ca3a" y="210.24"/>
      </g>
     </g>
    </g>
    <g id="xtick_35">
     <g id="line2d_37">
      <g>
       <use style="stroke:#000000;stroke-width:0.5;" x="529.070769231" xlink:href="#m233099ca3a" y="210.24"/>
      </g>
     </g>
    </g>
    <g id="xtick_36">
     <g id="line2d_38">
      <g>
       <use style="stroke:#000000;stroke-width:0.5;" x="546.701538462" xlink:href="#m233099ca3a" y="210.24"/>
      </g>
     </g>
    </g>
   </g>
   <g id="matplotlib.axis_2">
    <g id="ytick_1">
     <g id="line2d_39">
      <defs>
       <path d="M 0 0 
L 4 0 
" id="m39d260ca48" style="stroke:#000000;stroke-width:0.5;"/>
      </defs>
      <g>
       <use style="stroke:#000000;stroke-width:0.5;" x="282.24" xlink:href="#m39d260ca48" y="354.855384615"/>
      </g>
     </g>
     <g id="text_7">
      <!-- -20 -->
      <defs>
       <path d="M 31.78125 66.40625 
Q 24.171875 66.40625 20.328125 58.90625 
Q 16.5 51.421875 16.5 36.375 
Q 16.5 21.390625 20.328125 13.890625 
Q 24.171875 6.390625 31.78125 6.390625 
Q 39.453125 6.390625 43.28125 13.890625 
Q 47.125 21.390625 47.125 36.375 
Q 47.125 51.421875 43.28125 58.90625 
Q 39.453125 66.40625 31.78125 66.40625 
M 31.78125 74.21875 
Q 44.046875 74.21875 50.515625 64.515625 
Q 56.984375 54.828125 56.984375 36.375 
Q 56.984375 17.96875 50.515625 8.265625 
Q 44.046875 -1.421875 31.78125 -1.421875 
Q 19.53125 -1.421875 13.0625 8.265625 
Q 6.59375 17.96875 6.59375 36.375 
Q 6.59375 54.828125 13.0625 64.515625 
Q 19.53125 74.21875 31.78125 74.21875 
" id="BitstreamVeraSans-Roman-30"/>
      </defs>
      <g transform="translate(261.9071875 357.614759615)scale(0.1 -0.1)">
       <use xlink:href="#BitstreamVeraSans-Roman-2d"/>
       <use x="36.083984375" xlink:href="#BitstreamVeraSans-Roman-32"/>
       <use x="99.70703125" xlink:href="#BitstreamVeraSans-Roman-30"/>
      </g>
     </g>
    </g>
    <g id="ytick_2">
     <g id="line2d_40">
      <g>
       <use style="stroke:#000000;stroke-width:0.5;" x="282.24" xlink:href="#m39d260ca48" y="282.547692308"/>
      </g>
     </g>
     <g id="text_8">
      <!-- -10 -->
      <g transform="translate(261.9071875 285.307067308)scale(0.1 -0.1)">
       <use xlink:href="#BitstreamVeraSans-Roman-2d"/>
       <use x="36.083984375" xlink:href="#BitstreamVeraSans-Roman-31"/>
       <use x="99.70703125" xlink:href="#BitstreamVeraSans-Roman-30"/>
      </g>
     </g>
    </g>
    <g id="ytick_3">
     <g id="line2d_41">
      <g>
       <use style="stroke:#000000;stroke-width:0.5;" x="282.24" xlink:href="#m39d260ca48" y="210.24"/>
      </g>
     </g>
    </g>
    <g id="ytick_4">
     <g id="line2d_42">
      <g>
       <use style="stroke:#000000;stroke-width:0.5;" x="282.24" xlink:href="#m39d260ca48" y="137.932307692"/>
      </g>
     </g>
     <g id="text_9">
      <!-- 10 -->
      <g transform="translate(265.515 140.691682692)scale(0.1 -0.1)">
       <use xlink:href="#BitstreamVeraSans-Roman-31"/>
       <use x="63.623046875" xlink:href="#BitstreamVeraSans-Roman-30"/>
      </g>
     </g>
    </g>
    <g id="ytick_5">
     <g id="line2d_43">
      <g>
       <use style="stroke:#000000;stroke-width:0.5;" x="282.24" xlink:href="#m39d260ca48" y="65.6246153846"/>
      </g>
     </g>
     <g id="text_10">
      <!-- 20 -->
      <g transform="translate(265.515 68.3839903846)scale(0.1 -0.1)">
       <use xlink:href="#BitstreamVeraSans-Roman-32"/>
       <use x="63.623046875" xlink:href="#BitstreamVeraSans-Roman-30"/>
      </g>
     </g>
    </g>
    <g id="ytick_6">
     <g id="line2d_44">
      <defs>
       <path d="M 0 0 
L 2 0 
" id="m4e1f94e993" style="stroke:#000000;stroke-width:0.5;"/>
      </defs>
      <g>
       <use style="stroke:#000000;stroke-width:0.5;" x="282.24" xlink:href="#m4e1f94e993" y="412.701538462"/>
      </g>
     </g>
    </g>
    <g id="ytick_7">
     <g id="line2d_45">
      <g>
       <use style="stroke:#000000;stroke-width:0.5;" x="282.24" xlink:href="#m4e1f94e993" y="398.24"/>
      </g>
     </g>
    </g>
    <g id="ytick_8">
     <g id="line2d_46">
      <g>
       <use style="stroke:#000000;stroke-width:0.5;" x="282.24" xlink:href="#m4e1f94e993" y="383.778461538"/>
      </g>
     </g>
    </g>
    <g id="ytick_9">
     <g id="line2d_47">
      <g>
       <use style="stroke:#000000;stroke-width:0.5;" x="282.24" xlink:href="#m4e1f94e993" y="369.316923077"/>
      </g>
     </g>
    </g>
    <g id="ytick_10">
     <g id="line2d_48">
      <g>
       <use style="stroke:#000000;stroke-width:0.5;" x="282.24" xlink:href="#m4e1f94e993" y="340.393846154"/>
      </g>
     </g>
    </g>
    <g id="ytick_11">
     <g id="line2d_49">
      <g>
       <use style="stroke:#000000;stroke-width:0.5;" x="282.24" xlink:href="#m4e1f94e993" y="325.932307692"/>
      </g>
     </g>
    </g>
    <g id="ytick_12">
     <g id="line2d_50">
      <g>
       <use style="stroke:#000000;stroke-width:0.5;" x="282.24" xlink:href="#m4e1f94e993" y="311.470769231"/>
      </g>
     </g>
    </g>
    <g id="ytick_13">
     <g id="line2d_51">
      <g>
       <use style="stroke:#000000;stroke-width:0.5;" x="282.24" xlink:href="#m4e1f94e993" y="297.009230769"/>
      </g>
     </g>
    </g>
    <g id="ytick_14">
     <g id="line2d_52">
      <g>
       <use style="stroke:#000000;stroke-width:0.5;" x="282.24" xlink:href="#m4e1f94e993" y="268.086153846"/>
      </g>
     </g>
    </g>
    <g id="ytick_15">
     <g id="line2d_53">
      <g>
       <use style="stroke:#000000;stroke-width:0.5;" x="282.24" xlink:href="#m4e1f94e993" y="253.624615385"/>
      </g>
     </g>
    </g>
    <g id="ytick_16">
     <g id="line2d_54">
      <g>
       <use style="stroke:#000000;stroke-width:0.5;" x="282.24" xlink:href="#m4e1f94e993" y="239.163076923"/>
      </g>
     </g>
    </g>
    <g id="ytick_17">
     <g id="line2d_55">
      <g>
       <use style="stroke:#000000;stroke-width:0.5;" x="282.24" xlink:href="#m4e1f94e993" y="224.701538462"/>
      </g>
     </g>
    </g>
    <g id="ytick_18">
     <g id="line2d_56">
      <g>
       <use style="stroke:#000000;stroke-width:0.5;" x="282.24" xlink:href="#m4e1f94e993" y="195.778461538"/>
      </g>
     </g>
    </g>
    <g id="ytick_19">
     <g id="line2d_57">
      <g>
       <use style="stroke:#000000;stroke-width:0.5;" x="282.24" xlink:href="#m4e1f94e993" y="181.316923077"/>
      </g>
     </g>
    </g>
    <g id="ytick_20">
     <g id="line2d_58">
      <g>
       <use style="stroke:#000000;stroke-width:0.5;" x="282.24" xlink:href="#m4e1f94e993" y="166.855384615"/>
      </g>
     </g>
    </g>
    <g id="ytick_21">
     <g id="line2d_59">
      <g>
       <use style="stroke:#000000;stroke-width:0.5;" x="282.24" xlink:href="#m4e1f94e993" y="152.393846154"/>
      </g>
     </g>
    </g>
    <g id="ytick_22">
     <g id="line2d_60">
      <g>
       <use style="stroke:#000000;stroke-width:0.5;" x="282.24" xlink:href="#m4e1f94e993" y="123.470769231"/>
      </g>
     </g>
    </g>
    <g id="ytick_23">
     <g id="line2d_61">
      <g>
       <use style="stroke:#000000;stroke-width:0.5;" x="282.24" xlink:href="#m4e1f94e993" y="109.009230769"/>
      </g>
     </g>
    </g>
    <g id="ytick_24">
     <g id="line2d_62">
      <g>
       <use style="stroke:#000000;stroke-width:0.5;" x="282.24" xlink:href="#m4e1f94e993" y="94.5476923077"/>
      </g>
     </g>
    </g>
    <g id="ytick_25">
     <g id="line2d_63">
      <g>
       <use style="stroke:#000000;stroke-width:0.5;" x="282.24" xlink:href="#m4e1f94e993" y="80.0861538462"/>
      </g>
     </g>
    </g>
    <g id="ytick_26">
     <g id="line2d_64">
      <g>
       <use style="stroke:#000000;stroke-width:0.5;" x="282.24" xlink:href="#m4e1f94e993" y="51.1630769231"/>
      </g>
     </g>
    </g>
    <g id="ytick_27">
     <g id="line2d_65">
      <g>
       <use style="stroke:#000000;stroke-width:0.5;" x="282.24" xlink:href="#m4e1f94e993" y="36.7015384615"/>
      </g>
     </g>
    </g>
    <g id="ytick_28">
     <g id="line2d_66">
      <g>
       <use style="stroke:#000000;stroke-width:0.5;" x="282.24" xlink:href="#m4e1f94e993" y="22.24"/>
      </g>
     </g>
    </g>
    <g id="ytick_29">
     <g id="line2d_67">
      <g>
       <use style="stroke:#000000;stroke-width:0.5;" x="282.24" xlink:href="#m4e1f94e993" y="7.77846153846"/>
      </g>
     </g>
    </g>
   </g>
  </g>
 </g>
 <defs>
  <clipPath id="pa023fd6b2f">
   <rect height="406.08" width="550.08" x="7.2" y="7.2"/>
  </clipPath>
 </defs>
</svg>
