<?xml version="1.0" encoding="utf-8" standalone="no"?>
<!DOCTYPE svg PUBLIC "-//W3C//DTD SVG 1.1//EN"
  "http://www.w3.org/Graphics/SVG/1.1/DTD/svg11.dtd">
<!-- Created with matplotlib (http://matplotlib.org/) -->
<svg height="420pt" version="1.1" viewBox="0 0 564 420" width="564pt" xmlns="http://www.w3.org/2000/svg" xmlns:xlink="http://www.w3.org/1999/xlink">
 <defs>
  <style type="text/css">
*{stroke-linecap:butt;stroke-linejoin:round;stroke-miterlimit:100000;}
  </style>
 </defs>
 <g id="figure_1">
  <g id="patch_1">
   <path d="M 0 420.48 
L 564.48 420.48 
L 564.48 0 
L 0 0 
z
" style="fill:#ffffff;"/>
  </g>
  <g id="axes_1">
   <g id="patch_2">
    <path d="M 7.2 413.28 
L 557.28 413.28 
L 557.28 7.2 
L 7.2 7.2 
z
" style="fill:#ffffff;"/>
   </g>
   <g id="line2d_1">
    <path clip-path="url(#p50405181b4)" d="M 17.778462 210.240186 
L 25.352013 175.300456 
L 30.241579 153.272606 
L 36.762423 125.140653 
L 41.221519 107.037909 
L 45.499812 90.754495 
L 48.69665 79.383544 
L 52.019427 68.36518 
L 54.59348 60.433708 
L 57.869464 51.15307 
L 59.959509 45.732112 
L 62.013088 40.800664 
L 65.524316 33.308977 
L 67.915666 28.908318 
L 69.616637 26.133511 
L 72.294777 22.375532 
L 74.543908 19.806391 
L 76.793038 17.780882 
L 78.688397 16.500363 
L 80.777853 15.543977 
L 83.231136 15.033429 
L 85.408712 15.135662 
L 87.586288 15.759993 
L 89.806643 16.932433 
L 91.100049 17.863568 
L 93.318435 19.882977 
L 95.536821 22.431048 
L 97.082833 24.515713 
L 99.331374 27.99402 
L 101.136979 31.164094 
L 102.942584 34.663664 
L 104.871694 38.759392 
L 106.882485 43.411751 
L 109.772644 50.762599 
L 113.422421 61.114687 
L 117.383664 73.6156 
L 118.302468 76.69221 
L 123.326846 94.601658 
L 127.318862 110.01784 
L 132.768753 132.489802 
L 138.488381 157.466921 
L 144.125579 183.038382 
L 159.328875 253.115851 
L 164.874464 277.76626 
L 169.925677 299.21121 
L 174.329105 316.872143 
L 178.210117 331.477124 
L 182.927941 347.832729 
L 184.64984 353.382176 
L 187.376326 361.675811 
L 189.417569 367.471028 
L 192.804164 376.264017 
L 194.722105 380.770688 
L 196.563145 384.763757 
L 198.404185 388.42298 
L 200.208049 391.677762 
L 202.011912 394.599346 
L 204.375325 397.914049 
L 207.081115 400.982084 
L 208.710418 402.450088 
L 210.339721 403.630112 
L 212.296431 404.664204 
L 214.87475 405.385072 
L 216.206765 405.470769 
L 218.574873 405.140426 
L 220.942981 404.193295 
L 222.665387 403.1186 
L 225.271356 400.879412 
L 226.989288 399.003083 
L 229.855343 395.174736 
L 232.007893 391.734713 
L 234.160443 387.820109 
L 235.871503 384.376598 
L 238.886675 377.612091 
L 242.131596 369.374075 
L 243.87689 364.54891 
L 247.959148 352.24222 
L 252.294285 337.714717 
L 254.221559 330.812683 
L 256.960436 320.572889 
L 262.091081 300.169663 
L 268.675477 272.074107 
L 272.835924 253.497831 
L 282.322631 209.856911 
L 292.051128 165.143462 
L 295.928845 147.859567 
L 302.299 120.681109 
L 307.141069 101.360287 
L 309.408402 92.79308 
L 313.099937 79.584185 
L 317.40401 65.458397 
L 319.605494 58.809247 
L 323.49359 48.08838 
L 325.360428 43.426975 
L 327.227266 39.093671 
L 330.485589 32.341654 
L 333.014528 27.833705 
L 335.3249 24.290409 
L 337.635271 21.307239 
L 339.161788 19.647938 
L 340.688305 18.239303 
L 342.000434 17.230251 
L 343.84941 16.126907 
L 345.698386 15.398089 
L 347.181319 15.085178 
L 349.119093 15.041367 
L 350.949863 15.380011 
L 352.780634 16.087256 
L 354.205971 16.892242 
L 356.340665 18.512154 
L 358.475358 20.625125 
L 360.932918 23.661106 
L 362.576091 26.046473 
L 364.438577 29.089379 
L 366.301063 32.486928 
L 367.950502 35.78662 
L 369.59994 39.354186 
L 372.796413 47.009568 
L 374.830764 52.374742 
L 376.865115 58.10863 
L 379.243466 65.261615 
L 382.1815 74.734214 
L 385.763021 87.169314 
L 389.618537 101.548384 
L 394.129015 119.517755 
L 398.888489 139.603404 
L 404.571819 164.747225 
L 413.76407 206.962403 
L 425.084908 258.952419 
L 429.110435 276.783605 
L 434.889839 301.280011 
L 438.319862 315.036334 
L 442.771388 331.839374 
L 444.444495 337.813092 
L 447.898193 349.496632 
L 450.075027 356.383931 
L 452.251862 362.880417 
L 455.654963 372.212506 
L 457.46617 376.751363 
L 459.277377 380.981938 
L 462.418181 387.564553 
L 463.949743 390.41855 
L 465.620598 393.259925 
L 467.291454 395.812929 
L 468.954309 398.063416 
L 470.617164 400.020789 
L 472.875716 402.204536 
L 474.388311 403.358383 
L 475.900905 404.262854 
L 477.054593 404.784338 
L 479.041474 405.339685 
L 480.782439 405.469018 
L 482.523405 405.26439 
L 484.420159 404.66175 
L 486.648684 403.449471 
L 489.57358 401.03737 
L 492.469826 397.741349 
L 495.251866 393.739429 
L 497.546417 389.83483 
L 499.840969 385.39663 
L 501.371575 382.145844 
L 503.248456 377.849831 
L 505.125338 373.220594 
L 508.26323 364.762338 
L 511.911675 353.852052 
L 515.624818 341.641601 
L 519.636082 327.305507 
L 524.70706 307.678931 
L 529.628397 287.277995 
L 534.891373 264.304192 
L 543.693054 224.182793 
L 546.701538 210.240186 
L 546.701538 210.240186 
" style="fill:none;stroke:#ff0000;stroke-linecap:square;"/>
   </g>
   <g id="line2d_2">
    <path clip-path="url(#p50405181b4)" d="M 17.778462 15.009231 
L 20.124751 15.312483 
L 22.233974 16.102037 
L 24.343197 17.379007 
L 25.837563 18.577021 
L 27.946008 20.677791 
L 30.240882 23.504615 
L 31.84162 25.805536 
L 33.442359 28.373183 
L 35.137839 31.379537 
L 38.209054 37.560523 
L 40.005264 41.603708 
L 41.801474 45.953961 
L 45.465407 55.746015 
L 48.327046 64.211701 
L 52.377648 77.338329 
L 56.325024 91.314786 
L 59.987125 105.218608 
L 65.580401 127.950424 
L 71.752698 154.702681 
L 77.88061 182.443313 
L 94.739447 259.991328 
L 101.958845 291.483503 
L 107.490496 314.046518 
L 112.28616 332.17183 
L 114.459959 339.880335 
L 118.272579 352.553403 
L 121.897836 363.52287 
L 124.39305 370.417306 
L 127.452342 378.100027 
L 129.443124 382.62569 
L 132.570787 388.953516 
L 135.581265 394.113011 
L 137.687963 397.16574 
L 139.709743 399.655247 
L 141.432285 401.431754 
L 143.154826 402.888091 
L 144.890705 404.029331 
L 147.19279 405.034231 
L 149.021429 405.417379 
L 150.850068 405.432186 
L 153.220001 404.903386 
L 155.746124 403.660491 
L 158.699073 401.325097 
L 160.583798 399.342093 
L 162.412453 397.055689 
L 164.241108 394.416719 
L 166.618148 390.467615 
L 169.443647 385.027097 
L 172.443118 378.390638 
L 174.375364 373.661121 
L 176.561571 367.895342 
L 179.264415 360.180965 
L 181.412832 353.606471 
L 183.927557 345.437925 
L 188.604845 328.985069 
L 189.543239 325.500894 
L 193.473824 310.304948 
L 197.239041 294.92877 
L 202.933752 270.427747 
L 210.066753 238.241925 
L 228.146112 155.234964 
L 233.969383 129.926844 
L 238.882242 109.750245 
L 241.095318 101.092341 
L 246.514203 81.213385 
L 251.064811 66.156874 
L 254.862367 54.873052 
L 257.510199 47.748209 
L 261.374928 38.509956 
L 263.344277 34.354471 
L 265.313627 30.583959 
L 267.726442 26.501181 
L 269.946075 23.278074 
L 271.701921 21.096276 
L 273.457766 19.243585 
L 276.379436 16.898659 
L 278.458182 15.796752 
L 280.224438 15.233032 
L 282.831638 15.028517 
L 285.269469 15.514705 
L 287.647876 16.618428 
L 290.026282 18.340232 
L 291.069355 19.288979 
L 293.991232 22.568805 
L 296.083522 25.473961 
L 299.406768 31.023305 
L 301.039902 34.162032 
L 302.673035 37.565809 
L 304.852359 42.51187 
L 306.96037 47.723966 
L 308.880473 52.826493 
L 312.200885 62.416704 
L 315.959881 74.379913 
L 318.868741 84.385989 
L 322.756885 98.690208 
L 325.873263 110.848004 
L 331.340553 133.450966 
L 336.993531 158.177326 
L 343.551849 188.007912 
L 359.208806 260.026404 
L 362.474477 274.508546 
L 369.822 305.549646 
L 372.904342 317.760641 
L 377.762807 335.813244 
L 380.894216 346.577099 
L 383.723235 355.654555 
L 386.564411 364.110049 
L 389.076403 371.0033 
L 391.249664 376.506004 
L 393.422925 381.565543 
L 395.83912 386.654035 
L 397.49451 389.805723 
L 400.089503 394.185702 
L 403.13682 398.43572 
L 405.140874 400.694442 
L 407.411146 402.731472 
L 410.235351 404.483545 
L 411.781491 405.07278 
L 413.327631 405.399142 
L 415.511142 405.411505 
L 417.694652 404.898741 
L 418.569062 404.546408 
L 420.676512 403.353004 
L 422.706052 401.746156 
L 424.735591 399.694137 
L 427.158016 396.668817 
L 429.849729 392.583592 
L 432.570063 387.697589 
L 434.427545 383.934265 
L 436.158679 380.122274 
L 437.889814 376.022952 
L 440.661948 368.877601 
L 443.581294 360.609795 
L 446.337176 352.140718 
L 450.268818 339.015286 
L 454.195117 324.787135 
L 458.675652 307.341204 
L 463.528705 287.21111 
L 468.917439 263.673446 
L 476.829225 227.643107 
L 491.066243 162.130308 
L 495.328597 143.248789 
L 502.187539 114.385654 
L 506.686434 96.788069 
L 511.028647 81.029322 
L 515.530677 66.143332 
L 516.945273 61.798485 
L 519.477864 54.44166 
L 521.980318 47.726151 
L 525.486216 39.288658 
L 527.501039 34.972614 
L 529.319198 31.422258 
L 531.137356 28.205515 
L 532.83588 25.507151 
L 535.097347 22.381998 
L 537.7408 19.41681 
L 540.180025 17.347966 
L 542.601623 15.934695 
L 545.023221 15.164414 
L 546.701538 15.009231 
L 546.701538 15.009231 
" style="fill:none;stroke:#000000;stroke-linecap:square;"/>
   </g>
   <g id="patch_3">
    <path d="M 7.2 210.240186 
L 557.28 210.240186 
" style="fill:none;stroke:#000000;stroke-linecap:square;stroke-linejoin:miter;stroke-width:0.8;"/>
   </g>
   <g id="patch_4">
    <path d="M 282.24 413.28 
L 282.24 7.2 
" style="fill:none;stroke:#000000;stroke-linecap:square;stroke-linejoin:miter;stroke-width:0.8;"/>
   </g>
   <g id="matplotlib.axis_1">
    <g id="xtick_1">
     <g id="line2d_3">
      <defs>
       <path d="M 0 0 
L 0 -4 
" id="m43b8e7bed0" style="stroke:#000000;stroke-width:0.5;"/>
      </defs>
      <g>
       <use style="stroke:#000000;stroke-width:0.5;" x="29.697833377" xlink:href="#m43b8e7bed0" y="210.240185924"/>
      </g>
     </g>
     <g id="text_1">
      <!-- -6 -->
      <defs>
       <path d="M 33.015625 40.375 
Q 26.375 40.375 22.484375 35.828125 
Q 18.609375 31.296875 18.609375 23.390625 
Q 18.609375 15.53125 22.484375 10.953125 
Q 26.375 6.390625 33.015625 6.390625 
Q 39.65625 6.390625 43.53125 10.953125 
Q 47.40625 15.53125 47.40625 23.390625 
Q 47.40625 31.296875 43.53125 35.828125 
Q 39.65625 40.375 33.015625 40.375 
M 52.59375 71.296875 
L 52.59375 62.3125 
Q 48.875 64.0625 45.09375 64.984375 
Q 41.3125 65.921875 37.59375 65.921875 
Q 27.828125 65.921875 22.671875 59.328125 
Q 17.53125 52.734375 16.796875 39.40625 
Q 19.671875 43.65625 24.015625 45.921875 
Q 28.375 48.1875 33.59375 48.1875 
Q 44.578125 48.1875 50.953125 41.515625 
Q 57.328125 34.859375 57.328125 23.390625 
Q 57.328125 12.15625 50.6875 5.359375 
Q 44.046875 -1.421875 33.015625 -1.421875 
Q 20.359375 -1.421875 13.671875 8.265625 
Q 6.984375 17.96875 6.984375 36.375 
Q 6.984375 53.65625 15.1875 63.9375 
Q 23.390625 74.21875 37.203125 74.21875 
Q 40.921875 74.21875 44.703125 73.484375 
Q 48.484375 72.75 52.59375 71.296875 
" id="BitstreamVeraSans-Roman-36"/>
       <path d="M 4.890625 31.390625 
L 31.203125 31.390625 
L 31.203125 23.390625 
L 4.890625 23.390625 
z
" id="BitstreamVeraSans-Roman-2d"/>
      </defs>
      <g transform="translate(24.712677127 221.838623424)scale(0.1 -0.1)">
       <use xlink:href="#BitstreamVeraSans-Roman-2d"/>
       <use x="36.083984375" xlink:href="#BitstreamVeraSans-Roman-36"/>
      </g>
     </g>
    </g>
    <g id="xtick_2">
     <g id="line2d_4">
      <g>
       <use style="stroke:#000000;stroke-width:0.5;" x="113.878555585" xlink:href="#m43b8e7bed0" y="210.240185924"/>
      </g>
     </g>
     <g id="text_2">
      <!-- -4 -->
      <defs>
       <path d="M 37.796875 64.3125 
L 12.890625 25.390625 
L 37.796875 25.390625 
z
M 35.203125 72.90625 
L 47.609375 72.90625 
L 47.609375 25.390625 
L 58.015625 25.390625 
L 58.015625 17.1875 
L 47.609375 17.1875 
L 47.609375 0 
L 37.796875 0 
L 37.796875 17.1875 
L 4.890625 17.1875 
L 4.890625 26.703125 
z
" id="BitstreamVeraSans-Roman-34"/>
      </defs>
      <g transform="translate(108.893399335 221.838623424)scale(0.1 -0.1)">
       <use xlink:href="#BitstreamVeraSans-Roman-2d"/>
       <use x="36.083984375" xlink:href="#BitstreamVeraSans-Roman-34"/>
      </g>
     </g>
    </g>
    <g id="xtick_3">
     <g id="line2d_5">
      <g>
       <use style="stroke:#000000;stroke-width:0.5;" x="198.059277792" xlink:href="#m43b8e7bed0" y="210.240185924"/>
      </g>
     </g>
     <g id="text_3">
      <!-- -2 -->
      <defs>
       <path d="M 19.1875 8.296875 
L 53.609375 8.296875 
L 53.609375 0 
L 7.328125 0 
L 7.328125 8.296875 
Q 12.9375 14.109375 22.625 23.890625 
Q 32.328125 33.6875 34.8125 36.53125 
Q 39.546875 41.84375 41.421875 45.53125 
Q 43.3125 49.21875 43.3125 52.78125 
Q 43.3125 58.59375 39.234375 62.25 
Q 35.15625 65.921875 28.609375 65.921875 
Q 23.96875 65.921875 18.8125 64.3125 
Q 13.671875 62.703125 7.8125 59.421875 
L 7.8125 69.390625 
Q 13.765625 71.78125 18.9375 73 
Q 24.125 74.21875 28.421875 74.21875 
Q 39.75 74.21875 46.484375 68.546875 
Q 53.21875 62.890625 53.21875 53.421875 
Q 53.21875 48.921875 51.53125 44.890625 
Q 49.859375 40.875 45.40625 35.40625 
Q 44.1875 33.984375 37.640625 27.21875 
Q 31.109375 20.453125 19.1875 8.296875 
" id="BitstreamVeraSans-Roman-32"/>
      </defs>
      <g transform="translate(193.074121542 221.838623424)scale(0.1 -0.1)">
       <use xlink:href="#BitstreamVeraSans-Roman-2d"/>
       <use x="36.083984375" xlink:href="#BitstreamVeraSans-Roman-32"/>
      </g>
     </g>
    </g>
    <g id="xtick_4">
     <g id="line2d_6">
      <g>
       <use style="stroke:#000000;stroke-width:0.5;" x="282.24" xlink:href="#m43b8e7bed0" y="210.240185924"/>
      </g>
     </g>
    </g>
    <g id="xtick_5">
     <g id="line2d_7">
      <g>
       <use style="stroke:#000000;stroke-width:0.5;" x="366.420722208" xlink:href="#m43b8e7bed0" y="210.240185924"/>
      </g>
     </g>
     <g id="text_4">
      <!-- 2 -->
      <g transform="translate(363.239472208 221.838623424)scale(0.1 -0.1)">
       <use xlink:href="#BitstreamVeraSans-Roman-32"/>
      </g>
     </g>
    </g>
    <g id="xtick_6">
     <g id="line2d_8">
      <g>
       <use style="stroke:#000000;stroke-width:0.5;" x="450.601444415" xlink:href="#m43b8e7bed0" y="210.240185924"/>
      </g>
     </g>
     <g id="text_5">
      <!-- 4 -->
      <g transform="translate(447.420194415 221.838623424)scale(0.1 -0.1)">
       <use xlink:href="#BitstreamVeraSans-Roman-34"/>
      </g>
     </g>
    </g>
    <g id="xtick_7">
     <g id="line2d_9">
      <g>
       <use style="stroke:#000000;stroke-width:0.5;" x="534.782166623" xlink:href="#m43b8e7bed0" y="210.240185924"/>
      </g>
     </g>
     <g id="text_6">
      <!-- 6 -->
      <g transform="translate(531.600916623 221.838623424)scale(0.1 -0.1)">
       <use xlink:href="#BitstreamVeraSans-Roman-36"/>
      </g>
     </g>
    </g>
    <g id="xtick_8">
     <g id="line2d_10">
      <defs>
       <path d="M 0 0 
L 0 -2 
" id="m36222298b8" style="stroke:#000000;stroke-width:0.5;"/>
      </defs>
      <g>
       <use style="stroke:#000000;stroke-width:0.5;" x="8.65265282503" xlink:href="#m36222298b8" y="210.240185924"/>
      </g>
     </g>
    </g>
    <g id="xtick_9">
     <g id="line2d_11">
      <g>
       <use style="stroke:#000000;stroke-width:0.5;" x="50.7430139289" xlink:href="#m36222298b8" y="210.240185924"/>
      </g>
     </g>
    </g>
    <g id="xtick_10">
     <g id="line2d_12">
      <g>
       <use style="stroke:#000000;stroke-width:0.5;" x="71.7881944808" xlink:href="#m36222298b8" y="210.240185924"/>
      </g>
     </g>
    </g>
    <g id="xtick_11">
     <g id="line2d_13">
      <g>
       <use style="stroke:#000000;stroke-width:0.5;" x="92.8333750327" xlink:href="#m36222298b8" y="210.240185924"/>
      </g>
     </g>
    </g>
    <g id="xtick_12">
     <g id="line2d_14">
      <g>
       <use style="stroke:#000000;stroke-width:0.5;" x="134.923736137" xlink:href="#m36222298b8" y="210.240185924"/>
      </g>
     </g>
    </g>
    <g id="xtick_13">
     <g id="line2d_15">
      <g>
       <use style="stroke:#000000;stroke-width:0.5;" x="155.968916688" xlink:href="#m36222298b8" y="210.240185924"/>
      </g>
     </g>
    </g>
    <g id="xtick_14">
     <g id="line2d_16">
      <g>
       <use style="stroke:#000000;stroke-width:0.5;" x="177.01409724" xlink:href="#m36222298b8" y="210.240185924"/>
      </g>
     </g>
    </g>
    <g id="xtick_15">
     <g id="line2d_17">
      <g>
       <use style="stroke:#000000;stroke-width:0.5;" x="219.104458344" xlink:href="#m36222298b8" y="210.240185924"/>
      </g>
     </g>
    </g>
    <g id="xtick_16">
     <g id="line2d_18">
      <g>
       <use style="stroke:#000000;stroke-width:0.5;" x="240.149638896" xlink:href="#m36222298b8" y="210.240185924"/>
      </g>
     </g>
    </g>
    <g id="xtick_17">
     <g id="line2d_19">
      <g>
       <use style="stroke:#000000;stroke-width:0.5;" x="261.194819448" xlink:href="#m36222298b8" y="210.240185924"/>
      </g>
     </g>
    </g>
    <g id="xtick_18">
     <g id="line2d_20">
      <g>
       <use style="stroke:#000000;stroke-width:0.5;" x="303.285180552" xlink:href="#m36222298b8" y="210.240185924"/>
      </g>
     </g>
    </g>
    <g id="xtick_19">
     <g id="line2d_21">
      <g>
       <use style="stroke:#000000;stroke-width:0.5;" x="324.330361104" xlink:href="#m36222298b8" y="210.240185924"/>
      </g>
     </g>
    </g>
    <g id="xtick_20">
     <g id="line2d_22">
      <g>
       <use style="stroke:#000000;stroke-width:0.5;" x="345.375541656" xlink:href="#m36222298b8" y="210.240185924"/>
      </g>
     </g>
    </g>
    <g id="xtick_21">
     <g id="line2d_23">
      <g>
       <use style="stroke:#000000;stroke-width:0.5;" x="387.46590276" xlink:href="#m36222298b8" y="210.240185924"/>
      </g>
     </g>
    </g>
    <g id="xtick_22">
     <g id="line2d_24">
      <g>
       <use style="stroke:#000000;stroke-width:0.5;" x="408.511083312" xlink:href="#m36222298b8" y="210.240185924"/>
      </g>
     </g>
    </g>
    <g id="xtick_23">
     <g id="line2d_25">
      <g>
       <use style="stroke:#000000;stroke-width:0.5;" x="429.556263863" xlink:href="#m36222298b8" y="210.240185924"/>
      </g>
     </g>
    </g>
    <g id="xtick_24">
     <g id="line2d_26">
      <g>
       <use style="stroke:#000000;stroke-width:0.5;" x="471.646624967" xlink:href="#m36222298b8" y="210.240185924"/>
      </g>
     </g>
    </g>
    <g id="xtick_25">
     <g id="line2d_27">
      <g>
       <use style="stroke:#000000;stroke-width:0.5;" x="492.691805519" xlink:href="#m36222298b8" y="210.240185924"/>
      </g>
     </g>
    </g>
    <g id="xtick_26">
     <g id="line2d_28">
      <g>
       <use style="stroke:#000000;stroke-width:0.5;" x="513.736986071" xlink:href="#m36222298b8" y="210.240185924"/>
      </g>
     </g>
    </g>
    <g id="xtick_27">
     <g id="line2d_29">
      <g>
       <use style="stroke:#000000;stroke-width:0.5;" x="555.827347175" xlink:href="#m36222298b8" y="210.240185924"/>
      </g>
     </g>
    </g>
   </g>
   <g id="matplotlib.axis_2">
    <g id="ytick_1">
     <g id="line2d_30">
      <defs>
       <path d="M 0 0 
L 4 0 
" id="m90b11b462d" style="stroke:#000000;stroke-width:0.5;"/>
      </defs>
      <g>
       <use style="stroke:#000000;stroke-width:0.5;" x="282.24" xlink:href="#m90b11b462d" y="405.471141079"/>
      </g>
     </g>
     <g id="text_7">
      <!-- -1 -->
      <defs>
       <path d="M 12.40625 8.296875 
L 28.515625 8.296875 
L 28.515625 63.921875 
L 10.984375 60.40625 
L 10.984375 69.390625 
L 28.421875 72.90625 
L 38.28125 72.90625 
L 38.28125 8.296875 
L 54.390625 8.296875 
L 54.390625 0 
L 12.40625 0 
z
" id="BitstreamVeraSans-Roman-31"/>
      </defs>
      <g transform="translate(268.2696875 408.230516079)scale(0.1 -0.1)">
       <use xlink:href="#BitstreamVeraSans-Roman-2d"/>
       <use x="36.083984375" xlink:href="#BitstreamVeraSans-Roman-31"/>
      </g>
     </g>
    </g>
    <g id="ytick_2">
     <g id="line2d_31">
      <g>
       <use style="stroke:#000000;stroke-width:0.5;" x="282.24" xlink:href="#m90b11b462d" y="307.855663501"/>
      </g>
     </g>
     <g id="text_8">
      <!-- -0.5 -->
      <defs>
       <path d="M 31.78125 66.40625 
Q 24.171875 66.40625 20.328125 58.90625 
Q 16.5 51.421875 16.5 36.375 
Q 16.5 21.390625 20.328125 13.890625 
Q 24.171875 6.390625 31.78125 6.390625 
Q 39.453125 6.390625 43.28125 13.890625 
Q 47.125 21.390625 47.125 36.375 
Q 47.125 51.421875 43.28125 58.90625 
Q 39.453125 66.40625 31.78125 66.40625 
M 31.78125 74.21875 
Q 44.046875 74.21875 50.515625 64.515625 
Q 56.984375 54.828125 56.984375 36.375 
Q 56.984375 17.96875 50.515625 8.265625 
Q 44.046875 -1.421875 31.78125 -1.421875 
Q 19.53125 -1.421875 13.0625 8.265625 
Q 6.59375 17.96875 6.59375 36.375 
Q 6.59375 54.828125 13.0625 64.515625 
Q 19.53125 74.21875 31.78125 74.21875 
" id="BitstreamVeraSans-Roman-30"/>
       <path d="M 10.6875 12.40625 
L 21 12.40625 
L 21 0 
L 10.6875 0 
z
" id="BitstreamVeraSans-Roman-2e"/>
       <path d="M 10.796875 72.90625 
L 49.515625 72.90625 
L 49.515625 64.59375 
L 19.828125 64.59375 
L 19.828125 46.734375 
Q 21.96875 47.46875 24.109375 47.828125 
Q 26.265625 48.1875 28.421875 48.1875 
Q 40.625 48.1875 47.75 41.5 
Q 54.890625 34.8125 54.890625 23.390625 
Q 54.890625 11.625 47.5625 5.09375 
Q 40.234375 -1.421875 26.90625 -1.421875 
Q 22.3125 -1.421875 17.546875 -0.640625 
Q 12.796875 0.140625 7.71875 1.703125 
L 7.71875 11.625 
Q 12.109375 9.234375 16.796875 8.0625 
Q 21.484375 6.890625 26.703125 6.890625 
Q 35.15625 6.890625 40.078125 11.328125 
Q 45.015625 15.765625 45.015625 23.390625 
Q 45.015625 31 40.078125 35.4375 
Q 35.15625 39.890625 26.703125 39.890625 
Q 22.75 39.890625 18.8125 39.015625 
Q 14.890625 38.140625 10.796875 36.28125 
z
" id="BitstreamVeraSans-Roman-35"/>
      </defs>
      <g transform="translate(258.7290625 310.615038501)scale(0.1 -0.1)">
       <use xlink:href="#BitstreamVeraSans-Roman-2d"/>
       <use x="36.083984375" xlink:href="#BitstreamVeraSans-Roman-30"/>
       <use x="99.70703125" xlink:href="#BitstreamVeraSans-Roman-2e"/>
       <use x="131.494140625" xlink:href="#BitstreamVeraSans-Roman-35"/>
      </g>
     </g>
    </g>
    <g id="ytick_3">
     <g id="line2d_32">
      <g>
       <use style="stroke:#000000;stroke-width:0.5;" x="282.24" xlink:href="#m90b11b462d" y="210.240185924"/>
      </g>
     </g>
    </g>
    <g id="ytick_4">
     <g id="line2d_33">
      <g>
       <use style="stroke:#000000;stroke-width:0.5;" x="282.24" xlink:href="#m90b11b462d" y="112.624708347"/>
      </g>
     </g>
     <g id="text_9">
      <!-- 0.5 -->
      <g transform="translate(262.336875 115.384083347)scale(0.1 -0.1)">
       <use xlink:href="#BitstreamVeraSans-Roman-30"/>
       <use x="63.623046875" xlink:href="#BitstreamVeraSans-Roman-2e"/>
       <use x="95.41015625" xlink:href="#BitstreamVeraSans-Roman-35"/>
      </g>
     </g>
    </g>
    <g id="ytick_5">
     <g id="line2d_34">
      <g>
       <use style="stroke:#000000;stroke-width:0.5;" x="282.24" xlink:href="#m90b11b462d" y="15.0092307692"/>
      </g>
     </g>
     <g id="text_10">
      <!-- 1 -->
      <g transform="translate(271.8775 17.7686057692)scale(0.1 -0.1)">
       <use xlink:href="#BitstreamVeraSans-Roman-31"/>
      </g>
     </g>
    </g>
    <g id="ytick_6">
     <g id="line2d_35">
      <defs>
       <path d="M 0 0 
L 2 0 
" id="mb3016e33ae" style="stroke:#000000;stroke-width:0.5;"/>
      </defs>
      <g>
       <use style="stroke:#000000;stroke-width:0.5;" x="282.24" xlink:href="#mb3016e33ae" y="385.948045563"/>
      </g>
     </g>
    </g>
    <g id="ytick_7">
     <g id="line2d_36">
      <g>
       <use style="stroke:#000000;stroke-width:0.5;" x="282.24" xlink:href="#mb3016e33ae" y="366.424950048"/>
      </g>
     </g>
    </g>
    <g id="ytick_8">
     <g id="line2d_37">
      <g>
       <use style="stroke:#000000;stroke-width:0.5;" x="282.24" xlink:href="#mb3016e33ae" y="346.901854532"/>
      </g>
     </g>
    </g>
    <g id="ytick_9">
     <g id="line2d_38">
      <g>
       <use style="stroke:#000000;stroke-width:0.5;" x="282.24" xlink:href="#mb3016e33ae" y="327.378759017"/>
      </g>
     </g>
    </g>
    <g id="ytick_10">
     <g id="line2d_39">
      <g>
       <use style="stroke:#000000;stroke-width:0.5;" x="282.24" xlink:href="#mb3016e33ae" y="307.855663501"/>
      </g>
     </g>
    </g>
    <g id="ytick_11">
     <g id="line2d_40">
      <g>
       <use style="stroke:#000000;stroke-width:0.5;" x="282.24" xlink:href="#mb3016e33ae" y="288.332567986"/>
      </g>
     </g>
    </g>
    <g id="ytick_12">
     <g id="line2d_41">
      <g>
       <use style="stroke:#000000;stroke-width:0.5;" x="282.24" xlink:href="#mb3016e33ae" y="268.80947247"/>
      </g>
     </g>
    </g>
    <g id="ytick_13">
     <g id="line2d_42">
      <g>
       <use style="stroke:#000000;stroke-width:0.5;" x="282.24" xlink:href="#mb3016e33ae" y="249.286376955"/>
      </g>
     </g>
    </g>
    <g id="ytick_14">
     <g id="line2d_43">
      <g>
       <use style="stroke:#000000;stroke-width:0.5;" x="282.24" xlink:href="#mb3016e33ae" y="229.763281439"/>
      </g>
     </g>
    </g>
    <g id="ytick_15">
     <g id="line2d_44">
      <g>
       <use style="stroke:#000000;stroke-width:0.5;" x="282.24" xlink:href="#mb3016e33ae" y="210.240185924"/>
      </g>
     </g>
    </g>
    <g id="ytick_16">
     <g id="line2d_45">
      <g>
       <use style="stroke:#000000;stroke-width:0.5;" x="282.24" xlink:href="#mb3016e33ae" y="190.717090408"/>
      </g>
     </g>
    </g>
    <g id="ytick_17">
     <g id="line2d_46">
      <g>
       <use style="stroke:#000000;stroke-width:0.5;" x="282.24" xlink:href="#mb3016e33ae" y="171.193994893"/>
      </g>
     </g>
    </g>
    <g id="ytick_18">
     <g id="line2d_47">
      <g>
       <use style="stroke:#000000;stroke-width:0.5;" x="282.24" xlink:href="#mb3016e33ae" y="151.670899378"/>
      </g>
     </g>
    </g>
    <g id="ytick_19">
     <g id="line2d_48">
      <g>
       <use style="stroke:#000000;stroke-width:0.5;" x="282.24" xlink:href="#mb3016e33ae" y="132.147803862"/>
      </g>
     </g>
    </g>
    <g id="ytick_20">
     <g id="line2d_49">
      <g>
       <use style="stroke:#000000;stroke-width:0.5;" x="282.24" xlink:href="#mb3016e33ae" y="112.624708347"/>
      </g>
     </g>
    </g>
    <g id="ytick_21">
     <g id="line2d_50">
      <g>
       <use style="stroke:#000000;stroke-width:0.5;" x="282.24" xlink:href="#mb3016e33ae" y="93.1016128311"/>
      </g>
     </g>
    </g>
    <g id="ytick_22">
     <g id="line2d_51">
      <g>
       <use style="stroke:#000000;stroke-width:0.5;" x="282.24" xlink:href="#mb3016e33ae" y="73.5785173156"/>
      </g>
     </g>
    </g>
    <g id="ytick_23">
     <g id="line2d_52">
      <g>
       <use style="stroke:#000000;stroke-width:0.5;" x="282.24" xlink:href="#mb3016e33ae" y="54.0554218002"/>
      </g>
     </g>
    </g>
    <g id="ytick_24">
     <g id="line2d_53">
      <g>
       <use style="stroke:#000000;stroke-width:0.5;" x="282.24" xlink:href="#mb3016e33ae" y="34.5323262847"/>
      </g>
     </g>
    </g>
    <g id="ytick_25">
     <g id="line2d_54">
      <g>
       <use style="stroke:#000000;stroke-width:0.5;" x="282.24" xlink:href="#mb3016e33ae" y="15.0092307692"/>
      </g>
     </g>
    </g>
   </g>
   <g id="legend_1">
    <g id="patch_5">
     <path d="M 15.2 409.28 
L 72.858125 409.28 
L 72.858125 371.4125 
L 15.2 371.4125 
z
" style="fill:#4c4c4c;opacity:0.5;stroke:#4c4c4c;stroke-linejoin:miter;"/>
    </g>
    <g id="patch_6">
     <path d="M 13.2 407.28 
L 70.858125 407.28 
L 70.858125 369.4125 
L 13.2 369.4125 
z
" style="fill:#ffffff;stroke:#000000;stroke-linejoin:miter;"/>
    </g>
    <g id="line2d_55">
     <path d="M 24 381.530625 
L 17.4 381.530625 
" style="fill:none;stroke:#ff0000;stroke-linecap:square;"/>
    </g>
    <g id="line2d_56"/>
    <g id="text_11">
     <!-- sin(x) -->
     <defs>
      <path d="M 54.890625 33.015625 
L 54.890625 0 
L 45.90625 0 
L 45.90625 32.71875 
Q 45.90625 40.484375 42.875 44.328125 
Q 39.84375 48.1875 33.796875 48.1875 
Q 26.515625 48.1875 22.3125 43.546875 
Q 18.109375 38.921875 18.109375 30.90625 
L 18.109375 0 
L 9.078125 0 
L 9.078125 54.6875 
L 18.109375 54.6875 
L 18.109375 46.1875 
Q 21.34375 51.125 25.703125 53.5625 
Q 30.078125 56 35.796875 56 
Q 45.21875 56 50.046875 50.171875 
Q 54.890625 44.34375 54.890625 33.015625 
" id="BitstreamVeraSans-Roman-6e"/>
      <path d="M 31 75.875 
Q 24.46875 64.65625 21.28125 53.65625 
Q 18.109375 42.671875 18.109375 31.390625 
Q 18.109375 20.125 21.3125 9.0625 
Q 24.515625 -2 31 -13.1875 
L 23.1875 -13.1875 
Q 15.875 -1.703125 12.234375 9.375 
Q 8.59375 20.453125 8.59375 31.390625 
Q 8.59375 42.28125 12.203125 53.3125 
Q 15.828125 64.359375 23.1875 75.875 
z
" id="BitstreamVeraSans-Roman-28"/>
      <path d="M 8.015625 75.875 
L 15.828125 75.875 
Q 23.140625 64.359375 26.78125 53.3125 
Q 30.421875 42.28125 30.421875 31.390625 
Q 30.421875 20.453125 26.78125 9.375 
Q 23.140625 -1.703125 15.828125 -13.1875 
L 8.015625 -13.1875 
Q 14.5 -2 17.703125 9.0625 
Q 20.90625 20.125 20.90625 31.390625 
Q 20.90625 42.671875 17.703125 53.65625 
Q 14.5 64.65625 8.015625 75.875 
" id="BitstreamVeraSans-Roman-29"/>
      <path d="M 9.421875 54.6875 
L 18.40625 54.6875 
L 18.40625 0 
L 9.421875 0 
z
M 9.421875 75.984375 
L 18.40625 75.984375 
L 18.40625 64.59375 
L 9.421875 64.59375 
z
" id="BitstreamVeraSans-Roman-69"/>
      <path d="M 54.890625 54.6875 
L 35.109375 28.078125 
L 55.90625 0 
L 45.3125 0 
L 29.390625 21.484375 
L 13.484375 0 
L 2.875 0 
L 24.125 28.609375 
L 4.6875 54.6875 
L 15.28125 54.6875 
L 29.78125 35.203125 
L 44.28125 54.6875 
z
" id="BitstreamVeraSans-Roman-78"/>
      <path d="M 44.28125 53.078125 
L 44.28125 44.578125 
Q 40.484375 46.53125 36.375 47.5 
Q 32.28125 48.484375 27.875 48.484375 
Q 21.1875 48.484375 17.84375 46.4375 
Q 14.5 44.390625 14.5 40.28125 
Q 14.5 37.15625 16.890625 35.375 
Q 19.28125 33.59375 26.515625 31.984375 
L 29.59375 31.296875 
Q 39.15625 29.25 43.1875 25.515625 
Q 47.21875 21.78125 47.21875 15.09375 
Q 47.21875 7.46875 41.1875 3.015625 
Q 35.15625 -1.421875 24.609375 -1.421875 
Q 20.21875 -1.421875 15.453125 -0.5625 
Q 10.6875 0.296875 5.421875 2 
L 5.421875 11.28125 
Q 10.40625 8.6875 15.234375 7.390625 
Q 20.0625 6.109375 24.8125 6.109375 
Q 31.15625 6.109375 34.5625 8.28125 
Q 37.984375 10.453125 37.984375 14.40625 
Q 37.984375 18.0625 35.515625 20.015625 
Q 33.0625 21.96875 24.703125 23.78125 
L 21.578125 24.515625 
Q 13.234375 26.265625 9.515625 29.90625 
Q 5.8125 33.546875 5.8125 39.890625 
Q 5.8125 47.609375 11.28125 51.796875 
Q 16.75 56 26.8125 56 
Q 31.78125 56 36.171875 55.265625 
Q 40.578125 54.546875 44.28125 53.078125 
" id="BitstreamVeraSans-Roman-73"/>
     </defs>
     <g transform="translate(27.0 385.730625)scale(0.12 -0.12)">
      <use xlink:href="#BitstreamVeraSans-Roman-73"/>
      <use x="52.099609375" xlink:href="#BitstreamVeraSans-Roman-69"/>
      <use x="79.8828125" xlink:href="#BitstreamVeraSans-Roman-6e"/>
      <use x="143.26171875" xlink:href="#BitstreamVeraSans-Roman-28"/>
      <use x="182.275390625" xlink:href="#BitstreamVeraSans-Roman-78"/>
      <use x="241.455078125" xlink:href="#BitstreamVeraSans-Roman-29"/>
     </g>
    </g>
    <g id="line2d_57">
     <path d="M 24 393.384375 
L 17.4 393.384375 
" style="fill:none;stroke:#000000;stroke-linecap:square;"/>
    </g>
    <g id="line2d_58"/>
    <g id="text_12">
     <!-- cos(x) -->
     <defs>
      <path d="M 30.609375 48.390625 
Q 23.390625 48.390625 19.1875 42.75 
Q 14.984375 37.109375 14.984375 27.296875 
Q 14.984375 17.484375 19.15625 11.84375 
Q 23.34375 6.203125 30.609375 6.203125 
Q 37.796875 6.203125 41.984375 11.859375 
Q 46.1875 17.53125 46.1875 27.296875 
Q 46.1875 37.015625 41.984375 42.703125 
Q 37.796875 48.390625 30.609375 48.390625 
M 30.609375 56 
Q 42.328125 56 49.015625 48.375 
Q 55.71875 40.765625 55.71875 27.296875 
Q 55.71875 13.875 49.015625 6.21875 
Q 42.328125 -1.421875 30.609375 -1.421875 
Q 18.84375 -1.421875 12.171875 6.21875 
Q 5.515625 13.875 5.515625 27.296875 
Q 5.515625 40.765625 12.171875 48.375 
Q 18.84375 56 30.609375 56 
" id="BitstreamVeraSans-Roman-6f"/>
      <path d="M 48.78125 52.59375 
L 48.78125 44.1875 
Q 44.96875 46.296875 41.140625 47.34375 
Q 37.3125 48.390625 33.40625 48.390625 
Q 24.65625 48.390625 19.8125 42.84375 
Q 14.984375 37.3125 14.984375 27.296875 
Q 14.984375 17.28125 19.8125 11.734375 
Q 24.65625 6.203125 33.40625 6.203125 
Q 37.3125 6.203125 41.140625 7.25 
Q 44.96875 8.296875 48.78125 10.40625 
L 48.78125 2.09375 
Q 45.015625 0.34375 40.984375 -0.53125 
Q 36.96875 -1.421875 32.421875 -1.421875 
Q 20.0625 -1.421875 12.78125 6.34375 
Q 5.515625 14.109375 5.515625 27.296875 
Q 5.515625 40.671875 12.859375 48.328125 
Q 20.21875 56 33.015625 56 
Q 37.15625 56 41.109375 55.140625 
Q 45.0625 54.296875 48.78125 52.59375 
" id="BitstreamVeraSans-Roman-63"/>
     </defs>
     <g transform="translate(27.0 397.584375)scale(0.12 -0.12)">
      <use xlink:href="#BitstreamVeraSans-Roman-63"/>
      <use x="54.98046875" xlink:href="#BitstreamVeraSans-Roman-6f"/>
      <use x="116.162109375" xlink:href="#BitstreamVeraSans-Roman-73"/>
      <use x="168.26171875" xlink:href="#BitstreamVeraSans-Roman-28"/>
      <use x="207.275390625" xlink:href="#BitstreamVeraSans-Roman-78"/>
      <use x="266.455078125" xlink:href="#BitstreamVeraSans-Roman-29"/>
     </g>
    </g>
   </g>
  </g>
 </g>
 <defs>
  <clipPath id="p50405181b4">
   <rect height="406.08" width="550.08" x="7.2" y="7.2"/>
  </clipPath>
 </defs>
</svg>
