<?xml version="1.0" encoding="utf-8" standalone="no"?>
<!DOCTYPE svg PUBLIC "-//W3C//DTD SVG 1.1//EN"
  "http://www.w3.org/Graphics/SVG/1.1/DTD/svg11.dtd">
<!-- Created with matplotlib (http://matplotlib.org/) -->
<svg height="420pt" version="1.1" viewBox="0 0 420 420" width="420pt" xmlns="http://www.w3.org/2000/svg" xmlns:xlink="http://www.w3.org/1999/xlink">
 <defs>
  <style type="text/css">
*{stroke-linecap:butt;stroke-linejoin:round;stroke-miterlimit:100000;}
  </style>
 </defs>
 <g id="figure_1">
  <g id="patch_1">
   <path d="M 0 420.48 
L 420.470783 420.48 
L 420.470783 0 
L 0 0 
z
" style="fill:#ffffff;"/>
  </g>
  <g id="axes_1">
   <g id="patch_2">
    <path d="M 7.2 413.28 
L 413.270783 413.28 
L 413.270783 7.2 
L 7.2 7.2 
z
" style="fill:#ffffff;"/>
   </g>
   <g id="patch_3">
    <path clip-path="url(#p288b36b8bc)" d="M 210.242594 210.235612 
L 210.242594 210.235612 
L 210.242594 210.235612 
L 210.242594 210.235612 
L 210.242594 210.235612 
L 210.242594 210.235612 
L 210.242594 210.235612 
L 210.242594 210.235612 
L 210.242594 210.235612 
L 210.242594 210.235612 
L 210.242594 210.235612 
L 210.242594 210.235612 
L 210.242594 210.235612 
L 210.242594 210.235612 
L 210.242594 210.235612 
L 210.242594 210.235612 
L 210.242594 210.235612 
L 210.242594 210.235612 
L 210.242594 210.235612 
L 210.242594 210.235612 
L 210.242594 210.235612 
L 210.242594 210.235612 
L 210.242594 210.235612 
L 210.242594 210.235612 
L 210.242594 210.235612 
L 210.242594 210.235612 
L 210.242594 210.235612 
L 210.242594 210.235612 
L 210.242594 210.235612 
L 210.242594 210.235612 
L 210.242594 210.235612 
L 210.242594 210.235612 
L 210.242594 210.235612 
L 210.242594 210.235612 
L 210.242594 210.235612 
L 210.242594 210.235612 
L 210.242594 210.235612 
L 210.242594 210.235612 
L 210.242594 210.235612 
L 210.242594 210.235612 
L 210.242594 210.235612 
L 210.242594 210.235612 
L 210.242594 210.235612 
L 210.242594 210.235612 
L 210.242594 210.235612 
L 210.242594 210.235612 
L 210.242594 210.235612 
L 210.242594 210.235612 
L 210.242594 210.235612 
L 210.242594 210.235612 
L 210.242594 210.235612 
L 210.242594 210.235612 
L 210.242594 210.235612 
L 210.242594 210.235612 
L 210.242594 210.235612 
L 210.242594 210.235612 
L 210.242594 210.235612 
L 210.242594 210.235612 
L 210.242594 210.235612 
L 210.242594 210.235612 
L 210.242594 210.235612 
L 210.242594 210.235612 
L 210.242594 210.235612 
L 210.242594 210.235612 
L 210.242594 210.235612 
L 210.242594 210.235612 
L 210.242594 210.235612 
L 210.242594 210.235612 
L 210.242594 210.235612 
L 210.242594 210.235612 
L 210.242594 210.235612 
L 210.242594 210.235612 
L 210.242594 210.235612 
L 210.242594 210.235612 
L 210.242594 210.235612 
L 210.242594 210.235612 
L 210.242594 210.235612 
L 210.242594 210.235612 
L 210.242594 210.235612 
L 210.242594 210.235612 
L 210.242594 210.235612 
L 210.242594 210.235612 
L 210.242594 210.235612 
L 210.242594 210.235612 
L 210.242594 210.235612 
L 210.242594 210.235612 
L 210.242594 210.235612 
L 210.242594 210.235612 
L 210.242594 210.235612 
L 210.242594 210.235612 
L 210.242594 210.235612 
L 210.242594 210.235612 
L 210.242594 210.235612 
L 210.242594 210.235612 
L 210.242594 210.235612 
L 210.242594 210.235612 
L 210.242594 210.235612 
L 210.242594 210.235612 
L 210.242594 210.235612 
L 210.242594 210.235612 
L 210.242594 210.235612 
L 210.242594 210.235612 
L 210.242594 210.235612 
L 210.242594 210.235612 
L 210.242594 210.235612 
L 210.242594 210.235612 
L 210.242594 210.235612 
L 210.242594 210.235612 
L 210.242594 210.235612 
L 210.242594 210.235612 
L 210.242594 210.235612 
L 210.242594 210.235612 
L 210.242594 210.235612 
L 210.242594 210.235612 
L 210.242594 210.235612 
L 210.242594 210.235612 
L 210.242594 210.235612 
L 210.242594 210.235612 
L 210.242594 210.235612 
L 210.242594 210.235612 
L 210.242594 210.235612 
L 210.242594 210.235612 
L 210.242594 210.235612 
L 210.242594 210.235612 
L 210.242594 210.235612 
L 210.242594 210.235612 
L 210.242594 210.235612 
L 210.242594 210.235612 
L 210.242594 210.235612 
L 210.242594 210.235612 
L 210.242594 210.235612 
L 210.242594 210.235612 
L 210.242594 210.235612 
L 210.242594 210.235612 
L 210.242594 210.235612 
L 210.242594 210.235612 
L 210.242594 210.235612 
L 210.242594 210.235612 
L 210.242594 210.235612 
L 210.242594 210.235612 
L 210.242594 210.235612 
L 210.242594 210.235612 
L 210.242594 210.235612 
L 210.242594 210.235612 
L 210.242594 210.235612 
L 210.242594 210.235612 
L 210.242594 210.235612 
L 210.242594 210.235612 
L 210.242594 210.235612 
L 210.242594 210.235612 
L 210.242594 210.235612 
L 210.242594 210.235612 
L 210.242594 210.235612 
L 210.242594 210.235612 
L 210.242594 210.235612 
L 210.242594 210.235612 
L 210.242594 210.235612 
L 210.242594 210.235612 
L 210.242594 210.235612 
L 210.242594 210.235612 
L 210.242594 210.235612 
L 210.242594 210.235612 
L 210.242594 210.235612 
L 210.242594 210.235612 
L 210.242594 210.235612 
L 210.242594 210.235612 
L 210.242594 210.235612 
L 210.242594 210.235612 
L 210.242594 210.235612 
L 210.242594 210.235612 
L 210.242594 210.235612 
L 210.242594 210.235612 
L 210.242594 210.235612 
L 210.242594 210.235612 
L 210.242594 210.235612 
L 210.242594 210.235612 
L 210.242594 210.235612 
L 210.242594 210.235612 
L 210.242594 210.235612 
L 210.242594 210.235612 
L 210.242594 210.235612 
L 210.242594 210.235612 
L 210.242594 210.235612 
L 210.242594 210.235612 
L 210.242594 210.235612 
L 210.242594 210.235612 
L 210.242594 210.235612 
L 210.242594 210.235612 
L 210.242594 210.235612 
L 210.242594 210.235612 
L 210.242594 210.235612 
L 210.242594 210.235612 
L 210.242594 210.235612 
L 210.242594 210.235612 
L 210.242594 210.235612 
L 210.242594 210.235612 
L 210.242594 210.235612 
L 210.242594 210.235612 
L 210.242594 210.235612 
L 210.242594 210.235612 
L 36.094425 210.235612 
L 36.217659 211.773305 
L 36.617785 213.304167 
L 37.33961 214.819905 
L 38.426356 216.310692 
L 39.402746 217.311769 
L 40.582185 218.291883 
L 42.1088 219.328818 
L 43.903545 220.330117 
L 45.97938 221.289667 
L 48.347983 222.201092 
L 51.019656 223.057805 
L 54.003232 223.853055 
L 57.306005 224.579984 
L 60.933652 225.23168 
L 63.373197 225.598476 
L 65.942449 225.931357 
L 68.641783 226.228652 
L 71.471301 226.488711 
L 76.285785 226.824281 
L 81.433103 227.053166 
L 86.909227 227.169107 
L 92.708294 227.166187 
L 98.822627 227.038881 
L 105.24276 226.782115 
L 111.957476 226.391318 
L 118.953863 225.862474 
L 123.590485 225.448283 
L 128.333184 224.974926 
L 138.118736 223.848218 
L 148.271941 222.478555 
L 158.750602 220.864129 
L 168.429815 219.200672 
L 178.301046 217.34051 
L 188.394866 215.272396 
L 198.607108 213.012715 
L 219.226292 207.944443 
L 240.263396 202.073695 
L 260.93602 195.592345 
L 269.268646 192.769636 
L 277.458113 189.871093 
L 285.482045 186.905968 
L 293.318873 183.883893 
L 300.767198 180.889051 
L 307.999389 177.858936 
L 314.998222 174.803219 
L 321.747578 171.731693 
L 328.672327 168.440705 
L 335.278034 165.154959 
L 341.549739 161.886419 
L 347.474277 158.646885 
L 353.040339 155.4479 
L 358.23852 152.300671 
L 363.061355 149.215988 
L 367.503342 146.204145 
L 370.784959 143.850223 
L 373.818902 141.554016 
L 376.138934 139.703309 
L 378.290127 137.897369 
L 380.273202 136.13838 
L 382.089246 134.42837 
L 383.739698 132.769202 
L 385.226346 131.16257 
L 386.551317 129.60999 
L 387.717066 128.112803 
L 389.171712 125.975927 
L 390.285908 123.969011 
L 391.071718 122.094183 
L 391.542561 120.352597 
L 391.713099 118.744431 
L 391.599119 117.268886 
L 391.21741 115.924203 
L 390.585635 114.707679 
L 389.649071 113.539162 
L 388.468625 112.508819 
L 387.068498 111.609924 
L 385.473296 110.834714 
L 383.595401 110.137785 
L 381.555472 109.558775 
L 379.237406 109.057778 
L 376.803548 108.660476 
L 371.722055 108.109152 
L 366.034379 107.735374 
L 360.54505 107.424163 
L 357.650646 107.210142 
L 354.925218 106.93114 
L 352.393815 106.561874 
L 350.074225 106.080727 
L 348.238654 105.558096 
L 346.18301 104.754464 
L 344.38894 103.774851 
L 342.842392 102.616789 
L 341.52027 101.285868 
L 340.527925 99.997323 
L 339.656643 98.602469 
L 338.15808 95.574361 
L 335.800074 90.46907 
L 334.612485 88.55171 
L 333.162768 86.879723 
L 331.798534 85.817092 
L 330.185689 85.019517 
L 328.289375 84.539338 
L 327.225014 84.434548 
L 326.078413 84.428518 
L 324.87099 84.5246 
L 323.578604 84.727543 
L 322.198775 85.043027 
L 320.729326 85.476567 
L 318.199184 86.423997 
L 315.431156 87.704779 
L 312.421494 89.337723 
L 309.168626 91.339843 
L 306.776783 92.948526 
L 304.269688 94.745409 
L 301.648677 96.734333 
L 298.915589 98.918588 
L 296.07276 101.300891 
L 293.123011 103.883361 
L 290.069641 106.667506 
L 286.916413 109.654203 
L 283.637271 112.873916 
L 280.265491 116.299721 
L 276.806273 119.930494 
L 273.265226 123.76442 
L 269.648338 127.79899 
L 265.961953 132.030996 
L 262.212748 136.456541 
L 258.4077 141.07104 
L 254.89353 145.44154 
L 251.344586 149.960477 
L 247.766699 154.622923 
L 244.165822 159.423508 
L 237.61169 168.441659 
L 231.038718 177.855109 
L 224.483927 187.622052 
L 217.984408 197.696958 
L 209.919936 210.771529 
L 202.073874 224.153978 
L 189.563947 247.040058 
L 182.239136 261.490939 
L 175.419215 275.809943 
L 172.216547 282.877295 
L 169.160483 289.860852 
L 166.25656 296.744233 
L 163.509673 303.511463 
L 160.778052 310.530354 
L 158.231298 317.38406 
L 155.872771 324.055655 
L 153.704974 330.529078 
L 152.011725 335.870313 
L 150.458333 341.048349 
L 149.04489 346.055023 
L 147.771056 350.882771 
L 146.4616 356.274245 
L 145.338793 361.403421 
L 144.399979 366.261675 
L 143.641794 370.841663 
L 143.060202 375.137358 
L 142.650534 379.144068 
L 142.407526 382.858458 
L 142.325367 386.278552 
L 142.367976 388.716852 
L 142.499584 390.979679 
L 142.716953 393.067784 
L 143.016715 394.982387 
L 143.395383 396.725174 
L 143.849368 398.298285 
L 144.374993 399.704309 
L 144.968508 400.946263 
L 145.505898 401.848768 
L 146.084648 402.64433 
L 147.073667 403.685116 
L 148.151224 404.476843 
L 149.308853 405.030368 
L 150.538143 405.35747 
L 151.830792 405.470769 
L 153.178648 405.38364 
L 154.573764 405.110125 
L 156.008437 404.66484 
L 157.332728 404.12727 
L 158.678013 403.473162 
L 161.411781 401.861852 
L 164.560971 399.632082 
L 167.698361 397.118023 
L 173.607832 391.935995 
L 176.429728 389.41817 
L 179.144312 387.079956 
L 181.944113 384.853023 
L 183.284419 383.885872 
L 184.594087 383.019947 
L 185.874513 382.261023 
L 187.127453 381.613266 
L 188.354977 381.079195 
L 189.559416 380.659662 
L 190.743304 380.35385 
L 191.909324 380.159271 
L 193.463243 380.06545 
L 194.996489 380.152471 
L 196.515867 380.40015 
L 198.02779 380.783334 
L 200.621861 381.668711 
L 203.233445 382.68477 
L 205.822462 383.606668 
L 208.44039 384.237398 
L 209.390701 384.349653 
L 211.262437 384.330749 
L 213.127572 383.924717 
L 214.053337 383.551061 
L 214.971827 383.050416 
L 215.880731 382.41317 
L 216.777541 381.630018 
L 217.666732 380.683636 
L 218.537943 379.571073 
L 219.388058 378.284019 
L 220.213808 376.814668 
L 221.011784 375.155755 
L 221.778455 373.300601 
L 222.510184 371.243145 
L 223.20325 368.977984 
L 223.981696 365.965682 
L 224.691775 362.638067 
L 225.326732 358.989843 
L 225.879823 355.017343 
L 226.362285 350.526157 
L 226.740993 345.679724 
L 227.008743 340.479802 
L 227.158619 334.930211 
L 227.189807 331.025652 
L 227.163454 326.969493 
L 227.077796 322.764408 
L 226.931172 318.413476 
L 226.604407 311.805938 
L 226.140027 304.907229 
L 225.534264 297.731337 
L 224.783982 290.293884 
L 223.886726 282.612043 
L 222.840752 274.704449 
L 221.645063 266.591097 
L 220.299431 258.293237 
L 218.38076 247.553274 
L 216.225506 236.601055 
L 212.599884 220.05277 
L 208.489422 203.316905 
L 197.889779 166.586611 
L 191.932003 148.786248 
L 188.823481 140.126718 
L 185.64343 131.663475 
L 181.761788 121.832784 
L 177.815475 112.36092 
L 173.825895 103.286406 
L 169.814798 94.64456 
L 167.722644 90.322033 
L 165.633681 86.129903 
L 163.150718 81.30594 
L 160.681835 76.678838 
L 158.23213 72.253943 
L 155.806604 68.035978 
L 153.410144 64.029038 
L 151.047501 60.236574 
L 148.723271 56.661391 
L 146.441876 53.305644 
L 144.473371 50.535761 
L 142.54405 47.937531 
L 140.656524 45.511172 
L 138.81326 43.256517 
L 137.016576 41.173015 
L 135.268626 39.259743 
L 133.571404 37.515405 
L 131.926725 35.938343 
L 129.382086 33.736511 
L 126.985031 31.956445 
L 124.740175 30.585511 
L 122.650796 29.608969 
L 120.802172 29.029171 
L 119.097644 28.777865 
L 117.536581 28.837632 
L 116.117226 29.189855 
L 114.686262 29.911147 
L 113.425303 30.948336 
L 112.327022 32.270986 
L 111.382549 33.847847 
L 110.588156 35.63015 
L 109.92343 37.599842 
L 109.375974 39.725926 
L 108.932431 41.977794 
L 108.395204 45.84103 
L 108.031835 49.835429 
L 107.667739 55.811876 
L 107.506345 58.709095 
L 107.323282 61.498024 
L 106.944555 65.499914 
L 106.689397 67.353445 
L 106.378823 69.098489 
L 105.940368 70.977135 
L 105.408572 72.698815 
L 104.77655 74.262481 
L 104.039985 75.670602 
L 103.224816 76.89242 
L 102.310974 77.981891 
L 101.302062 78.949979 
L 100.204267 79.810165 
L 98.564466 80.847078 
L 96.804054 81.757125 
L 93.088437 83.415087 
L 90.795113 84.508385 
L 88.840234 85.668218 
L 87.116772 87.078764 
L 86.375277 87.905686 
L 85.732365 88.827782 
L 85.202067 89.855052 
L 84.798481 90.996956 
L 84.515627 92.412073 
L 84.425996 93.991031 
L 84.548403 95.743856 
L 84.901156 97.679332 
L 85.48998 99.768565 
L 86.334767 102.047508 
L 87.450628 104.520564 
L 88.851635 107.190718 
L 89.779341 108.795762 
L 90.805404 110.464987 
L 91.931865 112.198309 
L 93.160613 113.995492 
L 94.907819 116.418654 
L 96.833054 118.947139 
L 98.939216 121.579282 
L 101.22871 124.312992 
L 103.703431 127.145761 
L 106.364751 130.074673 
L 109.213501 133.096414 
L 112.249961 136.207283 
L 115.711535 139.634871 
L 119.387233 143.154644 
L 123.275238 146.760694 
L 127.372975 150.446692 
L 131.519304 154.069978 
L 135.853857 157.754995 
L 140.372337 161.495111 
L 145.069809 165.283439 
L 149.940712 169.112855 
L 154.978873 172.976038 
L 160.177518 176.865492 
L 165.529298 180.773582 
L 174.537244 187.147648 
L 183.891978 193.516783 
L 196.86865 201.964623 
L 210.287721 210.262807 
L 237.994866 226.100481 
L 250.400229 232.653289 
L 262.786431 238.870703 
L 275.066541 244.712541 
L 287.154577 250.143363 
L 294.279232 253.191345 
L 301.28692 256.074799 
L 308.321738 258.851102 
L 315.198392 261.445473 
L 321.899932 263.854331 
L 328.410233 266.074933 
L 334.849294 268.147575 
L 341.057601 270.020534 
L 347.021118 271.693579 
L 352.727035 273.167361 
L 358.163822 274.443395 
L 363.321297 275.524033 
L 368.190667 276.412427 
L 372.764575 277.112502 
L 375.330609 277.440064 
L 377.790026 277.704323 
L 380.142032 277.906439 
L 382.386021 278.047647 
L 384.521569 278.129256 
L 386.54844 278.152643 
L 388.46658 278.119253 
L 390.276123 278.030587 
L 392.521661 277.828953 
L 394.575754 277.535577 
L 396.440218 277.154453 
L 398.117423 276.689708 
L 399.610279 276.145573 
L 400.922225 275.526374 
L 402.057211 274.836506 
L 403.019675 274.080416 
L 404.115767 272.879934 
L 404.878389 271.564085 
L 405.277571 270.366838 
L 405.46173 269.104379 
L 405.443705 267.784739 
L 405.237015 266.415766 
L 404.839639 264.955662 
L 404.271611 263.459065 
L 403.549568 261.933775 
L 402.690493 260.387207 
L 400.630192 257.257737 
L 398.228968 254.120946 
L 393.517008 248.628355 
L 389.598701 244.245017 
L 387.402318 241.709601 
L 385.421949 239.271115 
L 383.711194 236.929194 
L 382.310092 234.679105 
L 381.537306 233.174647 
L 380.928941 231.706423 
L 380.523207 230.414495 
L 380.249091 229.145226 
L 380.102492 227.895173 
L 380.077081 226.660809 
L 380.164354 225.438605 
L 380.353702 224.225112 
L 380.986201 221.811353 
L 381.483874 220.370764 
L 383.138421 216.056018 
L 383.845154 213.867661 
L 384.2977 211.660396 
L 384.386371 210.537559 
L 384.356646 209.414161 
L 384.19061 208.292601 
L 383.870548 207.175736 
L 383.234587 205.803877 
L 382.303618 204.45154 
L 381.046999 203.126912 
L 379.435842 201.839088 
L 378.198973 201.034408 
L 376.797511 200.251866 
L 375.225267 199.494378 
L 373.47653 198.764961 
L 371.546089 198.066716 
L 369.429262 197.402818 
L 367.12192 196.776494 
L 364.620511 196.191014 
L 360.584707 195.411365 
L 356.116244 194.737587 
L 353.718399 194.443656 
L 351.211127 194.180078 
L 348.594405 193.948122 
L 345.868405 193.749034 
L 340.31717 193.462905 
L 334.367493 193.311395 
L 328.774697 193.295989 
L 322.88225 193.397427 
L 316.698568 193.620459 
L 310.23364 193.969393 
L 303.498987 194.448049 
L 296.507609 195.059723 
L 289.273924 195.807144 
L 281.813698 196.692441 
L 274.997762 197.597488 
L 268.02868 198.613552 
L 260.919942 199.740832 
L 253.685673 200.979092 
L 245.396862 202.507476 
L 236.98903 204.174423 
L 225.184751 206.708569 
L 213.257252 209.495465 
L 189.287192 215.780042 
L 174.708145 220.055553 
L 160.350484 224.613966 
L 146.329145 229.416233 
L 132.754534 234.419314 
L 123.971363 237.85688 
L 115.464467 241.349161 
L 108.874645 244.173165 
L 102.492709 247.014885 
L 96.331072 249.866484 
L 90.40125 252.720097 
L 84.713814 255.567874 
L 79.278356 258.402023 
L 74.103449 261.214853 
L 69.196616 263.998811 
L 63.81729 267.201707 
L 58.820253 270.343914 
L 54.21183 273.414598 
L 49.996277 276.403501 
L 46.427319 279.103722 
L 43.200844 281.717571 
L 40.315498 284.238451 
L 37.768433 286.660403 
L 35.722212 288.79449 
L 33.9537 290.83696 
L 32.45753 292.78475 
L 31.227402 294.635339 
L 30.256126 296.386752 
L 29.535671 298.037577 
L 29.057216 299.586965 
L 28.811207 301.034638 
L 28.77188 301.989486 
L 28.838177 302.894687 
L 29.272111 304.557877 
L 30.080746 306.028988 
L 31.230162 307.314854 
L 32.763473 308.474145 
L 34.591286 309.451628 
L 36.054758 310.046739 
L 37.631614 310.562056 
L 41.063962 311.378615 
L 44.767389 311.955378 
L 48.626179 312.350741 
L 53.718532 312.694869 
L 58.679484 312.969705 
L 59.981575 313.049729 
L 62.471111 313.230483 
L 64.839059 313.456493 
L 67.068723 313.744125 
L 69.147308 314.107852 
L 70.713769 314.46671 
L 72.1725 314.888973 
L 73.522428 315.378903 
L 74.764157 315.93957 
L 75.899933 316.572795 
L 76.933588 317.279098 
L 77.870479 318.057658 
L 78.717414 318.906285 
L 79.525364 319.877399 
L 80.252846 320.917126 
L 81.183625 322.516572 
L 82.016813 324.212666 
L 83.552438 327.6809 
L 85.281709 331.033582 
L 86.652004 332.898882 
L 87.457 333.715719 
L 88.35776 334.435191 
L 89.191639 334.950284 
L 90.106515 335.37765 
L 91.10837 335.708214 
L 92.202835 335.932927 
L 93.39516 336.042812 
L 94.690185 336.029011 
L 96.092309 335.882826 
L 97.605466 335.595766 
L 99.736604 335.000934 
L 102.066071 334.138669 
L 104.598587 332.992798 
L 107.337321 331.54829 
L 109.009569 330.575019 
L 110.750888 329.495607 
L 112.561159 328.307802 
L 114.440086 327.009524 
L 116.387195 325.598873 
L 118.401833 324.07414 
L 120.483169 322.433807 
L 122.6302 320.676559 
L 125.801191 317.96805 
L 129.099184 315.017407 
L 132.519495 311.823074 
L 136.056775 308.384416 
L 138.552273 305.879904 
L 141.098086 303.260506 
L 143.691977 300.526803 
L 146.331581 297.67959 
L 149.014416 294.719879 
L 151.737887 291.648901 
L 157.29582 285.179145 
L 161.566166 280.027426 
L 165.899295 274.642141 
L 170.284557 269.031667 
L 174.710964 263.205424 
L 179.167252 257.17384 
L 183.641939 250.948312 
L 188.123387 244.541166 
L 192.599861 237.965601 
L 198.229483 229.43996 
L 203.80875 220.697976 
L 214.723172 202.693392 
L 229.70822 175.743354 
L 236.814551 161.874298 
L 243.467777 148.101167 
L 247.951946 138.303719 
L 252.157233 128.66313 
L 256.069176 119.222546 
L 259.675668 110.023567 
L 262.170874 103.315918 
L 264.486093 96.781966 
L 266.618946 90.436781 
L 268.567838 84.294565 
L 270.362961 78.260662 
L 271.966328 72.464069 
L 273.378699 66.916613 
L 274.601628 61.628929 
L 275.637431 56.610408 
L 276.48916 51.869151 
L 277.160572 47.411941 
L 277.656087 43.244204 
L 277.865794 40.949568 
L 278.018509 38.755321 
L 278.115387 36.661888 
L 278.157648 34.669537 
L 278.108334 31.528219 
L 277.912786 28.676116 
L 277.577924 26.111404 
L 277.111013 23.830981 
L 276.519611 21.830501 
L 275.811515 20.104404 
L 274.994714 18.645962 
L 274.077327 17.447328 
L 273.024536 16.466121 
L 271.880961 15.745484 
L 270.95524 15.364022 
L 269.986328 15.120648 
L 268.978236 15.009231 
L 267.934916 15.02335 
L 266.86025 15.156325 
L 265.75803 15.40124 
L 263.485608 16.198227 
L 261.055401 17.405963 
L 258.581711 18.933866 
L 256.090872 20.712868 
L 253.606135 22.674082 
L 248.486376 27.094084 
L 246.013187 29.310233 
L 243.613403 31.441775 
L 242.082204 32.766015 
L 240.207403 34.321446 
L 238.38898 35.731653 
L 236.625774 36.975909 
L 234.915241 38.038159 
L 233.350317 38.861493 
L 231.824803 39.508473 
L 230.334145 39.977864 
L 228.873326 40.27246 
L 226.666335 40.401087 
L 224.497874 40.174197 
L 222.348941 39.65592 
L 220.202759 38.929735 
L 214.872737 36.931119 
L 213.160116 36.451769 
L 211.43731 36.153555 
L 209.705233 36.101867 
L 207.976106 36.363515 
L 206.712513 36.793631 
L 205.461195 37.45342 
L 204.227913 38.367187 
L 203.019106 39.558181 
L 202.30504 40.419507 
L 201.60408 41.394192 
L 200.917946 42.486586 
L 200.248427 43.700811 
L 199.597368 45.040748 
L 198.96667 46.510019 
L 198.358281 48.111978 
L 197.774189 49.849697 
L 197.172241 51.884832 
L 196.603661 54.085075 
L 196.071069 56.453104 
L 195.577094 58.991149 
L 195.12437 61.700985 
L 194.715524 64.583918 
L 194.353158 67.640777 
L 194.039846 70.871907 
L 193.714945 75.253148 
L 193.479361 79.917083 
L 193.338034 84.860922 
L 193.295677 90.080555 
L 193.356733 95.570561 
L 193.525339 101.324224 
L 193.80529 107.333555 
L 194.200005 113.589321 
L 194.674548 119.640479 
L 195.253768 125.887778 
L 195.939412 132.32097 
L 196.73286 138.928998 
L 197.80035 146.873434 
L 199.017911 155.021147 
L 200.385662 163.350664 
L 201.902926 171.839393 
L 204.224798 183.700524 
L 206.818802 195.753322 
L 209.675709 207.931951 
L 212.783443 220.168913 
L 220.591476 247.494443 
L 223.757133 257.490757 
L 227.044546 267.334378 
L 230.439637 276.987519 
L 233.927475 286.413659 
L 236.590969 293.3034 
L 239.290905 300.032105 
L 242.020321 306.58634 
L 244.772133 312.953342 
L 247.062654 318.075321 
L 249.359512 323.054208 
L 251.658596 327.883941 
L 253.955797 332.558855 
L 256.247024 337.073688 
L 258.528217 341.423603 
L 260.795363 345.604192 
L 263.044509 349.611492 
L 266.392499 355.31729 
L 269.677887 360.611336 
L 272.888329 365.485957 
L 276.012135 369.935902 
L 278.673825 373.489356 
L 281.253469 376.713067 
L 283.744739 379.608066 
L 286.141889 382.176775 
L 288.439784 384.422973 
L 290.633939 386.351757 
L 292.720541 387.969493 
L 294.696473 389.283767 
L 296.74277 390.391059 
L 298.649596 391.153745 
L 300.415843 391.586538 
L 302.04149 391.705517 
L 303.048482 391.618863 
L 303.993905 391.40559 
L 304.878548 391.071309 
L 305.703404 390.621809 
L 306.469665 390.063033 
L 307.178719 389.401057 
L 308.431686 387.792367 
L 309.453154 385.898915 
L 310.293359 383.732318 
L 310.789418 382.055638 
L 311.210402 380.282358 
L 311.857309 376.512355 
L 312.597309 368.519473 
L 312.809865 364.799382 
L 313.035363 360.832201 
L 313.317386 357.088759 
L 313.717331 353.638291 
L 314.287643 350.529986 
L 314.749005 348.776099 
L 315.185177 347.472976 
L 315.682661 346.265442 
L 316.243403 345.152214 
L 316.868358 344.130758 
L 317.557459 343.197335 
L 318.309591 342.347047 
L 319.99315 340.870865 
L 320.933474 340.219321 
L 323.01223 339.042234 
L 325.234148 338.0044 
L 329.75856 335.9269 
L 331.935029 334.599359 
L 332.915127 333.817999 
L 333.797877 332.937219 
L 334.657266 331.797623 
L 335.336888 330.489316 
L 335.69366 329.449216 
L 335.935041 328.30796 
L 336.050709 327.059487 
L 336.030481 325.698236 
L 335.864369 324.219171 
L 335.542641 322.617821 
L 335.055872 320.890306 
L 334.395002 319.03336 
L 333.710394 317.397154 
L 332.896016 315.669382 
L 331.947456 313.849208 
L 330.860561 311.936119 
L 329.631457 309.929918 
L 328.256568 307.830737 
L 326.732629 305.63903 
L 325.056704 303.355576 
L 322.963218 300.649192 
L 319.796639 296.792594 
L 316.249829 292.73099 
L 312.31873 288.472971 
L 308.001577 284.028801 
L 304.084824 280.167863 
L 299.898708 276.192189 
L 295.44607 272.110287 
L 290.730951 267.931318 
L 285.758595 263.665043 
L 280.535434 259.321773 
L 275.069079 254.912306 
L 269.368292 250.447872 
L 261.633493 244.588702 
L 253.544666 238.682566 
L 245.129104 232.756194 
L 236.416847 226.836684 
L 228.135581 221.399588 
L 219.656418 216.012907 
L 202.221226 205.474736 
L 183.32503 194.823417 
L 164.255825 184.851461 
L 149.944801 177.874206 
L 142.861872 174.583248 
L 135.849594 171.432935 
L 127.979272 168.02769 
L 120.245142 164.819819 
L 112.670069 161.815996 
L 105.276076 159.021803 
L 98.084211 156.441716 
L 91.114427 154.079097 
L 84.385465 151.93619 
L 77.914742 150.014128 
L 74.244997 148.989294 
L 70.672671 148.040348 
L 64.732758 146.57743 
L 59.105665 145.338184 
L 53.802777 144.31918 
L 48.833637 143.515979 
L 44.51171 142.957181 
L 40.490756 142.575906 
L 36.774002 142.366456 
L 33.363207 142.322553 
L 30.25866 142.43739 
L 27.459189 142.703688 
L 24.962185 143.113748 
L 22.763626 143.659517 
L 21.115071 144.228034 
L 19.677001 144.884449 
L 18.512024 145.577264 
L 17.524449 146.338393 
L 16.709209 147.163183 
L 16.060763 148.046962 
L 15.573124 148.985063 
L 15.239883 149.972841 
L 15.054245 151.005695 
L 15.009054 152.079081 
L 15.119256 153.346303 
L 15.390656 154.653932 
L 15.811282 155.995701 
L 16.368803 157.365563 
L 17.843834 160.166634 
L 19.71263 163.014136 
L 21.434085 165.31645 
L 23.289451 167.606819 
L 27.906824 172.892459 
L 30.248015 175.506741 
L 32.46301 178.033373 
L 34.485436 180.466527 
L 36.260235 182.805193 
L 37.495704 184.646873 
L 38.520901 186.43134 
L 39.325487 188.163639 
L 39.905504 189.849925 
L 40.333314 192.026068 
L 40.39474 194.151211 
L 40.239496 195.631791 
L 39.942493 197.101928 
L 39.026086 200.032817 
L 38.11752 202.395711 
L 36.729615 206.286101 
L 36.269647 208.255878 
L 36.094425 210.235612 
z
" style="fill:#674172;"/>
   </g>
   <g id="line2d_1">
    <path clip-path="url(#p288b36b8bc)" d="M 36.094425 210.235612 
L 36.217659 211.773305 
L 36.617785 213.304167 
L 37.33961 214.819905 
L 38.426356 216.310692 
L 39.402746 217.311769 
L 40.582185 218.291883 
L 42.1088 219.328818 
L 43.903545 220.330117 
L 45.97938 221.289667 
L 48.347983 222.201092 
L 51.019656 223.057805 
L 54.003232 223.853055 
L 57.306005 224.579984 
L 63.373197 225.598476 
L 68.641783 226.228652 
L 76.285785 226.824281 
L 81.433103 227.053166 
L 86.909227 227.169107 
L 92.708294 227.166187 
L 98.822627 227.038881 
L 105.24276 226.782115 
L 111.957476 226.391318 
L 123.590485 225.448283 
L 128.333184 224.974926 
L 138.118736 223.848218 
L 148.271941 222.478555 
L 158.750602 220.864129 
L 168.429815 219.200672 
L 178.301046 217.34051 
L 188.394866 215.272396 
L 198.607108 213.012715 
L 219.226292 207.944443 
L 240.263396 202.073695 
L 260.93602 195.592345 
L 269.268646 192.769636 
L 277.458113 189.871093 
L 285.482045 186.905968 
L 293.318873 183.883893 
L 300.767198 180.889051 
L 307.999389 177.858936 
L 314.998222 174.803219 
L 321.747578 171.731693 
L 328.672327 168.440705 
L 335.278034 165.154959 
L 341.549739 161.886419 
L 347.474277 158.646885 
L 353.040339 155.4479 
L 358.23852 152.300671 
L 363.061355 149.215988 
L 370.784959 143.850223 
L 376.138934 139.703309 
L 380.273202 136.13838 
L 383.739698 132.769202 
L 386.551317 129.60999 
L 387.717066 128.112803 
L 389.171712 125.975927 
L 390.285908 123.969011 
L 391.071718 122.094183 
L 391.542561 120.352597 
L 391.713099 118.744431 
L 391.599119 117.268886 
L 391.21741 115.924203 
L 390.585635 114.707679 
L 389.649071 113.539162 
L 388.468625 112.508819 
L 387.068498 111.609924 
L 385.473296 110.834714 
L 383.595401 110.137785 
L 381.555472 109.558775 
L 379.237406 109.057778 
L 376.803548 108.660476 
L 371.722055 108.109152 
L 354.925218 106.93114 
L 352.393815 106.561874 
L 350.074225 106.080727 
L 348.238654 105.558096 
L 346.18301 104.754464 
L 344.38894 103.774851 
L 342.842392 102.616789 
L 341.52027 101.285868 
L 340.527925 99.997323 
L 339.656643 98.602469 
L 338.15808 95.574361 
L 335.800074 90.46907 
L 334.612485 88.55171 
L 333.162768 86.879723 
L 331.798534 85.817092 
L 330.185689 85.019517 
L 328.289375 84.539338 
L 326.078413 84.428518 
L 323.578604 84.727543 
L 320.729326 85.476567 
L 318.199184 86.423997 
L 315.431156 87.704779 
L 312.421494 89.337723 
L 309.168626 91.339843 
L 304.269688 94.745409 
L 298.915589 98.918588 
L 293.123011 103.883361 
L 286.916413 109.654203 
L 280.265491 116.299721 
L 273.265226 123.76442 
L 265.961953 132.030996 
L 258.4077 141.07104 
L 251.344586 149.960477 
L 244.165822 159.423508 
L 237.61169 168.441659 
L 231.038718 177.855109 
L 224.483927 187.622052 
L 217.984408 197.696958 
L 209.919936 210.771529 
L 202.073874 224.153978 
L 189.563947 247.040058 
L 182.239136 261.490939 
L 175.419215 275.809943 
L 169.160483 289.860852 
L 163.509673 303.511463 
L 160.778052 310.530354 
L 158.231298 317.38406 
L 155.872771 324.055655 
L 152.011725 335.870313 
L 149.04489 346.055023 
L 146.4616 356.274245 
L 145.338793 361.403421 
L 144.399979 366.261675 
L 143.641794 370.841663 
L 143.060202 375.137358 
L 142.650534 379.144068 
L 142.407526 382.858458 
L 142.367976 388.716852 
L 142.716953 393.067784 
L 143.395383 396.725174 
L 143.849368 398.298285 
L 144.374993 399.704309 
L 145.505898 401.848768 
L 146.084648 402.64433 
L 147.073667 403.685116 
L 148.151224 404.476843 
L 149.308853 405.030368 
L 150.538143 405.35747 
L 151.830792 405.470769 
L 153.178648 405.38364 
L 154.573764 405.110125 
L 156.008437 404.66484 
L 158.678013 403.473162 
L 161.411781 401.861852 
L 164.560971 399.632082 
L 167.698361 397.118023 
L 179.144312 387.079956 
L 183.284419 383.885872 
L 185.874513 382.261023 
L 188.354977 381.079195 
L 190.743304 380.35385 
L 191.909324 380.159271 
L 193.463243 380.06545 
L 194.996489 380.152471 
L 196.515867 380.40015 
L 198.02779 380.783334 
L 200.621861 381.668711 
L 205.822462 383.606668 
L 208.44039 384.237398 
L 209.390701 384.349653 
L 211.262437 384.330749 
L 213.127572 383.924717 
L 214.053337 383.551061 
L 214.971827 383.050416 
L 215.880731 382.41317 
L 216.777541 381.630018 
L 217.666732 380.683636 
L 218.537943 379.571073 
L 219.388058 378.284019 
L 220.213808 376.814668 
L 221.011784 375.155755 
L 222.510184 371.243145 
L 223.20325 368.977984 
L 223.981696 365.965682 
L 224.691775 362.638067 
L 225.326732 358.989843 
L 225.879823 355.017343 
L 226.362285 350.526157 
L 226.740993 345.679724 
L 227.008743 340.479802 
L 227.189807 331.025652 
L 227.077796 322.764408 
L 226.604407 311.805938 
L 226.140027 304.907229 
L 225.534264 297.731337 
L 224.783982 290.293884 
L 223.886726 282.612043 
L 222.840752 274.704449 
L 221.645063 266.591097 
L 220.299431 258.293237 
L 218.38076 247.553274 
L 216.225506 236.601055 
L 212.599884 220.05277 
L 208.489422 203.316905 
L 197.889779 166.586611 
L 191.932003 148.786248 
L 188.823481 140.126718 
L 185.64343 131.663475 
L 181.761788 121.832784 
L 177.815475 112.36092 
L 173.825895 103.286406 
L 167.722644 90.322033 
L 163.150718 81.30594 
L 158.23213 72.253943 
L 153.410144 64.029038 
L 148.723271 56.661391 
L 144.473371 50.535761 
L 140.656524 45.511172 
L 137.016576 41.173015 
L 133.571404 37.515405 
L 131.926725 35.938343 
L 129.382086 33.736511 
L 126.985031 31.956445 
L 124.740175 30.585511 
L 122.650796 29.608969 
L 120.802172 29.029171 
L 119.097644 28.777865 
L 117.536581 28.837632 
L 116.117226 29.189855 
L 114.686262 29.911147 
L 113.425303 30.948336 
L 112.327022 32.270986 
L 111.382549 33.847847 
L 110.588156 35.63015 
L 109.92343 37.599842 
L 109.375974 39.725926 
L 108.932431 41.977794 
L 108.395204 45.84103 
L 108.031835 49.835429 
L 107.323282 61.498024 
L 106.689397 67.353445 
L 105.940368 70.977135 
L 105.408572 72.698815 
L 104.77655 74.262481 
L 104.039985 75.670602 
L 103.224816 76.89242 
L 102.310974 77.981891 
L 101.302062 78.949979 
L 100.204267 79.810165 
L 98.564466 80.847078 
L 96.804054 81.757125 
L 90.795113 84.508385 
L 88.840234 85.668218 
L 87.116772 87.078764 
L 86.375277 87.905686 
L 85.732365 88.827782 
L 85.202067 89.855052 
L 84.798481 90.996956 
L 84.515627 92.412073 
L 84.425996 93.991031 
L 84.548403 95.743856 
L 84.901156 97.679332 
L 85.48998 99.768565 
L 86.334767 102.047508 
L 87.450628 104.520564 
L 89.779341 108.795762 
L 91.931865 112.198309 
L 94.907819 116.418654 
L 98.939216 121.579282 
L 103.703431 127.145761 
L 109.213501 133.096414 
L 115.711535 139.634871 
L 123.275238 146.760694 
L 131.519304 154.069978 
L 140.372337 161.495111 
L 149.940712 169.112855 
L 160.177518 176.865492 
L 165.529298 180.773582 
L 174.537244 187.147648 
L 183.891978 193.516783 
L 196.86865 201.964623 
L 210.287721 210.262807 
L 237.994866 226.100481 
L 250.400229 232.653289 
L 262.786431 238.870703 
L 275.066541 244.712541 
L 287.154577 250.143363 
L 301.28692 256.074799 
L 308.321738 258.851102 
L 315.198392 261.445473 
L 321.899932 263.854331 
L 328.410233 266.074933 
L 334.849294 268.147575 
L 341.057601 270.020534 
L 347.021118 271.693579 
L 352.727035 273.167361 
L 358.163822 274.443395 
L 363.321297 275.524033 
L 368.190667 276.412427 
L 375.330609 277.440064 
L 380.142032 277.906439 
L 384.521569 278.129256 
L 388.46658 278.119253 
L 392.521661 277.828953 
L 394.575754 277.535577 
L 396.440218 277.154453 
L 398.117423 276.689708 
L 399.610279 276.145573 
L 400.922225 275.526374 
L 402.057211 274.836506 
L 403.019675 274.080416 
L 404.115767 272.879934 
L 404.878389 271.564085 
L 405.277571 270.366838 
L 405.46173 269.104379 
L 405.443705 267.784739 
L 405.237015 266.415766 
L 404.839639 264.955662 
L 404.271611 263.459065 
L 403.549568 261.933775 
L 402.690493 260.387207 
L 400.630192 257.257737 
L 398.228968 254.120946 
L 393.517008 248.628355 
L 387.402318 241.709601 
L 385.421949 239.271115 
L 383.711194 236.929194 
L 382.310092 234.679105 
L 381.537306 233.174647 
L 380.928941 231.706423 
L 380.523207 230.414495 
L 380.249091 229.145226 
L 380.102492 227.895173 
L 380.077081 226.660809 
L 380.353702 224.225112 
L 380.986201 221.811353 
L 381.483874 220.370764 
L 383.138421 216.056018 
L 383.845154 213.867661 
L 384.2977 211.660396 
L 384.386371 210.537559 
L 384.356646 209.414161 
L 384.19061 208.292601 
L 383.870548 207.175736 
L 383.234587 205.803877 
L 382.303618 204.45154 
L 381.046999 203.126912 
L 379.435842 201.839088 
L 376.797511 200.251866 
L 373.47653 198.764961 
L 369.429262 197.402818 
L 364.620511 196.191014 
L 360.584707 195.411365 
L 353.718399 194.443656 
L 348.594405 193.948122 
L 345.868405 193.749034 
L 340.31717 193.462905 
L 334.367493 193.311395 
L 328.774697 193.295989 
L 322.88225 193.397427 
L 316.698568 193.620459 
L 310.23364 193.969393 
L 303.498987 194.448049 
L 296.507609 195.059723 
L 289.273924 195.807144 
L 274.997762 197.597488 
L 260.919942 199.740832 
L 245.396862 202.507476 
L 236.98903 204.174423 
L 225.184751 206.708569 
L 213.257252 209.495465 
L 189.287192 215.780042 
L 174.708145 220.055553 
L 160.350484 224.613966 
L 146.329145 229.416233 
L 132.754534 234.419314 
L 123.971363 237.85688 
L 108.874645 244.173165 
L 96.331072 249.866484 
L 84.713814 255.567874 
L 74.103449 261.214853 
L 69.196616 263.998811 
L 63.81729 267.201707 
L 58.820253 270.343914 
L 54.21183 273.414598 
L 49.996277 276.403501 
L 46.427319 279.103722 
L 43.200844 281.717571 
L 40.315498 284.238451 
L 37.768433 286.660403 
L 35.722212 288.79449 
L 33.9537 290.83696 
L 32.45753 292.78475 
L 31.227402 294.635339 
L 30.256126 296.386752 
L 29.535671 298.037577 
L 29.057216 299.586965 
L 28.811207 301.034638 
L 28.838177 302.894687 
L 29.272111 304.557877 
L 30.080746 306.028988 
L 31.230162 307.314854 
L 32.763473 308.474145 
L 34.591286 309.451628 
L 36.054758 310.046739 
L 37.631614 310.562056 
L 41.063962 311.378615 
L 44.767389 311.955378 
L 48.626179 312.350741 
L 64.839059 313.456493 
L 69.147308 314.107852 
L 72.1725 314.888973 
L 74.764157 315.93957 
L 75.899933 316.572795 
L 76.933588 317.279098 
L 77.870479 318.057658 
L 78.717414 318.906285 
L 80.252846 320.917126 
L 81.183625 322.516572 
L 82.016813 324.212666 
L 83.552438 327.6809 
L 85.281709 331.033582 
L 86.652004 332.898882 
L 87.457 333.715719 
L 88.35776 334.435191 
L 89.191639 334.950284 
L 90.106515 335.37765 
L 91.10837 335.708214 
L 92.202835 335.932927 
L 93.39516 336.042812 
L 94.690185 336.029011 
L 96.092309 335.882826 
L 97.605466 335.595766 
L 99.736604 335.000934 
L 102.066071 334.138669 
L 104.598587 332.992798 
L 109.009569 330.575019 
L 112.561159 328.307802 
L 116.387195 325.598873 
L 120.483169 322.433807 
L 125.801191 317.96805 
L 132.519495 311.823074 
L 138.552273 305.879904 
L 143.691977 300.526803 
L 149.014416 294.719879 
L 151.737887 291.648901 
L 157.29582 285.179145 
L 165.899295 274.642141 
L 174.710964 263.205424 
L 183.641939 250.948312 
L 192.599861 237.965601 
L 198.229483 229.43996 
L 203.80875 220.697976 
L 214.723172 202.693392 
L 229.70822 175.743354 
L 236.814551 161.874298 
L 243.467777 148.101167 
L 247.951946 138.303719 
L 252.157233 128.66313 
L 256.069176 119.222546 
L 259.675668 110.023567 
L 264.486093 96.781966 
L 268.567838 84.294565 
L 270.362961 78.260662 
L 271.966328 72.464069 
L 273.378699 66.916613 
L 274.601628 61.628929 
L 275.637431 56.610408 
L 276.48916 51.869151 
L 277.160572 47.411941 
L 277.865794 40.949568 
L 278.115387 36.661888 
L 278.157648 34.669537 
L 278.108334 31.528219 
L 277.912786 28.676116 
L 277.577924 26.111404 
L 277.111013 23.830981 
L 276.519611 21.830501 
L 275.811515 20.104404 
L 274.994714 18.645962 
L 274.077327 17.447328 
L 273.024536 16.466121 
L 271.880961 15.745484 
L 270.95524 15.364022 
L 269.986328 15.120648 
L 268.978236 15.009231 
L 267.934916 15.02335 
L 265.75803 15.40124 
L 263.485608 16.198227 
L 261.055401 17.405963 
L 258.581711 18.933866 
L 256.090872 20.712868 
L 253.606135 22.674082 
L 238.38898 35.731653 
L 236.625774 36.975909 
L 234.915241 38.038159 
L 233.350317 38.861493 
L 231.824803 39.508473 
L 230.334145 39.977864 
L 228.873326 40.27246 
L 226.666335 40.401087 
L 224.497874 40.174197 
L 222.348941 39.65592 
L 220.202759 38.929735 
L 214.872737 36.931119 
L 213.160116 36.451769 
L 211.43731 36.153555 
L 209.705233 36.101867 
L 207.976106 36.363515 
L 206.712513 36.793631 
L 205.461195 37.45342 
L 204.227913 38.367187 
L 203.019106 39.558181 
L 201.60408 41.394192 
L 200.248427 43.700811 
L 198.96667 46.510019 
L 197.774189 49.849697 
L 196.603661 54.085075 
L 195.577094 58.991149 
L 194.715524 64.583918 
L 194.039846 70.871907 
L 193.479361 79.917083 
L 193.295677 90.080555 
L 193.525339 101.324224 
L 194.200005 113.589321 
L 195.253768 125.887778 
L 196.73286 138.928998 
L 197.80035 146.873434 
L 199.017911 155.021147 
L 200.385662 163.350664 
L 201.902926 171.839393 
L 204.224798 183.700524 
L 206.818802 195.753322 
L 209.675709 207.931951 
L 212.783443 220.168913 
L 220.591476 247.494443 
L 223.757133 257.490757 
L 227.044546 267.334378 
L 230.439637 276.987519 
L 236.590969 293.3034 
L 242.020321 306.58634 
L 247.062654 318.075321 
L 251.658596 327.883941 
L 256.247024 337.073688 
L 260.795363 345.604192 
L 263.044509 349.611492 
L 266.392499 355.31729 
L 269.677887 360.611336 
L 272.888329 365.485957 
L 276.012135 369.935902 
L 278.673825 373.489356 
L 281.253469 376.713067 
L 283.744739 379.608066 
L 286.141889 382.176775 
L 288.439784 384.422973 
L 290.633939 386.351757 
L 292.720541 387.969493 
L 294.696473 389.283767 
L 296.74277 390.391059 
L 298.649596 391.153745 
L 300.415843 391.586538 
L 302.04149 391.705517 
L 303.048482 391.618863 
L 303.993905 391.40559 
L 304.878548 391.071309 
L 305.703404 390.621809 
L 306.469665 390.063033 
L 307.178719 389.401057 
L 308.431686 387.792367 
L 309.453154 385.898915 
L 310.293359 383.732318 
L 311.210402 380.282358 
L 311.857309 376.512355 
L 312.597309 368.519473 
L 313.317386 357.088759 
L 313.717331 353.638291 
L 314.287643 350.529986 
L 315.185177 347.472976 
L 316.243403 345.152214 
L 317.557459 343.197335 
L 318.309591 342.347047 
L 319.99315 340.870865 
L 320.933474 340.219321 
L 323.01223 339.042234 
L 329.75856 335.9269 
L 331.935029 334.599359 
L 332.915127 333.817999 
L 333.797877 332.937219 
L 334.657266 331.797623 
L 335.336888 330.489316 
L 335.69366 329.449216 
L 335.935041 328.30796 
L 336.050709 327.059487 
L 336.030481 325.698236 
L 335.864369 324.219171 
L 335.542641 322.617821 
L 335.055872 320.890306 
L 333.710394 317.397154 
L 331.947456 313.849208 
L 329.631457 309.929918 
L 326.732629 305.63903 
L 322.963218 300.649192 
L 319.796639 296.792594 
L 316.249829 292.73099 
L 312.31873 288.472971 
L 308.001577 284.028801 
L 299.898708 276.192189 
L 290.730951 267.931318 
L 280.535434 259.321773 
L 269.368292 250.447872 
L 261.633493 244.588702 
L 253.544666 238.682566 
L 245.129104 232.756194 
L 236.416847 226.836684 
L 228.135581 221.399588 
L 219.656418 216.012907 
L 202.221226 205.474736 
L 183.32503 194.823417 
L 164.255825 184.851461 
L 149.944801 177.874206 
L 135.849594 171.432935 
L 127.979272 168.02769 
L 120.245142 164.819819 
L 112.670069 161.815996 
L 105.276076 159.021803 
L 98.084211 156.441716 
L 91.114427 154.079097 
L 84.385465 151.93619 
L 74.244997 148.989294 
L 64.732758 146.57743 
L 59.105665 145.338184 
L 53.802777 144.31918 
L 48.833637 143.515979 
L 44.51171 142.957181 
L 40.490756 142.575906 
L 36.774002 142.366456 
L 33.363207 142.322553 
L 30.25866 142.43739 
L 27.459189 142.703688 
L 24.962185 143.113748 
L 22.763626 143.659517 
L 21.115071 144.228034 
L 19.677001 144.884449 
L 18.512024 145.577264 
L 17.524449 146.338393 
L 16.709209 147.163183 
L 16.060763 148.046962 
L 15.573124 148.985063 
L 15.239883 149.972841 
L 15.054245 151.005695 
L 15.009054 152.079081 
L 15.119256 153.346303 
L 15.390656 154.653932 
L 15.811282 155.995701 
L 16.368803 157.365563 
L 17.843834 160.166634 
L 19.71263 163.014136 
L 21.434085 165.31645 
L 23.289451 167.606819 
L 34.485436 180.466527 
L 36.260235 182.805193 
L 37.495704 184.646873 
L 38.520901 186.43134 
L 39.325487 188.163639 
L 39.905504 189.849925 
L 40.333314 192.026068 
L 40.39474 194.151211 
L 40.239496 195.631791 
L 39.942493 197.101928 
L 39.026086 200.032817 
L 36.729615 206.286101 
L 36.269647 208.255878 
L 36.094425 210.235612 
L 36.094425 210.235612 
" style="fill:none;stroke:#674172;stroke-linecap:square;"/>
   </g>
   <g id="patch_4">
    <path d="M 7.2 210.235612 
L 413.270783 210.235612 
" style="fill:none;stroke:#000000;stroke-linecap:square;stroke-linejoin:miter;stroke-width:0.8;"/>
   </g>
   <g id="patch_5">
    <path d="M 210.242594 413.28 
L 210.242594 7.2 
" style="fill:none;stroke:#000000;stroke-linecap:square;stroke-linejoin:miter;stroke-width:0.8;"/>
   </g>
   <g id="matplotlib.axis_1">
    <g id="xtick_1">
     <g id="line2d_2">
      <defs>
       <path d="M 0 0 
L 0 -4 
" id="me56ec0eb9d" style="stroke:#000000;stroke-width:0.5;"/>
      </defs>
      <g>
       <use style="stroke:#000000;stroke-width:0.5;" x="36.094424722" xlink:href="#me56ec0eb9d" y="210.235612211"/>
      </g>
     </g>
     <g id="text_1">
      <!-- -1 -->
      <defs>
       <path d="M 12.40625 8.296875 
L 28.515625 8.296875 
L 28.515625 63.921875 
L 10.984375 60.40625 
L 10.984375 69.390625 
L 28.421875 72.90625 
L 38.28125 72.90625 
L 38.28125 8.296875 
L 54.390625 8.296875 
L 54.390625 0 
L 12.40625 0 
z
" id="BitstreamVeraSans-Roman-31"/>
       <path d="M 4.890625 31.390625 
L 31.203125 31.390625 
L 31.203125 23.390625 
L 4.890625 23.390625 
z
" id="BitstreamVeraSans-Roman-2d"/>
      </defs>
      <g transform="translate(31.109268472 221.834049711)scale(0.1 -0.1)">
       <use xlink:href="#BitstreamVeraSans-Roman-2d"/>
       <use x="36.083984375" xlink:href="#BitstreamVeraSans-Roman-31"/>
      </g>
     </g>
    </g>
    <g id="xtick_2">
     <g id="line2d_3">
      <g>
       <use style="stroke:#000000;stroke-width:0.5;" x="123.16850926" xlink:href="#me56ec0eb9d" y="210.235612211"/>
      </g>
     </g>
     <g id="text_2">
      <!-- -0.5 -->
      <defs>
       <path d="M 31.78125 66.40625 
Q 24.171875 66.40625 20.328125 58.90625 
Q 16.5 51.421875 16.5 36.375 
Q 16.5 21.390625 20.328125 13.890625 
Q 24.171875 6.390625 31.78125 6.390625 
Q 39.453125 6.390625 43.28125 13.890625 
Q 47.125 21.390625 47.125 36.375 
Q 47.125 51.421875 43.28125 58.90625 
Q 39.453125 66.40625 31.78125 66.40625 
M 31.78125 74.21875 
Q 44.046875 74.21875 50.515625 64.515625 
Q 56.984375 54.828125 56.984375 36.375 
Q 56.984375 17.96875 50.515625 8.265625 
Q 44.046875 -1.421875 31.78125 -1.421875 
Q 19.53125 -1.421875 13.0625 8.265625 
Q 6.59375 17.96875 6.59375 36.375 
Q 6.59375 54.828125 13.0625 64.515625 
Q 19.53125 74.21875 31.78125 74.21875 
" id="BitstreamVeraSans-Roman-30"/>
       <path d="M 10.6875 12.40625 
L 21 12.40625 
L 21 0 
L 10.6875 0 
z
" id="BitstreamVeraSans-Roman-2e"/>
       <path d="M 10.796875 72.90625 
L 49.515625 72.90625 
L 49.515625 64.59375 
L 19.828125 64.59375 
L 19.828125 46.734375 
Q 21.96875 47.46875 24.109375 47.828125 
Q 26.265625 48.1875 28.421875 48.1875 
Q 40.625 48.1875 47.75 41.5 
Q 54.890625 34.8125 54.890625 23.390625 
Q 54.890625 11.625 47.5625 5.09375 
Q 40.234375 -1.421875 26.90625 -1.421875 
Q 22.3125 -1.421875 17.546875 -0.640625 
Q 12.796875 0.140625 7.71875 1.703125 
L 7.71875 11.625 
Q 12.109375 9.234375 16.796875 8.0625 
Q 21.484375 6.890625 26.703125 6.890625 
Q 35.15625 6.890625 40.078125 11.328125 
Q 45.015625 15.765625 45.015625 23.390625 
Q 45.015625 31 40.078125 35.4375 
Q 35.15625 39.890625 26.703125 39.890625 
Q 22.75 39.890625 18.8125 39.015625 
Q 14.890625 38.140625 10.796875 36.28125 
z
" id="BitstreamVeraSans-Roman-35"/>
      </defs>
      <g transform="translate(113.41304051 221.834049711)scale(0.1 -0.1)">
       <use xlink:href="#BitstreamVeraSans-Roman-2d"/>
       <use x="36.083984375" xlink:href="#BitstreamVeraSans-Roman-30"/>
       <use x="99.70703125" xlink:href="#BitstreamVeraSans-Roman-2e"/>
       <use x="131.494140625" xlink:href="#BitstreamVeraSans-Roman-35"/>
      </g>
     </g>
    </g>
    <g id="xtick_3">
     <g id="line2d_4">
      <g>
       <use style="stroke:#000000;stroke-width:0.5;" x="210.242593797" xlink:href="#me56ec0eb9d" y="210.235612211"/>
      </g>
     </g>
    </g>
    <g id="xtick_4">
     <g id="line2d_5">
      <g>
       <use style="stroke:#000000;stroke-width:0.5;" x="297.316678335" xlink:href="#me56ec0eb9d" y="210.235612211"/>
      </g>
     </g>
     <g id="text_3">
      <!-- 0.5 -->
      <g transform="translate(289.365115835 221.834049711)scale(0.1 -0.1)">
       <use xlink:href="#BitstreamVeraSans-Roman-30"/>
       <use x="63.623046875" xlink:href="#BitstreamVeraSans-Roman-2e"/>
       <use x="95.41015625" xlink:href="#BitstreamVeraSans-Roman-35"/>
      </g>
     </g>
    </g>
    <g id="xtick_5">
     <g id="line2d_6">
      <g>
       <use style="stroke:#000000;stroke-width:0.5;" x="384.390762873" xlink:href="#me56ec0eb9d" y="210.235612211"/>
      </g>
     </g>
     <g id="text_4">
      <!-- 1 -->
      <g transform="translate(381.209512873 221.834049711)scale(0.1 -0.1)">
       <use xlink:href="#BitstreamVeraSans-Roman-31"/>
      </g>
     </g>
    </g>
    <g id="xtick_6">
     <g id="line2d_7">
      <defs>
       <path d="M 0 0 
L 0 -2 
" id="me4673a7264" style="stroke:#000000;stroke-width:0.5;"/>
      </defs>
      <g>
       <use style="stroke:#000000;stroke-width:0.5;" x="18.6796078144" xlink:href="#me4673a7264" y="210.235612211"/>
      </g>
     </g>
    </g>
    <g id="xtick_7">
     <g id="line2d_8">
      <g>
       <use style="stroke:#000000;stroke-width:0.5;" x="53.5092416295" xlink:href="#me4673a7264" y="210.235612211"/>
      </g>
     </g>
    </g>
    <g id="xtick_8">
     <g id="line2d_9">
      <g>
       <use style="stroke:#000000;stroke-width:0.5;" x="70.9240585371" xlink:href="#me4673a7264" y="210.235612211"/>
      </g>
     </g>
    </g>
    <g id="xtick_9">
     <g id="line2d_10">
      <g>
       <use style="stroke:#000000;stroke-width:0.5;" x="88.3388754446" xlink:href="#me4673a7264" y="210.235612211"/>
      </g>
     </g>
    </g>
    <g id="xtick_10">
     <g id="line2d_11">
      <g>
       <use style="stroke:#000000;stroke-width:0.5;" x="105.753692352" xlink:href="#me4673a7264" y="210.235612211"/>
      </g>
     </g>
    </g>
    <g id="xtick_11">
     <g id="line2d_12">
      <g>
       <use style="stroke:#000000;stroke-width:0.5;" x="123.16850926" xlink:href="#me4673a7264" y="210.235612211"/>
      </g>
     </g>
    </g>
    <g id="xtick_12">
     <g id="line2d_13">
      <g>
       <use style="stroke:#000000;stroke-width:0.5;" x="140.583326167" xlink:href="#me4673a7264" y="210.235612211"/>
      </g>
     </g>
    </g>
    <g id="xtick_13">
     <g id="line2d_14">
      <g>
       <use style="stroke:#000000;stroke-width:0.5;" x="157.998143075" xlink:href="#me4673a7264" y="210.235612211"/>
      </g>
     </g>
    </g>
    <g id="xtick_14">
     <g id="line2d_15">
      <g>
       <use style="stroke:#000000;stroke-width:0.5;" x="175.412959982" xlink:href="#me4673a7264" y="210.235612211"/>
      </g>
     </g>
    </g>
    <g id="xtick_15">
     <g id="line2d_16">
      <g>
       <use style="stroke:#000000;stroke-width:0.5;" x="192.82777689" xlink:href="#me4673a7264" y="210.235612211"/>
      </g>
     </g>
    </g>
    <g id="xtick_16">
     <g id="line2d_17">
      <g>
       <use style="stroke:#000000;stroke-width:0.5;" x="210.242593797" xlink:href="#me4673a7264" y="210.235612211"/>
      </g>
     </g>
    </g>
    <g id="xtick_17">
     <g id="line2d_18">
      <g>
       <use style="stroke:#000000;stroke-width:0.5;" x="227.657410705" xlink:href="#me4673a7264" y="210.235612211"/>
      </g>
     </g>
    </g>
    <g id="xtick_18">
     <g id="line2d_19">
      <g>
       <use style="stroke:#000000;stroke-width:0.5;" x="245.072227613" xlink:href="#me4673a7264" y="210.235612211"/>
      </g>
     </g>
    </g>
    <g id="xtick_19">
     <g id="line2d_20">
      <g>
       <use style="stroke:#000000;stroke-width:0.5;" x="262.48704452" xlink:href="#me4673a7264" y="210.235612211"/>
      </g>
     </g>
    </g>
    <g id="xtick_20">
     <g id="line2d_21">
      <g>
       <use style="stroke:#000000;stroke-width:0.5;" x="279.901861428" xlink:href="#me4673a7264" y="210.235612211"/>
      </g>
     </g>
    </g>
    <g id="xtick_21">
     <g id="line2d_22">
      <g>
       <use style="stroke:#000000;stroke-width:0.5;" x="297.316678335" xlink:href="#me4673a7264" y="210.235612211"/>
      </g>
     </g>
    </g>
    <g id="xtick_22">
     <g id="line2d_23">
      <g>
       <use style="stroke:#000000;stroke-width:0.5;" x="314.731495243" xlink:href="#me4673a7264" y="210.235612211"/>
      </g>
     </g>
    </g>
    <g id="xtick_23">
     <g id="line2d_24">
      <g>
       <use style="stroke:#000000;stroke-width:0.5;" x="332.14631215" xlink:href="#me4673a7264" y="210.235612211"/>
      </g>
     </g>
    </g>
    <g id="xtick_24">
     <g id="line2d_25">
      <g>
       <use style="stroke:#000000;stroke-width:0.5;" x="349.561129058" xlink:href="#me4673a7264" y="210.235612211"/>
      </g>
     </g>
    </g>
    <g id="xtick_25">
     <g id="line2d_26">
      <g>
       <use style="stroke:#000000;stroke-width:0.5;" x="366.975945965" xlink:href="#me4673a7264" y="210.235612211"/>
      </g>
     </g>
    </g>
    <g id="xtick_26">
     <g id="line2d_27">
      <g>
       <use style="stroke:#000000;stroke-width:0.5;" x="384.390762873" xlink:href="#me4673a7264" y="210.235612211"/>
      </g>
     </g>
    </g>
    <g id="xtick_27">
     <g id="line2d_28">
      <g>
       <use style="stroke:#000000;stroke-width:0.5;" x="401.805579781" xlink:href="#me4673a7264" y="210.235612211"/>
      </g>
     </g>
    </g>
   </g>
   <g id="matplotlib.axis_2">
    <g id="ytick_1">
     <g id="line2d_29">
      <defs>
       <path d="M 0 0 
L 4 0 
" id="m4617a29cb9" style="stroke:#000000;stroke-width:0.5;"/>
      </defs>
      <g>
       <use style="stroke:#000000;stroke-width:0.5;" x="210.242593797" xlink:href="#m4617a29cb9" y="384.383781286"/>
      </g>
     </g>
     <g id="text_5">
      <!-- -1 -->
      <g transform="translate(196.272281297 387.143156286)scale(0.1 -0.1)">
       <use xlink:href="#BitstreamVeraSans-Roman-2d"/>
       <use x="36.083984375" xlink:href="#BitstreamVeraSans-Roman-31"/>
      </g>
     </g>
    </g>
    <g id="ytick_2">
     <g id="line2d_30">
      <g>
       <use style="stroke:#000000;stroke-width:0.5;" x="210.242593797" xlink:href="#m4617a29cb9" y="297.309696748"/>
      </g>
     </g>
     <g id="text_6">
      <!-- -0.5 -->
      <g transform="translate(186.731656297 300.069071748)scale(0.1 -0.1)">
       <use xlink:href="#BitstreamVeraSans-Roman-2d"/>
       <use x="36.083984375" xlink:href="#BitstreamVeraSans-Roman-30"/>
       <use x="99.70703125" xlink:href="#BitstreamVeraSans-Roman-2e"/>
       <use x="131.494140625" xlink:href="#BitstreamVeraSans-Roman-35"/>
      </g>
     </g>
    </g>
    <g id="ytick_3">
     <g id="line2d_31">
      <g>
       <use style="stroke:#000000;stroke-width:0.5;" x="210.242593797" xlink:href="#m4617a29cb9" y="210.235612211"/>
      </g>
     </g>
    </g>
    <g id="ytick_4">
     <g id="line2d_32">
      <g>
       <use style="stroke:#000000;stroke-width:0.5;" x="210.242593797" xlink:href="#m4617a29cb9" y="123.161527673"/>
      </g>
     </g>
     <g id="text_7">
      <!-- 0.5 -->
      <g transform="translate(190.339468797 125.920902673)scale(0.1 -0.1)">
       <use xlink:href="#BitstreamVeraSans-Roman-30"/>
       <use x="63.623046875" xlink:href="#BitstreamVeraSans-Roman-2e"/>
       <use x="95.41015625" xlink:href="#BitstreamVeraSans-Roman-35"/>
      </g>
     </g>
    </g>
    <g id="ytick_5">
     <g id="line2d_33">
      <g>
       <use style="stroke:#000000;stroke-width:0.5;" x="210.242593797" xlink:href="#m4617a29cb9" y="36.0874431352"/>
      </g>
     </g>
     <g id="text_8">
      <!-- 1 -->
      <g transform="translate(199.880093797 38.8468181352)scale(0.1 -0.1)">
       <use xlink:href="#BitstreamVeraSans-Roman-31"/>
      </g>
     </g>
    </g>
    <g id="ytick_6">
     <g id="line2d_34">
      <defs>
       <path d="M 0 0 
L 2 0 
" id="m71dc5df494" style="stroke:#000000;stroke-width:0.5;"/>
      </defs>
      <g>
       <use style="stroke:#000000;stroke-width:0.5;" x="210.242593797" xlink:href="#m71dc5df494" y="401.798598194"/>
      </g>
     </g>
    </g>
    <g id="ytick_7">
     <g id="line2d_35">
      <g>
       <use style="stroke:#000000;stroke-width:0.5;" x="210.242593797" xlink:href="#m71dc5df494" y="366.968964379"/>
      </g>
     </g>
    </g>
    <g id="ytick_8">
     <g id="line2d_36">
      <g>
       <use style="stroke:#000000;stroke-width:0.5;" x="210.242593797" xlink:href="#m71dc5df494" y="349.554147471"/>
      </g>
     </g>
    </g>
    <g id="ytick_9">
     <g id="line2d_37">
      <g>
       <use style="stroke:#000000;stroke-width:0.5;" x="210.242593797" xlink:href="#m71dc5df494" y="332.139330564"/>
      </g>
     </g>
    </g>
    <g id="ytick_10">
     <g id="line2d_38">
      <g>
       <use style="stroke:#000000;stroke-width:0.5;" x="210.242593797" xlink:href="#m71dc5df494" y="314.724513656"/>
      </g>
     </g>
    </g>
    <g id="ytick_11">
     <g id="line2d_39">
      <g>
       <use style="stroke:#000000;stroke-width:0.5;" x="210.242593797" xlink:href="#m71dc5df494" y="297.309696748"/>
      </g>
     </g>
    </g>
    <g id="ytick_12">
     <g id="line2d_40">
      <g>
       <use style="stroke:#000000;stroke-width:0.5;" x="210.242593797" xlink:href="#m71dc5df494" y="279.894879841"/>
      </g>
     </g>
    </g>
    <g id="ytick_13">
     <g id="line2d_41">
      <g>
       <use style="stroke:#000000;stroke-width:0.5;" x="210.242593797" xlink:href="#m71dc5df494" y="262.480062933"/>
      </g>
     </g>
    </g>
    <g id="ytick_14">
     <g id="line2d_42">
      <g>
       <use style="stroke:#000000;stroke-width:0.5;" x="210.242593797" xlink:href="#m71dc5df494" y="245.065246026"/>
      </g>
     </g>
    </g>
    <g id="ytick_15">
     <g id="line2d_43">
      <g>
       <use style="stroke:#000000;stroke-width:0.5;" x="210.242593797" xlink:href="#m71dc5df494" y="227.650429118"/>
      </g>
     </g>
    </g>
    <g id="ytick_16">
     <g id="line2d_44">
      <g>
       <use style="stroke:#000000;stroke-width:0.5;" x="210.242593797" xlink:href="#m71dc5df494" y="210.235612211"/>
      </g>
     </g>
    </g>
    <g id="ytick_17">
     <g id="line2d_45">
      <g>
       <use style="stroke:#000000;stroke-width:0.5;" x="210.242593797" xlink:href="#m71dc5df494" y="192.820795303"/>
      </g>
     </g>
    </g>
    <g id="ytick_18">
     <g id="line2d_46">
      <g>
       <use style="stroke:#000000;stroke-width:0.5;" x="210.242593797" xlink:href="#m71dc5df494" y="175.405978396"/>
      </g>
     </g>
    </g>
    <g id="ytick_19">
     <g id="line2d_47">
      <g>
       <use style="stroke:#000000;stroke-width:0.5;" x="210.242593797" xlink:href="#m71dc5df494" y="157.991161488"/>
      </g>
     </g>
    </g>
    <g id="ytick_20">
     <g id="line2d_48">
      <g>
       <use style="stroke:#000000;stroke-width:0.5;" x="210.242593797" xlink:href="#m71dc5df494" y="140.57634458"/>
      </g>
     </g>
    </g>
    <g id="ytick_21">
     <g id="line2d_49">
      <g>
       <use style="stroke:#000000;stroke-width:0.5;" x="210.242593797" xlink:href="#m71dc5df494" y="123.161527673"/>
      </g>
     </g>
    </g>
    <g id="ytick_22">
     <g id="line2d_50">
      <g>
       <use style="stroke:#000000;stroke-width:0.5;" x="210.242593797" xlink:href="#m71dc5df494" y="105.746710765"/>
      </g>
     </g>
    </g>
    <g id="ytick_23">
     <g id="line2d_51">
      <g>
       <use style="stroke:#000000;stroke-width:0.5;" x="210.242593797" xlink:href="#m71dc5df494" y="88.3318938578"/>
      </g>
     </g>
    </g>
    <g id="ytick_24">
     <g id="line2d_52">
      <g>
       <use style="stroke:#000000;stroke-width:0.5;" x="210.242593797" xlink:href="#m71dc5df494" y="70.9170769503"/>
      </g>
     </g>
    </g>
    <g id="ytick_25">
     <g id="line2d_53">
      <g>
       <use style="stroke:#000000;stroke-width:0.5;" x="210.242593797" xlink:href="#m71dc5df494" y="53.5022600427"/>
      </g>
     </g>
    </g>
    <g id="ytick_26">
     <g id="line2d_54">
      <g>
       <use style="stroke:#000000;stroke-width:0.5;" x="210.242593797" xlink:href="#m71dc5df494" y="36.0874431352"/>
      </g>
     </g>
    </g>
    <g id="ytick_27">
     <g id="line2d_55">
      <g>
       <use style="stroke:#000000;stroke-width:0.5;" x="210.242593797" xlink:href="#m71dc5df494" y="18.6726262276"/>
      </g>
     </g>
    </g>
   </g>
  </g>
 </g>
 <defs>
  <clipPath id="p288b36b8bc">
   <rect height="406.08" width="406.070783245" x="7.2" y="7.2"/>
  </clipPath>
 </defs>
</svg>
