<?xml version="1.0" encoding="utf-8" standalone="no"?>
<!DOCTYPE svg PUBLIC "-//W3C//DTD SVG 1.1//EN"
  "http://www.w3.org/Graphics/SVG/1.1/DTD/svg11.dtd">
<!-- Created with matplotlib (http://matplotlib.org/) -->
<svg height="420pt" version="1.1" viewBox="0 0 562 420" width="562pt" xmlns="http://www.w3.org/2000/svg" xmlns:xlink="http://www.w3.org/1999/xlink">
 <defs>
  <style type="text/css">
*{stroke-linecap:butt;stroke-linejoin:round;stroke-miterlimit:100000;}
  </style>
 </defs>
 <g id="figure_1">
  <g id="patch_1">
   <path d="M 0 420.48 
L 562.179826 420.48 
L 562.179826 0 
L 0 0 
z
" style="fill:#ffffff;"/>
  </g>
  <g id="axes_1">
   <g id="patch_2">
    <path d="M 7.2 413.28 
L 554.979826 413.28 
L 554.979826 7.2 
L 7.2 7.2 
z
" style="fill:#ffffff;"/>
   </g>
   <g id="line2d_1">
    <path clip-path="url(#pc71cde0acf)" d="M 21.6136 -1 
L 22.316263 31.295631 
L 23.109726 57.594673 
L 23.981276 78.76436 
L 24.840222 94.53059 
L 25.801093 108.171741 
L 26.773884 119.011374 
L 27.746676 127.729529 
L 28.959281 136.462056 
L 30.176938 143.498843 
L 31.394595 149.263224 
L 32.839782 154.877385 
L 34.178368 159.177888 
L 35.592789 163.002683 
L 37.007209 166.247815 
L 38.522213 169.214716 
L 40.287787 172.145746 
L 41.611967 174.043386 
L 43.860667 176.795265 
L 45.938191 178.915497 
L 47.981442 180.687306 
L 50.538479 182.553995 
L 52.414432 183.720511 
L 55.129194 185.16023 
L 57.985924 186.413409 
L 61.507587 187.659509 
L 64.604114 188.531479 
L 68.888924 189.454329 
L 72.137816 189.967094 
L 77.583053 190.515842 
L 82.855866 190.714064 
L 87.653155 190.624062 
L 91.700281 190.344084 
L 96.584536 189.736937 
L 99.775585 189.161572 
L 104.023113 188.138065 
L 107.158608 187.15802 
L 109.816608 186.14656 
L 112.751918 184.796647 
L 115.182435 183.454257 
L 117.691379 181.805441 
L 120.425387 179.627412 
L 122.268153 177.878312 
L 124.110919 175.846727 
L 125.831184 173.637749 
L 127.50489 171.130594 
L 128.7541 168.977965 
L 130.482369 165.506515 
L 131.731548 162.555994 
L 133.086836 158.825179 
L 134.442123 154.397673 
L 135.75525 149.247952 
L 136.849522 144.116598 
L 137.943795 137.988748 
L 138.9219 131.413548 
L 140.032123 122.268545 
L 141.078842 111.393177 
L 142.038335 98.690908 
L 142.866978 84.705886 
L 143.676927 67.112589 
L 144.40588 46.393637 
L 145.099088 20.175896 
L 145.532593 -1 
L 145.532593 -1 
" style="fill:none;stroke:#0000ff;stroke-linecap:square;"/>
   </g>
   <g id="line2d_2">
    <path clip-path="url(#pc71cde0acf)" d="M 149.341302 -11352.752585 
M 149.398986 -1 
L 149.401133 421.48 
" style="fill:none;stroke:#cccccc;stroke-dasharray:6.000000,6.000000;stroke-dashoffset:0.0;"/>
   </g>
   <g id="line2d_3">
    <path clip-path="url(#pc71cde0acf)" d="M 153.291605 421.48 
L 153.924268 391.943029 
L 154.698911 365.43119 
L 155.551019 344.013762 
L 156.423316 327.498179 
L 157.345647 314.002027 
L 158.384713 302.139427 
L 159.42378 292.756438 
L 160.59182 284.309747 
L 161.780141 277.372063 
L 162.968463 271.667844 
L 164.238943 266.598195 
L 165.518235 262.318678 
L 166.810412 258.651362 
L 168.141243 255.419611 
L 169.521285 252.536709 
L 170.667042 250.440021 
L 172.194718 247.989123 
L 174.051403 245.443816 
L 175.525944 243.698689 
L 177.398216 241.770525 
L 179.270489 240.108826 
L 181.660911 238.302364 
L 184.275219 236.653754 
L 186.505051 235.466989 
L 189.135802 234.280348 
L 192.465206 233.051646 
L 196.294926 231.945257 
L 199.551787 231.217426 
L 204.326958 230.445446 
L 207.532452 230.098846 
L 211.861408 229.82709 
L 215.394909 229.763192 
L 219.698111 229.873483 
L 223.406863 230.1386 
L 227.536706 230.632862 
L 232.266589 231.490225 
L 236.198986 232.483765 
L 239.777119 233.659354 
L 242.891326 234.942417 
L 245.153467 236.059763 
L 248.086581 237.794718 
L 250.519226 239.536636 
L 251.974165 240.739306 
L 254.315678 242.984759 
L 256.423206 245.409357 
L 258.332979 248.027494 
L 259.95488 250.648316 
L 261.789078 254.17324 
L 263.317576 257.692492 
L 264.846075 261.89933 
L 266.023395 265.739801 
L 267.430792 271.22214 
L 268.695435 277.233216 
L 269.694182 282.939697 
L 270.692928 289.758204 
L 271.816518 299.205421 
L 272.735066 308.834429 
L 273.618061 320.339524 
L 274.501055 334.947075 
L 275.319877 352.507317 
L 276.106612 374.835369 
L 276.805932 401.586259 
L 277.210137 421.48 
L 277.210137 421.48 
" style="fill:none;stroke:#0000ff;stroke-linecap:square;"/>
   </g>
   <g id="line2d_4">
    <path clip-path="url(#pc71cde0acf)" d="M 281.063161 30798.346581 
M 281.13511 421.48 
L 281.136111 -1 
" style="fill:none;stroke:#cccccc;stroke-dasharray:6.000000,6.000000;stroke-dashoffset:0.0;"/>
   </g>
   <g id="line2d_5">
    <path clip-path="url(#pc71cde0acf)" d="M 284.969774 -1 
L 285.658811 30.78316 
L 286.436959 56.786841 
L 287.209978 76.056419 
L 288.084088 92.6983 
L 289.067462 107.043048 
L 290.050836 118.222218 
L 291.008944 126.967214 
L 292.038416 134.642683 
L 293.273783 142.122403 
L 294.605007 148.631028 
L 295.718744 153.150704 
L 296.91933 157.29567 
L 298.520112 161.911975 
L 299.749725 164.903758 
L 301.372165 168.275886 
L 302.550643 170.3916 
L 304.121946 172.858288 
L 305.647634 174.932964 
L 307.385289 176.981446 
L 309.786358 179.368488 
L 311.776601 181.033689 
L 314.297078 182.817781 
L 316.891379 184.347937 
L 319.432688 185.603139 
L 322.809549 186.969203 
L 325.32557 187.801965 
L 328.800112 188.736756 
L 332.08209 189.42468 
L 337.007656 190.156944 
L 340.804151 190.506623 
L 345.243775 190.701136 
L 349.681394 190.674749 
L 353.091274 190.503998 
L 358.241477 189.983598 
L 363.396358 189.106746 
L 367.921439 187.983288 
L 371.139028 186.936363 
L 374.669881 185.491412 
L 377.59317 184.003177 
L 379.595525 182.795209 
L 381.923306 181.155288 
L 384.116321 179.327809 
L 385.849146 177.646221 
L 388.011585 175.182683 
L 390.056729 172.383773 
L 391.529001 170.011959 
L 393.408257 166.430327 
L 395.036188 162.685015 
L 396.541047 158.528893 
L 397.960602 153.809905 
L 399.283486 148.495104 
L 400.416079 143.021435 
L 401.548671 136.423748 
L 402.662065 128.476233 
L 403.589892 120.363628 
L 404.632268 109.021976 
L 405.548654 96.325956 
L 406.350492 82.225476 
L 407.156712 63.966604 
L 407.828561 44.181717 
L 408.500411 18.150394 
L 408.887976 -1 
L 408.887976 -1 
" style="fill:none;stroke:#0000ff;stroke-linecap:square;"/>
   </g>
   <g id="line2d_6">
    <path clip-path="url(#pc71cde0acf)" d="M 412.691796 -10562.568374 
M 412.726615 -1 
L 412.728008 421.48 
" style="fill:none;stroke:#cccccc;stroke-dasharray:6.000000,6.000000;stroke-dashoffset:0.0;"/>
   </g>
   <g id="line2d_7">
    <path clip-path="url(#pc71cde0acf)" d="M 416.647194 421.48 
L 417.29508 391.338265 
L 418.06528 365.119886 
L 418.905498 344.039871 
L 419.802862 327.104207 
L 420.711655 313.868807 
L 421.668124 302.874309 
L 422.663827 293.702369 
L 423.858672 284.888939 
L 425.026902 277.951213 
L 426.141904 272.475714 
L 427.628573 266.474887 
L 429.021865 261.868341 
L 430.415156 258.008137 
L 431.970624 254.381348 
L 433.850446 250.740002 
L 435.247385 248.447229 
L 436.644325 246.438193 
L 438.177696 244.504405 
L 440.496101 242.019011 
L 442.949479 239.845298 
L 445.378694 238.055294 
L 447.876497 236.513911 
L 450.655043 235.086155 
L 453.711339 233.797754 
L 456.499565 232.833519 
L 460.541559 231.728214 
L 463.818356 231.044616 
L 468.770703 230.313255 
L 473.815321 229.891334 
L 478.989268 229.76389 
L 484.092556 229.931498 
L 487.537725 230.214816 
L 492.394577 230.869199 
L 496.290366 231.639554 
L 500.268778 232.695914 
L 502.591436 233.462568 
L 506.165777 234.905404 
L 509.471955 236.590541 
L 511.612669 237.906977 
L 514.311961 239.884086 
L 516.374088 241.68936 
L 518.288365 243.650601 
L 519.792191 245.426088 
L 521.525258 247.785212 
L 522.99699 250.108917 
L 524.468723 252.795152 
L 525.977082 256.014567 
L 527.30206 259.329417 
L 528.535347 262.928283 
L 529.768634 267.149743 
L 530.927267 271.83473 
L 532.085901 277.416213 
L 533.234364 284.106699 
L 534.218762 291.054164 
L 535.268766 300.126309 
L 536.272816 311.001958 
L 537.152164 323.004614 
L 538.027132 338.23071 
L 538.792729 355.43761 
L 539.558326 378.054331 
L 540.291503 407.548491 
L 540.566196 421.48 
L 540.566196 421.48 
" style="fill:none;stroke:#0000ff;stroke-linecap:square;"/>
   </g>
   <g id="patch_3">
    <path d="M 7.2 210.24 
L 554.979826 210.24 
" style="fill:none;stroke:#000000;stroke-linecap:square;stroke-linejoin:miter;stroke-width:0.8;"/>
   </g>
   <g id="patch_4">
    <path d="M 281.089913 413.28 
L 281.089913 7.2 
" style="fill:none;stroke:#000000;stroke-linecap:square;stroke-linejoin:miter;stroke-width:0.8;"/>
   </g>
   <g id="matplotlib.axis_1">
    <g id="xtick_1">
     <g id="line2d_8">
      <defs>
       <path d="M 0 0 
L 0 -4 
" id="mc1d537fea3" style="stroke:#000000;stroke-width:0.5;"/>
      </defs>
      <g>
       <use style="stroke:#000000;stroke-width:0.5;" x="17.7342274299" xlink:href="#mc1d537fea3" y="210.24"/>
      </g>
     </g>
     <g id="text_1">
      <!-- $-2 \, \pi$ -->
      <defs>
       <path d="M 4.984375 0 
L 4.984375 2.6875 
Q 4.984375 2.9375 5.171875 3.21875 
L 20.703125 20.40625 
Q 24.21875 24.21875 26.40625 26.796875 
Q 28.609375 29.390625 30.75 32.765625 
Q 32.90625 36.140625 34.15625 39.625 
Q 35.40625 43.109375 35.40625 47.015625 
Q 35.40625 51.125 33.890625 54.859375 
Q 32.375 58.59375 29.375 60.84375 
Q 26.375 63.09375 22.125 63.09375 
Q 17.78125 63.09375 14.3125 60.46875 
Q 10.84375 57.859375 9.421875 53.71875 
Q 9.8125 53.8125 10.5 53.8125 
Q 12.75 53.8125 14.328125 52.296875 
Q 15.921875 50.78125 15.921875 48.390625 
Q 15.921875 46.09375 14.328125 44.5 
Q 12.75 42.921875 10.5 42.921875 
Q 8.15625 42.921875 6.5625 44.546875 
Q 4.984375 46.1875 4.984375 48.390625 
Q 4.984375 52.15625 6.390625 55.4375 
Q 7.8125 58.734375 10.46875 61.296875 
Q 13.140625 63.875 16.484375 65.234375 
Q 19.828125 66.609375 23.578125 66.609375 
Q 29.296875 66.609375 34.21875 64.1875 
Q 39.15625 61.765625 42.03125 57.34375 
Q 44.921875 52.9375 44.921875 47.015625 
Q 44.921875 42.671875 43.015625 38.765625 
Q 41.109375 34.859375 38.125 31.65625 
Q 35.15625 28.46875 30.515625 24.40625 
Q 25.875 20.359375 24.421875 19 
L 13.09375 8.109375 
L 22.703125 8.109375 
Q 29.78125 8.109375 34.546875 8.21875 
Q 39.3125 8.34375 39.59375 8.59375 
Q 40.765625 9.859375 42 17.828125 
L 44.921875 17.828125 
L 42.09375 0 
z
" id="Cmr10-32"/>
       <path d="M 10.203125 23 
Q 9.375 23 8.828125 23.625 
Q 8.296875 24.265625 8.296875 25 
Q 8.296875 25.734375 8.828125 26.359375 
Q 9.375 27 10.203125 27 
L 67.578125 27 
Q 68.359375 27 68.875 26.359375 
Q 69.390625 25.734375 69.390625 25 
Q 69.390625 24.265625 68.875 23.625 
Q 68.359375 23 67.578125 23 
z
" id="Cmsy10-a1"/>
       <path d="M 10.109375 1.703125 
Q 10.109375 2.25 10.5 3.328125 
Q 13.28125 9.125 15.6875 14.71875 
Q 18.109375 20.3125 20.03125 25.609375 
Q 21.96875 30.90625 23.578125 36.921875 
L 17.1875 36.921875 
Q 13.53125 36.921875 10.34375 34.625 
Q 7.171875 32.328125 5.078125 28.8125 
Q 4.890625 28.421875 4.5 28.421875 
L 3.328125 28.421875 
Q 2.390625 28.421875 2.390625 29.390625 
Q 2.390625 29.59375 2.59375 29.984375 
Q 5.859375 35.546875 9.59375 39.328125 
Q 13.328125 43.109375 18.015625 43.109375 
L 54.296875 43.109375 
Q 55.328125 43.109375 56.046875 42.421875 
Q 56.78125 41.75 56.78125 40.578125 
Q 56.78125 39.109375 55.734375 38.015625 
Q 54.6875 36.921875 53.21875 36.921875 
L 40.484375 36.921875 
Q 38.875 29.046875 38.71875 21.578125 
Q 38.71875 11.96875 42.09375 4.203125 
Q 42.390625 3.609375 42.390625 2.984375 
Q 42.390625 1.90625 41.75 0.96875 
Q 41.109375 0.046875 40.109375 -0.53125 
Q 39.109375 -1.125 37.984375 -1.125 
Q 35.359375 -1.125 34.375 3.171875 
Q 33.40625 7.46875 33.40625 11.53125 
Q 33.40625 17.234375 34.375 22.53125 
Q 35.359375 27.828125 37.5 36.921875 
L 26.609375 36.921875 
Q 18.703125 4.890625 17.09375 1.609375 
Q 15.671875 -1.125 13.1875 -1.125 
Q 11.96875 -1.125 11.03125 -0.3125 
Q 10.109375 0.484375 10.109375 1.703125 
" id="Cmmi10-bc"/>
      </defs>
      <g transform="translate(7.73422742987 221.8384375)scale(0.1 -0.1)">
       <use transform="translate(0.0 0.390625)" xlink:href="#Cmsy10-a1"/>
       <use transform="translate(77.685546875 0.390625)" xlink:href="#Cmr10-32"/>
       <use transform="translate(142.318000977 0.390625)" xlink:href="#Cmmi10-bc"/>
      </g>
     </g>
    </g>
    <g id="xtick_2">
     <g id="line2d_9">
      <g>
       <use style="stroke:#000000;stroke-width:0.5;" x="83.5731488666" xlink:href="#mc1d537fea3" y="210.24"/>
      </g>
     </g>
     <g id="text_2">
      <!-- $-\frac{3}{2} \, \pi$ -->
      <defs>
       <path d="M 9.515625 7.71875 
Q 11.859375 4.296875 15.8125 2.640625 
Q 19.78125 0.984375 24.3125 0.984375 
Q 30.125 0.984375 32.5625 5.9375 
Q 35.015625 10.890625 35.015625 17.1875 
Q 35.015625 20.015625 34.5 22.84375 
Q 33.984375 25.6875 32.765625 28.125 
Q 31.546875 30.5625 29.421875 32.03125 
Q 27.296875 33.5 24.21875 33.5 
L 17.578125 33.5 
Q 16.703125 33.5 16.703125 34.421875 
L 16.703125 35.296875 
Q 16.703125 36.078125 17.578125 36.078125 
L 23.09375 36.53125 
Q 26.609375 36.53125 28.921875 39.15625 
Q 31.25 41.796875 32.328125 45.578125 
Q 33.40625 49.359375 33.40625 52.78125 
Q 33.40625 57.5625 31.15625 60.640625 
Q 28.90625 63.71875 24.3125 63.71875 
Q 20.515625 63.71875 17.046875 62.28125 
Q 13.578125 60.84375 11.53125 57.90625 
Q 11.71875 57.953125 11.859375 57.984375 
Q 12.015625 58.015625 12.203125 58.015625 
Q 14.453125 58.015625 15.96875 56.453125 
Q 17.484375 54.890625 17.484375 52.6875 
Q 17.484375 50.53125 15.96875 48.96875 
Q 14.453125 47.40625 12.203125 47.40625 
Q 10.015625 47.40625 8.453125 48.96875 
Q 6.890625 50.53125 6.890625 52.6875 
Q 6.890625 56.984375 9.46875 60.15625 
Q 12.0625 63.328125 16.140625 64.96875 
Q 20.21875 66.609375 24.3125 66.609375 
Q 27.34375 66.609375 30.703125 65.703125 
Q 34.078125 64.796875 36.8125 63.109375 
Q 39.546875 61.421875 41.28125 58.78125 
Q 43.015625 56.15625 43.015625 52.78125 
Q 43.015625 48.578125 41.140625 45.015625 
Q 39.265625 41.453125 35.984375 38.859375 
Q 32.71875 36.28125 28.8125 35.015625 
Q 33.15625 34.1875 37.0625 31.734375 
Q 40.96875 29.296875 43.328125 25.484375 
Q 45.703125 21.6875 45.703125 17.28125 
Q 45.703125 11.765625 42.671875 7.296875 
Q 39.65625 2.828125 34.71875 0.3125 
Q 29.78125 -2.203125 24.3125 -2.203125 
Q 19.625 -2.203125 14.90625 -0.40625 
Q 10.203125 1.375 7.203125 4.9375 
Q 4.203125 8.5 4.203125 13.484375 
Q 4.203125 15.96875 5.859375 17.625 
Q 7.515625 19.28125 10.015625 19.28125 
Q 11.625 19.28125 12.96875 18.53125 
Q 14.3125 17.78125 15.0625 16.40625 
Q 15.828125 15.046875 15.828125 13.484375 
Q 15.828125 11.03125 14.109375 9.375 
Q 12.40625 7.71875 10.015625 7.71875 
z
" id="Cmr10-33"/>
      </defs>
      <g transform="translate(73.7231488666 222.84)scale(0.1 -0.1)">
       <use transform="translate(0.0 0.33125)" xlink:href="#Cmsy10-a1"/>
       <use transform="translate(77.685546875 39.3734375)scale(0.7)" xlink:href="#Cmr10-33"/>
       <use transform="translate(77.685546875 -40.0453125)scale(0.7)" xlink:href="#Cmr10-32"/>
       <use transform="translate(139.818000977 0.33125)" xlink:href="#Cmmi10-bc"/>
       <path d="M 77.685547 12.83125 
L 77.685547 19.08125 
L 112.685547 19.08125 
L 112.685547 12.83125 
L 77.685547 12.83125 
z
"/>
      </g>
     </g>
    </g>
    <g id="xtick_3">
     <g id="line2d_10">
      <g>
       <use style="stroke:#000000;stroke-width:0.5;" x="149.412070303" xlink:href="#mc1d537fea3" y="210.24"/>
      </g>
     </g>
     <g id="text_3">
      <!-- $-\pi$ -->
      <g transform="translate(142.662070303 221.8384375)scale(0.1 -0.1)">
       <use transform="translate(0.0 0.890625)" xlink:href="#Cmsy10-a1"/>
       <use transform="translate(77.685546875 0.890625)" xlink:href="#Cmmi10-bc"/>
      </g>
     </g>
    </g>
    <g id="xtick_4">
     <g id="line2d_11">
      <g>
       <use style="stroke:#000000;stroke-width:0.5;" x="215.25099174" xlink:href="#mc1d537fea3" y="210.24"/>
      </g>
     </g>
     <g id="text_4">
      <!-- $-\frac{1}{2} \, \pi$ -->
      <defs>
       <path d="M 9.28125 0 
L 9.28125 3.515625 
Q 21.78125 3.515625 21.78125 6.6875 
L 21.78125 59.1875 
Q 16.609375 56.6875 8.6875 56.6875 
L 8.6875 60.203125 
Q 20.953125 60.203125 27.203125 66.609375 
L 28.609375 66.609375 
Q 28.953125 66.609375 29.265625 66.328125 
Q 29.59375 66.0625 29.59375 65.71875 
L 29.59375 6.6875 
Q 29.59375 3.515625 42.09375 3.515625 
L 42.09375 0 
z
" id="Cmr10-31"/>
      </defs>
      <g transform="translate(205.40099174 222.74)scale(0.1 -0.1)">
       <use transform="translate(0.0 0.8734375)" xlink:href="#Cmsy10-a1"/>
       <use transform="translate(77.685546875 38.3734375)scale(0.7)" xlink:href="#Cmr10-31"/>
       <use transform="translate(77.685546875 -39.503125)scale(0.7)" xlink:href="#Cmr10-32"/>
       <use transform="translate(139.818000977 0.8734375)" xlink:href="#Cmmi10-bc"/>
       <path d="M 77.685547 13.373437 
L 77.685547 19.623437 
L 112.685547 19.623437 
L 112.685547 13.373437 
L 77.685547 13.373437 
z
"/>
      </g>
     </g>
    </g>
    <g id="xtick_5">
     <g id="line2d_12">
      <g>
       <use style="stroke:#000000;stroke-width:0.5;" x="281.089913177" xlink:href="#mc1d537fea3" y="210.24"/>
      </g>
     </g>
    </g>
    <g id="xtick_6">
     <g id="line2d_13">
      <g>
       <use style="stroke:#000000;stroke-width:0.5;" x="346.928834613" xlink:href="#mc1d537fea3" y="210.24"/>
      </g>
     </g>
     <g id="text_5">
      <!-- $\frac{1}{2} \, \pi$ -->
      <g transform="translate(340.928834613 222.74)scale(0.1 -0.1)">
       <use transform="translate(0.0 38.3734375)scale(0.7)" xlink:href="#Cmr10-31"/>
       <use transform="translate(0.0 -39.503125)scale(0.7)" xlink:href="#Cmr10-32"/>
       <use transform="translate(62.1324541016 0.8734375)" xlink:href="#Cmmi10-bc"/>
       <path d="M 0 13.373437 
L 0 19.623437 
L 35 19.623437 
L 35 13.373437 
L 0 13.373437 
z
"/>
      </g>
     </g>
    </g>
    <g id="xtick_7">
     <g id="line2d_14">
      <g>
       <use style="stroke:#000000;stroke-width:0.5;" x="412.76775605" xlink:href="#mc1d537fea3" y="210.24"/>
      </g>
     </g>
     <g id="text_6">
      <!-- $\pi$ -->
      <g transform="translate(409.91775605 221.8384375)scale(0.1 -0.1)">
       <use transform="translate(0.0 0.890625)" xlink:href="#Cmmi10-bc"/>
      </g>
     </g>
    </g>
    <g id="xtick_8">
     <g id="line2d_15">
      <g>
       <use style="stroke:#000000;stroke-width:0.5;" x="478.606677487" xlink:href="#mc1d537fea3" y="210.24"/>
      </g>
     </g>
     <g id="text_7">
      <!-- $\frac{3}{2} \, \pi$ -->
      <g transform="translate(472.606677487 222.84)scale(0.1 -0.1)">
       <use transform="translate(0.0 39.3734375)scale(0.7)" xlink:href="#Cmr10-33"/>
       <use transform="translate(0.0 -40.0453125)scale(0.7)" xlink:href="#Cmr10-32"/>
       <use transform="translate(62.1324541016 0.33125)" xlink:href="#Cmmi10-bc"/>
       <path d="M 0 12.83125 
L 0 19.08125 
L 35 19.08125 
L 35 12.83125 
L 0 12.83125 
z
"/>
      </g>
     </g>
    </g>
    <g id="xtick_9">
     <g id="line2d_16">
      <g>
       <use style="stroke:#000000;stroke-width:0.5;" x="544.445598924" xlink:href="#mc1d537fea3" y="210.24"/>
      </g>
     </g>
     <g id="text_8">
      <!-- $2 \, \pi$ -->
      <g transform="translate(538.345598924 221.8384375)scale(0.1 -0.1)">
       <use transform="translate(0.0 0.390625)" xlink:href="#Cmr10-32"/>
       <use transform="translate(64.6324541016 0.390625)" xlink:href="#Cmmi10-bc"/>
      </g>
     </g>
    </g>
    <g id="xtick_10">
     <g id="line2d_17">
      <defs>
       <path d="M 0 0 
L 0 -2 
" id="ma8ee6c4ab4" style="stroke:#000000;stroke-width:0.5;"/>
      </defs>
      <g>
       <use style="stroke:#000000;stroke-width:0.5;" x="34.193957789" xlink:href="#ma8ee6c4ab4" y="210.24"/>
      </g>
     </g>
    </g>
    <g id="xtick_11">
     <g id="line2d_18">
      <g>
       <use style="stroke:#000000;stroke-width:0.5;" x="50.6536881482" xlink:href="#ma8ee6c4ab4" y="210.24"/>
      </g>
     </g>
    </g>
    <g id="xtick_12">
     <g id="line2d_19">
      <g>
       <use style="stroke:#000000;stroke-width:0.5;" x="67.1134185074" xlink:href="#ma8ee6c4ab4" y="210.24"/>
      </g>
     </g>
    </g>
    <g id="xtick_13">
     <g id="line2d_20">
      <g>
       <use style="stroke:#000000;stroke-width:0.5;" x="100.032879226" xlink:href="#ma8ee6c4ab4" y="210.24"/>
      </g>
     </g>
    </g>
    <g id="xtick_14">
     <g id="line2d_21">
      <g>
       <use style="stroke:#000000;stroke-width:0.5;" x="116.492609585" xlink:href="#ma8ee6c4ab4" y="210.24"/>
      </g>
     </g>
    </g>
    <g id="xtick_15">
     <g id="line2d_22">
      <g>
       <use style="stroke:#000000;stroke-width:0.5;" x="132.952339944" xlink:href="#ma8ee6c4ab4" y="210.24"/>
      </g>
     </g>
    </g>
    <g id="xtick_16">
     <g id="line2d_23">
      <g>
       <use style="stroke:#000000;stroke-width:0.5;" x="165.871800662" xlink:href="#ma8ee6c4ab4" y="210.24"/>
      </g>
     </g>
    </g>
    <g id="xtick_17">
     <g id="line2d_24">
      <g>
       <use style="stroke:#000000;stroke-width:0.5;" x="182.331531022" xlink:href="#ma8ee6c4ab4" y="210.24"/>
      </g>
     </g>
    </g>
    <g id="xtick_18">
     <g id="line2d_25">
      <g>
       <use style="stroke:#000000;stroke-width:0.5;" x="198.791261381" xlink:href="#ma8ee6c4ab4" y="210.24"/>
      </g>
     </g>
    </g>
    <g id="xtick_19">
     <g id="line2d_26">
      <g>
       <use style="stroke:#000000;stroke-width:0.5;" x="231.710722099" xlink:href="#ma8ee6c4ab4" y="210.24"/>
      </g>
     </g>
    </g>
    <g id="xtick_20">
     <g id="line2d_27">
      <g>
       <use style="stroke:#000000;stroke-width:0.5;" x="248.170452458" xlink:href="#ma8ee6c4ab4" y="210.24"/>
      </g>
     </g>
    </g>
    <g id="xtick_21">
     <g id="line2d_28">
      <g>
       <use style="stroke:#000000;stroke-width:0.5;" x="264.630182818" xlink:href="#ma8ee6c4ab4" y="210.24"/>
      </g>
     </g>
    </g>
    <g id="xtick_22">
     <g id="line2d_29">
      <g>
       <use style="stroke:#000000;stroke-width:0.5;" x="297.549643536" xlink:href="#ma8ee6c4ab4" y="210.24"/>
      </g>
     </g>
    </g>
    <g id="xtick_23">
     <g id="line2d_30">
      <g>
       <use style="stroke:#000000;stroke-width:0.5;" x="314.009373895" xlink:href="#ma8ee6c4ab4" y="210.24"/>
      </g>
     </g>
    </g>
    <g id="xtick_24">
     <g id="line2d_31">
      <g>
       <use style="stroke:#000000;stroke-width:0.5;" x="330.469104254" xlink:href="#ma8ee6c4ab4" y="210.24"/>
      </g>
     </g>
    </g>
    <g id="xtick_25">
     <g id="line2d_32">
      <g>
       <use style="stroke:#000000;stroke-width:0.5;" x="363.388564973" xlink:href="#ma8ee6c4ab4" y="210.24"/>
      </g>
     </g>
    </g>
    <g id="xtick_26">
     <g id="line2d_33">
      <g>
       <use style="stroke:#000000;stroke-width:0.5;" x="379.848295332" xlink:href="#ma8ee6c4ab4" y="210.24"/>
      </g>
     </g>
    </g>
    <g id="xtick_27">
     <g id="line2d_34">
      <g>
       <use style="stroke:#000000;stroke-width:0.5;" x="396.308025691" xlink:href="#ma8ee6c4ab4" y="210.24"/>
      </g>
     </g>
    </g>
    <g id="xtick_28">
     <g id="line2d_35">
      <g>
       <use style="stroke:#000000;stroke-width:0.5;" x="429.227486409" xlink:href="#ma8ee6c4ab4" y="210.24"/>
      </g>
     </g>
    </g>
    <g id="xtick_29">
     <g id="line2d_36">
      <g>
       <use style="stroke:#000000;stroke-width:0.5;" x="445.687216768" xlink:href="#ma8ee6c4ab4" y="210.24"/>
      </g>
     </g>
    </g>
    <g id="xtick_30">
     <g id="line2d_37">
      <g>
       <use style="stroke:#000000;stroke-width:0.5;" x="462.146947128" xlink:href="#ma8ee6c4ab4" y="210.24"/>
      </g>
     </g>
    </g>
    <g id="xtick_31">
     <g id="line2d_38">
      <g>
       <use style="stroke:#000000;stroke-width:0.5;" x="495.066407846" xlink:href="#ma8ee6c4ab4" y="210.24"/>
      </g>
     </g>
    </g>
    <g id="xtick_32">
     <g id="line2d_39">
      <g>
       <use style="stroke:#000000;stroke-width:0.5;" x="511.526138205" xlink:href="#ma8ee6c4ab4" y="210.24"/>
      </g>
     </g>
    </g>
    <g id="xtick_33">
     <g id="line2d_40">
      <g>
       <use style="stroke:#000000;stroke-width:0.5;" x="527.985868564" xlink:href="#ma8ee6c4ab4" y="210.24"/>
      </g>
     </g>
    </g>
   </g>
   <g id="matplotlib.axis_2">
    <g id="ytick_1">
     <g id="line2d_41">
      <defs>
       <path d="M 0 0 
L 4 0 
" id="ma6cb27c1a5" style="stroke:#000000;stroke-width:0.5;"/>
      </defs>
      <g>
       <use style="stroke:#000000;stroke-width:0.5;" x="281.089913177" xlink:href="#ma6cb27c1a5" y="405.470769231"/>
      </g>
     </g>
     <g id="text_9">
      <!-- $-10.0$ -->
      <defs>
       <path d="M 25 -2.203125 
Q 12.75 -2.203125 8.328125 7.875 
Q 3.90625 17.96875 3.90625 31.890625 
Q 3.90625 40.578125 5.484375 48.234375 
Q 7.078125 55.90625 11.78125 61.25 
Q 16.5 66.609375 25 66.609375 
Q 31.59375 66.609375 35.78125 63.375 
Q 39.984375 60.15625 42.1875 55.046875 
Q 44.390625 49.953125 45.1875 44.109375 
Q 46 38.28125 46 31.890625 
Q 46 23.296875 44.40625 15.796875 
Q 42.828125 8.296875 38.1875 3.046875 
Q 33.546875 -2.203125 25 -2.203125 
M 25 0.390625 
Q 30.5625 0.390625 33.296875 6.09375 
Q 36.03125 11.8125 36.671875 18.75 
Q 37.3125 25.6875 37.3125 33.5 
Q 37.3125 41.015625 36.671875 47.359375 
Q 36.03125 53.71875 33.3125 58.859375 
Q 30.609375 64.015625 25 64.015625 
Q 19.34375 64.015625 16.609375 58.828125 
Q 13.875 53.65625 13.234375 47.328125 
Q 12.59375 41.015625 12.59375 33.5 
Q 12.59375 27.9375 12.859375 23 
Q 13.140625 18.0625 14.3125 12.8125 
Q 15.484375 7.5625 18.09375 3.96875 
Q 20.703125 0.390625 25 0.390625 
" id="Cmr10-30"/>
       <path d="M 8.40625 5.515625 
Q 8.40625 7.765625 10.0625 9.375 
Q 11.71875 10.984375 13.921875 10.984375 
Q 15.28125 10.984375 16.59375 10.25 
Q 17.921875 9.515625 18.65625 8.203125 
Q 19.390625 6.890625 19.390625 5.515625 
Q 19.390625 3.328125 17.765625 1.65625 
Q 16.15625 0 13.921875 0 
Q 11.71875 0 10.0625 1.65625 
Q 8.40625 3.328125 8.40625 5.515625 
" id="Cmmi10-3a"/>
      </defs>
      <g transform="translate(249.789913177 408.230144231)scale(0.1 -0.1)">
       <use transform="translate(0.0 0.390625)" xlink:href="#Cmsy10-a1"/>
       <use transform="translate(77.685546875 0.390625)" xlink:href="#Cmr10-31"/>
       <use transform="translate(127.685546875 0.390625)" xlink:href="#Cmr10-30"/>
       <use transform="translate(177.685546875 0.390625)" xlink:href="#Cmmi10-3a"/>
       <use transform="translate(222.9296875 0.390625)" xlink:href="#Cmr10-30"/>
      </g>
     </g>
    </g>
    <g id="ytick_2">
     <g id="line2d_42">
      <g>
       <use style="stroke:#000000;stroke-width:0.5;" x="281.089913177" xlink:href="#ma6cb27c1a5" y="307.855384615"/>
      </g>
     </g>
     <g id="text_10">
      <!-- $-5.0$ -->
      <defs>
       <path d="M 8.6875 11.375 
Q 9.71875 8.453125 11.84375 6.046875 
Q 13.96875 3.65625 16.875 2.3125 
Q 19.78125 0.984375 22.90625 0.984375 
Q 30.125 0.984375 32.859375 6.59375 
Q 35.59375 12.203125 35.59375 20.21875 
Q 35.59375 23.6875 35.46875 26.046875 
Q 35.359375 28.421875 34.8125 30.609375 
Q 33.890625 34.125 31.5625 36.765625 
Q 29.25 39.40625 25.875 39.40625 
Q 22.515625 39.40625 20.09375 38.375 
Q 17.671875 37.359375 16.15625 35.984375 
Q 14.65625 34.625 13.484375 33.109375 
Q 12.3125 31.59375 12.015625 31.5 
L 10.890625 31.5 
Q 10.640625 31.5 10.265625 31.8125 
Q 9.90625 32.125 9.90625 32.421875 
L 9.90625 65.828125 
Q 9.90625 66.0625 10.21875 66.328125 
Q 10.546875 66.609375 10.890625 66.609375 
L 11.1875 66.609375 
Q 17.921875 63.375 25.484375 63.375 
Q 32.90625 63.375 39.796875 66.609375 
L 40.09375 66.609375 
Q 40.4375 66.609375 40.71875 66.359375 
Q 41.015625 66.109375 41.015625 65.828125 
L 41.015625 64.890625 
Q 41.015625 64.40625 40.828125 64.40625 
Q 37.40625 59.859375 32.25 57.3125 
Q 27.09375 54.78125 21.578125 54.78125 
Q 17.578125 54.78125 13.375 55.90625 
L 13.375 37.015625 
Q 16.703125 39.703125 19.3125 40.84375 
Q 21.921875 42 25.984375 42 
Q 31.5 42 35.859375 38.8125 
Q 40.234375 35.640625 42.578125 30.53125 
Q 44.921875 25.4375 44.921875 20.125 
Q 44.921875 14.109375 41.96875 8.984375 
Q 39.015625 3.859375 33.9375 0.828125 
Q 28.859375 -2.203125 22.90625 -2.203125 
Q 17.96875 -2.203125 13.84375 0.328125 
Q 9.71875 2.875 7.34375 7.171875 
Q 4.984375 11.46875 4.984375 16.3125 
Q 4.984375 18.5625 6.4375 19.96875 
Q 7.90625 21.390625 10.109375 21.390625 
Q 12.3125 21.390625 13.796875 19.9375 
Q 15.28125 18.5 15.28125 16.3125 
Q 15.28125 14.15625 13.796875 12.671875 
Q 12.3125 11.1875 10.109375 11.1875 
Q 9.765625 11.1875 9.328125 11.25 
Q 8.890625 11.328125 8.6875 11.375 
" id="Cmr10-35"/>
      </defs>
      <g transform="translate(254.789913177 310.614759615)scale(0.1 -0.1)">
       <use transform="translate(0.0 0.390625)" xlink:href="#Cmsy10-a1"/>
       <use transform="translate(77.685546875 0.390625)" xlink:href="#Cmr10-35"/>
       <use transform="translate(127.685546875 0.390625)" xlink:href="#Cmmi10-3a"/>
       <use transform="translate(172.9296875 0.390625)" xlink:href="#Cmr10-30"/>
      </g>
     </g>
    </g>
    <g id="ytick_3">
     <g id="line2d_43">
      <g>
       <use style="stroke:#000000;stroke-width:0.5;" x="281.089913177" xlink:href="#ma6cb27c1a5" y="210.24"/>
      </g>
     </g>
    </g>
    <g id="ytick_4">
     <g id="line2d_44">
      <g>
       <use style="stroke:#000000;stroke-width:0.5;" x="281.089913177" xlink:href="#ma6cb27c1a5" y="112.624615385"/>
      </g>
     </g>
     <g id="text_11">
      <!-- $5.0$ -->
      <g transform="translate(262.489913177 115.383990385)scale(0.1 -0.1)">
       <use transform="translate(0.0 0.390625)" xlink:href="#Cmr10-35"/>
       <use transform="translate(50.0 0.390625)" xlink:href="#Cmmi10-3a"/>
       <use transform="translate(95.244140625 0.390625)" xlink:href="#Cmr10-30"/>
      </g>
     </g>
    </g>
    <g id="ytick_5">
     <g id="line2d_45">
      <g>
       <use style="stroke:#000000;stroke-width:0.5;" x="281.089913177" xlink:href="#ma6cb27c1a5" y="15.0092307692"/>
      </g>
     </g>
     <g id="text_12">
      <!-- $10.0$ -->
      <g transform="translate(257.489913177 17.7686057692)scale(0.1 -0.1)">
       <use transform="translate(0.0 0.390625)" xlink:href="#Cmr10-31"/>
       <use transform="translate(50.0 0.390625)" xlink:href="#Cmr10-30"/>
       <use transform="translate(100.0 0.390625)" xlink:href="#Cmmi10-3a"/>
       <use transform="translate(145.244140625 0.390625)" xlink:href="#Cmr10-30"/>
      </g>
     </g>
    </g>
    <g id="ytick_6">
     <g id="line2d_46">
      <defs>
       <path d="M 0 0 
L 2 0 
" id="mf1395fade9" style="stroke:#000000;stroke-width:0.5;"/>
      </defs>
      <g>
       <use style="stroke:#000000;stroke-width:0.5;" x="281.089913177" xlink:href="#mf1395fade9" y="385.947692308"/>
      </g>
     </g>
    </g>
    <g id="ytick_7">
     <g id="line2d_47">
      <g>
       <use style="stroke:#000000;stroke-width:0.5;" x="281.089913177" xlink:href="#mf1395fade9" y="366.424615385"/>
      </g>
     </g>
    </g>
    <g id="ytick_8">
     <g id="line2d_48">
      <g>
       <use style="stroke:#000000;stroke-width:0.5;" x="281.089913177" xlink:href="#mf1395fade9" y="346.901538462"/>
      </g>
     </g>
    </g>
    <g id="ytick_9">
     <g id="line2d_49">
      <g>
       <use style="stroke:#000000;stroke-width:0.5;" x="281.089913177" xlink:href="#mf1395fade9" y="327.378461538"/>
      </g>
     </g>
    </g>
    <g id="ytick_10">
     <g id="line2d_50">
      <g>
       <use style="stroke:#000000;stroke-width:0.5;" x="281.089913177" xlink:href="#mf1395fade9" y="288.332307692"/>
      </g>
     </g>
    </g>
    <g id="ytick_11">
     <g id="line2d_51">
      <g>
       <use style="stroke:#000000;stroke-width:0.5;" x="281.089913177" xlink:href="#mf1395fade9" y="268.809230769"/>
      </g>
     </g>
    </g>
    <g id="ytick_12">
     <g id="line2d_52">
      <g>
       <use style="stroke:#000000;stroke-width:0.5;" x="281.089913177" xlink:href="#mf1395fade9" y="249.286153846"/>
      </g>
     </g>
    </g>
    <g id="ytick_13">
     <g id="line2d_53">
      <g>
       <use style="stroke:#000000;stroke-width:0.5;" x="281.089913177" xlink:href="#mf1395fade9" y="229.763076923"/>
      </g>
     </g>
    </g>
    <g id="ytick_14">
     <g id="line2d_54">
      <g>
       <use style="stroke:#000000;stroke-width:0.5;" x="281.089913177" xlink:href="#mf1395fade9" y="190.716923077"/>
      </g>
     </g>
    </g>
    <g id="ytick_15">
     <g id="line2d_55">
      <g>
       <use style="stroke:#000000;stroke-width:0.5;" x="281.089913177" xlink:href="#mf1395fade9" y="171.193846154"/>
      </g>
     </g>
    </g>
    <g id="ytick_16">
     <g id="line2d_56">
      <g>
       <use style="stroke:#000000;stroke-width:0.5;" x="281.089913177" xlink:href="#mf1395fade9" y="151.670769231"/>
      </g>
     </g>
    </g>
    <g id="ytick_17">
     <g id="line2d_57">
      <g>
       <use style="stroke:#000000;stroke-width:0.5;" x="281.089913177" xlink:href="#mf1395fade9" y="132.147692308"/>
      </g>
     </g>
    </g>
    <g id="ytick_18">
     <g id="line2d_58">
      <g>
       <use style="stroke:#000000;stroke-width:0.5;" x="281.089913177" xlink:href="#mf1395fade9" y="93.1015384615"/>
      </g>
     </g>
    </g>
    <g id="ytick_19">
     <g id="line2d_59">
      <g>
       <use style="stroke:#000000;stroke-width:0.5;" x="281.089913177" xlink:href="#mf1395fade9" y="73.5784615385"/>
      </g>
     </g>
    </g>
    <g id="ytick_20">
     <g id="line2d_60">
      <g>
       <use style="stroke:#000000;stroke-width:0.5;" x="281.089913177" xlink:href="#mf1395fade9" y="54.0553846154"/>
      </g>
     </g>
    </g>
    <g id="ytick_21">
     <g id="line2d_61">
      <g>
       <use style="stroke:#000000;stroke-width:0.5;" x="281.089913177" xlink:href="#mf1395fade9" y="34.5323076923"/>
      </g>
     </g>
    </g>
   </g>
  </g>
 </g>
 <defs>
  <clipPath id="pc71cde0acf">
   <rect height="406.08" width="547.779826353" x="7.2" y="7.2"/>
  </clipPath>
 </defs>
</svg>
