<?xml version="1.0" encoding="utf-8" standalone="no"?>
<!DOCTYPE svg PUBLIC "-//W3C//DTD SVG 1.1//EN"
  "http://www.w3.org/Graphics/SVG/1.1/DTD/svg11.dtd">
<!-- Created with matplotlib (http://matplotlib.org/) -->
<svg height="420pt" version="1.1" viewBox="0 0 562 420" width="562pt" xmlns="http://www.w3.org/2000/svg" xmlns:xlink="http://www.w3.org/1999/xlink">
 <defs>
  <style type="text/css">
*{stroke-linecap:butt;stroke-linejoin:round;stroke-miterlimit:100000;}
  </style>
 </defs>
 <g id="figure_1">
  <g id="patch_1">
   <path d="M 0 420.48 
L 562.179826 420.48 
L 562.179826 0 
L 0 0 
z
" style="fill:#ffffff;"/>
  </g>
  <g id="axes_1">
   <g id="patch_2">
    <path d="M 7.2 413.28 
L 554.979826 413.28 
L 554.979826 7.2 
L 7.2 7.2 
z
" style="fill:#ffffff;"/>
   </g>
   <g id="line2d_1">
    <path clip-path="url(#pdd79a14a13)" d="M 17.734227 106.294823 
L 18.571905 104.404664 
L 19.409583 102.888147 
L 20.24726 101.744089 
L 21.084938 100.969977 
L 21.754439 100.614743 
L 22.42394 100.490836 
L 23.093441 100.595172 
L 23.762942 100.924148 
L 24.405055 101.446905 
L 25.047168 102.168461 
L 26.331395 104.189685 
L 27.134739 105.831281 
L 28.741427 109.933829 
L 30.211916 114.574796 
L 31.546207 119.444911 
L 32.963722 125.224994 
L 34.998103 134.434138 
L 38.080409 149.854971 
L 44.600295 183.920362 
L 47.579403 197.993168 
L 49.86024 207.336909 
L 51.625605 213.46848 
L 52.714241 216.701025 
L 53.802876 219.478888 
L 54.891512 221.775575 
L 55.980148 223.567801 
L 56.667726 224.430686 
L 57.355304 225.080003 
L 57.986098 225.484643 
L 58.616892 225.70391 
L 59.247685 225.73575 
L 59.878479 225.578527 
L 60.803981 225.003217 
L 61.729483 224.016199 
L 62.654985 222.617264 
L 63.580487 220.808178 
L 64.428909 218.792588 
L 65.277331 216.439771 
L 66.271877 213.260126 
L 67.829015 207.395302 
L 69.516796 199.875981 
L 71.76717 188.12559 
L 73.194369 179.76072 
L 75.508185 164.927912 
L 78.66017 142.804924 
L 87.923434 75.014585 
L 90.231065 59.931161 
L 92.538695 46.456267 
L 94.469973 36.701978 
L 96.272713 29.043704 
L 98.075454 22.931959 
L 99.200712 19.956411 
L 100.325969 17.656653 
L 101.232302 16.310081 
L 102.091148 15.45944 
L 102.949995 15.029076 
L 103.808842 15.023738 
L 104.667688 15.446699 
L 105.492467 16.257708 
L 106.317245 17.465651 
L 107.142023 19.069537 
L 107.966802 21.067102 
L 108.873632 23.713518 
L 109.780463 26.825102 
L 111.594124 34.408989 
L 112.928361 41.104194 
L 114.626901 50.919419 
L 116.325442 62.080132 
L 118.422129 77.522759 
L 120.464659 94.092083 
L 123.58515 121.663631 
L 127.384166 157.476505 
L 132.83159 209.114586 
L 135.482244 232.727936 
L 138.487708 257.184831 
L 140.269353 270.19051 
L 142.116882 282.304034 
L 143.918529 292.636622 
L 145.578993 300.772148 
L 147.182858 307.305005 
L 148.233236 310.857579 
L 149.283613 313.826947 
L 150.333991 316.209411 
L 151.225848 317.771216 
L 152.117706 318.911206 
L 153.009564 319.632732 
L 154.236337 319.951087 
L 154.802737 319.839046 
L 155.369137 319.566346 
L 155.935537 319.135469 
L 157.068337 317.81038 
L 158.201138 315.888654 
L 159.567342 312.81836 
L 161.166952 308.251452 
L 162.80397 302.596296 
L 164.363348 296.39936 
L 166.529844 286.702756 
L 168.955052 274.732045 
L 177.749181 229.355391 
L 180.151001 218.61751 
L 182.177532 210.766298 
L 183.246765 207.15642 
L 184.315998 203.955121 
L 186.103023 199.592436 
L 187.538607 197.048147 
L 188.256399 196.113928 
L 188.993966 195.395866 
L 189.731534 194.927628 
L 190.295084 194.740695 
L 190.858635 194.703364 
L 191.422185 194.81682 
L 191.985735 195.081976 
L 192.967071 195.907556 
L 193.948406 197.196395 
L 194.929742 198.947436 
L 195.911077 201.157125 
L 196.932047 203.936345 
L 197.953017 207.195836 
L 199.009628 211.061544 
L 200.908953 219.214415 
L 202.570359 227.531364 
L 204.207746 236.707887 
L 206.033866 247.951111 
L 209.056147 268.431196 
L 213.08945 297.996986 
L 218.058085 334.657406 
L 220.634474 352.355556 
L 223.365358 369.231112 
L 225.655094 381.399133 
L 227.372395 389.106786 
L 229.05274 395.329734 
L 230.16065 398.66644 
L 230.933483 400.6164 
L 231.706317 402.246978 
L 232.47915 403.551237 
L 233.5771 404.83144 
L 234.092754 405.197112 
L 234.608409 405.410546 
L 235.124064 405.470769 
L 235.639719 405.377001 
L 236.155373 405.128655 
L 236.671028 404.725337 
L 237.702338 403.453181 
L 238.56588 401.911126 
L 239.429422 399.936616 
L 240.343518 397.379408 
L 241.257614 394.347888 
L 242.17171 390.850091 
L 243.714909 383.915401 
L 245.416676 374.832215 
L 246.489341 368.375363 
L 248.634671 353.897803 
L 250.235959 341.862513 
L 253.140517 317.793615 
L 255.486757 296.723123 
L 261.303175 241.481686 
L 265.487441 202.437543 
L 268.177208 179.123757 
L 270.86307 158.022498 
L 272.963418 143.40875 
L 274.442546 134.250832 
L 276.000569 125.70217 
L 277.877855 116.985848 
L 279.50287 110.898763 
L 280.556352 107.693541 
L 281.609833 105.077655 
L 282.663315 103.052777 
L 283.190056 102.261572 
L 283.95659 101.37235 
L 284.723124 100.791696 
L 285.676134 100.494992 
L 286.629143 100.661709 
L 287.582152 101.281374 
L 288.535161 102.341437 
L 289.835131 104.470869 
L 291.135101 107.349641 
L 292.068776 109.852431 
L 293.691438 115.001525 
L 295.382947 121.340639 
L 297.387993 129.942032 
L 299.998463 142.493418 
L 305.1297 169.344137 
L 308.359694 185.924355 
L 310.914733 197.903471 
L 313.224178 207.367955 
L 315.050356 213.686516 
L 316.876535 218.804411 
L 317.879403 221.054974 
L 318.882272 222.88376 
L 319.915125 224.308855 
L 320.947979 225.253618 
L 321.980832 225.705541 
L 323.013686 225.655058 
L 323.764681 225.299025 
L 324.515677 224.672324 
L 325.266672 223.774291 
L 326.499858 221.711957 
L 327.500055 219.506396 
L 328.500252 216.829993 
L 329.500448 213.691532 
L 330.500645 210.102406 
L 332.546861 201.416978 
L 334.405405 192.07281 
L 336.509135 180.009524 
L 339.161368 162.922321 
L 342.107228 142.13983 
L 351.542437 73.225516 
L 353.422102 60.958962 
L 355.325155 49.608658 
L 356.953554 40.919367 
L 358.623664 33.129998 
L 360.15178 27.1041 
L 361.59153 22.467439 
L 363.084908 18.790724 
L 363.831598 17.402405 
L 364.471736 16.457193 
L 365.111874 15.741517 
L 365.752013 15.258103 
L 366.392151 15.009231 
L 367.192836 15.030839 
L 367.993521 15.424788 
L 368.794206 16.192527 
L 369.594891 17.334373 
L 370.375106 18.806139 
L 371.772002 22.320338 
L 373.005366 26.347941 
L 374.23873 31.22293 
L 375.472094 36.919925 
L 376.986915 44.995232 
L 378.599156 54.821467 
L 380.741463 69.674027 
L 382.844677 86.006953 
L 385.724285 110.643957 
L 389.154351 142.349412 
L 396.355116 210.653626 
L 399.50634 238.408471 
L 402.216499 260.008846 
L 404.279629 274.649976 
L 406.308412 287.286591 
L 407.723029 294.97007 
L 409.137647 301.671882 
L 410.811942 308.285499 
L 411.999678 312.088486 
L 413.258953 315.303535 
L 413.888591 316.594406 
L 414.795511 318.083089 
L 415.702431 319.136264 
L 416.609352 319.757899 
L 417.516272 319.953769 
L 418.407249 319.738892 
L 419.298226 319.129163 
L 420.189203 318.134961 
L 421.080181 316.768199 
L 422.447426 313.977468 
L 424.03049 309.762689 
L 425.768721 304.030652 
L 427.506953 297.284291 
L 430.112547 285.625336 
L 433.079907 270.766502 
L 440.141733 234.007303 
L 442.163882 224.453527 
L 444.200617 215.790393 
L 446.495597 207.499285 
L 448.277799 202.332666 
L 449.168901 200.212146 
L 450.711145 197.323106 
L 452.013431 195.692476 
L 452.664574 195.165133 
L 453.602655 194.750832 
L 454.540736 194.750639 
L 455.177461 194.989141 
L 455.814187 195.421908 
L 456.450913 196.049569 
L 457.087638 196.872309 
L 457.767978 197.966684 
L 459.128657 200.818617 
L 459.808996 202.572704 
L 460.730105 205.290337 
L 462.572321 211.876197 
L 464.076343 218.339618 
L 465.691869 226.295988 
L 467.757095 237.852457 
L 470.456137 254.943619 
L 472.846432 271.525641 
L 475.271256 289.24523 
L 482.192885 340.153941 
L 485.127263 359.656806 
L 487.213025 372.013001 
L 488.604699 379.391211 
L 490.718885 389.069034 
L 492.304526 394.984893 
L 493.5834 398.848117 
L 494.962791 402.055775 
L 496.220917 404.078656 
L 496.84998 404.758608 
L 497.400761 405.169672 
L 497.951542 405.407166 
L 498.502323 405.469892 
L 499.053104 405.356902 
L 499.590705 405.076488 
L 500.128306 404.627583 
L 501.203507 403.223787 
L 502.278709 401.146778 
L 503.35391 398.401494 
L 504.480121 394.818794 
L 505.907547 389.260442 
L 507.608931 381.200881 
L 509.584274 369.995021 
L 511.26314 359.027931 
L 513.245452 344.546347 
L 515.638236 325.168376 
L 518.489378 299.966111 
L 523.880302 248.936935 
L 527.907302 210.942806 
L 530.784351 185.41917 
L 533.276559 165.139286 
L 535.320861 150.129306 
L 537.191423 137.888712 
L 539.061984 127.227459 
L 540.732465 119.138299 
L 542.402946 112.466366 
L 543.424272 109.10453 
L 544.445599 106.294823 
L 544.445599 106.294823 
" style="fill:none;stroke:#0000ff;stroke-linecap:square;"/>
   </g>
   <g id="patch_3">
    <path d="M 7.2 210.222337 
L 554.979826 210.222337 
" style="fill:none;stroke:#000000;stroke-linecap:square;stroke-linejoin:miter;stroke-width:0.8;"/>
   </g>
   <g id="patch_4">
    <path d="M 281.089913 413.28 
L 281.089913 7.2 
" style="fill:none;stroke:#000000;stroke-linecap:square;stroke-linejoin:miter;stroke-width:0.8;"/>
   </g>
   <g id="matplotlib.axis_1">
    <g id="xtick_1">
     <g id="line2d_2">
      <defs>
       <path d="M 0 0 
L 0 -4 
" id="md632cab6be" style="stroke:#000000;stroke-width:0.5;"/>
      </defs>
      <g>
       <use style="stroke:#000000;stroke-width:0.5;" x="17.7342274299" xlink:href="#md632cab6be" y="210.222337316"/>
      </g>
     </g>
     <g id="text_1">
      <!-- $-2 \, \pi$ -->
      <defs>
       <path d="M 4.984375 0 
L 4.984375 2.6875 
Q 4.984375 2.9375 5.171875 3.21875 
L 20.703125 20.40625 
Q 24.21875 24.21875 26.40625 26.796875 
Q 28.609375 29.390625 30.75 32.765625 
Q 32.90625 36.140625 34.15625 39.625 
Q 35.40625 43.109375 35.40625 47.015625 
Q 35.40625 51.125 33.890625 54.859375 
Q 32.375 58.59375 29.375 60.84375 
Q 26.375 63.09375 22.125 63.09375 
Q 17.78125 63.09375 14.3125 60.46875 
Q 10.84375 57.859375 9.421875 53.71875 
Q 9.8125 53.8125 10.5 53.8125 
Q 12.75 53.8125 14.328125 52.296875 
Q 15.921875 50.78125 15.921875 48.390625 
Q 15.921875 46.09375 14.328125 44.5 
Q 12.75 42.921875 10.5 42.921875 
Q 8.15625 42.921875 6.5625 44.546875 
Q 4.984375 46.1875 4.984375 48.390625 
Q 4.984375 52.15625 6.390625 55.4375 
Q 7.8125 58.734375 10.46875 61.296875 
Q 13.140625 63.875 16.484375 65.234375 
Q 19.828125 66.609375 23.578125 66.609375 
Q 29.296875 66.609375 34.21875 64.1875 
Q 39.15625 61.765625 42.03125 57.34375 
Q 44.921875 52.9375 44.921875 47.015625 
Q 44.921875 42.671875 43.015625 38.765625 
Q 41.109375 34.859375 38.125 31.65625 
Q 35.15625 28.46875 30.515625 24.40625 
Q 25.875 20.359375 24.421875 19 
L 13.09375 8.109375 
L 22.703125 8.109375 
Q 29.78125 8.109375 34.546875 8.21875 
Q 39.3125 8.34375 39.59375 8.59375 
Q 40.765625 9.859375 42 17.828125 
L 44.921875 17.828125 
L 42.09375 0 
z
" id="Cmr10-32"/>
       <path d="M 10.203125 23 
Q 9.375 23 8.828125 23.625 
Q 8.296875 24.265625 8.296875 25 
Q 8.296875 25.734375 8.828125 26.359375 
Q 9.375 27 10.203125 27 
L 67.578125 27 
Q 68.359375 27 68.875 26.359375 
Q 69.390625 25.734375 69.390625 25 
Q 69.390625 24.265625 68.875 23.625 
Q 68.359375 23 67.578125 23 
z
" id="Cmsy10-a1"/>
       <path d="M 10.109375 1.703125 
Q 10.109375 2.25 10.5 3.328125 
Q 13.28125 9.125 15.6875 14.71875 
Q 18.109375 20.3125 20.03125 25.609375 
Q 21.96875 30.90625 23.578125 36.921875 
L 17.1875 36.921875 
Q 13.53125 36.921875 10.34375 34.625 
Q 7.171875 32.328125 5.078125 28.8125 
Q 4.890625 28.421875 4.5 28.421875 
L 3.328125 28.421875 
Q 2.390625 28.421875 2.390625 29.390625 
Q 2.390625 29.59375 2.59375 29.984375 
Q 5.859375 35.546875 9.59375 39.328125 
Q 13.328125 43.109375 18.015625 43.109375 
L 54.296875 43.109375 
Q 55.328125 43.109375 56.046875 42.421875 
Q 56.78125 41.75 56.78125 40.578125 
Q 56.78125 39.109375 55.734375 38.015625 
Q 54.6875 36.921875 53.21875 36.921875 
L 40.484375 36.921875 
Q 38.875 29.046875 38.71875 21.578125 
Q 38.71875 11.96875 42.09375 4.203125 
Q 42.390625 3.609375 42.390625 2.984375 
Q 42.390625 1.90625 41.75 0.96875 
Q 41.109375 0.046875 40.109375 -0.53125 
Q 39.109375 -1.125 37.984375 -1.125 
Q 35.359375 -1.125 34.375 3.171875 
Q 33.40625 7.46875 33.40625 11.53125 
Q 33.40625 17.234375 34.375 22.53125 
Q 35.359375 27.828125 37.5 36.921875 
L 26.609375 36.921875 
Q 18.703125 4.890625 17.09375 1.609375 
Q 15.671875 -1.125 13.1875 -1.125 
Q 11.96875 -1.125 11.03125 -0.3125 
Q 10.109375 0.484375 10.109375 1.703125 
" id="Cmmi10-bc"/>
      </defs>
      <g transform="translate(7.73422742987 221.820774816)scale(0.1 -0.1)">
       <use transform="translate(0.0 0.390625)" xlink:href="#Cmsy10-a1"/>
       <use transform="translate(77.685546875 0.390625)" xlink:href="#Cmr10-32"/>
       <use transform="translate(142.318000977 0.390625)" xlink:href="#Cmmi10-bc"/>
      </g>
     </g>
    </g>
    <g id="xtick_2">
     <g id="line2d_3">
      <g>
       <use style="stroke:#000000;stroke-width:0.5;" x="83.5731488666" xlink:href="#md632cab6be" y="210.222337316"/>
      </g>
     </g>
     <g id="text_2">
      <!-- $-\frac{3}{2} \, \pi$ -->
      <defs>
       <path d="M 9.515625 7.71875 
Q 11.859375 4.296875 15.8125 2.640625 
Q 19.78125 0.984375 24.3125 0.984375 
Q 30.125 0.984375 32.5625 5.9375 
Q 35.015625 10.890625 35.015625 17.1875 
Q 35.015625 20.015625 34.5 22.84375 
Q 33.984375 25.6875 32.765625 28.125 
Q 31.546875 30.5625 29.421875 32.03125 
Q 27.296875 33.5 24.21875 33.5 
L 17.578125 33.5 
Q 16.703125 33.5 16.703125 34.421875 
L 16.703125 35.296875 
Q 16.703125 36.078125 17.578125 36.078125 
L 23.09375 36.53125 
Q 26.609375 36.53125 28.921875 39.15625 
Q 31.25 41.796875 32.328125 45.578125 
Q 33.40625 49.359375 33.40625 52.78125 
Q 33.40625 57.5625 31.15625 60.640625 
Q 28.90625 63.71875 24.3125 63.71875 
Q 20.515625 63.71875 17.046875 62.28125 
Q 13.578125 60.84375 11.53125 57.90625 
Q 11.71875 57.953125 11.859375 57.984375 
Q 12.015625 58.015625 12.203125 58.015625 
Q 14.453125 58.015625 15.96875 56.453125 
Q 17.484375 54.890625 17.484375 52.6875 
Q 17.484375 50.53125 15.96875 48.96875 
Q 14.453125 47.40625 12.203125 47.40625 
Q 10.015625 47.40625 8.453125 48.96875 
Q 6.890625 50.53125 6.890625 52.6875 
Q 6.890625 56.984375 9.46875 60.15625 
Q 12.0625 63.328125 16.140625 64.96875 
Q 20.21875 66.609375 24.3125 66.609375 
Q 27.34375 66.609375 30.703125 65.703125 
Q 34.078125 64.796875 36.8125 63.109375 
Q 39.546875 61.421875 41.28125 58.78125 
Q 43.015625 56.15625 43.015625 52.78125 
Q 43.015625 48.578125 41.140625 45.015625 
Q 39.265625 41.453125 35.984375 38.859375 
Q 32.71875 36.28125 28.8125 35.015625 
Q 33.15625 34.1875 37.0625 31.734375 
Q 40.96875 29.296875 43.328125 25.484375 
Q 45.703125 21.6875 45.703125 17.28125 
Q 45.703125 11.765625 42.671875 7.296875 
Q 39.65625 2.828125 34.71875 0.3125 
Q 29.78125 -2.203125 24.3125 -2.203125 
Q 19.625 -2.203125 14.90625 -0.40625 
Q 10.203125 1.375 7.203125 4.9375 
Q 4.203125 8.5 4.203125 13.484375 
Q 4.203125 15.96875 5.859375 17.625 
Q 7.515625 19.28125 10.015625 19.28125 
Q 11.625 19.28125 12.96875 18.53125 
Q 14.3125 17.78125 15.0625 16.40625 
Q 15.828125 15.046875 15.828125 13.484375 
Q 15.828125 11.03125 14.109375 9.375 
Q 12.40625 7.71875 10.015625 7.71875 
z
" id="Cmr10-33"/>
      </defs>
      <g transform="translate(73.7231488666 222.822337316)scale(0.1 -0.1)">
       <use transform="translate(0.0 0.33125)" xlink:href="#Cmsy10-a1"/>
       <use transform="translate(77.685546875 39.3734375)scale(0.7)" xlink:href="#Cmr10-33"/>
       <use transform="translate(77.685546875 -40.0453125)scale(0.7)" xlink:href="#Cmr10-32"/>
       <use transform="translate(139.818000977 0.33125)" xlink:href="#Cmmi10-bc"/>
       <path d="M 77.685547 12.83125 
L 77.685547 19.08125 
L 112.685547 19.08125 
L 112.685547 12.83125 
L 77.685547 12.83125 
z
"/>
      </g>
     </g>
    </g>
    <g id="xtick_3">
     <g id="line2d_4">
      <g>
       <use style="stroke:#000000;stroke-width:0.5;" x="149.412070303" xlink:href="#md632cab6be" y="210.222337316"/>
      </g>
     </g>
     <g id="text_3">
      <!-- $-\pi$ -->
      <g transform="translate(142.662070303 221.820774816)scale(0.1 -0.1)">
       <use transform="translate(0.0 0.890625)" xlink:href="#Cmsy10-a1"/>
       <use transform="translate(77.685546875 0.890625)" xlink:href="#Cmmi10-bc"/>
      </g>
     </g>
    </g>
    <g id="xtick_4">
     <g id="line2d_5">
      <g>
       <use style="stroke:#000000;stroke-width:0.5;" x="215.25099174" xlink:href="#md632cab6be" y="210.222337316"/>
      </g>
     </g>
     <g id="text_4">
      <!-- $-\frac{1}{2} \, \pi$ -->
      <defs>
       <path d="M 9.28125 0 
L 9.28125 3.515625 
Q 21.78125 3.515625 21.78125 6.6875 
L 21.78125 59.1875 
Q 16.609375 56.6875 8.6875 56.6875 
L 8.6875 60.203125 
Q 20.953125 60.203125 27.203125 66.609375 
L 28.609375 66.609375 
Q 28.953125 66.609375 29.265625 66.328125 
Q 29.59375 66.0625 29.59375 65.71875 
L 29.59375 6.6875 
Q 29.59375 3.515625 42.09375 3.515625 
L 42.09375 0 
z
" id="Cmr10-31"/>
      </defs>
      <g transform="translate(205.40099174 222.722337316)scale(0.1 -0.1)">
       <use transform="translate(0.0 0.8734375)" xlink:href="#Cmsy10-a1"/>
       <use transform="translate(77.685546875 38.3734375)scale(0.7)" xlink:href="#Cmr10-31"/>
       <use transform="translate(77.685546875 -39.503125)scale(0.7)" xlink:href="#Cmr10-32"/>
       <use transform="translate(139.818000977 0.8734375)" xlink:href="#Cmmi10-bc"/>
       <path d="M 77.685547 13.373437 
L 77.685547 19.623437 
L 112.685547 19.623437 
L 112.685547 13.373437 
L 77.685547 13.373437 
z
"/>
      </g>
     </g>
    </g>
    <g id="xtick_5">
     <g id="line2d_6">
      <g>
       <use style="stroke:#000000;stroke-width:0.5;" x="281.089913177" xlink:href="#md632cab6be" y="210.222337316"/>
      </g>
     </g>
    </g>
    <g id="xtick_6">
     <g id="line2d_7">
      <g>
       <use style="stroke:#000000;stroke-width:0.5;" x="346.928834613" xlink:href="#md632cab6be" y="210.222337316"/>
      </g>
     </g>
     <g id="text_5">
      <!-- $\frac{1}{2} \, \pi$ -->
      <g transform="translate(340.928834613 222.722337316)scale(0.1 -0.1)">
       <use transform="translate(0.0 38.3734375)scale(0.7)" xlink:href="#Cmr10-31"/>
       <use transform="translate(0.0 -39.503125)scale(0.7)" xlink:href="#Cmr10-32"/>
       <use transform="translate(62.1324541016 0.8734375)" xlink:href="#Cmmi10-bc"/>
       <path d="M 0 13.373437 
L 0 19.623437 
L 35 19.623437 
L 35 13.373437 
L 0 13.373437 
z
"/>
      </g>
     </g>
    </g>
    <g id="xtick_7">
     <g id="line2d_8">
      <g>
       <use style="stroke:#000000;stroke-width:0.5;" x="412.76775605" xlink:href="#md632cab6be" y="210.222337316"/>
      </g>
     </g>
     <g id="text_6">
      <!-- $\pi$ -->
      <g transform="translate(409.91775605 221.820774816)scale(0.1 -0.1)">
       <use transform="translate(0.0 0.890625)" xlink:href="#Cmmi10-bc"/>
      </g>
     </g>
    </g>
    <g id="xtick_8">
     <g id="line2d_9">
      <g>
       <use style="stroke:#000000;stroke-width:0.5;" x="478.606677487" xlink:href="#md632cab6be" y="210.222337316"/>
      </g>
     </g>
     <g id="text_7">
      <!-- $\frac{3}{2} \, \pi$ -->
      <g transform="translate(472.606677487 222.822337316)scale(0.1 -0.1)">
       <use transform="translate(0.0 39.3734375)scale(0.7)" xlink:href="#Cmr10-33"/>
       <use transform="translate(0.0 -40.0453125)scale(0.7)" xlink:href="#Cmr10-32"/>
       <use transform="translate(62.1324541016 0.33125)" xlink:href="#Cmmi10-bc"/>
       <path d="M 0 12.83125 
L 0 19.08125 
L 35 19.08125 
L 35 12.83125 
L 0 12.83125 
z
"/>
      </g>
     </g>
    </g>
    <g id="xtick_9">
     <g id="line2d_10">
      <g>
       <use style="stroke:#000000;stroke-width:0.5;" x="544.445598924" xlink:href="#md632cab6be" y="210.222337316"/>
      </g>
     </g>
     <g id="text_8">
      <!-- $2 \, \pi$ -->
      <g transform="translate(538.345598924 221.820774816)scale(0.1 -0.1)">
       <use transform="translate(0.0 0.390625)" xlink:href="#Cmr10-32"/>
       <use transform="translate(64.6324541016 0.390625)" xlink:href="#Cmmi10-bc"/>
      </g>
     </g>
    </g>
    <g id="xtick_10">
     <g id="line2d_11">
      <defs>
       <path d="M 0 0 
L 0 -2 
" id="m34ccc3bb57" style="stroke:#000000;stroke-width:0.5;"/>
      </defs>
      <g>
       <use style="stroke:#000000;stroke-width:0.5;" x="34.193957789" xlink:href="#m34ccc3bb57" y="210.222337316"/>
      </g>
     </g>
    </g>
    <g id="xtick_11">
     <g id="line2d_12">
      <g>
       <use style="stroke:#000000;stroke-width:0.5;" x="50.6536881482" xlink:href="#m34ccc3bb57" y="210.222337316"/>
      </g>
     </g>
    </g>
    <g id="xtick_12">
     <g id="line2d_13">
      <g>
       <use style="stroke:#000000;stroke-width:0.5;" x="67.1134185074" xlink:href="#m34ccc3bb57" y="210.222337316"/>
      </g>
     </g>
    </g>
    <g id="xtick_13">
     <g id="line2d_14">
      <g>
       <use style="stroke:#000000;stroke-width:0.5;" x="100.032879226" xlink:href="#m34ccc3bb57" y="210.222337316"/>
      </g>
     </g>
    </g>
    <g id="xtick_14">
     <g id="line2d_15">
      <g>
       <use style="stroke:#000000;stroke-width:0.5;" x="116.492609585" xlink:href="#m34ccc3bb57" y="210.222337316"/>
      </g>
     </g>
    </g>
    <g id="xtick_15">
     <g id="line2d_16">
      <g>
       <use style="stroke:#000000;stroke-width:0.5;" x="132.952339944" xlink:href="#m34ccc3bb57" y="210.222337316"/>
      </g>
     </g>
    </g>
    <g id="xtick_16">
     <g id="line2d_17">
      <g>
       <use style="stroke:#000000;stroke-width:0.5;" x="165.871800662" xlink:href="#m34ccc3bb57" y="210.222337316"/>
      </g>
     </g>
    </g>
    <g id="xtick_17">
     <g id="line2d_18">
      <g>
       <use style="stroke:#000000;stroke-width:0.5;" x="182.331531022" xlink:href="#m34ccc3bb57" y="210.222337316"/>
      </g>
     </g>
    </g>
    <g id="xtick_18">
     <g id="line2d_19">
      <g>
       <use style="stroke:#000000;stroke-width:0.5;" x="198.791261381" xlink:href="#m34ccc3bb57" y="210.222337316"/>
      </g>
     </g>
    </g>
    <g id="xtick_19">
     <g id="line2d_20">
      <g>
       <use style="stroke:#000000;stroke-width:0.5;" x="231.710722099" xlink:href="#m34ccc3bb57" y="210.222337316"/>
      </g>
     </g>
    </g>
    <g id="xtick_20">
     <g id="line2d_21">
      <g>
       <use style="stroke:#000000;stroke-width:0.5;" x="248.170452458" xlink:href="#m34ccc3bb57" y="210.222337316"/>
      </g>
     </g>
    </g>
    <g id="xtick_21">
     <g id="line2d_22">
      <g>
       <use style="stroke:#000000;stroke-width:0.5;" x="264.630182818" xlink:href="#m34ccc3bb57" y="210.222337316"/>
      </g>
     </g>
    </g>
    <g id="xtick_22">
     <g id="line2d_23">
      <g>
       <use style="stroke:#000000;stroke-width:0.5;" x="297.549643536" xlink:href="#m34ccc3bb57" y="210.222337316"/>
      </g>
     </g>
    </g>
    <g id="xtick_23">
     <g id="line2d_24">
      <g>
       <use style="stroke:#000000;stroke-width:0.5;" x="314.009373895" xlink:href="#m34ccc3bb57" y="210.222337316"/>
      </g>
     </g>
    </g>
    <g id="xtick_24">
     <g id="line2d_25">
      <g>
       <use style="stroke:#000000;stroke-width:0.5;" x="330.469104254" xlink:href="#m34ccc3bb57" y="210.222337316"/>
      </g>
     </g>
    </g>
    <g id="xtick_25">
     <g id="line2d_26">
      <g>
       <use style="stroke:#000000;stroke-width:0.5;" x="363.388564973" xlink:href="#m34ccc3bb57" y="210.222337316"/>
      </g>
     </g>
    </g>
    <g id="xtick_26">
     <g id="line2d_27">
      <g>
       <use style="stroke:#000000;stroke-width:0.5;" x="379.848295332" xlink:href="#m34ccc3bb57" y="210.222337316"/>
      </g>
     </g>
    </g>
    <g id="xtick_27">
     <g id="line2d_28">
      <g>
       <use style="stroke:#000000;stroke-width:0.5;" x="396.308025691" xlink:href="#m34ccc3bb57" y="210.222337316"/>
      </g>
     </g>
    </g>
    <g id="xtick_28">
     <g id="line2d_29">
      <g>
       <use style="stroke:#000000;stroke-width:0.5;" x="429.227486409" xlink:href="#m34ccc3bb57" y="210.222337316"/>
      </g>
     </g>
    </g>
    <g id="xtick_29">
     <g id="line2d_30">
      <g>
       <use style="stroke:#000000;stroke-width:0.5;" x="445.687216768" xlink:href="#m34ccc3bb57" y="210.222337316"/>
      </g>
     </g>
    </g>
    <g id="xtick_30">
     <g id="line2d_31">
      <g>
       <use style="stroke:#000000;stroke-width:0.5;" x="462.146947128" xlink:href="#m34ccc3bb57" y="210.222337316"/>
      </g>
     </g>
    </g>
    <g id="xtick_31">
     <g id="line2d_32">
      <g>
       <use style="stroke:#000000;stroke-width:0.5;" x="495.066407846" xlink:href="#m34ccc3bb57" y="210.222337316"/>
      </g>
     </g>
    </g>
    <g id="xtick_32">
     <g id="line2d_33">
      <g>
       <use style="stroke:#000000;stroke-width:0.5;" x="511.526138205" xlink:href="#m34ccc3bb57" y="210.222337316"/>
      </g>
     </g>
    </g>
    <g id="xtick_33">
     <g id="line2d_34">
      <g>
       <use style="stroke:#000000;stroke-width:0.5;" x="527.985868564" xlink:href="#m34ccc3bb57" y="210.222337316"/>
      </g>
     </g>
    </g>
   </g>
   <g id="matplotlib.axis_2">
    <g id="ytick_1">
     <g id="line2d_35">
      <defs>
       <path d="M 0 0 
L 4 0 
" id="mb013bc4c80" style="stroke:#000000;stroke-width:0.5;"/>
      </defs>
      <g>
       <use style="stroke:#000000;stroke-width:0.5;" x="281.089913177" xlink:href="#mb013bc4c80" y="366.113608734"/>
      </g>
     </g>
     <g id="text_9">
      <!-- $-1.5$ -->
      <defs>
       <path d="M 8.6875 11.375 
Q 9.71875 8.453125 11.84375 6.046875 
Q 13.96875 3.65625 16.875 2.3125 
Q 19.78125 0.984375 22.90625 0.984375 
Q 30.125 0.984375 32.859375 6.59375 
Q 35.59375 12.203125 35.59375 20.21875 
Q 35.59375 23.6875 35.46875 26.046875 
Q 35.359375 28.421875 34.8125 30.609375 
Q 33.890625 34.125 31.5625 36.765625 
Q 29.25 39.40625 25.875 39.40625 
Q 22.515625 39.40625 20.09375 38.375 
Q 17.671875 37.359375 16.15625 35.984375 
Q 14.65625 34.625 13.484375 33.109375 
Q 12.3125 31.59375 12.015625 31.5 
L 10.890625 31.5 
Q 10.640625 31.5 10.265625 31.8125 
Q 9.90625 32.125 9.90625 32.421875 
L 9.90625 65.828125 
Q 9.90625 66.0625 10.21875 66.328125 
Q 10.546875 66.609375 10.890625 66.609375 
L 11.1875 66.609375 
Q 17.921875 63.375 25.484375 63.375 
Q 32.90625 63.375 39.796875 66.609375 
L 40.09375 66.609375 
Q 40.4375 66.609375 40.71875 66.359375 
Q 41.015625 66.109375 41.015625 65.828125 
L 41.015625 64.890625 
Q 41.015625 64.40625 40.828125 64.40625 
Q 37.40625 59.859375 32.25 57.3125 
Q 27.09375 54.78125 21.578125 54.78125 
Q 17.578125 54.78125 13.375 55.90625 
L 13.375 37.015625 
Q 16.703125 39.703125 19.3125 40.84375 
Q 21.921875 42 25.984375 42 
Q 31.5 42 35.859375 38.8125 
Q 40.234375 35.640625 42.578125 30.53125 
Q 44.921875 25.4375 44.921875 20.125 
Q 44.921875 14.109375 41.96875 8.984375 
Q 39.015625 3.859375 33.9375 0.828125 
Q 28.859375 -2.203125 22.90625 -2.203125 
Q 17.96875 -2.203125 13.84375 0.328125 
Q 9.71875 2.875 7.34375 7.171875 
Q 4.984375 11.46875 4.984375 16.3125 
Q 4.984375 18.5625 6.4375 19.96875 
Q 7.90625 21.390625 10.109375 21.390625 
Q 12.3125 21.390625 13.796875 19.9375 
Q 15.28125 18.5 15.28125 16.3125 
Q 15.28125 14.15625 13.796875 12.671875 
Q 12.3125 11.1875 10.109375 11.1875 
Q 9.765625 11.1875 9.328125 11.25 
Q 8.890625 11.328125 8.6875 11.375 
" id="Cmr10-35"/>
       <path d="M 8.40625 5.515625 
Q 8.40625 7.765625 10.0625 9.375 
Q 11.71875 10.984375 13.921875 10.984375 
Q 15.28125 10.984375 16.59375 10.25 
Q 17.921875 9.515625 18.65625 8.203125 
Q 19.390625 6.890625 19.390625 5.515625 
Q 19.390625 3.328125 17.765625 1.65625 
Q 16.15625 0 13.921875 0 
Q 11.71875 0 10.0625 1.65625 
Q 8.40625 3.328125 8.40625 5.515625 
" id="Cmmi10-3a"/>
      </defs>
      <g transform="translate(254.789913177 368.872983734)scale(0.1 -0.1)">
       <use transform="translate(0.0 0.390625)" xlink:href="#Cmsy10-a1"/>
       <use transform="translate(77.685546875 0.390625)" xlink:href="#Cmr10-31"/>
       <use transform="translate(127.685546875 0.390625)" xlink:href="#Cmmi10-3a"/>
       <use transform="translate(172.9296875 0.390625)" xlink:href="#Cmr10-35"/>
      </g>
     </g>
    </g>
    <g id="ytick_2">
     <g id="line2d_36">
      <g>
       <use style="stroke:#000000;stroke-width:0.5;" x="281.089913177" xlink:href="#mb013bc4c80" y="314.149851595"/>
      </g>
     </g>
     <g id="text_10">
      <!-- $-1.0$ -->
      <defs>
       <path d="M 25 -2.203125 
Q 12.75 -2.203125 8.328125 7.875 
Q 3.90625 17.96875 3.90625 31.890625 
Q 3.90625 40.578125 5.484375 48.234375 
Q 7.078125 55.90625 11.78125 61.25 
Q 16.5 66.609375 25 66.609375 
Q 31.59375 66.609375 35.78125 63.375 
Q 39.984375 60.15625 42.1875 55.046875 
Q 44.390625 49.953125 45.1875 44.109375 
Q 46 38.28125 46 31.890625 
Q 46 23.296875 44.40625 15.796875 
Q 42.828125 8.296875 38.1875 3.046875 
Q 33.546875 -2.203125 25 -2.203125 
M 25 0.390625 
Q 30.5625 0.390625 33.296875 6.09375 
Q 36.03125 11.8125 36.671875 18.75 
Q 37.3125 25.6875 37.3125 33.5 
Q 37.3125 41.015625 36.671875 47.359375 
Q 36.03125 53.71875 33.3125 58.859375 
Q 30.609375 64.015625 25 64.015625 
Q 19.34375 64.015625 16.609375 58.828125 
Q 13.875 53.65625 13.234375 47.328125 
Q 12.59375 41.015625 12.59375 33.5 
Q 12.59375 27.9375 12.859375 23 
Q 13.140625 18.0625 14.3125 12.8125 
Q 15.484375 7.5625 18.09375 3.96875 
Q 20.703125 0.390625 25 0.390625 
" id="Cmr10-30"/>
      </defs>
      <g transform="translate(254.789913177 316.909226595)scale(0.1 -0.1)">
       <use transform="translate(0.0 0.390625)" xlink:href="#Cmsy10-a1"/>
       <use transform="translate(77.685546875 0.390625)" xlink:href="#Cmr10-31"/>
       <use transform="translate(127.685546875 0.390625)" xlink:href="#Cmmi10-3a"/>
       <use transform="translate(172.9296875 0.390625)" xlink:href="#Cmr10-30"/>
      </g>
     </g>
    </g>
    <g id="ytick_3">
     <g id="line2d_37">
      <g>
       <use style="stroke:#000000;stroke-width:0.5;" x="281.089913177" xlink:href="#mb013bc4c80" y="262.186094455"/>
      </g>
     </g>
     <g id="text_11">
      <!-- $-0.5$ -->
      <g transform="translate(254.789913177 264.945469455)scale(0.1 -0.1)">
       <use transform="translate(0.0 0.390625)" xlink:href="#Cmsy10-a1"/>
       <use transform="translate(77.685546875 0.390625)" xlink:href="#Cmr10-30"/>
       <use transform="translate(127.685546875 0.390625)" xlink:href="#Cmmi10-3a"/>
       <use transform="translate(172.9296875 0.390625)" xlink:href="#Cmr10-35"/>
      </g>
     </g>
    </g>
    <g id="ytick_4">
     <g id="line2d_38">
      <g>
       <use style="stroke:#000000;stroke-width:0.5;" x="281.089913177" xlink:href="#mb013bc4c80" y="210.222337316"/>
      </g>
     </g>
    </g>
    <g id="ytick_5">
     <g id="line2d_39">
      <g>
       <use style="stroke:#000000;stroke-width:0.5;" x="281.089913177" xlink:href="#mb013bc4c80" y="158.258580177"/>
      </g>
     </g>
     <g id="text_12">
      <!-- $0.5$ -->
      <g transform="translate(262.489913177 161.017955177)scale(0.1 -0.1)">
       <use transform="translate(0.0 0.390625)" xlink:href="#Cmr10-30"/>
       <use transform="translate(50.0 0.390625)" xlink:href="#Cmmi10-3a"/>
       <use transform="translate(95.244140625 0.390625)" xlink:href="#Cmr10-35"/>
      </g>
     </g>
    </g>
    <g id="ytick_6">
     <g id="line2d_40">
      <g>
       <use style="stroke:#000000;stroke-width:0.5;" x="281.089913177" xlink:href="#mb013bc4c80" y="106.294823038"/>
      </g>
     </g>
     <g id="text_13">
      <!-- $1.0$ -->
      <g transform="translate(262.489913177 109.054198038)scale(0.1 -0.1)">
       <use transform="translate(0.0 0.390625)" xlink:href="#Cmr10-31"/>
       <use transform="translate(50.0 0.390625)" xlink:href="#Cmmi10-3a"/>
       <use transform="translate(95.244140625 0.390625)" xlink:href="#Cmr10-30"/>
      </g>
     </g>
    </g>
    <g id="ytick_7">
     <g id="line2d_41">
      <g>
       <use style="stroke:#000000;stroke-width:0.5;" x="281.089913177" xlink:href="#mb013bc4c80" y="54.3310658987"/>
      </g>
     </g>
     <g id="text_14">
      <!-- $1.5$ -->
      <g transform="translate(262.489913177 57.0904408987)scale(0.1 -0.1)">
       <use transform="translate(0.0 0.390625)" xlink:href="#Cmr10-31"/>
       <use transform="translate(50.0 0.390625)" xlink:href="#Cmmi10-3a"/>
       <use transform="translate(95.244140625 0.390625)" xlink:href="#Cmr10-35"/>
      </g>
     </g>
    </g>
    <g id="ytick_8">
     <g id="line2d_42">
      <defs>
       <path d="M 0 0 
L 2 0 
" id="m3572fe6111" style="stroke:#000000;stroke-width:0.5;"/>
      </defs>
      <g>
       <use style="stroke:#000000;stroke-width:0.5;" x="281.089913177" xlink:href="#m3572fe6111" y="407.684614445"/>
      </g>
     </g>
    </g>
    <g id="ytick_9">
     <g id="line2d_43">
      <g>
       <use style="stroke:#000000;stroke-width:0.5;" x="281.089913177" xlink:href="#m3572fe6111" y="397.291863017"/>
      </g>
     </g>
    </g>
    <g id="ytick_10">
     <g id="line2d_44">
      <g>
       <use style="stroke:#000000;stroke-width:0.5;" x="281.089913177" xlink:href="#m3572fe6111" y="386.899111589"/>
      </g>
     </g>
    </g>
    <g id="ytick_11">
     <g id="line2d_45">
      <g>
       <use style="stroke:#000000;stroke-width:0.5;" x="281.089913177" xlink:href="#m3572fe6111" y="376.506360162"/>
      </g>
     </g>
    </g>
    <g id="ytick_12">
     <g id="line2d_46">
      <g>
       <use style="stroke:#000000;stroke-width:0.5;" x="281.089913177" xlink:href="#m3572fe6111" y="355.720857306"/>
      </g>
     </g>
    </g>
    <g id="ytick_13">
     <g id="line2d_47">
      <g>
       <use style="stroke:#000000;stroke-width:0.5;" x="281.089913177" xlink:href="#m3572fe6111" y="345.328105878"/>
      </g>
     </g>
    </g>
    <g id="ytick_14">
     <g id="line2d_48">
      <g>
       <use style="stroke:#000000;stroke-width:0.5;" x="281.089913177" xlink:href="#m3572fe6111" y="334.93535445"/>
      </g>
     </g>
    </g>
    <g id="ytick_15">
     <g id="line2d_49">
      <g>
       <use style="stroke:#000000;stroke-width:0.5;" x="281.089913177" xlink:href="#m3572fe6111" y="324.542603022"/>
      </g>
     </g>
    </g>
    <g id="ytick_16">
     <g id="line2d_50">
      <g>
       <use style="stroke:#000000;stroke-width:0.5;" x="281.089913177" xlink:href="#m3572fe6111" y="303.757100167"/>
      </g>
     </g>
    </g>
    <g id="ytick_17">
     <g id="line2d_51">
      <g>
       <use style="stroke:#000000;stroke-width:0.5;" x="281.089913177" xlink:href="#m3572fe6111" y="293.364348739"/>
      </g>
     </g>
    </g>
    <g id="ytick_18">
     <g id="line2d_52">
      <g>
       <use style="stroke:#000000;stroke-width:0.5;" x="281.089913177" xlink:href="#m3572fe6111" y="282.971597311"/>
      </g>
     </g>
    </g>
    <g id="ytick_19">
     <g id="line2d_53">
      <g>
       <use style="stroke:#000000;stroke-width:0.5;" x="281.089913177" xlink:href="#m3572fe6111" y="272.578845883"/>
      </g>
     </g>
    </g>
    <g id="ytick_20">
     <g id="line2d_54">
      <g>
       <use style="stroke:#000000;stroke-width:0.5;" x="281.089913177" xlink:href="#m3572fe6111" y="251.793343028"/>
      </g>
     </g>
    </g>
    <g id="ytick_21">
     <g id="line2d_55">
      <g>
       <use style="stroke:#000000;stroke-width:0.5;" x="281.089913177" xlink:href="#m3572fe6111" y="241.4005916"/>
      </g>
     </g>
    </g>
    <g id="ytick_22">
     <g id="line2d_56">
      <g>
       <use style="stroke:#000000;stroke-width:0.5;" x="281.089913177" xlink:href="#m3572fe6111" y="231.007840172"/>
      </g>
     </g>
    </g>
    <g id="ytick_23">
     <g id="line2d_57">
      <g>
       <use style="stroke:#000000;stroke-width:0.5;" x="281.089913177" xlink:href="#m3572fe6111" y="220.615088744"/>
      </g>
     </g>
    </g>
    <g id="ytick_24">
     <g id="line2d_58">
      <g>
       <use style="stroke:#000000;stroke-width:0.5;" x="281.089913177" xlink:href="#m3572fe6111" y="199.829585888"/>
      </g>
     </g>
    </g>
    <g id="ytick_25">
     <g id="line2d_59">
      <g>
       <use style="stroke:#000000;stroke-width:0.5;" x="281.089913177" xlink:href="#m3572fe6111" y="189.436834461"/>
      </g>
     </g>
    </g>
    <g id="ytick_26">
     <g id="line2d_60">
      <g>
       <use style="stroke:#000000;stroke-width:0.5;" x="281.089913177" xlink:href="#m3572fe6111" y="179.044083033"/>
      </g>
     </g>
    </g>
    <g id="ytick_27">
     <g id="line2d_61">
      <g>
       <use style="stroke:#000000;stroke-width:0.5;" x="281.089913177" xlink:href="#m3572fe6111" y="168.651331605"/>
      </g>
     </g>
    </g>
    <g id="ytick_28">
     <g id="line2d_62">
      <g>
       <use style="stroke:#000000;stroke-width:0.5;" x="281.089913177" xlink:href="#m3572fe6111" y="147.865828749"/>
      </g>
     </g>
    </g>
    <g id="ytick_29">
     <g id="line2d_63">
      <g>
       <use style="stroke:#000000;stroke-width:0.5;" x="281.089913177" xlink:href="#m3572fe6111" y="137.473077321"/>
      </g>
     </g>
    </g>
    <g id="ytick_30">
     <g id="line2d_64">
      <g>
       <use style="stroke:#000000;stroke-width:0.5;" x="281.089913177" xlink:href="#m3572fe6111" y="127.080325894"/>
      </g>
     </g>
    </g>
    <g id="ytick_31">
     <g id="line2d_65">
      <g>
       <use style="stroke:#000000;stroke-width:0.5;" x="281.089913177" xlink:href="#m3572fe6111" y="116.687574466"/>
      </g>
     </g>
    </g>
    <g id="ytick_32">
     <g id="line2d_66">
      <g>
       <use style="stroke:#000000;stroke-width:0.5;" x="281.089913177" xlink:href="#m3572fe6111" y="95.90207161"/>
      </g>
     </g>
    </g>
    <g id="ytick_33">
     <g id="line2d_67">
      <g>
       <use style="stroke:#000000;stroke-width:0.5;" x="281.089913177" xlink:href="#m3572fe6111" y="85.5093201822"/>
      </g>
     </g>
    </g>
    <g id="ytick_34">
     <g id="line2d_68">
      <g>
       <use style="stroke:#000000;stroke-width:0.5;" x="281.089913177" xlink:href="#m3572fe6111" y="75.1165687544"/>
      </g>
     </g>
    </g>
    <g id="ytick_35">
     <g id="line2d_69">
      <g>
       <use style="stroke:#000000;stroke-width:0.5;" x="281.089913177" xlink:href="#m3572fe6111" y="64.7238173265"/>
      </g>
     </g>
    </g>
    <g id="ytick_36">
     <g id="line2d_70">
      <g>
       <use style="stroke:#000000;stroke-width:0.5;" x="281.089913177" xlink:href="#m3572fe6111" y="43.9383144709"/>
      </g>
     </g>
    </g>
    <g id="ytick_37">
     <g id="line2d_71">
      <g>
       <use style="stroke:#000000;stroke-width:0.5;" x="281.089913177" xlink:href="#m3572fe6111" y="33.545563043"/>
      </g>
     </g>
    </g>
    <g id="ytick_38">
     <g id="line2d_72">
      <g>
       <use style="stroke:#000000;stroke-width:0.5;" x="281.089913177" xlink:href="#m3572fe6111" y="23.1528116152"/>
      </g>
     </g>
    </g>
    <g id="ytick_39">
     <g id="line2d_73">
      <g>
       <use style="stroke:#000000;stroke-width:0.5;" x="281.089913177" xlink:href="#m3572fe6111" y="12.7600601873"/>
      </g>
     </g>
    </g>
   </g>
  </g>
 </g>
 <defs>
  <clipPath id="pdd79a14a13">
   <rect height="406.08" width="547.779826353" x="7.2" y="7.2"/>
  </clipPath>
 </defs>
</svg>
